<svg xmlns="http://www.w3.org/2000/svg" width="27.499" height="27"><defs><style>.a{fill:#65b1ef}.b{fill:#e9eff4}</style></defs><g><circle class="a" cx="13.5" cy="13.5" r="13.5"/><path class="b" d="M7.067 25.285c0 .005-.006.009-.009.014.021.005.04.012.061.016z"/><path class="b" d="M6.203 5.908l-.028-.056c.23-.034.245-.2.42-.256.2-.065.131.006.326 0 .158-.007.255.108.435.024a.622.622 0 0 1-.187.183 1.408 1.408 0 0 1-.478.256.468.468 0 0 1-.488-.151z"/><path class="b" d="M8.952 18.163a.7.7 0 0 1-.137.33 3.343 3.343 0 0 0-.481 1.5c-.037.507-.015 1.132-.456 1.381-.252.14-.607.115-.775.352a.785.785 0 0 0-.1.246l-.326 1.185c-.14-.012-.283-.028-.423-.043a.309.309 0 0 1 .181.429.361.361 0 0 0-.454.175.732.732 0 0 0-.025.526 1.536 1.536 0 0 0 1.1 1.057c-.09.171-.367.1-.535-.018a6.406 6.406 0 0 1-2.528-3.447 5.049 5.049 0 0 0-.523-1.435c-.239-.357-.6-.619-.84-.976-.336-.513-.4-1.178-.787-1.647-.218-.268-.554-.6-.361-.883.077-.118.243-.23.177-.355-.022-.04-.065-.065-.1-.1-.131-.14-.04-.361.025-.541a2.113 2.113 0 0 0 .062-.985 2.833 2.833 0 0 1-.747-1.064c-.1-.249-.225-.559-.491-.563-.07-.192-.138-.385-.21-.579a.2.2 0 0 1-.168.121 13.67 13.67 0 0 1 3.453-8.221 1.368 1.368 0 0 0 .131-.069c.469-.274.843-.684 1.3-.983a.492.492 0 0 1 .314-.109c.112.009.218.124.177.23a.239.239 0 0 1-.09.106A9.59 9.59 0 0 1 3.58 4.955a.367.367 0 0 0-.186.156.262.262 0 0 0 .177.332.775.775 0 0 0 .42-.012.678.678 0 0 0-.09.578c.127.012.168-.162.206-.283.155-.482.923-.678.873-1.186.208.108.42-.134.547-.333s.41-.4.566-.224l.03.3.824-.209a.4.4 0 0 0 .373.694c0 .146-.133.258-.252.345a3.444 3.444 0 0 1-.976.572l.081.168a.076.076 0 0 1-.028.007c-.224.022-.46-.139-.7-.108-.146.019-.326.019-.41.168-.012.019-.065.28-.028.258l.389-.224a.637.637 0 0 1 .028.339.761.761 0 0 1 .464.1.922.922 0 0 1-.892.538c0-.112-.009-.224-.013-.336a.832.832 0 0 0-.706.5 2 2 0 0 1-.528.734 4.692 4.692 0 0 1-.513.233.465.465 0 0 0-.282.445 1.3 1.3 0 0 1 .069.258c-.009.168-.2.246-.336.355-.224.187-.28.529-.519.694a2.067 2.067 0 0 1-.607.181c-.2.062-.4.264-.323.46a.18.18 0 0 1-.231-.146 6.824 6.824 0 0 0-.689 2.252c.177.124.357-.159.392-.373s.224-.495.4-.367c-.04.308-.081.613-.12.921a.272.272 0 0 0 .013.174c.034.065.108.093.165.139.158.137.137.38.146.588a1.5 1.5 0 0 0 .227.721 1.553 1.553 0 0 1-.031-.131.87.87 0 0 0 .678-.209 1.014 1.014 0 0 1 .3-.243.643.643 0 0 1 .389.022 2.073 2.073 0 0 1 1.079.54 3.36 3.36 0 0 0 .377.488c.361.3.971.17 1.3.509a1.23 1.23 0 0 1 .137 1.09c-.181-.1-.423.15-.317.327a.519.519 0 0 1 .349-.218c.143 0 .268.193.162.283a.573.573 0 0 1 .954.208c.349.025.7.049 1.048.077-.063.512 1.004.542.986 1.056z"/><path class="b" d="M6.83 3.775a.267.267 0 1 1-.178-.5c.092-.022.22-.011.249-.1a.288.288 0 0 0 0-.086.394.394 0 0 1 .313-.355 1.156 1.156 0 0 1 .505.023.627.627 0 0 1 .048.4l-.343.015c.01.19-.009.429-.185.5-.158.063-.365-.054-.5.052"/><path class="b" d="M8.615 1.875c.312-.15.577-.386.885-.544a4.068 4.068 0 0 1 1.744-.315L15.31.889l-.943.517a1.144 1.144 0 0 1-.83.206.44.44 0 0 0 .427.435c-.557.344-1.33-.008-1.917.281-.246.121-.445.35-.716.393-.157.025-.319-.017-.475.017-.261.057-.425.3-.618.488a.859.859 0 0 1-.838.256c-.29-.1-.441-.533-.209-.734a1.949 1.949 0 0 1 .413-.185c.135-.069.242-.254.14-.367-.044-.049-.116-.068-.157-.12s-.04-.138-.076-.2c-.138-.242-.521.083-.781-.014"/><path class="b" d="M12.727 3.019a2.736 2.736 0 0 0 .514-.23.641.641 0 0 1 .543-.042c.05.125-.094.238-.22.283a1.541 1.541 0 0 1-.76.066"/><path class="b" d="M23.814 4.387a.438.438 0 0 1-.156-.009 1.947 1.947 0 0 1-.61-.361 1.621 1.621 0 0 0-1.586-.1.949.949 0 0 0 .164-.591l-.071.025a3.323 3.323 0 0 0-2.659-.645c-.206.075-.392.187-.6.258a2.461 2.461 0 0 0-.656.246c-.193.137-.3.439-.13.6.14.14.364.1.56.121s.414.211.308.376l-2.558 1.2a.874.874 0 0 1 .566.976c-.287.05-.563-.124-.852-.143a.786.786 0 1 0-.036 1.571c.314 0 .622-.193.927-.113a1.186 1.186 0 0 1 .41-.734 1.5 1.5 0 0 1 1.474-.554 1.674 1.674 0 0 1 .46.292q.471.373.943.752c.1-.1.2-.206.3-.3l.516.544c.087-.059.177-.115.264-.175.062.162.127.32.19.482.025-.177.046-.351.068-.526a1.269 1.269 0 0 0 .609-.081.426.426 0 0 0 .245-.507c-.04-.1-.137-.183-.156-.293-.04-.218.27-.367.472-.268a.934.934 0 0 1 .383.532c.046-.212.09-.42.137-.632a5 5 0 0 0 .824 1.41 3.386 3.386 0 0 0-1.906.194 1 1 0 0 0 .843.413c.146 0 .308-.037.42.056a.45.45 0 0 1 .121.293c.05.3.1.594.146.889a2 2 0 0 0-1.26-.254c-.439-.012-.952-.133-1.114-.54a.88.88 0 0 0-.2.738c-.454-.108-.977-.282-1.108-.731a.706.706 0 0 1-.892-.46c-.034-.127-.044-.283-.156-.351a.379.379 0 0 0-.237-.025c-.675.078-1.347.153-2.018.231a2.874 2.874 0 0 0-1.07.268.972.972 0 0 0-.544.893 4.193 4.193 0 0 0-1.5 1.525.933.933 0 0 0-.164.632c.031.168.143.311.177.476a1.958 1.958 0 0 1-.17.836c-.193.8.411 1.546.972 2.148a1.524 1.524 0 0 0 .955.6 1.755 1.755 0 0 0 .69-.184 5.006 5.006 0 0 1 2.024-.34c-.156.121.006.386.2.426a4.575 4.575 0 0 1 .588.043c.426.152.367.777.175 1.185l.3-.056c-.052.137-.106.274-.158.407.584.074.806.842.67 1.417a8.42 8.42 0 0 0-.485 1.7 3.016 3.016 0 0 0 .2.945l.748 2.344c.7.083 1.1-.8 1.744-1.08a2.293 2.293 0 0 0 .719-.308c.183-.174.124-.582-.112-.582a.7.7 0 0 0 .6-.651c0-.09-.009-.181 0-.27a.9.9 0 0 1 .18-.349 11.35 11.35 0 0 0 1.134-2.324c.083-.215.168-.426.251-.641.317-.8.631-1.6.948-2.395l.373-.94a.6.6 0 0 1-.874.034 4.3 4.3 0 0 1-.595-.8 2.391 2.391 0 0 1-.483-.706 4.228 4.228 0 0 1-.065-.495 3.765 3.765 0 0 0-.46-.979.977.977 0 0 1-.019-1.027 39.367 39.367 0 0 1 1.787 3.52.762.762 0 0 1 .37-.439 4.293 4.293 0 0 1 .4-.152 1 1 0 0 0-.007-1.831 3.8 3.8 0 0 1-.547-.2.38.38 0 0 1-.183-.491.391.391 0 0 1 .5-.065c.165.09.287.243.441.345.112.075.243.124.364.193a2.675 2.675 0 0 1 .956 1.978c.075.4.159.8.259 1.191v-.255a13.7 13.7 0 0 0-3.678-9.352zm1.259 4.518a.486.486 0 0 1-.246-.121.677.677 0 0 1-.271-.349c-.04-.174.043-.373-.05-.528a.705.705 0 0 0-.187-.174.977.977 0 0 1-.343-.544c-.04-.187.018-.435.208-.466a.221.221 0 0 1 .23.118l-.127.069a.294.294 0 0 1 .15.488c-.022.022-.05.04-.05.071a.067.067 0 0 0 .028.05 1.729 1.729 0 0 0 .507.292c.174.09.345.258.318.451l-.164.062c-.059.059-.012.165.05.224s.143.118.146.2a.18.18 0 0 1-.2.154z"/><path class="b" d="M25.161 18.472l-.225.159a.608.608 0 0 1-.344.706c-.14.057-.327.082-.374.225-.04.122.055.246.068.373.021.212-.177.37-.32.528s-.219.454-.028.548a.388.388 0 0 0 .144.031.893.893 0 0 0 .6-.1c.484-.345.024-1.281.5-1.636.068-.05.153-.086.19-.162.115-.218-.3-.44-.211-.672z"/></g></svg>