<svg width="522" height="522" viewBox="0 0 522 522" fill="none" xmlns="http://www.w3.org/2000/svg">
<mask id="mask0_101_7" style="mask-type:alpha" maskUnits="userSpaceOnUse" x="0" y="0" width="522" height="522">
<path d="M522 261C522 116.854 405.146 0 261 0C116.854 0 0 116.854 0 261C0 405.146 116.854 522 261 522C405.146 522 522 405.146 522 261Z" fill="white"/>
</mask>
<g mask="url(#mask0_101_7)">
<path d="M864.562 -57.0938H-342.562V546.469H864.562V-57.0938Z" fill="#F7E017"/>
<path d="M-342.562 -15.1794V253.07L864.562 378.813V236.305L-342.562 -15.1794Z" fill="white"/>
<path d="M-342.562 127.328V253.07L864.562 504.555V378.812L-342.562 127.328Z" fill="black"/>
<path d="M240.665 420.492C224.436 418.337 209.556 413.174 199.22 406.099C197.217 404.724 195.331 403.601 195.037 403.601C194.735 403.601 194.492 405.127 194.492 407.012C194.492 412.352 192.346 415.043 186.948 416.444C181.784 417.784 173.904 415.077 167.516 409.779C160.902 404.288 153.266 400.097 146.803 398.42C141.48 397.028 134.413 397.255 129.308 398.965C126.936 399.762 124.236 400.885 123.297 401.463C122.367 402.041 121.319 402.511 120.983 402.511C120.078 402.511 120.204 396.769 121.151 394.933C122.4 392.527 125.477 390.154 129.064 388.847C130.875 388.185 132.359 387.338 132.359 386.961C132.359 386.583 131.747 385.2 131.001 383.901C128.57 379.642 129.568 375.518 133.809 372.274C138.151 368.955 145.503 368.384 152 370.857C153.634 371.478 155.16 371.989 155.386 371.989C156.242 371.989 155.722 370.791 153.366 367.362C150.65 363.388 150.114 361.426 150.449 356.699C150.885 350.713 155.764 345.818 161.741 345.382C166.62 345.03 169.654 346.673 176.855 353.53C198.357 374.034 221.737 385.335 249.006 388.394C255.888 389.166 269.737 388.755 277.86 387.53C302.396 383.834 327.117 371.494 346.423 353.313C351.771 348.274 354.344 346.941 358.729 346.925C362.543 346.907 365.217 348.14 367.95 351.158C370.44 353.924 371.286 356.548 371.018 360.748C370.842 363.438 370.405 364.763 368.804 367.37C366.441 371.218 366.843 371.57 371.52 369.76C377.842 367.295 385.629 368.435 389.829 372.425C393.526 375.937 393.878 379.45 391.002 384.211C389.954 385.955 389.1 387.589 389.1 387.849C389.1 388.327 389.896 388.553 393.736 389.174C398.757 389.979 401.632 393.709 401.632 399.409C401.632 401.12 401.422 402.511 401.163 402.511C400.911 402.511 399.008 401.815 396.938 400.96C391.086 398.545 387.758 397.926 380.918 397.967C375.712 398.001 373.918 398.244 370.289 399.426C364.73 401.245 358.787 404.749 353.942 409.066C348.602 413.828 345.241 415.329 340.043 415.286C335.215 415.236 331.912 413.836 330.168 411.078C329.238 409.603 329.104 408.706 329.33 405.37C329.481 403.199 329.447 401.421 329.271 401.421C329.087 401.421 327.209 402.611 325.089 404.079C319.522 407.901 315.976 409.795 309.606 412.319C290.174 420.006 262.134 423.334 240.665 420.492Z" fill="#CF1126"/>
<path d="M249.556 383.147C217.215 380.043 186.271 363.198 167.455 336.491C147.026 308.631 140.589 271.845 146.825 238.211C150.139 222.898 156.824 207.575 168.237 196.671C159.142 215.954 156.069 238.056 160.92 258.946C168.455 300.653 203.702 335.959 245.871 342.067C262.553 346.897 279.81 341.796 295.746 336.624C330.898 324.235 357.677 290.868 360.944 253.568C363.741 233.384 360.643 212.396 351.55 194.12C356.732 196.861 363.275 207.606 367.132 214.832C380.548 240.821 381.16 271.964 373.263 299.699C362.549 334.989 335.569 365.905 299.904 377.141C283.718 382.429 266.505 384.042 249.558 383.15L249.556 383.147Z" fill="#CF1126"/>
<path d="M86.6544 336.815C84.5354 336.483 82.1978 338.568 82.9972 340.753C84.5256 342.96 87.1585 344.039 89.5344 345.094C95.2275 347.376 101.42 348.265 107.533 348.117C105.426 348.111 108.256 348.138 109.043 348.116C113.883 348.13 118.697 347.258 123.247 345.618C125.777 344.728 129.001 343.92 130.038 341.122C131.05 339.299 129.216 337.479 127.367 337.844C124.792 338.406 122.385 339.574 119.832 340.24C114.322 341.793 108.52 342.394 102.812 341.925C98.6376 341.417 94.5937 340.081 90.7317 338.453C89.3933 337.862 88.1364 337.001 86.6544 336.815Z" fill="#CF1126"/>
<path d="M89.014 328.113C86.8714 327.794 85.0256 330.26 85.9187 332.227C87.5663 334.615 90.3345 335.886 92.9233 337.005C97.4256 338.806 102.316 339.559 107.154 339.415C105.316 339.41 107.784 339.436 108.466 339.414C112.579 339.419 116.671 338.606 120.473 337.041C122.799 336.137 125.645 335.26 126.614 332.701C127.365 331.296 126.792 329.251 125.021 329.141C123.404 329.061 122.009 330.089 120.513 330.552C115.077 332.8 109.094 333.752 103.232 333.246C99.5804 332.776 96.0912 331.428 92.7789 329.867C91.5343 329.266 90.4144 328.328 89.014 328.113Z" fill="#CF1126"/>
<path d="M91.903 319.772C90.0662 319.552 88.8028 321.625 89.1119 323.278C89.386 324.731 90.6901 325.708 91.7684 326.598C96.2364 329.865 101.898 331.257 107.383 331.074C105.252 331.067 110.241 331.109 108.72 331.069C112.193 331.054 115.625 330.204 118.75 328.7C120.836 327.793 123.287 326.743 123.99 324.36C124.326 323.251 124.536 321.656 123.285 321.032C121.973 320.3 120.672 321.427 119.48 321.884C115.466 323.927 110.992 325.064 106.481 325.043C102.582 325.174 98.9084 323.535 95.526 321.767C94.2985 321.143 93.2871 320.055 91.903 319.772Z" fill="#CF1126"/>
<path d="M61.0988 196.654C58.3681 199.388 60.4532 204.426 60.3055 208.007C61.7205 219.037 63.4785 230.208 67.5961 240.591C72.6383 250.736 83.3479 256.16 89.8378 265.125C92.1583 269.447 91.3345 274.645 91.8231 279.371C92.2072 292.252 92.0882 305.142 91.863 318.025C97.6793 320.944 103.996 323.882 110.687 322.759C114.652 321.812 122.014 321.223 122.839 317.274C122.518 295.06 122.31 272.836 122.015 250.625C119.76 243.82 112.835 240.298 107.656 235.944C103.381 231.73 99.4043 227.196 95.7625 222.449C93.5644 218.745 84.9751 217.411 88.0826 223.854C89.9047 229.431 94.5546 233.586 95.7185 239.447C95.973 242.659 99.808 248.567 96.5349 250.441C94.4526 246.902 91.4356 243.89 87.5802 242.094C83.8642 239.323 77.7227 238.171 76.3815 233.278C75.3969 226.337 71.8421 220.047 67.2551 214.847C68.4372 208.612 67.2593 200.817 61.8705 196.832L61.0984 196.654H61.0983H61.0988Z" fill="#CF1126"/>
<path d="M69.4079 197.903C66.9242 198.305 67.0087 201.469 68.158 203.134C69.3805 206.728 69.7134 210.632 69.0515 214.374C73.4672 219.543 76.8867 225.727 77.9172 232.514C77.9423 235.066 80.6271 235.911 82.3676 237.172C86.4514 239.771 91.0425 241.657 94.6786 244.911C95.4437 245.729 96.0211 246.61 95.4804 244.94C94.9127 242.806 94.6215 240.449 92.9487 238.833C90.6559 236.37 87.7931 234.17 84.4539 233.419C84.1758 229.97 82.5331 226.802 81.0157 223.751C79.3336 220.835 77.5765 217.711 74.6944 215.819C74.8104 210.708 74.7267 205.345 72.5269 200.628C71.8817 199.416 70.9315 197.977 69.4087 197.903H69.4079Z" fill="#CF1126"/>
<path d="M76.3547 199.94C74.6243 200.454 74.9551 202.587 75.5031 203.893C76.3321 207.511 76.4617 211.248 76.3942 214.946C79.5722 217.46 81.5601 221.107 83.3699 224.657C84.5045 227.03 85.5803 229.479 86.015 232.089C88.594 232.943 90.85 234.559 92.8646 236.345C92.0661 233.929 90.2856 232.059 89.0891 229.854C87.7882 227.559 86.546 225.166 85.9954 222.567C83.5159 219.92 82.1506 216.171 82.6921 212.548C82.8031 208.544 81.5107 204.407 78.8311 201.389C78.1563 200.725 77.3508 199.99 76.3547 199.94H76.3547Z" fill="#CF1126"/>
<path d="M84.2606 201.072C83.3193 201.238 82.7468 202.133 82.2435 202.863C82.0486 203.595 82.9458 204.382 83.0885 205.177C84.1888 207.936 84.6039 210.963 84.2752 213.916C84.2027 216.013 84.953 218.062 86.0223 219.839C86.3306 218.529 87.5451 217.587 88.8615 217.458C89.3403 217.374 90.0433 217.615 89.7644 216.885C89.43 212.874 88.8191 208.84 87.417 205.05C86.8738 203.696 86.2564 202.271 85.0835 201.344C84.8454 201.176 84.5615 201.03 84.2606 201.072Z" fill="#CF1126"/>
<path d="M435.353 336.815C437.473 336.483 439.809 338.568 439.01 340.753C437.482 342.96 434.85 344.039 432.474 345.094C426.781 347.376 420.588 348.265 414.475 348.117C416.582 348.111 413.752 348.138 412.965 348.116C408.125 348.13 403.311 347.258 398.761 345.618C396.231 344.728 393.007 343.92 391.97 341.122C390.958 339.299 392.792 337.479 394.641 337.844C397.215 338.406 399.623 339.574 402.177 340.24C407.686 341.793 413.488 342.394 419.196 341.925C423.37 341.417 427.414 340.081 431.276 338.453C432.615 337.862 433.872 337.001 435.354 336.815H435.353Z" fill="#CF1126"/>
<path d="M432.994 328.113C435.137 327.794 436.983 330.26 436.089 332.227C434.442 334.615 431.674 335.886 429.084 337.005C424.583 338.806 419.692 339.559 414.855 339.415C416.691 339.41 414.223 339.436 413.542 339.414C409.429 339.419 405.337 338.606 401.534 337.041C399.209 336.137 396.363 335.26 395.395 332.701C394.643 331.296 395.216 329.251 396.987 329.141C398.604 329.061 399.999 330.089 401.496 330.552C406.932 332.8 412.914 333.752 418.775 333.246C422.428 332.776 425.917 331.428 429.229 329.867C430.474 329.266 431.594 328.328 432.994 328.113Z" fill="#CF1126"/>
<path d="M430.105 319.772C431.942 319.552 433.205 321.625 432.895 323.278C432.621 324.731 431.318 325.708 430.239 326.598C425.772 329.865 420.11 331.257 414.625 331.074C416.756 331.067 411.767 331.109 413.289 331.069C409.815 331.054 406.383 330.204 403.258 328.7C401.172 327.793 398.722 326.743 398.018 324.36C397.682 323.251 397.471 321.656 398.723 321.032C400.034 320.3 401.336 321.427 402.528 321.884C406.543 323.927 411.015 325.064 415.527 325.043C419.426 325.174 423.1 323.535 426.482 321.767C427.71 321.143 428.721 320.055 430.104 319.772H430.105Z" fill="#CF1126"/>
<path d="M460.909 196.654C463.64 199.388 461.555 204.426 461.702 208.007C460.287 219.037 458.53 230.208 454.412 240.591C449.369 250.736 438.659 256.16 432.17 265.125C429.85 269.447 430.674 274.645 430.184 279.371C429.801 292.252 429.92 305.142 430.145 318.025C424.329 320.944 418.012 323.882 411.32 322.759C407.355 321.812 399.994 321.223 399.169 317.274C399.49 295.06 399.698 272.836 399.993 250.625C402.248 243.82 409.173 240.298 414.352 235.944C418.627 231.73 422.604 227.196 426.246 222.449C428.443 218.745 437.032 217.411 433.926 223.854C432.103 229.431 427.454 233.586 426.289 239.447C426.035 242.659 422.2 248.567 425.473 250.441C427.555 246.902 430.572 243.89 434.428 242.094C438.143 239.323 444.286 238.171 445.626 233.278C446.611 226.337 450.166 220.047 454.753 214.847C453.571 208.612 454.748 200.817 460.137 196.832L460.91 196.654H460.909Z" fill="#CF1126"/>
<path d="M452.6 197.903C455.084 198.305 455 201.469 453.85 203.134C452.628 206.728 452.294 210.632 452.957 214.374C448.541 219.543 445.122 225.727 444.091 232.514C444.065 235.066 441.381 235.911 439.641 237.172C435.557 239.771 430.966 241.657 427.33 244.911C426.565 245.729 425.987 246.61 426.528 244.94C427.095 242.806 427.387 240.449 429.06 238.833C431.352 236.37 434.215 234.17 437.554 233.419C437.832 229.97 439.475 226.802 440.992 223.751C442.675 220.835 444.432 217.711 447.313 215.819C447.197 210.708 447.281 205.345 449.481 200.628C450.126 199.416 451.077 197.977 452.599 197.903H452.6Z" fill="#CF1126"/>
<path d="M445.653 199.94C447.383 200.454 447.053 202.587 446.505 203.893C445.676 207.511 445.547 211.248 445.614 214.946C442.436 217.46 440.448 221.107 438.638 224.657C437.504 227.03 436.428 229.479 435.992 232.089C433.414 232.943 431.158 234.559 429.143 236.345C429.941 233.929 431.722 232.059 432.919 229.854C434.219 227.559 435.462 225.166 436.013 222.567C438.492 219.92 439.858 216.171 439.316 212.548C439.204 208.544 440.497 204.407 443.177 201.389C443.852 200.725 444.658 199.99 445.653 199.94Z" fill="#CF1126"/>
<path d="M437.748 201.072C438.689 201.238 439.261 202.133 439.765 202.863C439.96 203.595 439.062 204.382 438.92 205.177C437.819 207.936 437.404 210.963 437.733 213.916C437.805 216.013 437.054 218.062 435.986 219.839C435.678 218.529 434.463 217.587 433.147 217.458C432.668 217.374 431.964 217.615 432.243 216.885C432.577 212.874 433.189 208.84 434.591 205.05C435.134 203.696 435.752 202.271 436.925 201.344C437.162 201.176 437.447 201.03 437.748 201.072Z" fill="#CF1126"/>
<path d="M257.37 341.912C246.059 340.834 235.854 332.59 232.366 321.793C232.553 319.933 234.869 322.833 235.963 323.028C238.017 324.169 240.238 325.107 242.604 325.253C245.585 326.535 247.429 329.473 250.275 331.006C251.597 332.035 256.273 334.058 255.404 330.785C254.308 329.075 253.555 326.908 254.498 324.949C256.083 321.47 258.523 318.441 260.978 315.538C262.783 314.935 263.991 318.494 265.282 319.694C267.068 322.442 269.222 325.796 268.171 329.21C267.149 330.475 266.477 334.279 269.212 333.001C272.583 331.517 275.344 329.026 278.14 326.699C280.586 324.99 283.718 324.869 286.282 323.371C287.47 323.07 289.946 320.693 290.462 322.011C289.057 325.773 286.704 329.142 284.19 332.247C280.117 336.9 274.606 340.399 268.442 341.386C264.798 342.053 261.06 342.194 257.37 341.912Z" fill="#CF1126"/>
<path d="M270.673 328.7C270.921 326.43 270.404 324.111 269.244 322.049C267.465 318.422 264.952 315.203 262.5 312.021C260.188 310.668 258.906 315.088 257.37 316.357C254.975 319.942 251.968 323.613 251.823 328.123C250.475 330.22 247.963 326.412 246.88 325.159C244.812 322.232 243.246 318.771 243.502 315.11C243.257 309.212 244.388 303.34 246.537 297.858C248.159 293.178 250.792 288.632 250.524 283.519C250.712 279.671 249.931 275.423 246.814 272.836C243.847 270.509 248.735 270.013 250.287 271.219C252.943 271.398 254.38 275.786 256.806 274.699C257.773 272.407 257.965 269.673 259.958 267.885C261.914 265.205 263.959 269.022 264.628 270.809C266.009 272.378 264.55 276.263 266.793 276.365C269.48 274.481 271.397 271.316 274.833 270.627C276.226 269.832 278.608 270.521 276.771 272.123C274.227 274.508 272.054 277.489 271.591 281.035C270.814 285.484 271.926 289.996 273.865 294.003C277.592 301.875 280.475 310.765 278.59 319.524C277.715 323.417 275.07 326.771 271.857 329.031C271.451 329.276 270.81 329.259 270.673 328.7Z" fill="#CF1126"/>
<path d="M266.648 269.526C265.427 267.326 263.946 265.158 261.892 263.662C259.896 263.658 258.665 266.176 257.309 267.495C256.358 269.264 255.203 272.222 252.862 269.909C249.136 267.735 248.477 262.972 248.501 259.047C248.266 252.683 250.829 246.745 253.105 240.95C254.553 237.322 254.196 233.239 253.313 229.522C252.201 225.253 248.775 222.293 246.137 218.964C246.316 217.676 249.687 218.379 250.956 218.624C253.771 219.338 255.455 221.83 257.553 223.591C259.047 223.139 258.437 220.122 259.132 218.702C259.184 216.705 261.843 214.072 262.939 216.931C264.581 218.748 262.887 222.35 265.008 223.482C267.03 222.733 268.027 220.525 269.926 219.525C271.795 218.251 274.434 218.109 276.446 219.109C277.154 220.964 274.233 222.508 273.387 224.12C269.991 228.315 268.797 234.103 270.252 239.303C271.405 243.381 273.448 247.187 274.154 251.403C275.003 256.14 274.974 261.117 273.748 265.786C273.015 268.621 270.561 270.514 268.026 271.692C267.4 271.11 267.071 270.255 266.648 269.527V269.526Z" fill="#CF1126"/>
<path d="M253.974 216.933C251.158 214.871 250.227 212.901 250.227 209.002C250.227 207.007 250.596 205.926 251.912 204.115C253.849 201.433 253.496 200.586 250.755 201.375C246.346 202.64 244.241 201.483 244.09 197.728C244.024 195.892 244.409 195.112 246.882 192.145C248.86 189.764 249.581 188.515 249.187 188.121C248.802 187.736 246.463 189.764 241.66 194.651C237.829 198.549 233.52 202.531 232.087 203.503C223.838 209.07 215.958 209.933 212.362 205.649C210.518 203.462 210.618 202.229 212.748 200.905C213.728 200.301 215.38 198.91 216.428 197.812C218.901 195.238 226.269 189.923 229.924 188.079C232.891 186.578 233.596 185.564 231.668 185.564C229.169 185.564 221.155 190.778 215.078 196.361C213.292 198.013 210.719 199.849 209.369 200.444C206.334 201.785 200.375 202.28 197.725 201.408C195.856 200.787 192.444 197.568 192.444 196.42C192.444 196.118 193.224 195.447 194.171 194.936C195.119 194.434 196.82 193.201 197.943 192.22C202.805 187.953 212.018 183.56 219.328 182.026C221.65 181.54 220.795 180.367 218.205 180.484C213.183 180.703 203.216 185.371 197.265 190.284C190.29 196.035 179.769 195.49 176.383 189.202C175.796 188.121 175.452 187.107 175.62 186.948C175.779 186.788 177.849 186.168 180.222 185.564C182.787 184.919 187.867 182.815 192.721 180.392C200.357 176.586 202.621 175.773 207.877 174.926C210.241 174.549 210.367 173.392 208.07 173.124C205.111 172.772 200.575 174.256 192.562 178.196C182.268 183.259 179.384 184.131 173.96 183.813C169.015 183.511 166.223 182.245 162.207 178.447C159.584 175.957 155.862 169.637 156.591 168.908C156.767 168.732 157.974 168.908 159.274 169.285C160.716 169.712 164.848 169.997 169.828 170.006C176.793 170.023 178.646 169.838 182.36 168.765C188.572 166.972 196.828 162.771 202.478 158.555C213.284 150.474 222.094 147.229 233.327 147.18C243.697 147.137 250.294 149.535 256.137 155.461C258.115 157.465 259.8 158.765 260.077 158.487C260.337 158.228 260.622 154.724 260.706 150.7C260.706 150.7 263.757 150.407 264.402 151.262C264.402 157.792 264.478 158.303 265.425 158.303C266.045 158.303 266.708 157.666 267.118 156.677C268.007 154.54 271.293 151.614 274.805 149.837C282.392 145.989 295.52 145.871 306.065 149.551C310.508 151.111 315.437 153.894 320.131 157.515C324.842 161.137 334.474 165.982 340.166 167.6C345.925 169.235 356.077 169.645 361.283 168.463C363.429 167.977 365.441 167.575 365.759 167.575C367.679 167.575 364.409 173.971 360.57 177.718C353.554 184.575 344.425 184.542 331.583 177.617C323.576 173.309 314.003 170.953 314.003 173.3C314.003 173.786 314.507 174.113 315.252 174.113C318.036 174.113 323.409 175.983 330.903 179.537C339.01 183.393 343.562 185.02 346.261 185.02C348.222 185.02 348.281 186.235 346.453 188.918C344.517 191.776 341.231 193.192 336.586 193.184C332.152 193.168 329.688 192.195 325.722 188.9C319.092 183.384 302.569 177.232 303.206 180.517C303.332 181.172 304.129 181.574 305.83 181.834C311.581 182.714 318.329 185.933 325.236 191.105C327.366 192.706 329.579 194.283 330.141 194.618C331.087 195.171 331.105 195.339 330.358 196.739C329.118 199.052 325.991 200.846 322.604 201.198C318.22 201.651 314.406 200.343 310.458 197.04C302.125 190.066 294.27 185.02 291.756 185.02C289.702 185.02 290.624 186.151 294.245 188.071C299.006 190.594 303.902 194.005 307.507 197.317C309.208 198.893 311.128 200.452 311.765 200.795C313.274 201.6 313.215 202.782 311.556 204.954C309.862 207.167 307.062 208.139 303.433 207.754C296.19 206.991 290.54 203.495 281.662 194.283C278.192 190.686 275.099 187.744 274.78 187.744C273.598 187.744 274.294 189.345 276.583 191.91C279.416 195.079 279.961 196.864 278.887 199.437C277.941 201.718 276.365 202.246 273.129 201.375C269.818 200.477 269.298 201.291 271.469 203.989C274.705 208.022 274.227 212.959 270.262 216.354C269.03 217.402 267.739 218.265 267.386 218.265C267.043 218.265 266.171 217.369 265.442 216.27C262.893 212.398 260.655 212.423 258.174 216.337C257.31 217.704 256.581 218.81 256.556 218.802C256.522 218.794 255.357 217.955 253.974 216.933Z" fill="#CF1126"/>
<path d="M266.592 138.251L262.291 141.655L258.435 138.746V161.999L266.592 162.1V138.251Z" fill="#CF1126"/>
<path d="M239.957 114.126C239.102 125.115 236.31 132.785 232.429 141.243L241.734 132.618L248.205 140.305L255.214 132.484L262.365 139.089L269.238 132.215L276.38 140.573L282.584 133.699L293.096 141.243C289.282 132.785 284.118 125.619 284.763 113.714C274.578 121.284 250.376 122.65 239.957 114.126Z" fill="#CF1126"/>
<path d="M258.445 108.517C254.706 108.584 250.766 108.635 247.22 109.33C244.764 109.817 242.534 110.613 240.673 111.929C240.975 119.08 275.043 122.064 284.18 112.064C282.26 110.663 279.913 109.834 277.331 109.33C273.919 108.668 270.147 108.601 266.567 108.543C266.567 110.504 266.585 112.474 266.585 114.444L258.445 114.419V108.517Z" fill="#CF1126"/>
<path d="M265.111 71.9766L259.821 72.0185V113.413L265.22 113.438L265.111 71.9766Z" fill="#CF1126"/>
<path d="M265.099 73.0408L263.079 92.8581L283.465 102.817L273.146 89.0181L287.238 84.4498L265.099 73.0408Z" fill="#CF1126"/>
<path d="M262.829 67.8774C259.736 67.8774 257.448 69.0343 257.448 70.4091C257.448 71.7839 259.736 72.9491 262.829 72.9491C265.922 72.9491 268.195 71.7839 268.195 70.4091C268.195 69.0343 265.922 67.8774 262.829 67.8774Z" fill="#CF1126"/>
<path d="M253.497 415.545C256.842 414.439 258.745 412.41 260.111 408.503C260.79 406.559 261.251 404.539 261.134 404.011C260.849 402.761 259.407 402.828 257.814 404.153C256.725 405.067 256.591 405.528 256.901 407.389C257.697 412.083 256.029 413.249 247.143 414.204C246.263 414.296 243.715 414.145 241.467 413.869C237.243 413.341 235.734 413.76 237.268 415.034C237.729 415.42 238.902 415.939 239.875 416.182C242.247 416.794 250.957 416.384 253.497 415.545Z" fill="#F7E017"/>
<path d="M271.918 414.766C272.421 414.305 274.148 413.508 275.757 412.988C277.903 412.301 279.01 411.564 279.915 410.214C282.522 406.333 282.036 402.988 278.205 398.478C276.127 396.03 275.204 396.097 273.544 398.813C272.111 401.16 272.145 401.311 274.207 401.848C275.288 402.124 276.327 402.92 276.897 403.902C279.144 407.791 278.482 410.197 275.154 410.222C272.136 410.247 271.306 410.675 270.493 412.628C270.066 413.643 269.722 414.724 269.722 415.034C269.722 415.855 270.862 415.713 271.918 414.766Z" fill="#F7E017"/>
<path d="M265.873 410.374C266.444 408.831 266.644 406.056 266.577 400.398C266.536 396.089 266.368 392.434 266.2 392.267C265.697 391.763 263.216 393.365 262.889 394.395C262.721 394.932 262.998 396.173 263.501 397.145C264.272 398.646 264.373 400.045 264.138 405.922C263.836 413.349 264.322 414.599 265.873 410.374Z" fill="#F7E017"/>
<path d="M251.686 406.835C251.988 405.453 252.374 402.619 252.549 400.549C252.726 398.478 253.153 395.863 253.488 394.731C254.344 391.83 253.48 391.068 251.191 392.694L249.49 393.909L249.842 398.076C250.169 401.832 249.574 408.83 248.71 411.546C248.475 412.267 248.811 412.083 249.758 410.977C250.521 410.088 251.393 408.219 251.686 406.835Z" fill="#F7E017"/>
<path d="M239.107 408.856C242.168 406.295 241.816 401.923 242.493 398.361C242.424 395.992 244.006 393.153 242.985 391.082C240.125 391.605 238.362 394.314 239.826 397.013C239.948 400.146 239.837 403.557 238.226 406.328C236.91 408.14 232.742 407.689 232.934 405.121C233.98 401.259 229.353 403.138 227.546 404.151C226.15 405.123 223.202 405.194 224.227 402.762C223.551 399.521 219.382 401.549 217.117 401.534C214.978 401.495 216.94 397.199 213.87 397.953C208.165 397.504 201.866 398.004 196.928 394.557C194.037 393.167 194.466 389.691 195.971 387.441C197.769 384.369 198.281 380.526 201.134 378.142C203.958 375.434 198.47 376.577 197.234 377.49C194.483 378.996 197.039 382.874 194.788 385.025C193.472 387.255 191.74 390.336 188.693 389.912C184.301 389.081 181.769 384.995 178.619 382.257C175.922 381.718 177.438 386.634 178.831 387.667C181.587 389.731 184.808 391.235 188.13 392.126C191.436 391.597 191.543 395.926 194.37 396.606C199.557 399.022 205.338 399.746 210.996 400.041C213.218 400.226 211.969 404.185 214.89 403.402C216.523 403.826 220.211 402.795 220.397 404.692C217.921 407.631 222.772 407.565 224.568 407.038C226.866 406.688 229.803 405.809 230.411 408.961C232.33 410.984 235.853 410.685 238.19 409.528C238.518 409.337 238.826 409.113 239.107 408.856V408.856Z" fill="#F7E017"/>
<path d="M189.012 383.481C189.942 382.299 191.334 379.91 192.105 378.166C192.868 376.414 194.016 374.427 194.645 373.749C196.12 372.156 195.299 371.175 192.918 371.703C191.66 371.98 191.149 372.441 190.939 373.531C190.227 377.085 188.936 380.723 187.788 382.416C185.709 385.485 185.658 385.61 186.514 385.61C186.958 385.61 188.082 384.654 189.012 383.481Z" fill="#F7E017"/>
<path d="M157.609 363.798C155.262 363.798 155.16 365.283 157.449 366.079C158.556 366.464 159.495 367.395 160.249 368.912C162.479 373.347 163.786 374.135 169.705 374.646L173.502 374.989L173.686 377.295C173.779 378.569 174.08 379.625 174.374 379.625C174.668 379.625 176.134 378.988 177.619 378.234C180.402 376.825 183.042 373.539 183.042 371.502C183.042 370.169 180.821 368.728 178.8 368.728C177.903 368.728 176.193 369.449 174.844 370.429C170.619 373.489 166.1 372.869 163.627 368.887C161.599 365.601 159.477 363.798 157.609 363.798ZM178.113 371.971C179.236 371.971 179.512 372.802 178.901 374.386C178.482 375.475 177.115 375.509 176.704 374.436C176.218 373.17 176.898 371.971 178.113 371.971Z" fill="#F7E017"/>
<path d="M337.156 366.816C335.622 366.875 335.169 367.21 334.196 368.652C332.604 371.016 332.444 376.138 333.911 377.948C334.825 379.071 334.959 379.097 336.896 378.292C339.594 377.16 340.047 377.202 340.039 378.652C340.023 382.358 334.707 389.5 329.141 393.298C327.641 394.32 326.3 395.46 326.157 395.837C325.755 396.894 327.817 396.659 330.349 395.368C333.802 393.608 338.338 388.98 340.198 385.334C341.673 382.425 341.883 381.435 342.059 376.347C342.218 371.662 342.093 370.286 341.297 368.727C340.408 366.975 340.123 366.816 337.893 366.816C337.625 366.816 337.382 366.808 337.156 366.816ZM337.34 370.085C338.497 370.085 338.698 370.345 338.832 372.005C338.949 373.38 338.706 374.218 337.944 374.905C336.904 375.844 336.82 375.836 335.898 374.436C334.607 372.458 335.403 370.085 337.34 370.085Z" fill="#F7E017"/>
<path d="M311.89 405.864C316.794 403.45 319.686 400.734 321.547 396.802C322.427 394.933 323.148 393.172 323.148 392.87C323.148 392.192 320.734 391.069 319.284 391.069C317.842 391.069 317.548 390.071 318.169 387.313C318.772 384.622 318.042 381.252 316.861 381.252C316.433 381.252 315.679 381.881 315.175 382.643C314.405 383.826 314.363 384.328 314.932 386.047C315.771 388.596 315.109 390.498 312.829 392.125C311.747 392.896 311.152 393.785 311.152 394.648C311.152 395.377 311.244 395.972 311.353 395.972C311.471 395.972 312.661 395.352 314.003 394.606L316.45 393.24L317.891 394.371C318.68 394.992 319.333 396.006 319.333 396.626C319.333 399.611 310.825 404.623 304.983 405.092C301.873 405.344 301.344 405.235 300.263 404.162C299.382 403.282 299.131 402.544 299.349 401.505C299.517 400.708 299.819 399.258 300.019 398.286C300.556 395.687 299.441 396.039 297.513 399.074C295.929 401.58 295.459 404.255 296.348 405.663C297.078 406.811 301.922 407.91 305.351 407.7C307.505 407.574 309.635 406.971 311.89 405.864Z" fill="#F7E017"/>
<path d="M344.614 387.605C347.698 384.529 349.007 380.782 349.023 374.989L349.031 370.639L351.58 369.432C354.891 367.856 358.027 364.721 358.027 362.977C358.027 361.183 357.23 361.275 355.788 363.229C354.741 364.646 353.34 365.5 348.219 367.856C346.928 368.451 346.844 368.769 346.55 374.185C346.207 380.43 345.36 382.769 341.872 387.036C339.735 389.635 339.66 389.978 341.143 389.978C341.755 389.978 343.314 388.914 344.614 387.605Z" fill="#F7E017"/>
<path d="M311.013 384.119C311.307 383.221 309.605 382.584 308.867 383.314C308.557 383.624 308.473 384.16 308.683 384.504C309.169 385.283 310.711 385.024 311.013 384.119Z" fill="#F7E017"/>
<path d="M357.346 372.123C357.648 371.226 355.938 370.589 355.208 371.318C354.89 371.637 354.806 372.173 355.015 372.517C355.502 373.297 357.044 373.037 357.346 372.123Z" fill="#F7E017"/>
<path d="M301.588 339.647C300.39 340.218 299.768 341.512 298.935 342.501C298.335 342.907 298.816 343.288 299.161 343.673C301.276 345.951 302.17 349.026 303.175 351.896C304.161 355.282 305.404 358.919 304.372 362.447C303.966 363.799 302.904 365.199 301.316 364.749C298.775 364.591 296.276 363.916 293.728 363.943C291.46 364.062 289.708 366.125 287.39 365.9C285.908 365.998 285.97 362.867 284.594 363.704C283.913 365.336 284.249 367.158 284.168 368.884C284.424 369.131 285.144 368.915 285.576 368.988H290.141C290.463 370.564 290.423 372.371 291.555 373.625C293.139 374.188 294.921 373.701 296.427 373.086C298.041 372.334 298.257 370.393 298.713 368.881C299.198 367.256 301.326 367.682 302.581 367.044C305.654 366.148 307.667 362.955 307.487 359.813C307.288 355.016 305.459 350.503 304.071 345.964C303.372 343.963 302.888 341.877 302.078 339.924C301.983 339.756 301.788 339.615 301.588 339.648V339.647ZM293.985 367.076C295.692 366.965 296.434 369.063 296.072 370.454C295.433 372.345 293.109 371.132 292.639 369.77C291.775 368.553 292.309 366.916 293.985 367.076Z" fill="#F7E017"/>
<path d="M230.773 351.334C230.01 351.317 229.155 351.602 228.309 352.197C223.857 355.316 222.717 359.004 225.744 360.446C227.965 361.51 227.404 362.76 223.908 364.512C218.903 367.009 214.486 366.699 206.095 363.229C204.032 362.374 203.495 362.701 203.973 364.587C204.435 366.44 206.128 367.454 210.336 368.41C214.862 369.449 220.337 369.114 223.857 367.596C225.576 366.858 227.613 365.308 229.332 363.438L232.056 360.446L235.225 360.84C239.131 361.318 239.206 361.359 239.206 363.229C239.206 364.712 239.29 364.746 242.878 365.082C244.898 365.274 247.555 365.451 248.797 365.451C250.381 365.459 251.278 365.735 251.805 366.473C252.51 367.454 252.929 367.504 258.83 366.976C264.346 366.473 265.428 366.515 267.917 367.362C269.686 367.965 271.631 368.208 273.106 368.049C277.331 367.571 283.157 364.118 284.004 361.577C284.105 361.267 285.638 360.722 287.407 360.37C291.674 359.515 291.858 358.585 287.877 358.09C286.15 357.873 283.56 357.244 282.118 356.674C280.668 356.103 278.689 355.626 277.717 355.626C275.571 355.626 273.551 356.967 273.551 358.351C273.551 359.256 273.869 359.348 276.41 359.088C278.799 358.845 279.494 358.979 280.751 359.976C281.581 360.63 282.134 361.402 281.958 361.678C281.397 362.592 276.41 364.863 274.205 365.216C272.729 365.451 271.539 365.292 270.382 364.696C268.446 363.69 265.595 363.539 265.059 364.402C264.833 364.78 264.221 364.537 263.382 363.748L262.075 362.517L259.116 363.748C256.106 364.998 254.999 364.947 254.999 363.514C254.999 362.86 254.119 362.784 249.685 363.07C244.798 363.388 244.286 363.305 243.373 362.282C242.526 361.343 242.509 361.016 243.112 360.052C243.666 359.163 243.666 358.778 243.138 358.249C242.61 357.722 241.922 357.73 239.994 358.249C235.132 359.549 233.757 358.82 233.757 355.022C233.757 352.742 232.45 351.359 230.773 351.334ZM229.566 354.821C229.826 354.821 230.044 354.98 230.379 355.316C230.806 355.743 231.033 356.489 230.849 356.967C230.412 358.099 228.35 358.057 227.915 356.917C227.705 356.364 227.974 355.743 228.594 355.29C229.03 354.972 229.306 354.812 229.566 354.821Z" fill="#F7E017"/>
<path d="M220.853 358.358C223.812 356.48 223.745 356.622 224.172 351.409C224.466 347.729 224.415 347.452 223.418 347.452C221.968 347.452 221.213 349.044 221.213 352.079C221.213 354.024 220.911 354.896 219.872 355.927C217.407 358.391 211.288 357.268 210.517 354.208C210.257 353.161 210.592 352.213 211.875 350.394C214.549 346.597 213.945 345.666 210.668 348.55C208.413 350.52 208.011 350.578 208.438 348.877C208.832 347.309 208.011 346.689 206.175 347.15C205.236 347.384 204.724 347.972 204.498 349.112C204.28 350.227 203.768 350.847 202.88 351.065C201.397 351.442 198.865 350.034 198.865 348.835C198.865 347.946 202.653 343.319 207.515 338.272C209.351 336.361 210.852 334.584 210.852 334.316C210.852 334.047 209.871 333.83 208.673 333.83C206.921 333.83 206.493 334.023 206.493 334.836C206.493 335.389 204.045 338.599 201.044 341.978C194.791 349.02 194.271 350.486 197.364 352.364C199.853 353.89 203.047 353.772 205.554 352.071L207.583 350.688V353.194C207.583 356.396 208.22 357.545 210.735 358.877C213.895 360.545 217.717 360.345 220.853 358.358Z" fill="#F7E017"/>
<path d="M352.091 314.843C349.772 316.228 351.587 319.138 351.938 321.071C350.991 323.708 347.603 324.418 345.133 324.907C341.634 325.487 339.155 328.414 337.824 331.523C337.103 333.542 335.362 336.674 333.466 333.6C331.817 331.928 328.787 330.604 326.836 332.555C325.355 333.965 324.98 336.039 324.428 337.922C323.554 336.475 323.162 334.321 321.31 333.863C318.352 334.279 319.421 338.007 320.811 339.545C322.076 341.337 323.289 343.7 322.05 345.829C320.958 348.387 317.18 350.113 314.962 347.924C312.889 346.831 314.275 342.924 312.233 342.709C311.225 343.438 311.141 347.526 309.526 345.31C308.36 343.416 308.978 340.824 307.552 339.12C305.867 339.329 304.511 342.231 305.072 343.79C307.321 346.823 308.245 350.627 309.122 354.241C309.668 355.688 309.042 358.622 310.396 359.196C311.335 356.866 310.463 354.224 311.201 351.872C313.396 351.596 315.837 352.598 318.139 352.066C321.432 351.639 323.977 348.859 325.133 345.9C325.482 343.675 325.066 341.417 325.005 339.179C327.606 339.582 330.309 339.574 332.812 340.419C334.052 342.323 332.418 344.987 332.074 347.066C330.768 351.302 327.451 354.376 324.223 357.207C322.873 358.006 322.692 360.123 324.686 358.983C329.022 357.128 332.255 353.201 334.114 348.949C335.471 345.678 334.381 342.036 335.267 338.69C336.576 336.179 339.727 336.708 342.06 336.716C344.473 336.624 346.533 333.812 345.727 331.467C344.959 328.745 347.839 327.433 349.806 326.461C352.414 325.145 354.415 322.471 354.213 319.454C354.106 317.912 354.182 314.985 352.091 314.843V314.843ZM342.844 330.561C345.639 331.304 342.338 336.64 340.853 333.259C340.396 331.969 341.482 330.514 342.844 330.561ZM329.876 334.383C333.513 334.171 332.206 339.481 329.134 337.07C327.541 336.27 328.068 334.285 329.876 334.383Z" fill="#F7E017"/>
<path d="M198.219 354.904C198.319 354.377 198.051 353.999 197.574 353.999C196.559 353.999 195.947 354.888 196.425 355.659C196.92 356.456 198.009 356.003 198.219 354.904Z" fill="#F7E017"/>
<path d="M240.832 350.143C240.832 349.363 240.539 349.07 239.885 349.196C238.46 349.464 238.301 351.274 239.701 351.274C240.481 351.274 240.832 350.923 240.832 350.143Z" fill="#F7E017"/>
<path d="M188.1 324.558C186.399 324.209 185.33 325.649 184.747 327.021C183.475 329.159 181.922 331.345 179.639 332.477C177.998 332.934 176.208 332.309 174.793 331.463C173.103 330.623 173.488 328.591 172.763 327.187C171.542 326.228 169.376 327.6 169.424 329.092C169.29 331.092 171.161 332.247 172.714 333.021C174.034 333.829 175.947 334.279 176.475 335.915C176.438 337.306 176.998 338.897 178.691 338.36C180.586 338.329 181.076 340.636 180.311 342.021C179.532 343.581 179.007 345.409 179.38 347.147C180.285 347.91 181.209 345.864 181.865 345.28C182.31 344.686 182.756 344.093 183.202 343.499C186.553 343.681 189.902 344.108 193.262 343.989C195.651 343.946 197.686 342.47 199.206 340.74C201.354 338.493 203.12 335.854 205.574 333.915C207.32 333.489 206.383 330.198 204.558 331.149C202.914 331.765 202.397 333.622 201.257 334.807C199.317 337.156 197.337 339.54 194.891 341.382C193.111 342.12 191.06 341.797 189.231 341.382C188.467 340.714 190.746 340.169 191.064 339.428C192.114 338.379 193.36 337.384 193.968 336.007C193.386 334.737 191.607 334.634 190.353 334.609C187.263 334.98 184.904 337.573 181.783 337.817C179.415 337.9 180.647 335.335 181.716 334.46C183.804 331.98 186.061 329.644 188.242 327.245C188.86 326.5 191.099 325.793 189.667 324.747C189.167 324.567 188.626 324.567 188.1 324.558ZM189.62 337.107C191.178 337.984 188.626 339.417 187.551 339.222C186.14 339.644 186.115 338.206 187.368 337.92C188.072 337.553 188.816 337.171 189.62 337.107ZM184.826 340.382C185.712 340.364 187.571 341.217 185.825 341.762C184.611 342.704 183.238 340.803 184.826 340.382Z" fill="#F7E017"/>
<path d="M222.568 342.549C222.568 341.367 220.447 341.534 220.212 342.733C220.061 343.505 220.304 343.689 221.294 343.546C221.998 343.446 222.568 343.001 222.568 342.549Z" fill="#F7E017"/>
<path d="M316.498 334.233C316.716 333.1 315.14 332.346 314.31 333.176C313.481 334.006 314.243 335.582 315.366 335.364C315.886 335.263 316.397 334.752 316.498 334.233Z" fill="#F7E017"/>
<path d="M170.318 322.723C171.793 321.457 171.81 321.373 171.173 318.591C170.267 314.692 170.326 314.273 171.81 313.904C173.688 313.426 178.458 315.983 179.514 318.029C180.335 319.612 180.31 319.722 178.919 321.013C177.418 322.396 177.427 324.014 178.927 324.014C180.167 324.014 183.596 320.77 183.596 319.604C183.596 317.987 179.791 314.164 176.781 312.764C174.921 311.893 173.059 311.49 170.904 311.482C167.049 311.482 166.529 312.312 167.569 316.796C168.792 322.052 167.132 322.765 162.899 318.8C159.756 315.857 158.515 312.798 158.531 307.978C158.54 302.806 160.518 300.249 164.978 299.645C167.937 299.251 167.862 298.555 164.819 298.103C160.376 297.432 156.62 300.4 155.195 305.697C153.611 311.574 157.241 318.732 163.662 322.422C167.024 324.349 168.365 324.408 170.318 322.723Z" fill="#F7E017"/>
<path d="M345.387 316.276C345.747 315.916 346.04 315.103 346.04 314.474C346.04 313.845 346.653 312.495 347.398 311.481C348.153 310.467 348.765 309.428 348.765 309.176C348.765 308.145 347.063 308.178 345.722 309.243C344.347 310.316 343.316 310.341 343.316 309.293C343.316 309.034 343.97 308.497 344.774 308.103C346.769 307.13 346.937 306.167 345.252 305.395C343.089 304.414 340.919 306.208 340.692 309.168C340.549 311.146 340.709 311.49 342.235 312.387C343.626 313.208 343.886 313.644 343.651 314.817C343.249 316.855 344.096 317.567 345.387 316.276Z" fill="#F7E017"/>
<path d="M361.841 314.415C363.048 313.334 364.03 312.101 364.03 311.691C364.03 311.28 365.069 310.19 366.343 309.277C369.956 306.678 370.752 304.054 369.135 300.022C368.506 298.438 366.527 296.25 362.227 292.377C358.925 289.393 355.882 286.953 355.488 286.953C354.314 286.953 354.524 291.27 355.714 291.648C357.859 292.335 359.159 293.216 362.537 296.258C366.46 299.804 368.271 303.116 367.282 304.96C366.335 306.745 365.077 306.192 361.615 302.479C359.796 300.525 357.994 298.932 357.625 298.932C357.222 298.94 356.938 299.645 356.938 300.634C356.938 301.874 357.6 303.057 359.394 305.052C362.319 308.305 362.604 310.257 360.408 311.984C359.62 312.605 358.807 313.116 358.606 313.116C358.413 313.116 357.767 312.144 357.181 310.962C355.957 308.48 348.471 300.575 347.348 300.575C346.836 300.575 346.585 301.213 346.585 302.47C346.585 303.987 346.887 304.523 348.094 305.144C349.578 305.915 353.249 309.612 356.938 314.072C357.994 315.346 359.033 316.377 359.26 316.385C359.478 316.385 360.642 315.497 361.841 314.415Z" fill="#F7E017"/>
<path d="M369.181 293.4C368.695 291.832 358.652 281.496 357.621 281.496C357.085 281.496 356.917 282.134 357.043 283.776C357.185 285.771 357.404 286.115 358.778 286.475C359.634 286.702 362.282 288.781 364.655 291.086C367.018 293.392 369.097 295.144 369.265 294.968C369.432 294.8 369.399 294.096 369.181 293.4Z" fill="#F7E017"/>
<path d="M309.203 409.737C309.203 410.099 309.046 410.447 308.766 410.704C308.486 410.96 308.106 411.104 307.711 411.104C307.314 411.104 306.935 410.96 306.655 410.704C306.375 410.447 306.217 410.099 306.217 409.737C306.217 409.374 306.375 409.025 306.655 408.768C306.935 408.512 307.314 408.368 307.711 408.368C308.106 408.368 308.486 408.512 308.766 408.768C309.046 409.025 309.203 409.374 309.203 409.737Z" fill="#F7E017"/>
<path d="M314.476 407.976C314.476 408.339 314.319 408.687 314.038 408.944C313.759 409.2 313.379 409.344 312.983 409.344C312.588 409.344 312.207 409.2 311.928 408.944C311.648 408.687 311.49 408.339 311.49 407.976C311.49 407.613 311.648 407.265 311.928 407.008C312.207 406.752 312.588 406.608 312.983 406.608C313.379 406.608 313.759 406.752 314.038 407.008C314.319 407.265 314.476 407.613 314.476 407.976Z" fill="#F7E017"/>
</g>
</svg>
