<svg xmlns="http://www.w3.org/2000/svg" viewBox="0 0 512 512"><circle cx="256" cy="256" r="256" fill="#FFDA44"/><path d="M256 512c84 0 158.549-40.458 205.229-102.949H50.771C97.451 471.542 172 512 256 512zm256-256C512 114.616 397.384 0 256 0S0 114.616 0 256c0 30.273 5.269 59.312 14.916 86.269h482.167C506.731 315.312 512 286.273 512 256z" fill="#0052B4"/><g fill="#F0F0F0"><path d="M175.222 164.182L189.035 206.694 233.739 206.694 197.574 232.972 211.387 275.486 175.222 249.21 139.057 275.486 152.872 232.972 116.707 206.694 161.409 206.694z"/><path d="M98.454 119.66L106.742 145.168 133.565 145.168 111.866 160.934 120.154 186.443 98.454 170.677 76.755 186.443 85.044 160.934 63.346 145.168 90.168 145.168z"/></g></svg>