<svg width="32" height="24" viewBox="0 0 32 24" fill="none" xmlns="http://www.w3.org/2000/svg">
<rect width="32" height="24" fill="#CDCDCD"/>
<path d="M8 12C8 9.87827 8.84285 7.84344 10.3431 6.34315C11.8434 4.84285 13.8783 4 16 4C18.1217 4 20.1566 4.84285 21.6569 6.34315C23.1571 7.84344 24 9.87827 24 12C24 14.1217 23.1571 16.1566 21.6569 17.6569C20.1566 19.1571 18.1217 20 16 20C13.8783 20 11.8434 19.1571 10.3431 17.6569C8.84285 16.1566 8 14.1217 8 12ZM15.5 5.077C14.83 5.281 14.165 5.897 13.613 6.932C13.4312 7.27614 13.2748 7.63309 13.145 8H15.5V5.077ZM12.09 8C12.2568 7.46888 12.471 6.95381 12.73 6.461C12.904 6.13472 13.1037 5.82274 13.327 5.528C12.0881 6.04207 11.0222 6.89981 10.255 8H12.09ZM11.508 11.5C11.538 10.623 11.646 9.782 11.82 9H9.674C9.30205 9.78539 9.07959 10.6332 9.018 11.5H11.508ZM12.847 9C12.6503 9.8198 12.5371 10.6574 12.509 11.5H15.5V9H12.847ZM16.5 9V11.5H19.49C19.4623 10.6574 19.3493 9.81984 19.153 9H16.5ZM12.51 12.5C12.5377 13.3426 12.6507 14.1802 12.847 15H15.5V12.5H12.51ZM16.5 12.5V15H19.153C19.34 14.235 19.459 13.392 19.491 12.5H16.5ZM13.145 16C13.2837 16.3867 13.4397 16.7427 13.613 17.068C14.165 18.103 14.831 18.718 15.5 18.923V16H13.145ZM13.327 18.472C13.1037 18.1773 12.904 17.8653 12.73 17.539C12.471 17.0462 12.2568 16.5311 12.09 16H10.255C11.021 17.1013 12.0873 17.9594 13.327 18.472ZM11.82 15C11.6394 14.178 11.535 13.3411 11.508 12.5H9.018C9.08 13.39 9.309 14.233 9.674 15H11.82ZM18.673 18.472C19.9127 17.9594 20.979 17.1013 21.745 16H19.91C19.7432 16.5311 19.529 17.0462 19.27 17.539C19.096 17.8653 18.8963 18.1773 18.673 18.472ZM16.5 16V18.923C17.17 18.719 17.835 18.103 18.387 17.068C18.5603 16.7433 18.7163 16.3873 18.855 16H16.5ZM20.18 15H22.326C22.691 14.233 22.92 13.39 22.982 12.5H20.492C20.465 13.3411 20.3606 14.178 20.18 15ZM22.982 11.5C22.9204 10.6332 22.698 9.78539 22.326 9H20.18C20.354 9.782 20.462 10.623 20.492 11.5H22.982ZM19.27 6.461C19.517 6.925 19.732 7.441 19.91 8H21.745C20.979 6.89866 19.9127 6.04061 18.673 5.528C18.891 5.812 19.091 6.126 19.27 6.461ZM18.855 8C18.7252 7.63309 18.5688 7.27614 18.387 6.932C17.835 5.897 17.17 5.282 16.5 5.077V8H18.855Z" fill="white"/>
</svg>
