<svg xmlns="http://www.w3.org/2000/svg" viewBox="0 0 20 20"><path d="M19.637 10c0 5.422-4.395 9.82-9.817 9.82C4.395 19.82 0 15.422 0 10 0 4.578 4.395.18 9.82.18c5.422 0 9.817 4.398 9.817 9.82zm0 0" fill="#65b1ef"/><path d="M5.14 18.57c0 .004-.003.008-.007.012l.043.012zM4.513 4.477l-.02-.04c.168-.023.176-.144.305-.187.144-.047.094.004.238 0 .113-.004.184.078.317.02a.444.444 0 01-.137.132 1.113 1.113 0 01-.348.188.343.343 0 01-.355-.113zm0 0" fill="#e9eff4"/><path d="M6.512 13.39a.496.496 0 01-.102.243c-.2.328-.32.703-.348 1.09-.027.367-.011.824-.332 1.004-.183.101-.44.082-.566.257a.572.572 0 00-.07.176l-.239.863a8.255 8.255 0 01-.308-.03.224.224 0 01.133.313.258.258 0 00-.328.124.52.52 0 00-.02.383c.113.382.414.675.8.769-.066.125-.269.074-.39-.012a4.66 4.66 0 01-1.84-2.508c-.07-.363-.199-.718-.379-1.042-.171-.262-.437-.45-.609-.711-.246-.371-.293-.856-.574-1.196-.156-.195-.403-.437-.262-.644.055-.086.176-.168.129-.258-.016-.027-.047-.047-.074-.074-.094-.102-.028-.262.02-.39.07-.235.085-.481.042-.72a2.076 2.076 0 01-.543-.773c-.07-.18-.164-.406-.355-.41l-.152-.418a.154.154 0 01-.122.086 9.943 9.943 0 012.508-5.98c.035-.012.067-.032.098-.048.34-.199.613-.5.945-.714a.344.344 0 01.227-.083c.082.008.16.09.129.168a.175.175 0 01-.063.079c-.39.328-.812.613-1.262.851a.26.26 0 00-.136.113.196.196 0 00.011.149.2.2 0 00.118.094.576.576 0 00.304-.008.496.496 0 00-.066.418c.094.008.125-.117.152-.203.114-.352.672-.496.633-.864.152.079.305-.097.399-.242.093-.144.296-.293.41-.164l.023.219.598-.152a.294.294 0 00-.074.367.287.287 0 00.347.136c0 .106-.097.188-.183.25-.211.18-.454.32-.711.418l.058.122c-.004.003-.011.003-.02.007-.163.016-.335-.101-.507-.082-.106.016-.238.016-.3.125-.009.012-.048.203-.02.188l.285-.164a.479.479 0 01.02.246.534.534 0 01.335.074.67.67 0 01-.648.39c0-.081-.004-.163-.008-.245a.608.608 0 00-.516.363 1.42 1.42 0 01-.382.535 4.544 4.544 0 01-.372.172.34.34 0 00-.207.32c.024.063.04.125.051.188-.008.125-.144.18-.246.258-.16.136-.203.386-.375.507-.14.067-.289.11-.441.13-.149.046-.293.195-.235.335a.12.12 0 01-.109-.015.125.125 0 01-.063-.09 5.007 5.007 0 00-.5 1.636c.13.09.262-.113.286-.27.027-.155.164-.358.293-.269-.032.227-.059.45-.09.672a.196.196 0 00.011.125c.024.047.079.07.118.102.117.101.101.277.109.43.008.183.066.363.164.523a3.685 3.685 0 01-.023-.098c.18.024.359-.031.492-.148a.803.803 0 01.219-.18.506.506 0 01.285.016c.293.05.566.187.785.394.078.125.172.246.273.356.262.219.707.12.946.37a.89.89 0 01.097.794c-.129-.074-.304.105-.23.234a.39.39 0 01.254-.156c.105 0 .195.14.117.207a.417.417 0 01.695.148c.254.02.508.036.762.059-.047.371.73.39.719.766zM4.969 2.927a.198.198 0 01-.207-.02.2.2 0 01-.07-.195.204.204 0 01.148-.148c.066-.016.156-.008.18-.07a.168.168 0 000-.063.287.287 0 01.226-.262.832.832 0 01.367.02.46.46 0 01.035.289l-.25.011c.008.137-.003.313-.132.364-.118.046-.266-.04-.364.039m1.364-1.344c.226-.11.418-.281.644-.399A2.931 2.931 0 018.18.922l2.957-.094-.688.375a.837.837 0 01-.605.152c.004.172.14.31.312.317-.406.25-.969-.008-1.394.203-.18.086-.325.254-.52.285-.117.02-.234-.012-.347.012-.188.043-.31.219-.45.355a.624.624 0 01-.61.188c-.21-.074-.32-.387-.151-.535.093-.055.195-.102.3-.133.098-.05.176-.188.102-.27-.031-.035-.082-.047-.113-.086-.032-.039-.028-.101-.055-.144-.102-.176-.379.058-.57-.012m2.91.844c.129-.043.254-.102.37-.168a.453.453 0 01.395-.031c.04.09-.066.172-.16.207a1.146 1.146 0 01-.55.047m8.007.937a.364.364 0 01-.113-.004 1.435 1.435 0 01-.445-.265 1.177 1.177 0 00-1.153-.07.706.706 0 00.121-.43l-.054.015a2.417 2.417 0 00-1.934-.469c-.148.055-.285.137-.433.188-.168.039-.329.098-.48.18-.142.101-.216.32-.095.437.102.102.266.07.407.086.144.016.304.156.226.273l-1.86.876c.29.105.466.402.411.71-.211.036-.41-.093-.621-.105a.567.567 0 00-.512.27.56.56 0 00-.015.578.562.562 0 00.503.293c.227 0 .45-.141.672-.082a.858.858 0 01.297-.532 1.084 1.084 0 011.074-.402c.121.05.235.121.336.21.227.18.457.364.684.548.074-.074.144-.149.219-.219l.375.395c.062-.043.129-.082.191-.125.047.117.094.23.14.351l.048-.383a.911.911 0 00.445-.062.307.307 0 00.176-.367c-.028-.075-.098-.133-.114-.211-.027-.16.2-.27.344-.196.137.09.235.227.277.387.036-.156.067-.309.102-.46.14.37.344.718.598 1.027a2.445 2.445 0 00-1.387.14.737.737 0 00.613.3c.11 0 .227-.026.309.04a.311.311 0 01.086.215c.035.215.074.43.105.644a1.44 1.44 0 00-.914-.183c-.32-.008-.695-.098-.812-.395a.657.657 0 00-.145.54c-.328-.079-.71-.208-.805-.532a.53.53 0 01-.394-.035.51.51 0 01-.254-.3c-.027-.095-.031-.208-.113-.255a.264.264 0 00-.172-.02c-.492.055-.98.11-1.469.169-.27.015-.535.078-.777.195a.708.708 0 00-.399.648c-.453.27-.828.653-1.09 1.11a.687.687 0 00-.12.46c.023.122.105.227.128.344.004.211-.035.418-.12.61-.141.582.296 1.125.706 1.562.168.227.414.383.696.438.171-.012.343-.059.5-.137a3.643 3.643 0 011.472-.246c-.113.09.004.281.145.309.144.004.285.011.43.03.308.114.265.567.124.864l.22-.039c-.04.098-.079.2-.114.293.422.055.586.613.484 1.031-.16.399-.277.813-.351 1.239.011.234.062.464.144.687l.547 1.703c.508.063.797-.582 1.266-.785.187-.043.363-.121.523-.223.133-.129.09-.425-.082-.425a.505.505 0 00.438-.473c0-.066-.008-.133 0-.195a.635.635 0 01.133-.254 8.47 8.47 0 00.824-1.692c.058-.156.12-.308.18-.465l.69-1.742.27-.683a.433.433 0 01-.632.023 3.008 3.008 0 01-.434-.582 1.708 1.708 0 01-.352-.512 2.829 2.829 0 01-.047-.359 2.847 2.847 0 00-.335-.715.713.713 0 01-.012-.746c.473.832.906 1.688 1.297 2.559a.568.568 0 01.27-.317c.097-.043.19-.078.292-.113a.722.722 0 00.43-.664c0-.29-.172-.55-.438-.664a3.017 3.017 0 01-.394-.149.272.272 0 01-.133-.355.285.285 0 01.363-.047c.118.066.207.176.32.25.083.055.176.09.262.14.43.36.684.883.696 1.438.054.293.117.582.191.867v-.187a9.986 9.986 0 00-2.676-6.8zm.914 3.285a.3.3 0 01-.175-.086.477.477 0 01-.2-.254c-.027-.125.032-.27-.035-.382a.61.61 0 00-.137-.13.698.698 0 01-.25-.394c-.027-.137.012-.316.153-.34a.166.166 0 01.168.086l-.094.051a.21.21 0 01.156.145.217.217 0 01-.047.21c-.015.016-.035.028-.035.051 0 .016.008.028.02.035.11.094.234.165.367.215.129.067.25.188.23.328l-.117.043c-.043.043-.008.121.035.164.047.043.106.086.106.145a.131.131 0 01-.145.113zm.067 6.961l-.164.113a.45.45 0 01-.25.516c-.102.04-.239.059-.274.164-.027.086.04.176.051.27.016.156-.129.27-.234.383-.102.117-.16.332-.02.398.031.016.07.023.106.023a.656.656 0 00.437-.07c.352-.254.016-.934.363-1.191.047-.036.11-.063.137-.118.082-.16-.219-.32-.152-.488zm0 0" fill="#e9eff4"/></svg>