<svg xmlns="http://www.w3.org/2000/svg" viewBox="0 0 512 512"><circle cx="256" cy="256" r="256" fill="#FFDA44"/><path d="M155.826 166.957h340.25C459.906 69.472 366.07 0 256 0 185.306 0 121.313 28.659 74.989 74.989l80.837 91.968zm0 178.086h340.25C459.906 442.528 366.07 512 256 512c-70.694 0-134.687-28.659-181.011-74.989l80.837-91.968z" fill="#6DA544"/><path d="M74.98 74.98c-99.974 99.974-99.974 262.065 0 362.04L256 256 74.98 74.98z" fill="#D80027"/><path d="M325.074 211.478L336.125 245.49 371.887 245.49 342.955 266.51 354.006 300.522 325.074 279.501 296.142 300.522 307.192 266.51 278.261 245.49 314.023 245.49z"/><path d="M436.379 211.478L447.429 245.49 483.191 245.49 454.26 266.51 465.31 300.522 436.379 279.501 407.446 300.522 418.497 266.51 389.565 245.49 425.327 245.49z"/></svg>