<svg xmlns="http://www.w3.org/2000/svg" width="39" height="42" viewBox="0 0 39 42"><defs><style>.a{fill:#fff;}.b{fill:#fc0;}.c{fill:#00678f;}.d{fill:red;}</style></defs><rect class="a" width="39" height="42"/><path class="b" d="M1.9,1.9H34.813V38.289H1.9Z" transform="translate(1.12 1.12)"/><path class="c" d="M17.746,26.228c8.282,0,14.946-3.174,14.946-7.114S26.028,12,17.746,12,2.8,15.174,2.8,19.114s6.664,7.114,14.946,7.114" transform="translate(1.651 1.975)"/><path class="b" d="M23.01,17.051l.438-1.751h-5.91L17.1,17.051h1.97l-.985,3.831h2.079l.985-3.831Z" transform="translate(0.763 2.253)"/><path class="a" d="M17.812,15.3H14.857L13,19.459V15.3H10.151L8.4,22.414h1.97l1.2-4.6v4.6h1.532l2.189-4.6-1.094,4.6h1.861Z" transform="translate(0.334 2.29)"/><path class="a" d="M29.252,15.3H27.391l-.985,3.721L25.531,15.3H23.451L21.7,22.414h1.861l.985-3.831.985,3.831H27.5Z" transform="translate(0.929 2.29)"/><path class="d" d="M17.919,20.8l-.219.985h1.97l.219-.985Z" transform="translate(0.885 2.936)"/></svg>