<svg xmlns="http://www.w3.org/2000/svg" xmlns:xlink="http://www.w3.org/1999/xlink" width="428" height="303.684" viewBox="0 0 428 303.684"><defs><filter id="a" x="15.547" y="91.684" width="397" height="99" filterUnits="userSpaceOnUse"><feOffset dy="12" input="SourceAlpha"/><feGaussianBlur stdDeviation="12" result="b"/><feFlood flood-opacity="0.2"/><feComposite operator="in" in2="b"/><feComposite in="SourceGraphic"/></filter><filter id="c" x="15.547" y="172.684" width="397" height="99" filterUnits="userSpaceOnUse"><feOffset dy="12" input="SourceAlpha"/><feGaussianBlur stdDeviation="12" result="d"/><feFlood flood-opacity="0.2"/><feComposite operator="in" in2="d"/><feComposite in="SourceGraphic"/></filter><filter id="e" x="15.547" y="204.684" width="397" height="99" filterUnits="userSpaceOnUse"><feOffset dy="12" input="SourceAlpha"/><feGaussianBlur stdDeviation="12" result="f"/><feFlood flood-opacity="0.2"/><feComposite operator="in" in2="f"/><feComposite in="SourceGraphic"/></filter><filter id="g" x="0" y="111.684" width="428" height="116" filterUnits="userSpaceOnUse"><feOffset input="SourceAlpha"/><feGaussianBlur stdDeviation="12" result="h"/><feFlood flood-opacity="0.2"/><feComposite operator="in" in2="h"/><feComposite in="SourceGraphic"/></filter></defs><g transform="translate(-703.453 -1969.316)"><g transform="translate(739.23 2097.283)"><g transform="matrix(1, 0, 0, 1, -35.78, -127.97)" filter="url(#a)"><rect width="325" height="27" rx="5" transform="translate(51.55 115.68)" fill="#fff"/></g><g transform="translate(13.637 -20.283)"><circle cx="11.5" cy="11.5" r="11.5" transform="translate(10.133 10)" fill="#e9e9e9"/><rect width="107" height="5" transform="translate(59.133 20)" fill="#e9e9e9" opacity="0.3"/><rect width="46" height="5" transform="translate(169.133 20)" fill="#e9e9e9" opacity="0.3"/><rect width="69" height="5" transform="translate(224.133 20)" fill="#e9e9e9" opacity="0.3"/><g transform="translate(304.133 15)"><text transform="translate(0 12)" fill="#e9e9e9" font-size="14" font-family="MaterialDesignIcons, Material Design Icons"><tspan x="0" y="0">󰇙</tspan></text></g></g><g transform="translate(0 81)"><g transform="matrix(1, 0, 0, 1, -35.78, -208.97)" filter="url(#c)"><rect width="325" height="27" rx="5" transform="translate(51.55 196.68)" fill="#fff"/></g><g transform="translate(13.637 -20.283)"><circle cx="11.5" cy="11.5" r="11.5" transform="translate(10.133 10)" fill="#e9e9e9"/><rect width="107" height="5" transform="translate(59.133 20)" fill="#e9e9e9" opacity="0.3"/><rect width="46" height="5" transform="translate(169.133 20)" fill="#e9e9e9" opacity="0.3"/><rect width="69" height="5" transform="translate(224.133 20)" fill="#e9e9e9" opacity="0.3"/><g transform="translate(304.133 15)"><text transform="translate(0 12)" fill="#e9e9e9" font-size="14" font-family="MaterialDesignIcons, Material Design Icons"><tspan x="0" y="0">󰇙</tspan></text></g></g></g><g transform="translate(0 113)"><g transform="matrix(1, 0, 0, 1, -35.78, -240.97)" filter="url(#e)"><rect width="325" height="27" rx="5" transform="translate(51.55 228.68)" fill="#fff"/></g><g transform="translate(13.637 -20.283)"><circle cx="11.5" cy="11.5" r="11.5" transform="translate(10.133 10)" fill="#e9e9e9"/><rect width="107" height="5" transform="translate(59.133 20)" fill="#e9e9e9" opacity="0.3"/><rect width="46" height="5" transform="translate(169.133 20)" fill="#e9e9e9" opacity="0.3"/><rect width="69" height="5" transform="translate(224.133 20)" fill="#e9e9e9" opacity="0.3"/><g transform="translate(304.133 15)"><text transform="translate(0 12)" fill="#e9e9e9" font-size="14" font-family="MaterialDesignIcons, Material Design Icons"><tspan x="0" y="0">󰇙</tspan></text></g></g></g><g transform="translate(-0.23 19.717)"><g transform="matrix(1, 0, 0, 1, -35.55, -147.68)" filter="url(#g)"><rect width="356" height="44" rx="5" transform="translate(36 147.68)" fill="#fc0"/></g><ellipse cx="11.5" cy="12" rx="11.5" ry="12" transform="translate(10 10)" fill="#4a4a4a"/><rect width="107" height="5" transform="translate(59 20)" fill="#4a4a4a"/><rect width="46" height="5" transform="translate(186 20)" fill="#4a4a4a"/><rect width="69" height="5" transform="translate(252 20)" fill="#4a4a4a"/><g transform="translate(332 15)"><text transform="translate(0 12)" fill="#5a5a5a" font-size="14" font-family="MaterialDesignIcons, Material Design Icons"><tspan x="0" y="0">󰇙</tspan></text></g></g></g><g transform="translate(-79.055 6.945)"><path d="M0-12.525S23.872-20,47.745-20,95.49-12.525,95.49-12.525V68.015S71.618,75.49,47.745,75.49,0,68.015,0,68.015Z" transform="translate(948.713 1982.371)" fill="#fc0"/><path d="M37.969-19.969H30V-12H25.969v-7.969H18V-24h7.969v-7.969H30V-24h7.969Zm2.063-18h-24A3.89,3.89,0,0,0,13.172-36.8,3.782,3.782,0,0,0,12-34.031v24a3.89,3.89,0,0,0,1.172,2.859A3.89,3.89,0,0,0,16.031-6h24A3.782,3.782,0,0,0,42.8-7.172a3.89,3.89,0,0,0,1.172-2.859v-24A3.782,3.782,0,0,0,42.8-36.8,3.782,3.782,0,0,0,40.031-37.969ZM7.969-30H4.031V-1.969A3.782,3.782,0,0,0,5.2.8,3.782,3.782,0,0,0,7.969,1.969H36V-1.969H7.969Z" transform="translate(972.055 2028.055)" fill="#1d1d1d"/></g></g></svg>