<svg xmlns="http://www.w3.org/2000/svg" xmlns:xlink="http://www.w3.org/1999/xlink" width="465" height="268.683" viewBox="0 0 465 268.683"><defs><filter id="a" x="0" y="145.683" width="465" height="123" filterUnits="userSpaceOnUse"><feOffset dy="12" input="SourceAlpha"/><feGaussianBlur stdDeviation="12" result="b"/><feFlood flood-opacity="0.2"/><feComposite operator="in" in2="b"/><feComposite in="SourceGraphic"/></filter><clipPath id="c"><rect width="282" height="31" fill="none"/></clipPath><filter id="d" x="12" y="93.683" width="441" height="124" filterUnits="userSpaceOnUse"><feOffset dy="12" input="SourceAlpha"/><feGaussianBlur stdDeviation="12" result="e"/><feFlood flood-opacity="0.122"/><feComposite operator="in" in2="e"/><feComposite in="SourceGraphic"/></filter><clipPath id="f"><rect width="281" height="32" fill="none"/></clipPath></defs><g transform="translate(-141 -2579.316)"><g transform="translate(187.037 2748.686)"><g transform="matrix(1, 0, 0, 1, -46.04, -169.37)" filter="url(#a)"><rect width="393" height="51" rx="5" transform="translate(36 169.68)" fill="#fbfbfb"/></g><g transform="translate(9.963 10.314)" clip-path="url(#c)"><g transform="translate(-2874 -9233)"><text transform="translate(2874 9256)" fill="#1d1d1d" font-size="24" font-family="MTNBrighterSans-Light, MTN Brighter Sans" font-weight="300"><tspan x="0" y="0">x</tspan></text></g><g transform="translate(-2855 -9233)"><text transform="translate(2874 9256)" fill="#1d1d1d" font-size="24" font-family="MTNBrighterSans-Light, MTN Brighter Sans" font-weight="300"><tspan x="0" y="0">x</tspan></text></g><g transform="translate(-2836 -9233)"><text transform="translate(2874 9256)" fill="#1d1d1d" font-size="24" font-family="MTNBrighterSans-Light, MTN Brighter Sans" font-weight="300"><tspan x="0" y="0">x</tspan></text></g><g transform="translate(-2817 -9233)"><text transform="translate(2874 9256)" fill="#1d1d1d" font-size="24" font-family="MTNBrighterSans-Light, MTN Brighter Sans" font-weight="300"><tspan x="0" y="0">x</tspan></text></g><g transform="translate(-2798 -9233)"><text transform="translate(2874 9256)" fill="#1d1d1d" font-size="24" font-family="MTNBrighterSans-Light, MTN Brighter Sans" font-weight="300"><tspan x="0" y="0">x</tspan></text></g><g transform="translate(-2779 -9233)"><text transform="translate(2874 9256)" fill="#1d1d1d" font-size="24" font-family="MTNBrighterSans-Light, MTN Brighter Sans" font-weight="300"><tspan x="0" y="0">x</tspan></text></g><g transform="translate(-2760 -9233)"><text transform="translate(2874 9256)" fill="#1d1d1d" font-size="24" font-family="MTNBrighterSans-Light, MTN Brighter Sans" font-weight="300"><tspan x="0" y="0">x</tspan></text></g><g transform="translate(-2741 -9233)"><text transform="translate(2874 9256)" fill="#1d1d1d" font-size="24" font-family="MTNBrighterSans-Light, MTN Brighter Sans" font-weight="300"><tspan x="0" y="0">x</tspan></text></g><g transform="translate(-2722 -9233)"><text transform="translate(2874 9256)" fill="#1d1d1d" font-size="24" font-family="MTNBrighterSans-Light, MTN Brighter Sans" font-weight="300"><tspan x="0" y="0">x</tspan></text></g><g transform="translate(-2703 -9233)"><text transform="translate(2874 9256)" fill="#1d1d1d" font-size="24" font-family="MTNBrighterSans-Light, MTN Brighter Sans" font-weight="300"><tspan x="0" y="0">x</tspan></text></g><g transform="translate(-2684 -9233)"><text transform="translate(2874 9256)" fill="#1d1d1d" font-size="24" font-family="MTNBrighterSans-Light, MTN Brighter Sans" font-weight="300"><tspan x="0" y="0">x</tspan></text></g><g transform="translate(-2665 -9233)"><text transform="translate(2874 9256)" fill="#1d1d1d" font-size="24" font-family="MTNBrighterSans-Light, MTN Brighter Sans" font-weight="300"><tspan x="0" y="0">x</tspan></text></g><g transform="translate(-2646 -9233)"><text transform="translate(2874 9256)" fill="#1d1d1d" font-size="24" font-family="MTNBrighterSans-Light, MTN Brighter Sans" font-weight="300"><tspan x="0" y="0">x</tspan></text></g><g transform="translate(-2627 -9233)"><text transform="translate(2874 9256)" fill="#1d1d1d" font-size="24" font-family="MTNBrighterSans-Light, MTN Brighter Sans" font-weight="300"><tspan x="0" y="0">x</tspan></text></g><g transform="translate(-2608 -9233)"><text transform="translate(2874 9256)" fill="#1d1d1d" font-size="24" font-family="MTNBrighterSans-Light, MTN Brighter Sans" font-weight="300"><tspan x="0" y="0">x</tspan></text></g></g><text transform="translate(311.963 31.314)" fill="#a5a5a5" font-size="13" font-family="Montserrat-Medium, Montserrat" font-weight="500"><tspan x="0" y="0">SECRET</tspan></text></g><g transform="translate(199 2697.09)"><g transform="matrix(1, 0, 0, 1, -58, -117.77)" filter="url(#d)"><rect width="369" height="52" rx="5" transform="translate(48 117.68)" fill="#fbfbfb"/></g><g transform="translate(10 10)"><g transform="translate(0 -0.091)" clip-path="url(#f)"><g transform="translate(-2874 -9233)"><text transform="translate(2874 9256)" fill="#1d1d1d" font-size="24" font-family="MTNBrighterSans-Light, MTN Brighter Sans" font-weight="300"><tspan x="0" y="0">x</tspan></text></g><g transform="translate(-2855 -9233)"><text transform="translate(2874 9256)" fill="#1d1d1d" font-size="24" font-family="MTNBrighterSans-Light, MTN Brighter Sans" font-weight="300"><tspan x="0" y="0">x</tspan></text></g><g transform="translate(-2836 -9233)"><text transform="translate(2874 9256)" fill="#1d1d1d" font-size="24" font-family="MTNBrighterSans-Light, MTN Brighter Sans" font-weight="300"><tspan x="0" y="0">x</tspan></text></g><g transform="translate(-2817 -9233)"><text transform="translate(2874 9256)" fill="#1d1d1d" font-size="24" font-family="MTNBrighterSans-Light, MTN Brighter Sans" font-weight="300"><tspan x="0" y="0">x</tspan></text></g><g transform="translate(-2798 -9233)"><text transform="translate(2874 9256)" fill="#1d1d1d" font-size="24" font-family="MTNBrighterSans-Light, MTN Brighter Sans" font-weight="300"><tspan x="0" y="0">x</tspan></text></g><g transform="translate(-2779 -9233)"><text transform="translate(2874 9256)" fill="#1d1d1d" font-size="24" font-family="MTNBrighterSans-Light, MTN Brighter Sans" font-weight="300"><tspan x="0" y="0">x</tspan></text></g><g transform="translate(-2760 -9233)"><text transform="translate(2874 9256)" fill="#1d1d1d" font-size="24" font-family="MTNBrighterSans-Light, MTN Brighter Sans" font-weight="300"><tspan x="0" y="0">x</tspan></text></g><g transform="translate(-2741 -9233)"><text transform="translate(2874 9256)" fill="#1d1d1d" font-size="24" font-family="MTNBrighterSans-Light, MTN Brighter Sans" font-weight="300"><tspan x="0" y="0">x</tspan></text></g><g transform="translate(-2722 -9233)"><text transform="translate(2874 9256)" fill="#1d1d1d" font-size="24" font-family="MTNBrighterSans-Light, MTN Brighter Sans" font-weight="300"><tspan x="0" y="0">x</tspan></text></g><g transform="translate(-2703 -9233)"><text transform="translate(2874 9256)" fill="#1d1d1d" font-size="24" font-family="MTNBrighterSans-Light, MTN Brighter Sans" font-weight="300"><tspan x="0" y="0">x</tspan></text></g><g transform="translate(-2684 -9233)"><text transform="translate(2874 9256)" fill="#1d1d1d" font-size="24" font-family="MTNBrighterSans-Light, MTN Brighter Sans" font-weight="300"><tspan x="0" y="0">x</tspan></text></g><g transform="translate(-2665 -9233)"><text transform="translate(2874 9256)" fill="#1d1d1d" font-size="24" font-family="MTNBrighterSans-Light, MTN Brighter Sans" font-weight="300"><tspan x="0" y="0">x</tspan></text></g><g transform="translate(-2646 -9233)"><text transform="translate(2874 9256)" fill="#1d1d1d" font-size="24" font-family="MTNBrighterSans-Light, MTN Brighter Sans" font-weight="300"><tspan x="0" y="0">x</tspan></text></g><g transform="translate(-2627 -9233)"><text transform="translate(2874 9256)" fill="#1d1d1d" font-size="24" font-family="MTNBrighterSans-Light, MTN Brighter Sans" font-weight="300"><tspan x="0" y="0">x</tspan></text></g><g transform="translate(-2608 -9233)"><text transform="translate(2874 9256)" fill="#1d1d1d" font-size="24" font-family="MTNBrighterSans-Light, MTN Brighter Sans" font-weight="300"><tspan x="0" y="0">x</tspan></text></g></g><text transform="translate(303 20.909)" fill="#a5a5a5" font-size="13" font-family="Montserrat-Medium, Montserrat" font-weight="500"><tspan x="0" y="0">KEY</tspan></text></g></g><g transform="translate(-623.055 616.945)"><path d="M0-12.525S23.872-20,47.745-20,95.49-12.525,95.49-12.525V68.015S71.618,75.49,47.745,75.49,0,68.015,0,68.015Z" transform="translate(948.713 1982.371)" fill="#1d1d1d"/><path d="M24-25.969a1.908,1.908,0,0,1,1.406.563A1.908,1.908,0,0,1,25.969-24a1.908,1.908,0,0,1-.562,1.406A1.908,1.908,0,0,1,24-22.031a1.908,1.908,0,0,1-1.406-.562A1.908,1.908,0,0,1,22.031-24a1.908,1.908,0,0,1,.563-1.406A1.908,1.908,0,0,1,24-25.969Zm18,6a24.722,24.722,0,0,1-2.344,10.5A25.287,25.287,0,0,1,33.188-.844,22.587,22.587,0,0,1,24,4.031,22.587,22.587,0,0,1,14.813-.844,25.287,25.287,0,0,1,8.344-9.469,24.722,24.722,0,0,1,6-19.969v-12l18-8.062,18,8.063ZM24-30a5.8,5.8,0,0,0-4.266,1.734A5.8,5.8,0,0,0,18-24a5.827,5.827,0,0,0,1.125,3.516,5.6,5.6,0,0,0,2.906,2.109V-6h3.938v-4.031H30v-3.937H25.969v-4.406a5.6,5.6,0,0,0,2.906-2.109A5.827,5.827,0,0,0,30-24a5.8,5.8,0,0,0-1.734-4.266A5.8,5.8,0,0,0,24-30Z" transform="translate(972.055 2028.055)" fill="#fff"/></g></g></svg>