<svg xmlns="http://www.w3.org/2000/svg" xmlns:xlink="http://www.w3.org/1999/xlink" width="395" height="395.684" viewBox="0 0 395 395.684"><defs><filter id="a" x="0" y="88.684" width="365" height="277" filterUnits="userSpaceOnUse"><feOffset dy="12" input="SourceAlpha"/><feGaussianBlur stdDeviation="12" result="b"/><feFlood flood-opacity="0.2"/><feComposite operator="in" in2="b"/><feComposite in="SourceGraphic"/></filter><clipPath id="c"><rect width="253" height="51" fill="none"/></clipPath><clipPath id="d"><rect width="55" height="15" fill="none"/></clipPath><filter id="e" x="30" y="118.684" width="365" height="277" filterUnits="userSpaceOnUse"><feOffset dy="12" input="SourceAlpha"/><feGaussianBlur stdDeviation="12" result="f"/><feFlood flood-opacity="0.2"/><feComposite operator="in" in2="f"/><feComposite in="SourceGraphic"/></filter><filter id="i" x="13.625" y="164.934" width="174.721" height="174.721" filterUnits="userSpaceOnUse"><feOffset dy="12" input="SourceAlpha"/><feGaussianBlur stdDeviation="12" result="j"/><feFlood flood-opacity="0.2"/><feComposite operator="in" in2="j"/><feComposite in="SourceGraphic"/></filter></defs><g transform="translate(-2790 -8132.316)"><g transform="translate(-15 -31)"><g transform="translate(16 -2)"><g transform="matrix(1, 0, 0, 1, 2789, 8165.32)" filter="url(#a)"><rect width="293" height="205" rx="5" transform="translate(36 112.68)" fill="#fbfbfb"/></g><g transform="translate(2845 8298)" fill="#fbfbfb" stroke="#9ec2d2" stroke-width="2"><rect width="30" height="15" rx="3" stroke="none"/><rect x="1" y="1" width="28" height="13" rx="2" fill="none"/></g><g transform="translate(2880 8298)" fill="#fbfbfb" stroke="#9ec2d2" stroke-width="2"><rect width="30" height="15" rx="3" stroke="none"/><rect x="1" y="1" width="28" height="13" rx="2" fill="none"/></g><rect width="93" height="16" transform="translate(2845 8331)" fill="#f3f3f3"/><g transform="translate(2845 8362)" clip-path="url(#c)"><g transform="translate(-2845 -8362)"><rect width="253" height="9" transform="translate(2845 8362)" fill="#f3f3f3"/></g><g transform="translate(-2845 -8343)"><rect width="253" height="9" transform="translate(2845 8362)" fill="#f3f3f3"/></g><g transform="translate(-2845 -8324)"><rect width="253" height="9" transform="translate(2845 8362)" fill="#f3f3f3"/></g></g><g transform="translate(2845 8426)" clip-path="url(#d)"><g transform="translate(-2845 -8426)"><circle cx="7.5" cy="7.5" r="7.5" transform="translate(2845 8426)" fill="#f3f3f3"/></g><g transform="translate(-2825 -8426)"><circle cx="7.5" cy="7.5" r="7.5" transform="translate(2845 8426)" fill="#f3f3f3"/></g><g transform="translate(-2805 -8426)"><circle cx="7.5" cy="7.5" r="7.5" transform="translate(2845 8426)" fill="#f3f3f3"/></g></g><rect width="89" height="29" rx="14.5" transform="translate(3009 8434)" fill="#f3f3f3"/></g><g transform="translate(46 28)"><g transform="matrix(1, 0, 0, 1, 2759, 8135.32)" filter="url(#e)"><rect width="293" height="205" rx="5" transform="translate(66 142.68)" fill="#fbfbfb"/></g><g transform="translate(2845 8298)" fill="#fbfbfb" stroke="#9ec2d2" stroke-width="2"><rect width="30" height="15" rx="3" stroke="none"/><rect x="1" y="1" width="28" height="13" rx="2" fill="none"/></g><g transform="translate(2880 8298)" fill="#fbfbfb" stroke="#9ec2d2" stroke-width="2"><rect width="30" height="15" rx="3" stroke="none"/><rect x="1" y="1" width="28" height="13" rx="2" fill="none"/></g><rect width="93" height="16" transform="translate(2845 8331)" fill="#f3f3f3"/><g transform="translate(2845 8362)" clip-path="url(#c)"><g transform="translate(-2845 -8362)"><rect width="253" height="9" transform="translate(2845 8362)" fill="#d2d2d2"/></g><g transform="translate(-2845 -8343)"><rect width="253" height="9" transform="translate(2845 8362)" fill="#d2d2d2"/></g><g transform="translate(-2845 -8324)"><rect width="253" height="9" transform="translate(2845 8362)" fill="#d2d2d2"/></g></g><g transform="translate(2845 8426)" clip-path="url(#d)"><g transform="translate(-2845 -8426)"><circle cx="7.5" cy="7.5" r="7.5" transform="translate(2845 8426)" fill="#f3f3f3"/></g><g transform="translate(-2825 -8426)"><circle cx="7.5" cy="7.5" r="7.5" transform="translate(2845 8426)" fill="#f3f3f3"/></g><g transform="translate(-2805 -8426)"><circle cx="7.5" cy="7.5" r="7.5" transform="translate(2845 8426)" fill="#f3f3f3"/></g></g><rect width="62" height="29" rx="14.5" transform="translate(3002 8434)" fill="#a5a5a5"/><rect width="29" height="29" rx="14.5" transform="translate(3069 8434)" fill="#0c678f"/></g><g transform="translate(-46 -177)"><circle cx="28" cy="28" r="28" transform="translate(2912 8540)" fill="#fbfbfb"/><rect width="58" height="16" transform="translate(2910 8552)" fill="#d2d2d2"/><rect width="58" height="16" transform="translate(2910 8580)" fill="#d2d2d2"/><g transform="matrix(1, 0, 0, 1, 2851, 8340.32)" filter="url(#i)"><path d="M55.9-105.75a37.328,37.328,0,0,1,19,5.095A37.443,37.443,0,0,1,88.813-86.748a37.838,37.838,0,0,1,5.095,19.277A37.242,37.242,0,0,1,84.82-42.686l1.652,1.652h4.682l29.191,29.191-8.812,8.813L82.342-32.221V-36.9l-1.652-1.652A37.242,37.242,0,0,1,55.9-29.467a37.838,37.838,0,0,1-19.277-5.095A37.443,37.443,0,0,1,22.72-48.469a37.581,37.581,0,0,1-5.095-19.14,37.581,37.581,0,0,1,5.095-19.14,37.443,37.443,0,0,1,13.907-13.907A37.838,37.838,0,0,1,55.9-105.75Zm0,11.842A25.5,25.5,0,0,0,37.178-86.2a25.5,25.5,0,0,0-7.711,18.727,25.5,25.5,0,0,0,7.711,18.727A25.5,25.5,0,0,0,55.9-41.033a25.5,25.5,0,0,0,18.727-7.711,25.5,25.5,0,0,0,7.711-18.727A25.5,25.5,0,0,0,74.631-86.2,25.5,25.5,0,0,0,55.9-93.908Z" transform="translate(32 294.68)" fill="#0c678f"/></g></g></g><g transform="translate(1990.945 6169.945)"><path d="M0-12.525S23.872-20,47.745-20,95.49-12.525,95.49-12.525V68.015S71.618,75.49,47.745,75.49,0,68.015,0,68.015Z" transform="translate(948.713 1982.371)" fill="#0c678f"/><path d="M22.969-24a4.789,4.789,0,0,0-3.516,1.453A4.789,4.789,0,0,0,18-19.031a4.945,4.945,0,0,0,1.453,3.563,4.715,4.715,0,0,0,3.516,1.5,4.867,4.867,0,0,0,3.563-1.5,4.867,4.867,0,0,0,1.5-3.562,4.715,4.715,0,0,0-1.5-3.516A4.945,4.945,0,0,0,22.969-24ZM40.031-34.031H7.969A3.782,3.782,0,0,0,5.2-32.859,3.89,3.89,0,0,0,4.031-30V-6A3.89,3.89,0,0,0,5.2-3.141,3.782,3.782,0,0,0,7.969-1.969H40.031A3.782,3.782,0,0,0,42.8-3.141,3.89,3.89,0,0,0,43.969-6V-30A3.89,3.89,0,0,0,42.8-32.859,3.782,3.782,0,0,0,40.031-34.031ZM33.563-5.625,27.75-11.437a8.568,8.568,0,0,1-4.781,1.406,8.679,8.679,0,0,1-6.375-2.625,8.679,8.679,0,0,1-2.625-6.375,8.679,8.679,0,0,1,2.625-6.375,8.679,8.679,0,0,1,6.375-2.625,8.679,8.679,0,0,1,6.375,2.625,8.679,8.679,0,0,1,2.625,6.375,8.568,8.568,0,0,1-1.406,4.781l5.813,5.813Z" transform="translate(972.055 2028.055)" fill="#fff"/></g></g></svg>