<svg xmlns="http://www.w3.org/2000/svg" xmlns:xlink="http://www.w3.org/1999/xlink" width="421" height="355.777" viewBox="0 0 421 355.777"><defs><filter id="a" x="41" y="188.684" width="165" height="112" filterUnits="userSpaceOnUse"><feOffset dy="12" input="SourceAlpha"/><feGaussianBlur stdDeviation="12" result="b"/><feFlood flood-opacity="0.2"/><feComposite operator="in" in2="b"/><feComposite in="SourceGraphic"/></filter><filter id="c" x="18" y="128.684" width="403" height="118" filterUnits="userSpaceOnUse"><feOffset dy="12" input="SourceAlpha"/><feGaussianBlur stdDeviation="12" result="d"/><feFlood flood-opacity="0.2"/><feComposite operator="in" in2="d"/><feComposite in="SourceGraphic"/></filter><clipPath id="e"><rect width="148" height="11" fill="none"/></clipPath><filter id="f" x="0" y="95.684" width="403" height="118" filterUnits="userSpaceOnUse"><feOffset dy="12" input="SourceAlpha"/><feGaussianBlur stdDeviation="12" result="g"/><feFlood flood-opacity="0.2"/><feComposite operator="in" in2="g"/><feComposite in="SourceGraphic"/></filter><filter id="h" x="87.5" y="208.492" width="122.652" height="147.285" filterUnits="userSpaceOnUse"><feOffset dy="12" input="SourceAlpha"/><feGaussianBlur stdDeviation="12" result="i"/><feFlood flood-opacity="0.2"/><feComposite operator="in" in2="i"/><feComposite in="SourceGraphic"/></filter></defs><g transform="translate(-575 -1084.316)"><g transform="translate(-217.055 -878.055)"><path d="M0-12.525S23.872-20,47.745-20,95.49-12.525,95.49-12.525V68.015S71.618,75.49,47.745,75.49,0,68.015,0,68.015Z" transform="translate(948.713 1982.371)" fill="#bb1e4f"/><path d="M30-13.969a28.632,28.632,0,0,0-6.562.844,20.142,20.142,0,0,0-6.469,2.719q-3,1.969-3,4.406v4.031H46.031V-6q0-2.437-3-4.406a20.142,20.142,0,0,0-6.469-2.719A28.632,28.632,0,0,0,30-13.969ZM12-22.031v-6H7.969v6h-6V-18h6v6H12v-6h6v-4.031ZM30-18a7.671,7.671,0,0,0,5.625-2.344,7.726,7.726,0,0,0,2.344-5.672,7.726,7.726,0,0,0-2.344-5.672A7.671,7.671,0,0,0,30-34.031a7.671,7.671,0,0,0-5.625,2.344,7.726,7.726,0,0,0-2.344,5.672,7.726,7.726,0,0,0,2.344,5.672A7.671,7.671,0,0,0,30-18Z" transform="translate(972.055 2028.055)" fill="#fff"/></g><g transform="matrix(1, 0, 0, 1, 575, 1084.32)" filter="url(#a)"><rect width="93" height="40" rx="20" transform="translate(77 212.68)" fill="#fff"/></g><g transform="translate(628.943 1236.77)"><g transform="matrix(1, 0, 0, 1, -53.94, -152.45)" filter="url(#c)"><rect width="331" height="46" rx="5" transform="translate(54 152.68)" fill="#fff"/></g><g transform="translate(18.057 19.23)" clip-path="url(#e)"><g transform="translate(-645 -1263)"><circle cx="5" cy="5" r="5" transform="translate(645 1263)" fill="#bb1e4f"/></g><g transform="translate(-630 -1263)"><circle cx="5" cy="5" r="5" transform="translate(645 1263)" fill="#bb1e4f"/></g><g transform="translate(-615 -1263)"><circle cx="5" cy="5" r="5" transform="translate(645 1263)" fill="#bb1e4f"/></g><g transform="translate(-600 -1263)"><circle cx="5" cy="5" r="5" transform="translate(645 1263)" fill="#bb1e4f"/></g><g transform="translate(-585 -1263)"><circle cx="5" cy="5" r="5" transform="translate(645 1263)" fill="#bb1e4f"/></g><g transform="translate(-570 -1263)"><circle cx="5" cy="5" r="5" transform="translate(645 1263)" fill="#bb1e4f"/></g><g transform="translate(-555 -1263)"><circle cx="5" cy="5" r="5" transform="translate(645 1263)" fill="#bb1e4f"/></g><g transform="translate(-540 -1263)"><circle cx="5" cy="5" r="5" transform="translate(645 1263)" fill="#bb1e4f"/></g><g transform="translate(-525 -1263)"><circle cx="5" cy="5" r="5" transform="translate(645 1263)" fill="#bb1e4f"/></g><g transform="translate(-510 -1263)"><circle cx="5" cy="5" r="5" transform="translate(645 1263)" fill="#bb1e4f"/></g></g></g><g transform="translate(611 1203.575)"><g transform="matrix(1, 0, 0, 1, -36, -119.26)" filter="url(#f)"><rect width="331" height="46" rx="5" transform="translate(36 119.68)" fill="#fff"/></g><rect width="119" height="10" transform="translate(20 18.425)" fill="#d2d2d2"/></g><g transform="matrix(1, 0, 0, 1, 575, 1084.32)" filter="url(#h)"><path d="M51.152,3.691a3.577,3.577,0,0,1-2.9.176A3.164,3.164,0,0,1,46.23,1.934L37.969-15.82,28.652-8.262a4.49,4.49,0,0,1-2.549.7,3.473,3.473,0,0,1-2.549-1.055A3.577,3.577,0,0,1,22.5-11.25V-67.5a3.577,3.577,0,0,1,1.055-2.637A3.473,3.473,0,0,1,26.1-71.191a3.851,3.851,0,0,1,2.549.879v-.176L71.719-34.277a3.871,3.871,0,0,1,1.406,2.549,3.319,3.319,0,0,1-.791,2.637,3.515,3.515,0,0,1-2.2,1.318L58.359-25.312,66.445-7.734a3.022,3.022,0,0,1,.264,2.9,4.127,4.127,0,0,1-2.021,2.2Z" transform="translate(101 303.68)" fill="#bb1e4f"/></g></g></svg>