<svg width="1280" height="640" viewBox="0 0 1280 640" xmlns="http://www.w3.org/2000/svg"><path d="M640 0C286.54 0 0 143.27 0 320s286.54 320 640 320 640-143.27 640-320S993.46 0 640 0zm0 589.48C314.44 589.48 50.52 468.83 50.52 320S314.44 50.52 640 50.52 1229.48 171.17 1229.48 320 965.56 589.48 640 589.48zm-80.71-325.62v-50.53h180.55v50.53h-65v162.81H624.3V263.86zm398.49-50.53v213.34h-50.52l-91.63-127v127h-50.52V213.33h50.52l91.63 127v-127zM320.72 426.67V213.33h50.52l56.13 86.34 56.13-86.34H534v213.34h-50.5V306l-38.32 58.9h-35.62L371.24 306v120.67z"/><g fill="none" transform="translate(-320 -320)"><path d="M0 1280c176.73 0 320-286.54 320-640S176.73 0 0 0m1920 0c-176.73 0-320 286.54-320 640s143.27 640 320 640m-320 0c0-176.73-286.54-320-640-320s-640 143.27-640 320M320 0c0 176.73 286.54 320 640 320s640-143.27 640-320"/><path d="M0 0h1920v1280H0z"/></g></svg>