<svg width="30" height="26" viewBox="0 0 30 26" fill="none" xmlns="http://www.w3.org/2000/svg">
<path d="M13 5C13 6.10457 13.8954 7 15 7C16.1046 7 17 6.10457 17 5C17 3.89543 16.1046 3 15 3C13.8954 3 13 3.89543 13 5Z" fill="#00678F" stroke="#00678F" stroke-width="2"/>
<path d="M13 13C13 14.1046 13.8954 15 15 15C16.1046 15 17 14.1046 17 13C17 11.8954 16.1046 11 15 11C13.8954 11 13 11.8954 13 13Z" fill="#00678F" stroke="#00678F" stroke-width="2"/>
<path d="M13 21C13 22.1046 13.8954 23 15 23C16.1046 23 17 22.1046 17 21C17 19.8954 16.1046 19 15 19C13.8954 19 13 19.8954 13 21Z" fill="#00678F" stroke="#00678F" stroke-width="2"/>
</svg>
