<svg width="16" height="17" viewBox="0 0 16 17" fill="none" xmlns="http://www.w3.org/2000/svg">
<g clip-path="url(#clip0_5899_5247)">
<path d="M4 2.5C3.46957 2.5 2.96086 2.71071 2.58579 3.08579C2.21071 3.46086 2 3.96957 2 4.5V12.5C2 13.0304 2.21071 13.5391 2.58579 13.9142C2.96086 14.2893 3.46957 14.5 4 14.5H12C12.5304 14.5 13.0391 14.2893 13.4142 13.9142C13.7893 13.5391 14 13.0304 14 12.5V10.5C14 10.2348 14.1054 9.98043 14.2929 9.79289C14.4804 9.60536 14.7348 9.5 15 9.5C15.2652 9.5 15.5196 9.60536 15.7071 9.79289C15.8946 9.98043 16 10.2348 16 10.5V12.5C16 13.5609 15.5786 14.5783 14.8284 15.3284C14.0783 16.0786 13.0609 16.5 12 16.5H4C2.93913 16.5 1.92172 16.0786 1.17157 15.3284C0.421427 14.5783 0 13.5609 0 12.5V4.5C0 3.43913 0.421427 2.42172 1.17157 1.67157C1.92172 0.921427 2.93913 0.5 4 0.5H6C6.26522 0.5 6.51957 0.605357 6.70711 0.792893C6.89464 0.98043 7 1.23478 7 1.5C7 1.76522 6.89464 2.01957 6.70711 2.20711C6.51957 2.39464 6.26522 2.5 6 2.5H4ZM10 2.5C9.73478 2.5 9.48043 2.39464 9.29289 2.20711C9.10536 2.01957 9 1.76522 9 1.5C9 1.23478 9.10536 0.98043 9.29289 0.792893C9.48043 0.605357 9.73478 0.5 10 0.5H15C15.2652 0.5 15.5196 0.605357 15.7071 0.792893C15.8946 0.98043 16 1.23478 16 1.5V6.5C16 6.76522 15.8946 7.01957 15.7071 7.20711C15.5196 7.39464 15.2652 7.5 15 7.5C14.7348 7.5 14.4804 7.39464 14.2929 7.20711C14.1054 7.01957 14 6.76522 14 6.5V3.914L10.708 7.208C10.615 7.30098 10.5046 7.37473 10.3832 7.42505C10.2617 7.47537 10.1315 7.50126 10 7.50126C9.86851 7.50126 9.73831 7.47537 9.61683 7.42505C9.49535 7.37473 9.38498 7.30098 9.292 7.208C9.19902 7.11502 9.12527 7.00465 9.07495 6.88317C9.02464 6.76169 8.99874 6.63149 8.99874 6.5C8.99874 6.36851 9.02464 6.23831 9.07495 6.11683C9.12527 5.99535 9.19902 5.88498 9.292 5.792L12.586 2.5H10Z" fill="#C7C7C7"/>
</g>
<defs>
<clipPath id="clip0_5899_5247">
<rect width="16" height="16" fill="white" transform="translate(0 0.5)"/>
</clipPath>
</defs>
</svg>
