<svg width="34" height="30" viewBox="0 0 34 30" fill="none" xmlns="http://www.w3.org/2000/svg">
<rect width="34" height="30" fill="white"/>
<path d="M10.2928 11.2928C10.4803 11.1053 10.7346 11 10.9998 11C11.265 11 11.5193 11.1053 11.7068 11.2928L16.6568 16.2428L21.6068 11.2928C21.7954 11.1106 22.048 11.0098 22.3102 11.0121C22.5724 11.0144 22.8232 11.1196 23.0086 11.305C23.194 11.4904 23.2992 11.7412 23.3015 12.0034C23.3037 12.2656 23.2029 12.5182 23.0208 12.7068L17.3638 18.3638C17.1763 18.5513 16.922 18.6566 16.6568 18.6566C16.3916 18.6566 16.1373 18.5513 15.9498 18.3638L10.2928 12.7068C10.1053 12.5193 10 12.265 10 11.9998C10 11.7346 10.1053 11.4803 10.2928 11.2928V11.2928Z" fill="black"/>
</svg>
