<svg xmlns="http://www.w3.org/2000/svg" width="486.046" height="434.956" viewBox="0 0 486.046 434.956"><defs><style>.a{opacity:0.7;}.b,.c,.g{fill:none;}.b{stroke:#a5a5a5;}.b,.c{stroke-width:2px;}.c{stroke:#1d1d1d;}.d{fill:#1d1d1d;}.e{fill:#a5a5a5;}.f{stroke:none;}</style></defs><g class="a" transform="translate(-639.9 -8800.9)"><g class="b" transform="translate(813.744 8800.9) rotate(90)"><rect class="f" width="82.817" height="16.421" rx="8.21"/><rect class="g" x="1" y="1" width="80.817" height="14.421" rx="7.21"/></g><g class="b" transform="translate(640 8912.474)"><rect class="f" width="43" height="17" rx="8.5"/><rect class="g" x="1" y="1" width="41" height="15" rx="7.5"/></g><g class="c" transform="translate(887 9143.474)"><rect class="f" width="88" height="24" rx="12"/><rect class="g" x="1" y="1" width="86" height="22" rx="11"/></g><path class="d" d="M-973.782,488.939a49.932,49.932,0,0,1-35.511-14.79,49.932,49.932,0,0,1-14.79-35.511,8.861,8.861,0,0,1,8.861-8.861,8.861,8.861,0,0,1,8.861,8.861,32.326,32.326,0,0,0,9.6,22.979,32.326,32.326,0,0,0,22.979,9.6,32.326,32.326,0,0,0,22.979-9.6,32.326,32.326,0,0,0,9.6-22.979,8.861,8.861,0,0,1,8.861-8.861,8.861,8.861,0,0,1,8.861,8.861,49.932,49.932,0,0,1-14.79,35.511A49.932,49.932,0,0,1-973.782,488.939Z" transform="translate(1681.983 8388.646)"/><path class="d" d="M-2487.035,336.375a8.847,8.847,0,0,1,7.734,4.466l56.875,98.509a8.931,8.931,0,0,1-7.734,13.4H-2543.91a8.931,8.931,0,0,1-7.735-13.4l56.875-98.509a8.847,8.847,0,0,1,7.734-4.466m0-26.794a35.854,35.854,0,0,0-17.34,4.475,35.709,35.709,0,0,0-13.6,13.387l-56.875,98.509a35.71,35.71,0,0,0-4.794,18.471,35.853,35.853,0,0,0,4.794,17.254,35.854,35.854,0,0,0,12.546,12.779,35.709,35.709,0,0,0,18.393,5.084h113.749a35.708,35.708,0,0,0,18.393-5.084,35.857,35.857,0,0,0,12.546-12.779,35.852,35.852,0,0,0,4.793-17.254,35.7,35.7,0,0,0-4.794-18.471l-56.874-98.509a35.709,35.709,0,0,0-13.6-13.387,35.853,35.853,0,0,0-17.34-4.475Z" transform="translate(3395.658 8583.774)"/><path class="d" d="M-3280.509,311.77a6.073,6.073,0,0,1,6.073,6.073v50.244a6.073,6.073,0,0,1-6.073,6.073h-50.244a6.073,6.073,0,0,1-6.073-6.073V317.843a6.073,6.073,0,0,1,6.073-6.073h50.244m0-18.686h-50.244a24.787,24.787,0,0,0-24.759,24.759v50.244a24.787,24.787,0,0,0,24.759,24.759h50.244a24.787,24.787,0,0,0,24.759-24.759V317.843a24.787,24.787,0,0,0-24.759-24.759Z" transform="translate(4045.388 8843.01)"/><path class="d" d="M-3349.071,294.689a.521.521,0,0,1,.521.522v4.315a.521.521,0,0,1-.521.522h-4.315a.521.521,0,0,1-.521-.522V295.21a.521.521,0,0,1,.521-.522h4.315m0-1.6h-4.315a2.129,2.129,0,0,0-2.126,2.126v4.315a2.129,2.129,0,0,0,2.126,2.126h4.315a2.129,2.129,0,0,0,2.126-2.126V295.21a2.129,2.129,0,0,0-2.126-2.126Z" transform="translate(4136.772 8641.68)"/><path class="d" d="M-3349.071,294.689a.521.521,0,0,1,.521.522v4.315a.521.521,0,0,1-.521.522h-4.315a.521.521,0,0,1-.521-.522V295.21a.521.521,0,0,1,.521-.522h4.315m0-1.6h-4.315a2.129,2.129,0,0,0-2.126,2.126v4.315a2.129,2.129,0,0,0,2.126,2.126h4.315a2.129,2.129,0,0,0,2.126-2.126V295.21a2.129,2.129,0,0,0-2.126-2.126Z" transform="translate(4322.396 8795.89)"/><path class="d" d="M-3967.38,436.56a4.313,4.313,0,0,1,4.313,4.313v35.681a4.313,4.313,0,0,1-4.313,4.313h-35.681a4.313,4.313,0,0,1-4.312-4.313V440.873a4.313,4.313,0,0,1,4.313-4.313h35.681m0-6.635h-35.681a10.96,10.96,0,0,0-10.947,10.948v35.681a10.96,10.96,0,0,0,10.947,10.948h35.681a10.96,10.96,0,0,0,10.947-10.948V440.873a10.96,10.96,0,0,0-10.947-10.948Z" transform="translate(5068.707 8538.394)"/><g transform="translate(1005.437 8907.635)"><path class="e" d="M-1418.941,466.125a5.444,5.444,0,0,1-5.444-5.444,5.444,5.444,0,0,1,5.444-5.444,20.154,20.154,0,0,0,14.153-5.862,20.154,20.154,0,0,0,5.862-14.153,5.444,5.444,0,0,1,5.444-5.444,5.444,5.444,0,0,1,5.444,5.444,30.748,30.748,0,0,1-2.353,11.826,30.75,30.75,0,0,1-6.7,10.026,30.752,30.752,0,0,1-10.026,6.7A30.747,30.747,0,0,1-1418.941,466.125Z" transform="translate(1424.385 -429.777)"/></g><g transform="translate(1013.526 9078.979)"><path class="e" d="M-937.873,1028.121a55.792,55.792,0,0,1-39.672-16.537,55.79,55.79,0,0,1-16.538-39.672,2.852,2.852,0,0,1,2.852-2.852,2.853,2.853,0,0,1,2.853,2.852,50.123,50.123,0,0,0,14.867,35.638,50.125,50.125,0,0,0,35.638,14.867,50.124,50.124,0,0,0,35.638-14.867,50.124,50.124,0,0,0,14.867-35.638,2.852,2.852,0,0,1,2.853-2.852,2.852,2.852,0,0,1,2.852,2.852,55.792,55.792,0,0,1-16.538,39.672A55.793,55.793,0,0,1-937.873,1028.121Z" transform="translate(994.083 -969.059)"/></g><g transform="translate(959.913 8867.789)"><path class="e" d="M-3600.666,727.646a3.452,3.452,0,0,1-2.455-1.022,3.452,3.452,0,0,1-1.022-2.455.613.613,0,0,1,.613-.612.612.612,0,0,1,.613.612,2.234,2.234,0,0,0,.664,1.588,2.235,2.235,0,0,0,1.588.664,2.234,2.234,0,0,0,1.588-.664,2.234,2.234,0,0,0,.664-1.588,3.453,3.453,0,0,1,1.022-2.454,3.452,3.452,0,0,1,2.455-1.022,3.452,3.452,0,0,1,2.455,1.022,3.451,3.451,0,0,1,1.022,2.454.612.612,0,0,1-.612.613.612.612,0,0,1-.613-.613,2.234,2.234,0,0,0-.664-1.588,2.234,2.234,0,0,0-1.588-.664,2.235,2.235,0,0,0-1.588.664,2.234,2.234,0,0,0-.663,1.588,3.45,3.45,0,0,1-1.023,2.455A3.45,3.45,0,0,1-3600.666,727.646Z" transform="translate(3604.143 -720.692)"/><path class="e" d="M-3600.666,727.646a3.452,3.452,0,0,1-2.455-1.022,3.452,3.452,0,0,1-1.022-2.455.613.613,0,0,1,.613-.612.612.612,0,0,1,.613.612,2.234,2.234,0,0,0,.664,1.588,2.235,2.235,0,0,0,1.588.664,2.234,2.234,0,0,0,1.588-.664,2.234,2.234,0,0,0,.664-1.588,3.453,3.453,0,0,1,1.022-2.454,3.452,3.452,0,0,1,2.455-1.022,3.452,3.452,0,0,1,2.455,1.022,3.451,3.451,0,0,1,1.022,2.454.612.612,0,0,1-.612.613.612.612,0,0,1-.613-.613,2.234,2.234,0,0,0-.664-1.588,2.234,2.234,0,0,0-1.588-.664,2.235,2.235,0,0,0-1.588.664,2.234,2.234,0,0,0-.663,1.588,3.45,3.45,0,0,1-1.023,2.455A3.45,3.45,0,0,1-3600.666,727.646Z" transform="translate(3615.566 -720.692)"/><path class="e" d="M-3600.666,727.646a3.452,3.452,0,0,1-2.455-1.022,3.452,3.452,0,0,1-1.022-2.455.613.613,0,0,1,.613-.612.612.612,0,0,1,.613.612,2.234,2.234,0,0,0,.664,1.588,2.235,2.235,0,0,0,1.588.664,2.234,2.234,0,0,0,1.588-.664,2.234,2.234,0,0,0,.664-1.588,3.453,3.453,0,0,1,1.022-2.454,3.452,3.452,0,0,1,2.455-1.022,3.452,3.452,0,0,1,2.455,1.022,3.451,3.451,0,0,1,1.022,2.454.612.612,0,0,1-.612.613.612.612,0,0,1-.613-.613,2.234,2.234,0,0,0-.664-1.588,2.234,2.234,0,0,0-1.588-.664,2.235,2.235,0,0,0-1.588.664,2.234,2.234,0,0,0-.663,1.588,3.45,3.45,0,0,1-1.023,2.455A3.45,3.45,0,0,1-3600.666,727.646Z" transform="translate(3626.989 -720.692)"/><path class="e" d="M-3600.666,727.646a3.452,3.452,0,0,1-2.455-1.022,3.452,3.452,0,0,1-1.022-2.455.613.613,0,0,1,.613-.612.612.612,0,0,1,.613.612,2.234,2.234,0,0,0,.664,1.588,2.235,2.235,0,0,0,1.588.664,2.234,2.234,0,0,0,1.588-.664,2.234,2.234,0,0,0,.664-1.588,3.453,3.453,0,0,1,1.022-2.454,3.452,3.452,0,0,1,2.455-1.022,3.452,3.452,0,0,1,2.455,1.022,3.451,3.451,0,0,1,1.022,2.454.612.612,0,0,1-.612.613.612.612,0,0,1-.613-.613,2.234,2.234,0,0,0-.664-1.588,2.234,2.234,0,0,0-1.588-.664,2.235,2.235,0,0,0-1.588.664,2.234,2.234,0,0,0-.663,1.588,3.45,3.45,0,0,1-1.023,2.455A3.45,3.45,0,0,1-3600.666,727.646Z" transform="translate(3638.412 -720.692)"/><path class="e" d="M-3600.666,727.646a3.452,3.452,0,0,1-2.455-1.022,3.452,3.452,0,0,1-1.022-2.455.613.613,0,0,1,.613-.612.612.612,0,0,1,.613.612,2.234,2.234,0,0,0,.664,1.588,2.235,2.235,0,0,0,1.588.664,2.234,2.234,0,0,0,1.588-.664,2.234,2.234,0,0,0,.664-1.588,3.453,3.453,0,0,1,1.022-2.454,3.452,3.452,0,0,1,2.455-1.022,3.452,3.452,0,0,1,2.455,1.022,3.451,3.451,0,0,1,1.022,2.454.612.612,0,0,1-.612.613.612.612,0,0,1-.613-.613,2.234,2.234,0,0,0-.664-1.588,2.234,2.234,0,0,0-1.588-.664,2.235,2.235,0,0,0-1.588.664,2.234,2.234,0,0,0-.663,1.588,3.45,3.45,0,0,1-1.023,2.455A3.45,3.45,0,0,1-3600.666,727.646Z" transform="translate(3649.835 -720.692)"/><path class="e" d="M-3600.666,727.646a3.452,3.452,0,0,1-2.455-1.022,3.452,3.452,0,0,1-1.022-2.455.613.613,0,0,1,.613-.612.612.612,0,0,1,.613.612,2.234,2.234,0,0,0,.664,1.588,2.235,2.235,0,0,0,1.588.664,2.234,2.234,0,0,0,1.588-.664,2.234,2.234,0,0,0,.664-1.588,3.453,3.453,0,0,1,1.022-2.454,3.452,3.452,0,0,1,2.455-1.022,3.452,3.452,0,0,1,2.455,1.022,3.451,3.451,0,0,1,1.022,2.454.612.612,0,0,1-.612.613.612.612,0,0,1-.613-.613,2.234,2.234,0,0,0-.664-1.588,2.234,2.234,0,0,0-1.588-.664,2.235,2.235,0,0,0-1.588.664,2.234,2.234,0,0,0-.663,1.588,3.45,3.45,0,0,1-1.023,2.455A3.45,3.45,0,0,1-3600.666,727.646Z" transform="translate(3661.258 -720.692)"/><path class="e" d="M-3600.666,727.646a3.452,3.452,0,0,1-2.455-1.022,3.452,3.452,0,0,1-1.022-2.455.613.613,0,0,1,.613-.612.612.612,0,0,1,.613.612,2.234,2.234,0,0,0,.664,1.588,2.235,2.235,0,0,0,1.588.664,2.234,2.234,0,0,0,1.588-.664,2.234,2.234,0,0,0,.664-1.588,3.453,3.453,0,0,1,1.022-2.454,3.452,3.452,0,0,1,2.455-1.022,3.452,3.452,0,0,1,2.455,1.022,3.451,3.451,0,0,1,1.022,2.454.612.612,0,0,1-.612.613.612.612,0,0,1-.613-.613,2.234,2.234,0,0,0-.664-1.588,2.234,2.234,0,0,0-1.588-.664,2.235,2.235,0,0,0-1.588.664,2.234,2.234,0,0,0-.663,1.588,3.45,3.45,0,0,1-1.023,2.455A3.45,3.45,0,0,1-3600.666,727.646Z" transform="translate(3672.681 -720.692)"/><path class="e" d="M-3600.666,727.646a3.452,3.452,0,0,1-2.455-1.022,3.452,3.452,0,0,1-1.022-2.455.613.613,0,0,1,.613-.612.612.612,0,0,1,.613.612,2.234,2.234,0,0,0,.664,1.588,2.235,2.235,0,0,0,1.588.664,2.234,2.234,0,0,0,1.588-.664,2.234,2.234,0,0,0,.664-1.588,3.453,3.453,0,0,1,1.022-2.454,3.452,3.452,0,0,1,2.455-1.022,3.452,3.452,0,0,1,2.455,1.022,3.451,3.451,0,0,1,1.022,2.454.612.612,0,0,1-.612.613.612.612,0,0,1-.613-.613,2.234,2.234,0,0,0-.664-1.588,2.234,2.234,0,0,0-1.588-.664,2.235,2.235,0,0,0-1.588.664,2.234,2.234,0,0,0-.663,1.588,3.45,3.45,0,0,1-1.023,2.455A3.45,3.45,0,0,1-3600.666,727.646Z" transform="translate(3684.104 -720.692)"/><path class="e" d="M-3600.666,727.646a3.452,3.452,0,0,1-2.455-1.022,3.452,3.452,0,0,1-1.022-2.455.613.613,0,0,1,.613-.612.612.612,0,0,1,.613.612,2.234,2.234,0,0,0,.664,1.588,2.235,2.235,0,0,0,1.588.664,2.234,2.234,0,0,0,1.588-.664,2.234,2.234,0,0,0,.664-1.588,3.453,3.453,0,0,1,1.022-2.454,3.452,3.452,0,0,1,2.455-1.022,3.452,3.452,0,0,1,2.455,1.022,3.451,3.451,0,0,1,1.022,2.454.612.612,0,0,1-.612.613.612.612,0,0,1-.613-.613,2.234,2.234,0,0,0-.664-1.588,2.234,2.234,0,0,0-1.588-.664,2.235,2.235,0,0,0-1.588.664,2.234,2.234,0,0,0-.663,1.588,3.45,3.45,0,0,1-1.023,2.455A3.45,3.45,0,0,1-3600.666,727.646Z" transform="translate(3695.527 -720.692)"/><path class="e" d="M-3600.666,727.646a3.452,3.452,0,0,1-2.455-1.022,3.452,3.452,0,0,1-1.022-2.455.613.613,0,0,1,.613-.612.612.612,0,0,1,.613.612,2.234,2.234,0,0,0,.664,1.588,2.235,2.235,0,0,0,1.588.664,2.234,2.234,0,0,0,1.588-.664,2.234,2.234,0,0,0,.664-1.588,3.453,3.453,0,0,1,1.022-2.454,3.452,3.452,0,0,1,2.455-1.022,3.452,3.452,0,0,1,2.455,1.022,3.451,3.451,0,0,1,1.022,2.454.612.612,0,0,1-.612.613.612.612,0,0,1-.613-.613,2.234,2.234,0,0,0-.664-1.588,2.234,2.234,0,0,0-1.588-.664,2.235,2.235,0,0,0-1.588.664,2.234,2.234,0,0,0-.663,1.588,3.45,3.45,0,0,1-1.023,2.455A3.45,3.45,0,0,1-3600.666,727.646Z" transform="translate(3706.95 -720.692)"/><path class="e" d="M-3600.666,727.646a3.452,3.452,0,0,1-2.455-1.022,3.452,3.452,0,0,1-1.022-2.455.613.613,0,0,1,.613-.612.612.612,0,0,1,.613.612,2.234,2.234,0,0,0,.664,1.588,2.235,2.235,0,0,0,1.588.664,2.234,2.234,0,0,0,1.588-.664,2.234,2.234,0,0,0,.664-1.588,3.453,3.453,0,0,1,1.022-2.454,3.452,3.452,0,0,1,2.455-1.022,3.452,3.452,0,0,1,2.455,1.022,3.451,3.451,0,0,1,1.022,2.454.612.612,0,0,1-.612.613.612.612,0,0,1-.613-.613,2.234,2.234,0,0,0-.664-1.588,2.234,2.234,0,0,0-1.588-.664,2.235,2.235,0,0,0-1.588.664,2.234,2.234,0,0,0-.663,1.588,3.45,3.45,0,0,1-1.023,2.455A3.45,3.45,0,0,1-3600.666,727.646Z" transform="translate(3718.373 -720.692)"/></g><g transform="translate(691.473 9059.838)"><path class="e" d="M-3600.666,727.646a3.452,3.452,0,0,1-2.455-1.022,3.452,3.452,0,0,1-1.022-2.455.613.613,0,0,1,.613-.612.612.612,0,0,1,.613.612,2.234,2.234,0,0,0,.664,1.588,2.235,2.235,0,0,0,1.588.664,2.234,2.234,0,0,0,1.588-.664,2.234,2.234,0,0,0,.664-1.588,3.453,3.453,0,0,1,1.022-2.454,3.452,3.452,0,0,1,2.455-1.022,3.452,3.452,0,0,1,2.455,1.022,3.451,3.451,0,0,1,1.022,2.454.612.612,0,0,1-.612.613.612.612,0,0,1-.613-.613,2.234,2.234,0,0,0-.664-1.588,2.234,2.234,0,0,0-1.588-.664,2.235,2.235,0,0,0-1.588.664,2.234,2.234,0,0,0-.663,1.588,3.45,3.45,0,0,1-1.023,2.455A3.45,3.45,0,0,1-3600.666,727.646Z" transform="translate(3604.143 -720.692)"/><path class="e" d="M-3600.666,727.646a3.452,3.452,0,0,1-2.455-1.022,3.452,3.452,0,0,1-1.022-2.455.613.613,0,0,1,.613-.612.612.612,0,0,1,.613.612,2.234,2.234,0,0,0,.664,1.588,2.235,2.235,0,0,0,1.588.664,2.234,2.234,0,0,0,1.588-.664,2.234,2.234,0,0,0,.664-1.588,3.453,3.453,0,0,1,1.022-2.454,3.452,3.452,0,0,1,2.455-1.022,3.452,3.452,0,0,1,2.455,1.022,3.451,3.451,0,0,1,1.022,2.454.612.612,0,0,1-.612.613.612.612,0,0,1-.613-.613,2.234,2.234,0,0,0-.664-1.588,2.234,2.234,0,0,0-1.588-.664,2.235,2.235,0,0,0-1.588.664,2.234,2.234,0,0,0-.663,1.588,3.45,3.45,0,0,1-1.023,2.455A3.45,3.45,0,0,1-3600.666,727.646Z" transform="translate(3615.566 -720.692)"/><path class="e" d="M-3600.666,727.646a3.452,3.452,0,0,1-2.455-1.022,3.452,3.452,0,0,1-1.022-2.455.613.613,0,0,1,.613-.612.612.612,0,0,1,.613.612,2.234,2.234,0,0,0,.664,1.588,2.235,2.235,0,0,0,1.588.664,2.234,2.234,0,0,0,1.588-.664,2.234,2.234,0,0,0,.664-1.588,3.453,3.453,0,0,1,1.022-2.454,3.452,3.452,0,0,1,2.455-1.022,3.452,3.452,0,0,1,2.455,1.022,3.451,3.451,0,0,1,1.022,2.454.612.612,0,0,1-.612.613.612.612,0,0,1-.613-.613,2.234,2.234,0,0,0-.664-1.588,2.234,2.234,0,0,0-1.588-.664,2.235,2.235,0,0,0-1.588.664,2.234,2.234,0,0,0-.663,1.588,3.45,3.45,0,0,1-1.023,2.455A3.45,3.45,0,0,1-3600.666,727.646Z" transform="translate(3626.989 -720.692)"/><path class="e" d="M-3600.666,727.646a3.452,3.452,0,0,1-2.455-1.022,3.452,3.452,0,0,1-1.022-2.455.613.613,0,0,1,.613-.612.612.612,0,0,1,.613.612,2.234,2.234,0,0,0,.664,1.588,2.235,2.235,0,0,0,1.588.664,2.234,2.234,0,0,0,1.588-.664,2.234,2.234,0,0,0,.664-1.588,3.453,3.453,0,0,1,1.022-2.454,3.452,3.452,0,0,1,2.455-1.022,3.452,3.452,0,0,1,2.455,1.022,3.451,3.451,0,0,1,1.022,2.454.612.612,0,0,1-.612.613.612.612,0,0,1-.613-.613,2.234,2.234,0,0,0-.664-1.588,2.234,2.234,0,0,0-1.588-.664,2.235,2.235,0,0,0-1.588.664,2.234,2.234,0,0,0-.663,1.588,3.45,3.45,0,0,1-1.023,2.455A3.45,3.45,0,0,1-3600.666,727.646Z" transform="translate(3638.412 -720.692)"/><path class="e" d="M-3600.666,727.646a3.452,3.452,0,0,1-2.455-1.022,3.452,3.452,0,0,1-1.022-2.455.613.613,0,0,1,.613-.612.612.612,0,0,1,.613.612,2.234,2.234,0,0,0,.664,1.588,2.235,2.235,0,0,0,1.588.664,2.234,2.234,0,0,0,1.588-.664,2.234,2.234,0,0,0,.664-1.588,3.453,3.453,0,0,1,1.022-2.454,3.452,3.452,0,0,1,2.455-1.022,3.452,3.452,0,0,1,2.455,1.022,3.451,3.451,0,0,1,1.022,2.454.612.612,0,0,1-.612.613.612.612,0,0,1-.613-.613,2.234,2.234,0,0,0-.664-1.588,2.234,2.234,0,0,0-1.588-.664,2.235,2.235,0,0,0-1.588.664,2.234,2.234,0,0,0-.663,1.588,3.45,3.45,0,0,1-1.023,2.455A3.45,3.45,0,0,1-3600.666,727.646Z" transform="translate(3649.835 -720.692)"/></g><g transform="translate(994.182 9175.496)"><path class="e" d="M-3600.666,727.646a3.452,3.452,0,0,1-2.455-1.022,3.452,3.452,0,0,1-1.022-2.455.613.613,0,0,1,.613-.612.612.612,0,0,1,.613.612,2.234,2.234,0,0,0,.664,1.588,2.235,2.235,0,0,0,1.588.664,2.234,2.234,0,0,0,1.588-.664,2.234,2.234,0,0,0,.664-1.588,3.453,3.453,0,0,1,1.022-2.454,3.452,3.452,0,0,1,2.455-1.022,3.452,3.452,0,0,1,2.455,1.022,3.451,3.451,0,0,1,1.022,2.454.612.612,0,0,1-.612.613.612.612,0,0,1-.613-.613,2.234,2.234,0,0,0-.664-1.588,2.234,2.234,0,0,0-1.588-.664,2.235,2.235,0,0,0-1.588.664,2.234,2.234,0,0,0-.663,1.588,3.45,3.45,0,0,1-1.023,2.455A3.45,3.45,0,0,1-3600.666,727.646Z" transform="translate(3604.143 -720.692)"/><path class="e" d="M-3600.666,727.646a3.452,3.452,0,0,1-2.455-1.022,3.452,3.452,0,0,1-1.022-2.455.613.613,0,0,1,.613-.612.612.612,0,0,1,.613.612,2.234,2.234,0,0,0,.664,1.588,2.235,2.235,0,0,0,1.588.664,2.234,2.234,0,0,0,1.588-.664,2.234,2.234,0,0,0,.664-1.588,3.453,3.453,0,0,1,1.022-2.454,3.452,3.452,0,0,1,2.455-1.022,3.452,3.452,0,0,1,2.455,1.022,3.451,3.451,0,0,1,1.022,2.454.612.612,0,0,1-.612.613.612.612,0,0,1-.613-.613,2.234,2.234,0,0,0-.664-1.588,2.234,2.234,0,0,0-1.588-.664,2.235,2.235,0,0,0-1.588.664,2.234,2.234,0,0,0-.663,1.588,3.45,3.45,0,0,1-1.023,2.455A3.45,3.45,0,0,1-3600.666,727.646Z" transform="translate(3615.566 -720.692)"/><path class="e" d="M-3600.666,727.646a3.452,3.452,0,0,1-2.455-1.022,3.452,3.452,0,0,1-1.022-2.455.613.613,0,0,1,.613-.612.612.612,0,0,1,.613.612,2.234,2.234,0,0,0,.664,1.588,2.235,2.235,0,0,0,1.588.664,2.234,2.234,0,0,0,1.588-.664,2.234,2.234,0,0,0,.664-1.588,3.453,3.453,0,0,1,1.022-2.454,3.452,3.452,0,0,1,2.455-1.022,3.452,3.452,0,0,1,2.455,1.022,3.451,3.451,0,0,1,1.022,2.454.612.612,0,0,1-.612.613.612.612,0,0,1-.613-.613,2.234,2.234,0,0,0-.664-1.588,2.234,2.234,0,0,0-1.588-.664,2.235,2.235,0,0,0-1.588.664,2.234,2.234,0,0,0-.663,1.588,3.45,3.45,0,0,1-1.023,2.455A3.45,3.45,0,0,1-3600.666,727.646Z" transform="translate(3626.989 -720.692)"/><path class="e" d="M-3600.666,727.646a3.452,3.452,0,0,1-2.455-1.022,3.452,3.452,0,0,1-1.022-2.455.613.613,0,0,1,.613-.612.612.612,0,0,1,.613.612,2.234,2.234,0,0,0,.664,1.588,2.235,2.235,0,0,0,1.588.664,2.234,2.234,0,0,0,1.588-.664,2.234,2.234,0,0,0,.664-1.588,3.453,3.453,0,0,1,1.022-2.454,3.452,3.452,0,0,1,2.455-1.022,3.452,3.452,0,0,1,2.455,1.022,3.451,3.451,0,0,1,1.022,2.454.612.612,0,0,1-.612.613.612.612,0,0,1-.613-.613,2.234,2.234,0,0,0-.664-1.588,2.234,2.234,0,0,0-1.588-.664,2.235,2.235,0,0,0-1.588.664,2.234,2.234,0,0,0-.663,1.588,3.45,3.45,0,0,1-1.023,2.455A3.45,3.45,0,0,1-3600.666,727.646Z" transform="translate(3638.412 -720.692)"/><path class="e" d="M-3600.666,727.646a3.452,3.452,0,0,1-2.455-1.022,3.452,3.452,0,0,1-1.022-2.455.613.613,0,0,1,.613-.612.612.612,0,0,1,.613.612,2.234,2.234,0,0,0,.664,1.588,2.235,2.235,0,0,0,1.588.664,2.234,2.234,0,0,0,1.588-.664,2.234,2.234,0,0,0,.664-1.588,3.453,3.453,0,0,1,1.022-2.454,3.452,3.452,0,0,1,2.455-1.022,3.452,3.452,0,0,1,2.455,1.022,3.451,3.451,0,0,1,1.022,2.454.612.612,0,0,1-.612.613.612.612,0,0,1-.613-.613,2.234,2.234,0,0,0-.664-1.588,2.234,2.234,0,0,0-1.588-.664,2.235,2.235,0,0,0-1.588.664,2.234,2.234,0,0,0-.663,1.588,3.45,3.45,0,0,1-1.023,2.455A3.45,3.45,0,0,1-3600.666,727.646Z" transform="translate(3649.835 -720.692)"/></g><path class="e" d="M-3349.071,294.689a.521.521,0,0,1,.521.522v4.315a.521.521,0,0,1-.521.522h-4.315a.521.521,0,0,1-.521-.522V295.21a.521.521,0,0,1,.521-.522h4.315m0-1.6h-4.315a2.129,2.129,0,0,0-2.126,2.126v4.315a2.129,2.129,0,0,0,2.126,2.126h4.315a2.129,2.129,0,0,0,2.126-2.126V295.21a2.129,2.129,0,0,0-2.126-2.126Z" transform="translate(3995.412 8830.874)"/><path class="e" d="M-3349.071,294.689a.521.521,0,0,1,.521.522v4.315a.521.521,0,0,1-.521.522h-4.315a.521.521,0,0,1-.521-.522V295.21a.521.521,0,0,1,.521-.522h4.315m0-1.6h-4.315a2.129,2.129,0,0,0-2.126,2.126v4.315a2.129,2.129,0,0,0,2.126,2.126h4.315a2.129,2.129,0,0,0,2.126-2.126V295.21a2.129,2.129,0,0,0-2.126-2.126Z" transform="translate(4179.608 8889.416)"/><path class="e" d="M-4600.937,477.93a3.318,3.318,0,0,1,3.318,3.318V508.7a3.318,3.318,0,0,1-3.318,3.318h-27.453a3.318,3.318,0,0,1-3.318-3.318V481.248a3.318,3.318,0,0,1,3.318-3.318h27.453m0-1.276h-27.453a4.6,4.6,0,0,0-4.594,4.594V508.7a4.6,4.6,0,0,0,4.594,4.594h27.453a4.6,4.6,0,0,0,4.594-4.594V481.248a4.6,4.6,0,0,0-4.594-4.594Z" transform="translate(5362.127 8495.948)"/><path class="e" d="M-4615.3,477.358a1.831,1.831,0,0,1,1.832,1.831v15.15a1.831,1.831,0,0,1-1.832,1.831h-15.15a1.831,1.831,0,0,1-1.831-1.831V479.19a1.831,1.831,0,0,1,1.831-1.831h15.15m0-.7h-15.15a2.538,2.538,0,0,0-2.536,2.536v15.15a2.538,2.538,0,0,0,2.536,2.536h15.15a2.538,2.538,0,0,0,2.536-2.536V479.19a2.538,2.538,0,0,0-2.536-2.536Z" transform="translate(5446.729 8624.814)"/></g></svg>