<svg xmlns="http://www.w3.org/2000/svg" width="475.913" height="394.218" viewBox="0 0 475.913 394.218"><defs><style>.a,.b,.f{fill:none;}.a{stroke:#ffeb34;}.a,.b{stroke-width:2px;}.b{stroke:#fd9d27;}.c{fill:#ffeb00;}.d{fill:#ff9d00;}.e{stroke:none;}</style></defs><g transform="translate(0 -48.293)"><g class="a" transform="translate(57.69 442.511) rotate(-90)"><rect class="e" width="82.469" height="16.352" rx="8.176"/><rect class="f" x="1" y="1" width="80.469" height="14.352" rx="7.176"/></g><g class="b" transform="translate(137.083 379)"><rect class="e" width="131" height="35" rx="17.5"/><rect class="f" x="1" y="1" width="129" height="33" rx="16.5"/></g><path class="c" d="M38.5,59.516a3.677,3.677,0,0,0,3.215-1.856L65.36,16.708a3.713,3.713,0,0,0-3.215-5.569H14.857a3.713,3.713,0,0,0-3.215,5.569L35.285,57.659A3.678,3.678,0,0,0,38.5,59.516m0,11.139a14.816,14.816,0,0,1-12.862-7.426L2,22.277A14.844,14.844,0,0,1,14.857,0H62.145A14.844,14.844,0,0,1,75.006,22.277L51.362,63.229A14.816,14.816,0,0,1,38.5,70.654Z" transform="translate(248.66 275.524)"/><g transform="translate(349.533 70.382)"><path class="c" d="M-3594.977,720.692a3.439,3.439,0,0,1,2.445,1.018,3.437,3.437,0,0,1,1.018,2.444.61.61,0,0,1-.61.61.61.61,0,0,1-.61-.61,2.227,2.227,0,0,0-.661-1.582,2.225,2.225,0,0,0-1.582-.661,2.226,2.226,0,0,0-1.582.661,2.229,2.229,0,0,0-.661,1.582,3.438,3.438,0,0,1-1.018,2.444,3.437,3.437,0,0,1-2.444,1.018,3.434,3.434,0,0,1-2.444-1.018,3.434,3.434,0,0,1-1.019-2.444.61.61,0,0,1,.61-.61.61.61,0,0,1,.61.61,2.227,2.227,0,0,0,.66,1.582,2.227,2.227,0,0,0,1.582.661,2.224,2.224,0,0,0,1.582-.661,2.224,2.224,0,0,0,.661-1.582,3.439,3.439,0,0,1,1.018-2.444A3.437,3.437,0,0,1-3594.977,720.692Z" transform="translate(3717.894 -720.692)"/><path class="c" d="M-3594.977,720.692a3.439,3.439,0,0,1,2.445,1.018,3.437,3.437,0,0,1,1.018,2.444.61.61,0,0,1-.61.61.61.61,0,0,1-.61-.61,2.227,2.227,0,0,0-.661-1.582,2.225,2.225,0,0,0-1.582-.661,2.226,2.226,0,0,0-1.582.661,2.229,2.229,0,0,0-.661,1.582,3.438,3.438,0,0,1-1.018,2.444,3.437,3.437,0,0,1-2.444,1.018,3.434,3.434,0,0,1-2.444-1.018,3.434,3.434,0,0,1-1.019-2.444.61.61,0,0,1,.61-.61.61.61,0,0,1,.61.61,2.227,2.227,0,0,0,.66,1.582,2.227,2.227,0,0,0,1.582.661,2.224,2.224,0,0,0,1.582-.661,2.224,2.224,0,0,0,.661-1.582,3.439,3.439,0,0,1,1.018-2.444A3.437,3.437,0,0,1-3594.977,720.692Z" transform="translate(3706.519 -720.692)"/><path class="c" d="M-3594.977,720.692a3.439,3.439,0,0,1,2.445,1.018,3.437,3.437,0,0,1,1.018,2.444.61.61,0,0,1-.61.61.61.61,0,0,1-.61-.61,2.227,2.227,0,0,0-.661-1.582,2.225,2.225,0,0,0-1.582-.661,2.226,2.226,0,0,0-1.582.661,2.229,2.229,0,0,0-.661,1.582,3.438,3.438,0,0,1-1.018,2.444,3.437,3.437,0,0,1-2.444,1.018,3.434,3.434,0,0,1-2.444-1.018,3.434,3.434,0,0,1-1.019-2.444.61.61,0,0,1,.61-.61.61.61,0,0,1,.61.61,2.227,2.227,0,0,0,.66,1.582,2.227,2.227,0,0,0,1.582.661,2.224,2.224,0,0,0,1.582-.661,2.224,2.224,0,0,0,.661-1.582,3.439,3.439,0,0,1,1.018-2.444A3.437,3.437,0,0,1-3594.977,720.692Z" transform="translate(3695.144 -720.692)"/><path class="c" d="M-3594.977,720.692a3.439,3.439,0,0,1,2.445,1.018,3.437,3.437,0,0,1,1.018,2.444.61.61,0,0,1-.61.61.61.61,0,0,1-.61-.61,2.227,2.227,0,0,0-.661-1.582,2.225,2.225,0,0,0-1.582-.661,2.226,2.226,0,0,0-1.582.661,2.229,2.229,0,0,0-.661,1.582,3.438,3.438,0,0,1-1.018,2.444,3.437,3.437,0,0,1-2.444,1.018,3.434,3.434,0,0,1-2.444-1.018,3.434,3.434,0,0,1-1.019-2.444.61.61,0,0,1,.61-.61.61.61,0,0,1,.61.61,2.227,2.227,0,0,0,.66,1.582,2.227,2.227,0,0,0,1.582.661,2.224,2.224,0,0,0,1.582-.661,2.224,2.224,0,0,0,.661-1.582,3.439,3.439,0,0,1,1.018-2.444A3.437,3.437,0,0,1-3594.977,720.692Z" transform="translate(3683.769 -720.692)"/><path class="c" d="M-3594.977,720.692a3.439,3.439,0,0,1,2.445,1.018,3.437,3.437,0,0,1,1.018,2.444.61.61,0,0,1-.61.61.61.61,0,0,1-.61-.61,2.227,2.227,0,0,0-.661-1.582,2.225,2.225,0,0,0-1.582-.661,2.226,2.226,0,0,0-1.582.661,2.229,2.229,0,0,0-.661,1.582,3.438,3.438,0,0,1-1.018,2.444,3.437,3.437,0,0,1-2.444,1.018,3.434,3.434,0,0,1-2.444-1.018,3.434,3.434,0,0,1-1.019-2.444.61.61,0,0,1,.61-.61.61.61,0,0,1,.61.61,2.227,2.227,0,0,0,.66,1.582,2.227,2.227,0,0,0,1.582.661,2.224,2.224,0,0,0,1.582-.661,2.224,2.224,0,0,0,.661-1.582,3.439,3.439,0,0,1,1.018-2.444A3.437,3.437,0,0,1-3594.977,720.692Z" transform="translate(3672.394 -720.692)"/><path class="c" d="M-3594.977,720.692a3.439,3.439,0,0,1,2.445,1.018,3.437,3.437,0,0,1,1.018,2.444.61.61,0,0,1-.61.61.61.61,0,0,1-.61-.61,2.227,2.227,0,0,0-.661-1.582,2.225,2.225,0,0,0-1.582-.661,2.226,2.226,0,0,0-1.582.661,2.229,2.229,0,0,0-.661,1.582,3.438,3.438,0,0,1-1.018,2.444,3.437,3.437,0,0,1-2.444,1.018,3.434,3.434,0,0,1-2.444-1.018,3.434,3.434,0,0,1-1.019-2.444.61.61,0,0,1,.61-.61.61.61,0,0,1,.61.61,2.227,2.227,0,0,0,.66,1.582,2.227,2.227,0,0,0,1.582.661,2.224,2.224,0,0,0,1.582-.661,2.224,2.224,0,0,0,.661-1.582,3.439,3.439,0,0,1,1.018-2.444A3.437,3.437,0,0,1-3594.977,720.692Z" transform="translate(3661.019 -720.692)"/><path class="c" d="M-3594.977,720.692a3.439,3.439,0,0,1,2.445,1.018,3.437,3.437,0,0,1,1.018,2.444.61.61,0,0,1-.61.61.61.61,0,0,1-.61-.61,2.227,2.227,0,0,0-.661-1.582,2.225,2.225,0,0,0-1.582-.661,2.226,2.226,0,0,0-1.582.661,2.229,2.229,0,0,0-.661,1.582,3.438,3.438,0,0,1-1.018,2.444,3.437,3.437,0,0,1-2.444,1.018,3.434,3.434,0,0,1-2.444-1.018,3.434,3.434,0,0,1-1.019-2.444.61.61,0,0,1,.61-.61.61.61,0,0,1,.61.61,2.227,2.227,0,0,0,.66,1.582,2.227,2.227,0,0,0,1.582.661,2.224,2.224,0,0,0,1.582-.661,2.224,2.224,0,0,0,.661-1.582,3.439,3.439,0,0,1,1.018-2.444A3.437,3.437,0,0,1-3594.977,720.692Z" transform="translate(3649.643 -720.692)"/><path class="c" d="M-3594.977,720.692a3.439,3.439,0,0,1,2.445,1.018,3.437,3.437,0,0,1,1.018,2.444.61.61,0,0,1-.61.61.61.61,0,0,1-.61-.61,2.227,2.227,0,0,0-.661-1.582,2.225,2.225,0,0,0-1.582-.661,2.226,2.226,0,0,0-1.582.661,2.229,2.229,0,0,0-.661,1.582,3.438,3.438,0,0,1-1.018,2.444,3.437,3.437,0,0,1-2.444,1.018,3.434,3.434,0,0,1-2.444-1.018,3.434,3.434,0,0,1-1.019-2.444.61.61,0,0,1,.61-.61.61.61,0,0,1,.61.61,2.227,2.227,0,0,0,.66,1.582,2.227,2.227,0,0,0,1.582.661,2.224,2.224,0,0,0,1.582-.661,2.224,2.224,0,0,0,.661-1.582,3.439,3.439,0,0,1,1.018-2.444A3.437,3.437,0,0,1-3594.977,720.692Z" transform="translate(3638.268 -720.692)"/><path class="c" d="M-3594.977,720.692a3.439,3.439,0,0,1,2.445,1.018,3.437,3.437,0,0,1,1.018,2.444.61.61,0,0,1-.61.61.61.61,0,0,1-.61-.61,2.227,2.227,0,0,0-.661-1.582,2.225,2.225,0,0,0-1.582-.661,2.226,2.226,0,0,0-1.582.661,2.229,2.229,0,0,0-.661,1.582,3.438,3.438,0,0,1-1.018,2.444,3.437,3.437,0,0,1-2.444,1.018,3.434,3.434,0,0,1-2.444-1.018,3.434,3.434,0,0,1-1.019-2.444.61.61,0,0,1,.61-.61.61.61,0,0,1,.61.61,2.227,2.227,0,0,0,.66,1.582,2.227,2.227,0,0,0,1.582.661,2.224,2.224,0,0,0,1.582-.661,2.224,2.224,0,0,0,.661-1.582,3.439,3.439,0,0,1,1.018-2.444A3.437,3.437,0,0,1-3594.977,720.692Z" transform="translate(3626.893 -720.692)"/><path class="c" d="M-3594.977,720.692a3.439,3.439,0,0,1,2.445,1.018,3.437,3.437,0,0,1,1.018,2.444.61.61,0,0,1-.61.61.61.61,0,0,1-.61-.61,2.227,2.227,0,0,0-.661-1.582,2.225,2.225,0,0,0-1.582-.661,2.226,2.226,0,0,0-1.582.661,2.229,2.229,0,0,0-.661,1.582,3.438,3.438,0,0,1-1.018,2.444,3.437,3.437,0,0,1-2.444,1.018,3.434,3.434,0,0,1-2.444-1.018,3.434,3.434,0,0,1-1.019-2.444.61.61,0,0,1,.61-.61.61.61,0,0,1,.61.61,2.227,2.227,0,0,0,.66,1.582,2.227,2.227,0,0,0,1.582.661,2.224,2.224,0,0,0,1.582-.661,2.224,2.224,0,0,0,.661-1.582,3.439,3.439,0,0,1,1.018-2.444A3.437,3.437,0,0,1-3594.977,720.692Z" transform="translate(3615.518 -720.692)"/><path class="c" d="M-3594.977,720.692a3.439,3.439,0,0,1,2.445,1.018,3.437,3.437,0,0,1,1.018,2.444.61.61,0,0,1-.61.61.61.61,0,0,1-.61-.61,2.227,2.227,0,0,0-.661-1.582,2.225,2.225,0,0,0-1.582-.661,2.226,2.226,0,0,0-1.582.661,2.229,2.229,0,0,0-.661,1.582,3.438,3.438,0,0,1-1.018,2.444,3.437,3.437,0,0,1-2.444,1.018,3.434,3.434,0,0,1-2.444-1.018,3.434,3.434,0,0,1-1.019-2.444.61.61,0,0,1,.61-.61.61.61,0,0,1,.61.61,2.227,2.227,0,0,0,.66,1.582,2.227,2.227,0,0,0,1.582.661,2.224,2.224,0,0,0,1.582-.661,2.224,2.224,0,0,0,.661-1.582,3.439,3.439,0,0,1,1.018-2.444A3.437,3.437,0,0,1-3594.977,720.692Z" transform="translate(3604.143 -720.692)"/></g><g transform="translate(59.467 62.562)"><path class="c" d="M-3594.977,720.692a3.439,3.439,0,0,1,2.445,1.018,3.437,3.437,0,0,1,1.018,2.444.61.61,0,0,1-.61.61.61.61,0,0,1-.61-.61,2.227,2.227,0,0,0-.661-1.582,2.225,2.225,0,0,0-1.582-.661,2.226,2.226,0,0,0-1.582.661,2.229,2.229,0,0,0-.661,1.582,3.438,3.438,0,0,1-1.018,2.444,3.437,3.437,0,0,1-2.444,1.018,3.434,3.434,0,0,1-2.444-1.018,3.434,3.434,0,0,1-1.019-2.444.61.61,0,0,1,.61-.61.61.61,0,0,1,.61.61,2.227,2.227,0,0,0,.66,1.582,2.227,2.227,0,0,0,1.582.661,2.224,2.224,0,0,0,1.582-.661,2.224,2.224,0,0,0,.661-1.582,3.439,3.439,0,0,1,1.018-2.444A3.437,3.437,0,0,1-3594.977,720.692Z" transform="translate(3649.644 -720.692)"/><path class="c" d="M-3594.977,720.692a3.439,3.439,0,0,1,2.445,1.018,3.437,3.437,0,0,1,1.018,2.444.61.61,0,0,1-.61.61.61.61,0,0,1-.61-.61,2.227,2.227,0,0,0-.661-1.582,2.225,2.225,0,0,0-1.582-.661,2.226,2.226,0,0,0-1.582.661,2.229,2.229,0,0,0-.661,1.582,3.438,3.438,0,0,1-1.018,2.444,3.437,3.437,0,0,1-2.444,1.018,3.434,3.434,0,0,1-2.444-1.018,3.434,3.434,0,0,1-1.019-2.444.61.61,0,0,1,.61-.61.61.61,0,0,1,.61.61,2.227,2.227,0,0,0,.66,1.582,2.227,2.227,0,0,0,1.582.661,2.224,2.224,0,0,0,1.582-.661,2.224,2.224,0,0,0,.661-1.582,3.439,3.439,0,0,1,1.018-2.444A3.437,3.437,0,0,1-3594.977,720.692Z" transform="translate(3638.269 -720.692)"/><path class="c" d="M-3594.977,720.692a3.439,3.439,0,0,1,2.445,1.018,3.437,3.437,0,0,1,1.018,2.444.61.61,0,0,1-.61.61.61.61,0,0,1-.61-.61,2.227,2.227,0,0,0-.661-1.582,2.225,2.225,0,0,0-1.582-.661,2.226,2.226,0,0,0-1.582.661,2.229,2.229,0,0,0-.661,1.582,3.438,3.438,0,0,1-1.018,2.444,3.437,3.437,0,0,1-2.444,1.018,3.434,3.434,0,0,1-2.444-1.018,3.434,3.434,0,0,1-1.019-2.444.61.61,0,0,1,.61-.61.61.61,0,0,1,.61.61,2.227,2.227,0,0,0,.66,1.582,2.227,2.227,0,0,0,1.582.661,2.224,2.224,0,0,0,1.582-.661,2.224,2.224,0,0,0,.661-1.582,3.439,3.439,0,0,1,1.018-2.444A3.437,3.437,0,0,1-3594.977,720.692Z" transform="translate(3626.894 -720.692)"/><path class="c" d="M-3594.977,720.692a3.439,3.439,0,0,1,2.445,1.018,3.437,3.437,0,0,1,1.018,2.444.61.61,0,0,1-.61.61.61.61,0,0,1-.61-.61,2.227,2.227,0,0,0-.661-1.582,2.225,2.225,0,0,0-1.582-.661,2.226,2.226,0,0,0-1.582.661,2.229,2.229,0,0,0-.661,1.582,3.438,3.438,0,0,1-1.018,2.444,3.437,3.437,0,0,1-2.444,1.018,3.434,3.434,0,0,1-2.444-1.018,3.434,3.434,0,0,1-1.019-2.444.61.61,0,0,1,.61-.61.61.61,0,0,1,.61.61,2.227,2.227,0,0,0,.66,1.582,2.227,2.227,0,0,0,1.582.661,2.224,2.224,0,0,0,1.582-.661,2.224,2.224,0,0,0,.661-1.582,3.439,3.439,0,0,1,1.018-2.444A3.437,3.437,0,0,1-3594.977,720.692Z" transform="translate(3615.519 -720.692)"/><path class="c" d="M-3594.977,720.692a3.439,3.439,0,0,1,2.445,1.018,3.437,3.437,0,0,1,1.018,2.444.61.61,0,0,1-.61.61.61.61,0,0,1-.61-.61,2.227,2.227,0,0,0-.661-1.582,2.225,2.225,0,0,0-1.582-.661,2.226,2.226,0,0,0-1.582.661,2.229,2.229,0,0,0-.661,1.582,3.438,3.438,0,0,1-1.018,2.444,3.437,3.437,0,0,1-2.444,1.018,3.434,3.434,0,0,1-2.444-1.018,3.434,3.434,0,0,1-1.019-2.444.61.61,0,0,1,.61-.61.61.61,0,0,1,.61.61,2.227,2.227,0,0,0,.66,1.582,2.227,2.227,0,0,0,1.582.661,2.224,2.224,0,0,0,1.582-.661,2.224,2.224,0,0,0,.661-1.582,3.439,3.439,0,0,1,1.018-2.444A3.437,3.437,0,0,1-3594.977,720.692Z" transform="translate(3604.143 -720.692)"/></g><path class="c" d="M-3353.4,300.018a.519.519,0,0,1-.519-.519v-4.3a.519.519,0,0,1,.519-.519h4.3a.519.519,0,0,1,.519.519v4.3a.519.519,0,0,1-.519.519h-4.3m0,1.6h4.3a2.12,2.12,0,0,0,2.117-2.117v-4.3a2.12,2.12,0,0,0-2.117-2.117h-4.3a2.12,2.12,0,0,0-2.118,2.117v4.3a2.12,2.12,0,0,0,2.118,2.117Z" transform="translate(3444.127 43.851)"/><path class="c" d="M-4627.212,521.077a4.168,4.168,0,0,1-4.168-4.168V482.425a4.168,4.168,0,0,1,4.168-4.168h34.483a4.169,4.169,0,0,1,4.169,4.168v34.484a4.169,4.169,0,0,1-4.169,4.168h-34.483m0,1.6h34.483a5.777,5.777,0,0,0,5.772-5.771V482.425a5.777,5.777,0,0,0-5.772-5.771h-34.483a5.778,5.778,0,0,0-5.771,5.771v34.484a5.778,5.778,0,0,0,5.771,5.771Z" transform="translate(4769.209 -173.866)"/><rect class="c" width="15" height="15" rx="2" transform="translate(287.083 104)"/><path class="c" d="M-4624.544,541.618a6.1,6.1,0,0,1-6.095-6.1V485.094a6.1,6.1,0,0,1,6.095-6.1h50.429a6.1,6.1,0,0,1,6.1,6.1v50.429a6.1,6.1,0,0,1-6.1,6.1h-50.429m0,2.344h50.429a8.449,8.449,0,0,0,8.44-8.44V485.094a8.449,8.449,0,0,0-8.44-8.44h-50.429a8.449,8.449,0,0,0-8.439,8.44v50.429a8.45,8.45,0,0,0,8.439,8.44Z" transform="translate(4962.61 -119.811)"/><path class="d" d="M-995.491,429.777a28.382,28.382,0,0,1,20.185,8.407,28.382,28.382,0,0,1,8.407,20.185,5.037,5.037,0,0,1-5.037,5.037,5.037,5.037,0,0,1-5.037-5.037,18.374,18.374,0,0,0-5.456-13.061,18.374,18.374,0,0,0-13.061-5.456,18.375,18.375,0,0,0-13.062,5.456,18.375,18.375,0,0,0-5.456,13.061,5.037,5.037,0,0,1-5.037,5.037,5.037,5.037,0,0,1-5.037-5.037,28.381,28.381,0,0,1,8.407-20.185A28.382,28.382,0,0,1-995.491,429.777Z" transform="translate(1024.083 -319.877)"/><path class="d" d="M13.146,7.713a5,5,0,0,1,8.708,0L30.79,23.542A5,5,0,0,1,26.436,31H8.564A5,5,0,0,1,4.21,23.542Z" transform="translate(351.083 240)"/><path class="d" d="M-3312.74,433.144a10.491,10.491,0,0,1-10.491-10.491v-86.8a10.491,10.491,0,0,1,10.491-10.491h86.8a10.492,10.492,0,0,1,10.491,10.491v86.8a10.492,10.492,0,0,1-10.491,10.491h-86.8m0,32.28h86.8a42.821,42.821,0,0,0,42.772-42.772v-86.8a42.821,42.821,0,0,0-42.772-42.772h-86.8a42.821,42.821,0,0,0-42.772,42.772v86.8a42.821,42.821,0,0,0,42.772,42.772Z" transform="translate(3433.413 -197.92)"/><path class="d" d="M-3353.4,300.018a.519.519,0,0,1-.519-.519v-4.3a.519.519,0,0,1,.519-.519h4.3a.519.519,0,0,1,.519.519v4.3a.519.519,0,0,1-.519.519h-4.3m0,1.6h4.3a2.12,2.12,0,0,0,2.117-2.117v-4.3a2.12,2.12,0,0,0-2.117-2.117h-4.3a2.12,2.12,0,0,0-2.118,2.117v4.3a2.12,2.12,0,0,0,2.118,2.117Z" transform="translate(3632.529 -58.524)"/><path class="d" d="M-4003.107,480.653a4.3,4.3,0,0,1-4.295-4.295V440.827a4.3,4.3,0,0,1,4.295-4.295h35.531a4.3,4.3,0,0,1,4.295,4.295v35.531a4.3,4.3,0,0,1-4.295,4.295h-35.531m0,6.607h35.531a10.914,10.914,0,0,0,10.9-10.9V440.827a10.914,10.914,0,0,0-10.9-10.9h-35.531a10.914,10.914,0,0,0-10.9,10.9v35.531a10.914,10.914,0,0,0,10.9,10.9Z" transform="translate(4014.009 -211.465)"/><g transform="translate(291.946 188.399)"><path class="d" d="M-3594.977,720.692a3.439,3.439,0,0,1,2.445,1.018,3.437,3.437,0,0,1,1.018,2.444.61.61,0,0,1-.61.61.61.61,0,0,1-.61-.61,2.227,2.227,0,0,0-.661-1.582,2.225,2.225,0,0,0-1.582-.661,2.226,2.226,0,0,0-1.582.661,2.229,2.229,0,0,0-.661,1.582,3.438,3.438,0,0,1-1.018,2.444,3.437,3.437,0,0,1-2.444,1.018,3.434,3.434,0,0,1-2.444-1.018,3.434,3.434,0,0,1-1.019-2.444.61.61,0,0,1,.61-.61.61.61,0,0,1,.61.61,2.227,2.227,0,0,0,.66,1.582,2.227,2.227,0,0,0,1.582.661,2.224,2.224,0,0,0,1.582-.661,2.224,2.224,0,0,0,.661-1.582,3.439,3.439,0,0,1,1.018-2.444A3.437,3.437,0,0,1-3594.977,720.692Z" transform="translate(3649.644 -720.692)"/><path class="d" d="M-3594.977,720.692a3.439,3.439,0,0,1,2.445,1.018,3.437,3.437,0,0,1,1.018,2.444.61.61,0,0,1-.61.61.61.61,0,0,1-.61-.61,2.227,2.227,0,0,0-.661-1.582,2.225,2.225,0,0,0-1.582-.661,2.226,2.226,0,0,0-1.582.661,2.229,2.229,0,0,0-.661,1.582,3.438,3.438,0,0,1-1.018,2.444,3.437,3.437,0,0,1-2.444,1.018,3.434,3.434,0,0,1-2.444-1.018,3.434,3.434,0,0,1-1.019-2.444.61.61,0,0,1,.61-.61.61.61,0,0,1,.61.61,2.227,2.227,0,0,0,.66,1.582,2.227,2.227,0,0,0,1.582.661,2.224,2.224,0,0,0,1.582-.661,2.224,2.224,0,0,0,.661-1.582,3.439,3.439,0,0,1,1.018-2.444A3.437,3.437,0,0,1-3594.977,720.692Z" transform="translate(3638.269 -720.692)"/><path class="d" d="M-3594.977,720.692a3.439,3.439,0,0,1,2.445,1.018,3.437,3.437,0,0,1,1.018,2.444.61.61,0,0,1-.61.61.61.61,0,0,1-.61-.61,2.227,2.227,0,0,0-.661-1.582,2.225,2.225,0,0,0-1.582-.661,2.226,2.226,0,0,0-1.582.661,2.229,2.229,0,0,0-.661,1.582,3.438,3.438,0,0,1-1.018,2.444,3.437,3.437,0,0,1-2.444,1.018,3.434,3.434,0,0,1-2.444-1.018,3.434,3.434,0,0,1-1.019-2.444.61.61,0,0,1,.61-.61.61.61,0,0,1,.61.61,2.227,2.227,0,0,0,.66,1.582,2.227,2.227,0,0,0,1.582.661,2.224,2.224,0,0,0,1.582-.661,2.224,2.224,0,0,0,.661-1.582,3.439,3.439,0,0,1,1.018-2.444A3.437,3.437,0,0,1-3594.977,720.692Z" transform="translate(3626.894 -720.692)"/><path class="d" d="M-3594.977,720.692a3.439,3.439,0,0,1,2.445,1.018,3.437,3.437,0,0,1,1.018,2.444.61.61,0,0,1-.61.61.61.61,0,0,1-.61-.61,2.227,2.227,0,0,0-.661-1.582,2.225,2.225,0,0,0-1.582-.661,2.226,2.226,0,0,0-1.582.661,2.229,2.229,0,0,0-.661,1.582,3.438,3.438,0,0,1-1.018,2.444,3.437,3.437,0,0,1-2.444,1.018,3.434,3.434,0,0,1-2.444-1.018,3.434,3.434,0,0,1-1.019-2.444.61.61,0,0,1,.61-.61.61.61,0,0,1,.61.61,2.227,2.227,0,0,0,.66,1.582,2.227,2.227,0,0,0,1.582.661,2.224,2.224,0,0,0,1.582-.661,2.224,2.224,0,0,0,.661-1.582,3.439,3.439,0,0,1,1.018-2.444A3.437,3.437,0,0,1-3594.977,720.692Z" transform="translate(3615.519 -720.692)"/><path class="d" d="M-3594.977,720.692a3.439,3.439,0,0,1,2.445,1.018,3.437,3.437,0,0,1,1.018,2.444.61.61,0,0,1-.61.61.61.61,0,0,1-.61-.61,2.227,2.227,0,0,0-.661-1.582,2.225,2.225,0,0,0-1.582-.661,2.226,2.226,0,0,0-1.582.661,2.229,2.229,0,0,0-.661,1.582,3.438,3.438,0,0,1-1.018,2.444,3.437,3.437,0,0,1-2.444,1.018,3.434,3.434,0,0,1-2.444-1.018,3.434,3.434,0,0,1-1.019-2.444.61.61,0,0,1,.61-.61.61.61,0,0,1,.61.61,2.227,2.227,0,0,0,.66,1.582,2.227,2.227,0,0,0,1.582.661,2.224,2.224,0,0,0,1.582-.661,2.224,2.224,0,0,0,.661-1.582,3.439,3.439,0,0,1,1.018-2.444A3.437,3.437,0,0,1-3594.977,720.692Z" transform="translate(3604.143 -720.692)"/></g><path class="d" d="M-3350.219,310.418a1.3,1.3,0,0,1-1.3-1.3V298.377a1.3,1.3,0,0,1,1.3-1.3h10.742a1.3,1.3,0,0,1,1.3,1.3v10.742a1.3,1.3,0,0,1-1.3,1.3h-10.742m0,4h10.742a5.3,5.3,0,0,0,5.293-5.293V298.377a5.3,5.3,0,0,0-5.293-5.293h-10.742a5.3,5.3,0,0,0-5.293,5.293v10.742a5.3,5.3,0,0,0,5.293,5.293Z" transform="translate(3585.606 -244.791)"/><rect class="d" width="47" height="49" rx="10" transform="translate(368.083 128)"/></g></svg>