<svg width="15" height="13" viewBox="0 0 15 13" fill="none" xmlns="http://www.w3.org/2000/svg">
<path d="M14.3002 10.2557L8.83456 0.763791C8.69798 0.531244 8.50299 0.338428 8.26894 0.204454C8.03488 0.0704799 7.76987 0 7.50018 0C7.23049 0 6.96549 0.0704799 6.73143 0.204454C6.49737 0.338428 6.30239 0.531244 6.16581 0.763791L0.700182 10.2557C0.568767 10.4806 0.499512 10.7364 0.499512 10.9969C0.499512 11.2574 0.568767 11.5132 0.700182 11.7382C0.835014 11.9721 1.02966 12.166 1.26416 12.2999C1.49865 12.4338 1.76455 12.5028 2.03456 12.5H12.9658C13.2356 12.5026 13.5012 12.4334 13.7355 12.2996C13.9698 12.1657 14.1642 11.9719 14.2989 11.7382C14.4305 11.5134 14.5 11.2576 14.5002 10.9971C14.5004 10.7366 14.4314 10.4807 14.3002 10.2557ZM7.00018 5.00004C7.00018 4.86743 7.05286 4.74026 7.14663 4.64649C7.2404 4.55272 7.36757 4.50004 7.50018 4.50004C7.63279 4.50004 7.75997 4.55272 7.85374 4.64649C7.9475 4.74026 8.00018 4.86743 8.00018 5.00004V7.50004C8.00018 7.63265 7.9475 7.75983 7.85374 7.85359C7.75997 7.94736 7.63279 8.00004 7.50018 8.00004C7.36757 8.00004 7.2404 7.94736 7.14663 7.85359C7.05286 7.75983 7.00018 7.63265 7.00018 7.50004V5.00004ZM7.50018 10.5C7.35185 10.5 7.20684 10.4561 7.0835 10.3736C6.96017 10.2912 6.86404 10.1741 6.80727 10.0371C6.75051 9.90001 6.73565 9.74921 6.76459 9.60372C6.79353 9.45824 6.86496 9.3246 6.96985 9.21971C7.07474 9.11482 7.20838 9.04339 7.35386 9.01445C7.49935 8.98551 7.65015 9.00037 7.78719 9.05713C7.92424 9.1139 8.04137 9.21003 8.12378 9.33336C8.2062 9.4567 8.25018 9.6017 8.25018 9.75004C8.25018 9.94895 8.17116 10.1397 8.03051 10.2804C7.88986 10.421 7.69909 10.5 7.50018 10.5Z" fill="#FF1A1A"/>
</svg>
