<svg height="394.218" viewBox="0 0 475.913 394.218" width="475.913" xmlns="http://www.w3.org/2000/svg"><g transform="translate(0 -48.293)"><g fill="none" stroke="#ffeb34" stroke-width="2" transform="matrix(0 -1 1 0 57.69 442.511)"><rect height="16.352" rx="8.176" stroke="none" width="82.469"/><rect fill="none" height="14.352" rx="7.176" width="80.469" x="1" y="1"/></g><g fill="none" stroke="#fd9d27" stroke-width="2"><rect height="35" rx="17.5" stroke="none" width="131" x="137.083" y="379"/><rect fill="none" height="33" rx="16.5" width="129" x="138.083" y="380"/></g><g fill="#ffeb00"><path d="m38.5 59.516a3.677 3.677 0 0 0 3.215-1.856l23.645-40.952a3.713 3.713 0 0 0 -3.215-5.569h-47.288a3.713 3.713 0 0 0 -3.215 5.569l23.643 40.951a3.678 3.678 0 0 0 3.215 1.857m0 11.139a14.816 14.816 0 0 1 -12.862-7.426l-23.638-40.952a14.844 14.844 0 0 1 12.857-22.277h47.288a14.844 14.844 0 0 1 12.861 22.277l-23.644 40.952a14.816 14.816 0 0 1 -12.862 7.425z" transform="translate(248.66 275.524)"/><path d="m-3594.977 720.692a3.439 3.439 0 0 1 2.445 1.018 3.437 3.437 0 0 1 1.018 2.444.61.61 0 0 1 -.61.61.61.61 0 0 1 -.61-.61 2.227 2.227 0 0 0 -.661-1.582 2.225 2.225 0 0 0 -1.582-.661 2.226 2.226 0 0 0 -1.582.661 2.229 2.229 0 0 0 -.661 1.582 3.438 3.438 0 0 1 -1.018 2.444 3.437 3.437 0 0 1 -2.444 1.018 3.434 3.434 0 0 1 -2.444-1.018 3.434 3.434 0 0 1 -1.019-2.444.61.61 0 0 1 .61-.61.61.61 0 0 1 .61.61 2.227 2.227 0 0 0 .66 1.582 2.227 2.227 0 0 0 1.582.661 2.224 2.224 0 0 0 1.582-.661 2.224 2.224 0 0 0 .661-1.582 3.439 3.439 0 0 1 1.018-2.444 3.437 3.437 0 0 1 2.445-1.018z" transform="translate(4067.427 -650.31)"/><path d="m-3594.977 720.692a3.439 3.439 0 0 1 2.445 1.018 3.437 3.437 0 0 1 1.018 2.444.61.61 0 0 1 -.61.61.61.61 0 0 1 -.61-.61 2.227 2.227 0 0 0 -.661-1.582 2.225 2.225 0 0 0 -1.582-.661 2.226 2.226 0 0 0 -1.582.661 2.229 2.229 0 0 0 -.661 1.582 3.438 3.438 0 0 1 -1.018 2.444 3.437 3.437 0 0 1 -2.444 1.018 3.434 3.434 0 0 1 -2.444-1.018 3.434 3.434 0 0 1 -1.019-2.444.61.61 0 0 1 .61-.61.61.61 0 0 1 .61.61 2.227 2.227 0 0 0 .66 1.582 2.227 2.227 0 0 0 1.582.661 2.224 2.224 0 0 0 1.582-.661 2.224 2.224 0 0 0 .661-1.582 3.439 3.439 0 0 1 1.018-2.444 3.437 3.437 0 0 1 2.445-1.018z" transform="translate(4056.052 -650.31)"/><path d="m-3594.977 720.692a3.439 3.439 0 0 1 2.445 1.018 3.437 3.437 0 0 1 1.018 2.444.61.61 0 0 1 -.61.61.61.61 0 0 1 -.61-.61 2.227 2.227 0 0 0 -.661-1.582 2.225 2.225 0 0 0 -1.582-.661 2.226 2.226 0 0 0 -1.582.661 2.229 2.229 0 0 0 -.661 1.582 3.438 3.438 0 0 1 -1.018 2.444 3.437 3.437 0 0 1 -2.444 1.018 3.434 3.434 0 0 1 -2.444-1.018 3.434 3.434 0 0 1 -1.019-2.444.61.61 0 0 1 .61-.61.61.61 0 0 1 .61.61 2.227 2.227 0 0 0 .66 1.582 2.227 2.227 0 0 0 1.582.661 2.224 2.224 0 0 0 1.582-.661 2.224 2.224 0 0 0 .661-1.582 3.439 3.439 0 0 1 1.018-2.444 3.437 3.437 0 0 1 2.445-1.018z" transform="translate(4044.677 -650.31)"/><path d="m-3594.977 720.692a3.439 3.439 0 0 1 2.445 1.018 3.437 3.437 0 0 1 1.018 2.444.61.61 0 0 1 -.61.61.61.61 0 0 1 -.61-.61 2.227 2.227 0 0 0 -.661-1.582 2.225 2.225 0 0 0 -1.582-.661 2.226 2.226 0 0 0 -1.582.661 2.229 2.229 0 0 0 -.661 1.582 3.438 3.438 0 0 1 -1.018 2.444 3.437 3.437 0 0 1 -2.444 1.018 3.434 3.434 0 0 1 -2.444-1.018 3.434 3.434 0 0 1 -1.019-2.444.61.61 0 0 1 .61-.61.61.61 0 0 1 .61.61 2.227 2.227 0 0 0 .66 1.582 2.227 2.227 0 0 0 1.582.661 2.224 2.224 0 0 0 1.582-.661 2.224 2.224 0 0 0 .661-1.582 3.439 3.439 0 0 1 1.018-2.444 3.437 3.437 0 0 1 2.445-1.018z" transform="translate(4033.302 -650.31)"/><path d="m-3594.977 720.692a3.439 3.439 0 0 1 2.445 1.018 3.437 3.437 0 0 1 1.018 2.444.61.61 0 0 1 -.61.61.61.61 0 0 1 -.61-.61 2.227 2.227 0 0 0 -.661-1.582 2.225 2.225 0 0 0 -1.582-.661 2.226 2.226 0 0 0 -1.582.661 2.229 2.229 0 0 0 -.661 1.582 3.438 3.438 0 0 1 -1.018 2.444 3.437 3.437 0 0 1 -2.444 1.018 3.434 3.434 0 0 1 -2.444-1.018 3.434 3.434 0 0 1 -1.019-2.444.61.61 0 0 1 .61-.61.61.61 0 0 1 .61.61 2.227 2.227 0 0 0 .66 1.582 2.227 2.227 0 0 0 1.582.661 2.224 2.224 0 0 0 1.582-.661 2.224 2.224 0 0 0 .661-1.582 3.439 3.439 0 0 1 1.018-2.444 3.437 3.437 0 0 1 2.445-1.018z" transform="translate(4021.927 -650.31)"/><path d="m-3594.977 720.692a3.439 3.439 0 0 1 2.445 1.018 3.437 3.437 0 0 1 1.018 2.444.61.61 0 0 1 -.61.61.61.61 0 0 1 -.61-.61 2.227 2.227 0 0 0 -.661-1.582 2.225 2.225 0 0 0 -1.582-.661 2.226 2.226 0 0 0 -1.582.661 2.229 2.229 0 0 0 -.661 1.582 3.438 3.438 0 0 1 -1.018 2.444 3.437 3.437 0 0 1 -2.444 1.018 3.434 3.434 0 0 1 -2.444-1.018 3.434 3.434 0 0 1 -1.019-2.444.61.61 0 0 1 .61-.61.61.61 0 0 1 .61.61 2.227 2.227 0 0 0 .66 1.582 2.227 2.227 0 0 0 1.582.661 2.224 2.224 0 0 0 1.582-.661 2.224 2.224 0 0 0 .661-1.582 3.439 3.439 0 0 1 1.018-2.444 3.437 3.437 0 0 1 2.445-1.018z" transform="translate(4010.552 -650.31)"/><path d="m-3594.977 720.692a3.439 3.439 0 0 1 2.445 1.018 3.437 3.437 0 0 1 1.018 2.444.61.61 0 0 1 -.61.61.61.61 0 0 1 -.61-.61 2.227 2.227 0 0 0 -.661-1.582 2.225 2.225 0 0 0 -1.582-.661 2.226 2.226 0 0 0 -1.582.661 2.229 2.229 0 0 0 -.661 1.582 3.438 3.438 0 0 1 -1.018 2.444 3.437 3.437 0 0 1 -2.444 1.018 3.434 3.434 0 0 1 -2.444-1.018 3.434 3.434 0 0 1 -1.019-2.444.61.61 0 0 1 .61-.61.61.61 0 0 1 .61.61 2.227 2.227 0 0 0 .66 1.582 2.227 2.227 0 0 0 1.582.661 2.224 2.224 0 0 0 1.582-.661 2.224 2.224 0 0 0 .661-1.582 3.439 3.439 0 0 1 1.018-2.444 3.437 3.437 0 0 1 2.445-1.018z" transform="translate(3999.176 -650.31)"/><path d="m-3594.977 720.692a3.439 3.439 0 0 1 2.445 1.018 3.437 3.437 0 0 1 1.018 2.444.61.61 0 0 1 -.61.61.61.61 0 0 1 -.61-.61 2.227 2.227 0 0 0 -.661-1.582 2.225 2.225 0 0 0 -1.582-.661 2.226 2.226 0 0 0 -1.582.661 2.229 2.229 0 0 0 -.661 1.582 3.438 3.438 0 0 1 -1.018 2.444 3.437 3.437 0 0 1 -2.444 1.018 3.434 3.434 0 0 1 -2.444-1.018 3.434 3.434 0 0 1 -1.019-2.444.61.61 0 0 1 .61-.61.61.61 0 0 1 .61.61 2.227 2.227 0 0 0 .66 1.582 2.227 2.227 0 0 0 1.582.661 2.224 2.224 0 0 0 1.582-.661 2.224 2.224 0 0 0 .661-1.582 3.439 3.439 0 0 1 1.018-2.444 3.437 3.437 0 0 1 2.445-1.018z" transform="translate(3987.801 -650.31)"/><path d="m-3594.977 720.692a3.439 3.439 0 0 1 2.445 1.018 3.437 3.437 0 0 1 1.018 2.444.61.61 0 0 1 -.61.61.61.61 0 0 1 -.61-.61 2.227 2.227 0 0 0 -.661-1.582 2.225 2.225 0 0 0 -1.582-.661 2.226 2.226 0 0 0 -1.582.661 2.229 2.229 0 0 0 -.661 1.582 3.438 3.438 0 0 1 -1.018 2.444 3.437 3.437 0 0 1 -2.444 1.018 3.434 3.434 0 0 1 -2.444-1.018 3.434 3.434 0 0 1 -1.019-2.444.61.61 0 0 1 .61-.61.61.61 0 0 1 .61.61 2.227 2.227 0 0 0 .66 1.582 2.227 2.227 0 0 0 1.582.661 2.224 2.224 0 0 0 1.582-.661 2.224 2.224 0 0 0 .661-1.582 3.439 3.439 0 0 1 1.018-2.444 3.437 3.437 0 0 1 2.445-1.018z" transform="translate(3976.426 -650.31)"/><path d="m-3594.977 720.692a3.439 3.439 0 0 1 2.445 1.018 3.437 3.437 0 0 1 1.018 2.444.61.61 0 0 1 -.61.61.61.61 0 0 1 -.61-.61 2.227 2.227 0 0 0 -.661-1.582 2.225 2.225 0 0 0 -1.582-.661 2.226 2.226 0 0 0 -1.582.661 2.229 2.229 0 0 0 -.661 1.582 3.438 3.438 0 0 1 -1.018 2.444 3.437 3.437 0 0 1 -2.444 1.018 3.434 3.434 0 0 1 -2.444-1.018 3.434 3.434 0 0 1 -1.019-2.444.61.61 0 0 1 .61-.61.61.61 0 0 1 .61.61 2.227 2.227 0 0 0 .66 1.582 2.227 2.227 0 0 0 1.582.661 2.224 2.224 0 0 0 1.582-.661 2.224 2.224 0 0 0 .661-1.582 3.439 3.439 0 0 1 1.018-2.444 3.437 3.437 0 0 1 2.445-1.018z" transform="translate(3965.051 -650.31)"/><path d="m-3594.977 720.692a3.439 3.439 0 0 1 2.445 1.018 3.437 3.437 0 0 1 1.018 2.444.61.61 0 0 1 -.61.61.61.61 0 0 1 -.61-.61 2.227 2.227 0 0 0 -.661-1.582 2.225 2.225 0 0 0 -1.582-.661 2.226 2.226 0 0 0 -1.582.661 2.229 2.229 0 0 0 -.661 1.582 3.438 3.438 0 0 1 -1.018 2.444 3.437 3.437 0 0 1 -2.444 1.018 3.434 3.434 0 0 1 -2.444-1.018 3.434 3.434 0 0 1 -1.019-2.444.61.61 0 0 1 .61-.61.61.61 0 0 1 .61.61 2.227 2.227 0 0 0 .66 1.582 2.227 2.227 0 0 0 1.582.661 2.224 2.224 0 0 0 1.582-.661 2.224 2.224 0 0 0 .661-1.582 3.439 3.439 0 0 1 1.018-2.444 3.437 3.437 0 0 1 2.445-1.018z" transform="translate(3953.676 -650.31)"/><path d="m-3594.977 720.692a3.439 3.439 0 0 1 2.445 1.018 3.437 3.437 0 0 1 1.018 2.444.61.61 0 0 1 -.61.61.61.61 0 0 1 -.61-.61 2.227 2.227 0 0 0 -.661-1.582 2.225 2.225 0 0 0 -1.582-.661 2.226 2.226 0 0 0 -1.582.661 2.229 2.229 0 0 0 -.661 1.582 3.438 3.438 0 0 1 -1.018 2.444 3.437 3.437 0 0 1 -2.444 1.018 3.434 3.434 0 0 1 -2.444-1.018 3.434 3.434 0 0 1 -1.019-2.444.61.61 0 0 1 .61-.61.61.61 0 0 1 .61.61 2.227 2.227 0 0 0 .66 1.582 2.227 2.227 0 0 0 1.582.661 2.224 2.224 0 0 0 1.582-.661 2.224 2.224 0 0 0 .661-1.582 3.439 3.439 0 0 1 1.018-2.444 3.437 3.437 0 0 1 2.445-1.018z" transform="translate(3709.111 -658.13)"/><path d="m-3594.977 720.692a3.439 3.439 0 0 1 2.445 1.018 3.437 3.437 0 0 1 1.018 2.444.61.61 0 0 1 -.61.61.61.61 0 0 1 -.61-.61 2.227 2.227 0 0 0 -.661-1.582 2.225 2.225 0 0 0 -1.582-.661 2.226 2.226 0 0 0 -1.582.661 2.229 2.229 0 0 0 -.661 1.582 3.438 3.438 0 0 1 -1.018 2.444 3.437 3.437 0 0 1 -2.444 1.018 3.434 3.434 0 0 1 -2.444-1.018 3.434 3.434 0 0 1 -1.019-2.444.61.61 0 0 1 .61-.61.61.61 0 0 1 .61.61 2.227 2.227 0 0 0 .66 1.582 2.227 2.227 0 0 0 1.582.661 2.224 2.224 0 0 0 1.582-.661 2.224 2.224 0 0 0 .661-1.582 3.439 3.439 0 0 1 1.018-2.444 3.437 3.437 0 0 1 2.445-1.018z" transform="translate(3697.736 -658.13)"/><path d="m-3594.977 720.692a3.439 3.439 0 0 1 2.445 1.018 3.437 3.437 0 0 1 1.018 2.444.61.61 0 0 1 -.61.61.61.61 0 0 1 -.61-.61 2.227 2.227 0 0 0 -.661-1.582 2.225 2.225 0 0 0 -1.582-.661 2.226 2.226 0 0 0 -1.582.661 2.229 2.229 0 0 0 -.661 1.582 3.438 3.438 0 0 1 -1.018 2.444 3.437 3.437 0 0 1 -2.444 1.018 3.434 3.434 0 0 1 -2.444-1.018 3.434 3.434 0 0 1 -1.019-2.444.61.61 0 0 1 .61-.61.61.61 0 0 1 .61.61 2.227 2.227 0 0 0 .66 1.582 2.227 2.227 0 0 0 1.582.661 2.224 2.224 0 0 0 1.582-.661 2.224 2.224 0 0 0 .661-1.582 3.439 3.439 0 0 1 1.018-2.444 3.437 3.437 0 0 1 2.445-1.018z" transform="translate(3686.361 -658.13)"/><path d="m-3594.977 720.692a3.439 3.439 0 0 1 2.445 1.018 3.437 3.437 0 0 1 1.018 2.444.61.61 0 0 1 -.61.61.61.61 0 0 1 -.61-.61 2.227 2.227 0 0 0 -.661-1.582 2.225 2.225 0 0 0 -1.582-.661 2.226 2.226 0 0 0 -1.582.661 2.229 2.229 0 0 0 -.661 1.582 3.438 3.438 0 0 1 -1.018 2.444 3.437 3.437 0 0 1 -2.444 1.018 3.434 3.434 0 0 1 -2.444-1.018 3.434 3.434 0 0 1 -1.019-2.444.61.61 0 0 1 .61-.61.61.61 0 0 1 .61.61 2.227 2.227 0 0 0 .66 1.582 2.227 2.227 0 0 0 1.582.661 2.224 2.224 0 0 0 1.582-.661 2.224 2.224 0 0 0 .661-1.582 3.439 3.439 0 0 1 1.018-2.444 3.437 3.437 0 0 1 2.445-1.018z" transform="translate(3674.986 -658.13)"/><path d="m-3594.977 720.692a3.439 3.439 0 0 1 2.445 1.018 3.437 3.437 0 0 1 1.018 2.444.61.61 0 0 1 -.61.61.61.61 0 0 1 -.61-.61 2.227 2.227 0 0 0 -.661-1.582 2.225 2.225 0 0 0 -1.582-.661 2.226 2.226 0 0 0 -1.582.661 2.229 2.229 0 0 0 -.661 1.582 3.438 3.438 0 0 1 -1.018 2.444 3.437 3.437 0 0 1 -2.444 1.018 3.434 3.434 0 0 1 -2.444-1.018 3.434 3.434 0 0 1 -1.019-2.444.61.61 0 0 1 .61-.61.61.61 0 0 1 .61.61 2.227 2.227 0 0 0 .66 1.582 2.227 2.227 0 0 0 1.582.661 2.224 2.224 0 0 0 1.582-.661 2.224 2.224 0 0 0 .661-1.582 3.439 3.439 0 0 1 1.018-2.444 3.437 3.437 0 0 1 2.445-1.018z" transform="translate(3663.61 -658.13)"/><path d="m-3353.4 300.018a.519.519 0 0 1 -.519-.519v-4.3a.519.519 0 0 1 .519-.519h4.3a.519.519 0 0 1 .519.519v4.3a.519.519 0 0 1 -.519.519zm0 1.6h4.3a2.12 2.12 0 0 0 2.117-2.117v-4.3a2.12 2.12 0 0 0 -2.117-2.117h-4.3a2.12 2.12 0 0 0 -2.118 2.117v4.3a2.12 2.12 0 0 0 2.118 2.117z" transform="translate(3444.127 43.851)"/><path d="m-4627.212 521.077a4.168 4.168 0 0 1 -4.168-4.168v-34.484a4.168 4.168 0 0 1 4.168-4.168h34.483a4.169 4.169 0 0 1 4.169 4.168v34.484a4.169 4.169 0 0 1 -4.169 4.168zm0 1.6h34.483a5.777 5.777 0 0 0 5.772-5.771v-34.481a5.777 5.777 0 0 0 -5.772-5.771h-34.483a5.778 5.778 0 0 0 -5.771 5.771v34.484a5.778 5.778 0 0 0 5.771 5.771z" transform="translate(4769.209 -173.866)"/><rect height="15" rx="2" width="15" x="287.083" y="104"/><path d="m-4624.544 541.618a6.1 6.1 0 0 1 -6.095-6.1v-50.424a6.1 6.1 0 0 1 6.095-6.1h50.429a6.1 6.1 0 0 1 6.1 6.1v50.429a6.1 6.1 0 0 1 -6.1 6.1h-50.429m0 2.344h50.429a8.449 8.449 0 0 0 8.44-8.44v-50.433a8.449 8.449 0 0 0 -8.44-8.44h-50.429a8.449 8.449 0 0 0 -8.439 8.44v50.429a8.45 8.45 0 0 0 8.439 8.44z" transform="translate(4962.61 -119.811)"/></g><path d="m-995.491 429.777a28.382 28.382 0 0 1 20.185 8.407 28.382 28.382 0 0 1 8.407 20.185 5.037 5.037 0 0 1 -5.037 5.037 5.037 5.037 0 0 1 -5.037-5.037 18.374 18.374 0 0 0 -5.456-13.061 18.374 18.374 0 0 0 -13.061-5.456 18.375 18.375 0 0 0 -13.062 5.456 18.375 18.375 0 0 0 -5.456 13.061 5.037 5.037 0 0 1 -5.037 5.037 5.037 5.037 0 0 1 -5.037-5.037 28.381 28.381 0 0 1 8.407-20.185 28.382 28.382 0 0 1 20.184-8.407z" fill="#ff9d00" transform="translate(1024.083 -319.877)"/><path d="m13.146 7.713a5 5 0 0 1 8.708 0l8.936 15.829a5 5 0 0 1 -4.354 7.458h-17.872a5 5 0 0 1 -4.354-7.458z" fill="#ff9d00" transform="translate(351.083 240)"/><path d="m-3312.74 433.144a10.491 10.491 0 0 1 -10.491-10.491v-86.8a10.491 10.491 0 0 1 10.491-10.491h86.8a10.492 10.492 0 0 1 10.491 10.491v86.8a10.492 10.492 0 0 1 -10.491 10.491zm0 32.28h86.8a42.821 42.821 0 0 0 42.772-42.772v-86.8a42.821 42.821 0 0 0 -42.772-42.772h-86.8a42.821 42.821 0 0 0 -42.772 42.772v86.8a42.821 42.821 0 0 0 42.772 42.772z" fill="#ff9d00" transform="translate(3433.413 -197.92)"/><path d="m-3353.4 300.018a.519.519 0 0 1 -.519-.519v-4.3a.519.519 0 0 1 .519-.519h4.3a.519.519 0 0 1 .519.519v4.3a.519.519 0 0 1 -.519.519zm0 1.6h4.3a2.12 2.12 0 0 0 2.117-2.117v-4.3a2.12 2.12 0 0 0 -2.117-2.117h-4.3a2.12 2.12 0 0 0 -2.118 2.117v4.3a2.12 2.12 0 0 0 2.118 2.117z" fill="#ff9d00" transform="translate(3632.529 -58.524)"/><path d="m-4003.107 480.653a4.3 4.3 0 0 1 -4.295-4.295v-35.531a4.3 4.3 0 0 1 4.295-4.295h35.531a4.3 4.3 0 0 1 4.295 4.295v35.531a4.3 4.3 0 0 1 -4.295 4.295zm0 6.607h35.531a10.914 10.914 0 0 0 10.9-10.9v-35.533a10.914 10.914 0 0 0 -10.9-10.9h-35.531a10.914 10.914 0 0 0 -10.9 10.9v35.531a10.914 10.914 0 0 0 10.9 10.9z" fill="#ff9d00" transform="translate(4014.009 -211.465)"/><path d="m-3594.977 720.692a3.439 3.439 0 0 1 2.445 1.018 3.437 3.437 0 0 1 1.018 2.444.61.61 0 0 1 -.61.61.61.61 0 0 1 -.61-.61 2.227 2.227 0 0 0 -.661-1.582 2.225 2.225 0 0 0 -1.582-.661 2.226 2.226 0 0 0 -1.582.661 2.229 2.229 0 0 0 -.661 1.582 3.438 3.438 0 0 1 -1.018 2.444 3.437 3.437 0 0 1 -2.444 1.018 3.434 3.434 0 0 1 -2.444-1.018 3.434 3.434 0 0 1 -1.019-2.444.61.61 0 0 1 .61-.61.61.61 0 0 1 .61.61 2.227 2.227 0 0 0 .66 1.582 2.227 2.227 0 0 0 1.582.661 2.224 2.224 0 0 0 1.582-.661 2.224 2.224 0 0 0 .661-1.582 3.439 3.439 0 0 1 1.018-2.444 3.437 3.437 0 0 1 2.445-1.018z" fill="#ff9d00" transform="translate(3941.59 -532.293)"/><path d="m-3594.977 720.692a3.439 3.439 0 0 1 2.445 1.018 3.437 3.437 0 0 1 1.018 2.444.61.61 0 0 1 -.61.61.61.61 0 0 1 -.61-.61 2.227 2.227 0 0 0 -.661-1.582 2.225 2.225 0 0 0 -1.582-.661 2.226 2.226 0 0 0 -1.582.661 2.229 2.229 0 0 0 -.661 1.582 3.438 3.438 0 0 1 -1.018 2.444 3.437 3.437 0 0 1 -2.444 1.018 3.434 3.434 0 0 1 -2.444-1.018 3.434 3.434 0 0 1 -1.019-2.444.61.61 0 0 1 .61-.61.61.61 0 0 1 .61.61 2.227 2.227 0 0 0 .66 1.582 2.227 2.227 0 0 0 1.582.661 2.224 2.224 0 0 0 1.582-.661 2.224 2.224 0 0 0 .661-1.582 3.439 3.439 0 0 1 1.018-2.444 3.437 3.437 0 0 1 2.445-1.018z" fill="#ff9d00" transform="translate(3930.215 -532.293)"/><path d="m-3594.977 720.692a3.439 3.439 0 0 1 2.445 1.018 3.437 3.437 0 0 1 1.018 2.444.61.61 0 0 1 -.61.61.61.61 0 0 1 -.61-.61 2.227 2.227 0 0 0 -.661-1.582 2.225 2.225 0 0 0 -1.582-.661 2.226 2.226 0 0 0 -1.582.661 2.229 2.229 0 0 0 -.661 1.582 3.438 3.438 0 0 1 -1.018 2.444 3.437 3.437 0 0 1 -2.444 1.018 3.434 3.434 0 0 1 -2.444-1.018 3.434 3.434 0 0 1 -1.019-2.444.61.61 0 0 1 .61-.61.61.61 0 0 1 .61.61 2.227 2.227 0 0 0 .66 1.582 2.227 2.227 0 0 0 1.582.661 2.224 2.224 0 0 0 1.582-.661 2.224 2.224 0 0 0 .661-1.582 3.439 3.439 0 0 1 1.018-2.444 3.437 3.437 0 0 1 2.445-1.018z" fill="#ff9d00" transform="translate(3918.84 -532.293)"/><path d="m-3594.977 720.692a3.439 3.439 0 0 1 2.445 1.018 3.437 3.437 0 0 1 1.018 2.444.61.61 0 0 1 -.61.61.61.61 0 0 1 -.61-.61 2.227 2.227 0 0 0 -.661-1.582 2.225 2.225 0 0 0 -1.582-.661 2.226 2.226 0 0 0 -1.582.661 2.229 2.229 0 0 0 -.661 1.582 3.438 3.438 0 0 1 -1.018 2.444 3.437 3.437 0 0 1 -2.444 1.018 3.434 3.434 0 0 1 -2.444-1.018 3.434 3.434 0 0 1 -1.019-2.444.61.61 0 0 1 .61-.61.61.61 0 0 1 .61.61 2.227 2.227 0 0 0 .66 1.582 2.227 2.227 0 0 0 1.582.661 2.224 2.224 0 0 0 1.582-.661 2.224 2.224 0 0 0 .661-1.582 3.439 3.439 0 0 1 1.018-2.444 3.437 3.437 0 0 1 2.445-1.018z" fill="#ff9d00" transform="translate(3907.465 -532.293)"/><path d="m-3594.977 720.692a3.439 3.439 0 0 1 2.445 1.018 3.437 3.437 0 0 1 1.018 2.444.61.61 0 0 1 -.61.61.61.61 0 0 1 -.61-.61 2.227 2.227 0 0 0 -.661-1.582 2.225 2.225 0 0 0 -1.582-.661 2.226 2.226 0 0 0 -1.582.661 2.229 2.229 0 0 0 -.661 1.582 3.438 3.438 0 0 1 -1.018 2.444 3.437 3.437 0 0 1 -2.444 1.018 3.434 3.434 0 0 1 -2.444-1.018 3.434 3.434 0 0 1 -1.019-2.444.61.61 0 0 1 .61-.61.61.61 0 0 1 .61.61 2.227 2.227 0 0 0 .66 1.582 2.227 2.227 0 0 0 1.582.661 2.224 2.224 0 0 0 1.582-.661 2.224 2.224 0 0 0 .661-1.582 3.439 3.439 0 0 1 1.018-2.444 3.437 3.437 0 0 1 2.445-1.018z" fill="#ff9d00" transform="translate(3896.089 -532.293)"/><path d="m-3350.219 310.418a1.3 1.3 0 0 1 -1.3-1.3v-10.741a1.3 1.3 0 0 1 1.3-1.3h10.742a1.3 1.3 0 0 1 1.3 1.3v10.742a1.3 1.3 0 0 1 -1.3 1.3h-10.742m0 4h10.742a5.3 5.3 0 0 0 5.293-5.293v-10.749a5.3 5.3 0 0 0 -5.293-5.293h-10.742a5.3 5.3 0 0 0 -5.293 5.293v10.742a5.3 5.3 0 0 0 5.293 5.293z" fill="#ff9d00" transform="translate(3585.606 -244.791)"/><rect fill="#ff9d00" height="49" rx="10" width="47" x="368.083" y="128"/></g></svg>