<svg xmlns="http://www.w3.org/2000/svg" width="618.712" height="561.904" viewBox="0 0 618.712 561.904"><defs><style>.a,.e{fill:none;}.a{stroke:#1ba6f0;stroke-width:2px;}.b{fill:#09445f;}.c{fill:#00a6f0;}.d{stroke:none;}</style></defs><g transform="translate(0 -127.193)"><g class="a" transform="translate(67.025 183.451)"><rect class="d" width="64.747" height="26.207" rx="13.104"/><rect class="e" x="1" y="1" width="62.747" height="24.207" rx="12.104"/></g><rect class="b" width="309.862" height="73.997" rx="36.998" transform="translate(273.6 471.73) rotate(-90)"/><g transform="translate(72.204 631.122)"><path class="b" d="M-3590.02,720.692a5.3,5.3,0,0,1,3.766,1.568,5.292,5.292,0,0,1,1.569,3.766.94.94,0,0,1-.94.94.94.94,0,0,1-.939-.94,3.429,3.429,0,0,0-1.018-2.437,3.43,3.43,0,0,0-2.437-1.018,3.429,3.429,0,0,0-2.437,1.018,3.429,3.429,0,0,0-1.018,2.437,5.292,5.292,0,0,1-1.569,3.766,5.294,5.294,0,0,1-3.766,1.568,5.3,5.3,0,0,1-3.766-1.568,5.3,5.3,0,0,1-1.568-3.766.94.94,0,0,1,.94-.94.94.94,0,0,1,.94.94,3.427,3.427,0,0,0,1.018,2.437,3.427,3.427,0,0,0,2.437,1.018,3.43,3.43,0,0,0,2.438-1.018,3.43,3.43,0,0,0,1.018-2.437,5.292,5.292,0,0,1,1.569-3.766A5.293,5.293,0,0,1-3590.02,720.692Z" transform="translate(3639.193 -720.692)"/><path class="b" d="M-3590.02,720.692a5.3,5.3,0,0,1,3.766,1.568,5.292,5.292,0,0,1,1.569,3.766.94.94,0,0,1-.94.94.94.94,0,0,1-.939-.94,3.429,3.429,0,0,0-1.018-2.437,3.43,3.43,0,0,0-2.437-1.018,3.429,3.429,0,0,0-2.437,1.018,3.429,3.429,0,0,0-1.018,2.437,5.292,5.292,0,0,1-1.569,3.766,5.294,5.294,0,0,1-3.766,1.568,5.3,5.3,0,0,1-3.766-1.568,5.3,5.3,0,0,1-1.568-3.766.94.94,0,0,1,.94-.94.94.94,0,0,1,.94.94,3.427,3.427,0,0,0,1.018,2.437,3.427,3.427,0,0,0,2.437,1.018,3.43,3.43,0,0,0,2.438-1.018,3.43,3.43,0,0,0,1.018-2.437,5.292,5.292,0,0,1,1.569-3.766A5.293,5.293,0,0,1-3590.02,720.692Z" transform="translate(3621.668 -720.692)"/><path class="b" d="M-3590.02,720.692a5.3,5.3,0,0,1,3.766,1.568,5.292,5.292,0,0,1,1.569,3.766.94.94,0,0,1-.94.94.94.94,0,0,1-.939-.94,3.429,3.429,0,0,0-1.018-2.437,3.43,3.43,0,0,0-2.437-1.018,3.429,3.429,0,0,0-2.437,1.018,3.429,3.429,0,0,0-1.018,2.437,5.292,5.292,0,0,1-1.569,3.766,5.294,5.294,0,0,1-3.766,1.568,5.3,5.3,0,0,1-3.766-1.568,5.3,5.3,0,0,1-1.568-3.766.94.94,0,0,1,.94-.94.94.94,0,0,1,.94.94,3.427,3.427,0,0,0,1.018,2.437,3.427,3.427,0,0,0,2.437,1.018,3.43,3.43,0,0,0,2.438-1.018,3.43,3.43,0,0,0,1.018-2.437,5.292,5.292,0,0,1,1.569-3.766A5.293,5.293,0,0,1-3590.02,720.692Z" transform="translate(3604.143 -720.692)"/></g><g transform="translate(438.044 334.288)"><path class="b" d="M-3590.02,720.692a5.3,5.3,0,0,1,3.766,1.568,5.292,5.292,0,0,1,1.569,3.766.94.94,0,0,1-.94.94.94.94,0,0,1-.939-.94,3.429,3.429,0,0,0-1.018-2.437,3.43,3.43,0,0,0-2.437-1.018,3.429,3.429,0,0,0-2.437,1.018,3.429,3.429,0,0,0-1.018,2.437,5.292,5.292,0,0,1-1.569,3.766,5.294,5.294,0,0,1-3.766,1.568,5.3,5.3,0,0,1-3.766-1.568,5.3,5.3,0,0,1-1.568-3.766.94.94,0,0,1,.94-.94.94.94,0,0,1,.94.94,3.427,3.427,0,0,0,1.018,2.437,3.427,3.427,0,0,0,2.437,1.018,3.43,3.43,0,0,0,2.438-1.018,3.43,3.43,0,0,0,1.018-2.437,5.292,5.292,0,0,1,1.569-3.766A5.293,5.293,0,0,1-3590.02,720.692Z" transform="translate(3674.244 -720.692)"/><path class="b" d="M-3590.02,720.692a5.3,5.3,0,0,1,3.766,1.568,5.292,5.292,0,0,1,1.569,3.766.94.94,0,0,1-.94.94.94.94,0,0,1-.939-.94,3.429,3.429,0,0,0-1.018-2.437,3.43,3.43,0,0,0-2.437-1.018,3.429,3.429,0,0,0-2.437,1.018,3.429,3.429,0,0,0-1.018,2.437,5.292,5.292,0,0,1-1.569,3.766,5.294,5.294,0,0,1-3.766,1.568,5.3,5.3,0,0,1-3.766-1.568,5.3,5.3,0,0,1-1.568-3.766.94.94,0,0,1,.94-.94.94.94,0,0,1,.94.94,3.427,3.427,0,0,0,1.018,2.437,3.427,3.427,0,0,0,2.437,1.018,3.43,3.43,0,0,0,2.438-1.018,3.43,3.43,0,0,0,1.018-2.437,5.292,5.292,0,0,1,1.569-3.766A5.293,5.293,0,0,1-3590.02,720.692Z" transform="translate(3656.719 -720.692)"/><path class="b" d="M-3590.02,720.692a5.3,5.3,0,0,1,3.766,1.568,5.292,5.292,0,0,1,1.569,3.766.94.94,0,0,1-.94.94.94.94,0,0,1-.939-.94,3.429,3.429,0,0,0-1.018-2.437,3.43,3.43,0,0,0-2.437-1.018,3.429,3.429,0,0,0-2.437,1.018,3.429,3.429,0,0,0-1.018,2.437,5.292,5.292,0,0,1-1.569,3.766,5.294,5.294,0,0,1-3.766,1.568,5.3,5.3,0,0,1-3.766-1.568,5.3,5.3,0,0,1-1.568-3.766.94.94,0,0,1,.94-.94.94.94,0,0,1,.94.94,3.427,3.427,0,0,0,1.018,2.437,3.427,3.427,0,0,0,2.437,1.018,3.43,3.43,0,0,0,2.438-1.018,3.43,3.43,0,0,0,1.018-2.437,5.292,5.292,0,0,1,1.569-3.766A5.293,5.293,0,0,1-3590.02,720.692Z" transform="translate(3639.194 -720.692)"/><path class="b" d="M-3590.02,720.692a5.3,5.3,0,0,1,3.766,1.568,5.292,5.292,0,0,1,1.569,3.766.94.94,0,0,1-.94.94.94.94,0,0,1-.939-.94,3.429,3.429,0,0,0-1.018-2.437,3.43,3.43,0,0,0-2.437-1.018,3.429,3.429,0,0,0-2.437,1.018,3.429,3.429,0,0,0-1.018,2.437,5.292,5.292,0,0,1-1.569,3.766,5.294,5.294,0,0,1-3.766,1.568,5.3,5.3,0,0,1-3.766-1.568,5.3,5.3,0,0,1-1.568-3.766.94.94,0,0,1,.94-.94.94.94,0,0,1,.94.94,3.427,3.427,0,0,0,1.018,2.437,3.427,3.427,0,0,0,2.437,1.018,3.43,3.43,0,0,0,2.438-1.018,3.43,3.43,0,0,0,1.018-2.437,5.292,5.292,0,0,1,1.569-3.766A5.293,5.293,0,0,1-3590.02,720.692Z" transform="translate(3621.668 -720.692)"/><path class="b" d="M-3590.02,720.692a5.3,5.3,0,0,1,3.766,1.568,5.292,5.292,0,0,1,1.569,3.766.94.94,0,0,1-.94.94.94.94,0,0,1-.939-.94,3.429,3.429,0,0,0-1.018-2.437,3.43,3.43,0,0,0-2.437-1.018,3.429,3.429,0,0,0-2.437,1.018,3.429,3.429,0,0,0-1.018,2.437,5.292,5.292,0,0,1-1.569,3.766,5.294,5.294,0,0,1-3.766,1.568,5.3,5.3,0,0,1-3.766-1.568,5.3,5.3,0,0,1-1.568-3.766.94.94,0,0,1,.94-.94.94.94,0,0,1,.94.94,3.427,3.427,0,0,0,1.018,2.437,3.427,3.427,0,0,0,2.437,1.018,3.43,3.43,0,0,0,2.438-1.018,3.43,3.43,0,0,0,1.018-2.437,5.292,5.292,0,0,1,1.569-3.766A5.293,5.293,0,0,1-3590.02,720.692Z" transform="translate(3604.143 -720.692)"/></g><g transform="translate(405.183 513.845)"><path class="b" d="M-1919.153,322.915a60.872,60.872,0,0,1,43.328,17.947,60.872,60.872,0,0,1,17.947,43.327,60.872,60.872,0,0,1-17.947,43.327,60.873,60.873,0,0,1-43.328,17.947,60.873,60.873,0,0,1-43.327-17.947,60.873,60.873,0,0,1-17.947-43.327,60.872,60.872,0,0,1,17.947-43.327A60.873,60.873,0,0,1-1919.153,322.915Zm0,100.959a39.73,39.73,0,0,0,39.685-39.685,39.73,39.73,0,0,0-39.685-39.685,39.73,39.73,0,0,0-39.685,39.685A39.73,39.73,0,0,0-1919.153,423.874Z" transform="translate(1980.427 -322.915)"/></g><g transform="translate(199.262 318.876)"><path class="b" d="M-1973.855,322.915a6.528,6.528,0,0,1,4.647,1.925,6.528,6.528,0,0,1,1.925,4.647,6.528,6.528,0,0,1-1.925,4.647,6.528,6.528,0,0,1-4.647,1.925,6.53,6.53,0,0,1-4.647-1.925,6.53,6.53,0,0,1-1.925-4.647,6.53,6.53,0,0,1,1.925-4.647A6.53,6.53,0,0,1-1973.855,322.915Zm0,10.828a4.261,4.261,0,0,0,4.256-4.256,4.261,4.261,0,0,0-4.256-4.257,4.261,4.261,0,0,0-4.257,4.257A4.261,4.261,0,0,0-1973.855,333.744Z" transform="translate(1980.427 -322.915)"/></g><g transform="translate(388.754 144.719)"><path class="b" d="M-1973.855,322.915a6.528,6.528,0,0,1,4.647,1.925,6.528,6.528,0,0,1,1.925,4.647,6.528,6.528,0,0,1-1.925,4.647,6.528,6.528,0,0,1-4.647,1.925,6.53,6.53,0,0,1-4.647-1.925,6.53,6.53,0,0,1-1.925-4.647,6.53,6.53,0,0,1,1.925-4.647A6.53,6.53,0,0,1-1973.855,322.915Zm0,10.828a4.261,4.261,0,0,0,4.256-4.256,4.261,4.261,0,0,0-4.256-4.257,4.261,4.261,0,0,0-4.257,4.257A4.261,4.261,0,0,0-1973.855,333.744Z" transform="translate(1980.427 -322.915)"/></g><g transform="translate(0 255.346)"><path class="b" d="M-1402.888,429.777a21.5,21.5,0,0,0-21.5,21.5,21.5,21.5,0,0,0,21.5,21.5A79.585,79.585,0,0,1-1347,495.92a79.587,79.587,0,0,1,23.148,55.886,21.5,21.5,0,0,0,21.5,21.5,21.5,21.5,0,0,0,21.5-21.5,121.418,121.418,0,0,0-9.292-46.7,121.417,121.417,0,0,0-26.45-39.59,121.421,121.421,0,0,0-39.59-26.45A121.416,121.416,0,0,0-1402.888,429.777Z" transform="translate(1424.385 -429.777)"/></g><g transform="translate(512.461 378.02)"><path class="b" d="M-1293.265,969.059a5.131,5.131,0,0,1,5.132,5.131,5.131,5.131,0,0,1-5.132,5.131,91.485,91.485,0,0,0-64.245,26.611,91.487,91.487,0,0,0-26.611,64.245,5.132,5.132,0,0,1-5.131,5.132,5.132,5.132,0,0,1-5.132-5.132,100.613,100.613,0,0,1,7.7-38.7,100.611,100.611,0,0,1,21.917-32.806,100.62,100.62,0,0,1,32.807-21.918A100.617,100.617,0,0,1-1293.265,969.059Z" transform="translate(1394.385 -969.059)"/></g><g transform="translate(66.727 513.922)"><path class="c" d="M-3590.02,720.692a5.3,5.3,0,0,1,3.766,1.568,5.292,5.292,0,0,1,1.569,3.766.94.94,0,0,1-.94.94.94.94,0,0,1-.939-.94,3.429,3.429,0,0,0-1.018-2.437,3.43,3.43,0,0,0-2.437-1.018,3.429,3.429,0,0,0-2.437,1.018,3.429,3.429,0,0,0-1.018,2.437,5.292,5.292,0,0,1-1.569,3.766,5.294,5.294,0,0,1-3.766,1.568,5.3,5.3,0,0,1-3.766-1.568,5.3,5.3,0,0,1-1.568-3.766.94.94,0,0,1,.94-.94.94.94,0,0,1,.94.94,3.427,3.427,0,0,0,1.018,2.437,3.427,3.427,0,0,0,2.437,1.018,3.43,3.43,0,0,0,2.438-1.018,3.43,3.43,0,0,0,1.018-2.437,5.292,5.292,0,0,1,1.569-3.766A5.293,5.293,0,0,1-3590.02,720.692Z" transform="translate(3779.396 -720.692)"/><path class="c" d="M-3590.02,720.692a5.3,5.3,0,0,1,3.766,1.568,5.292,5.292,0,0,1,1.569,3.766.94.94,0,0,1-.94.94.94.94,0,0,1-.939-.94,3.429,3.429,0,0,0-1.018-2.437,3.43,3.43,0,0,0-2.437-1.018,3.429,3.429,0,0,0-2.437,1.018,3.429,3.429,0,0,0-1.018,2.437,5.292,5.292,0,0,1-1.569,3.766,5.294,5.294,0,0,1-3.766,1.568,5.3,5.3,0,0,1-3.766-1.568,5.3,5.3,0,0,1-1.568-3.766.94.94,0,0,1,.94-.94.94.94,0,0,1,.94.94,3.427,3.427,0,0,0,1.018,2.437,3.427,3.427,0,0,0,2.437,1.018,3.43,3.43,0,0,0,2.438-1.018,3.43,3.43,0,0,0,1.018-2.437,5.292,5.292,0,0,1,1.569-3.766A5.293,5.293,0,0,1-3590.02,720.692Z" transform="translate(3761.871 -720.692)"/><path class="c" d="M-3590.02,720.692a5.3,5.3,0,0,1,3.766,1.568,5.292,5.292,0,0,1,1.569,3.766.94.94,0,0,1-.94.94.94.94,0,0,1-.939-.94,3.429,3.429,0,0,0-1.018-2.437,3.43,3.43,0,0,0-2.437-1.018,3.429,3.429,0,0,0-2.437,1.018,3.429,3.429,0,0,0-1.018,2.437,5.292,5.292,0,0,1-1.569,3.766,5.294,5.294,0,0,1-3.766,1.568,5.3,5.3,0,0,1-3.766-1.568,5.3,5.3,0,0,1-1.568-3.766.94.94,0,0,1,.94-.94.94.94,0,0,1,.94.94,3.427,3.427,0,0,0,1.018,2.437,3.427,3.427,0,0,0,2.437,1.018,3.43,3.43,0,0,0,2.438-1.018,3.43,3.43,0,0,0,1.018-2.437,5.292,5.292,0,0,1,1.569-3.766A5.293,5.293,0,0,1-3590.02,720.692Z" transform="translate(3744.345 -720.692)"/><path class="c" d="M-3590.02,720.692a5.3,5.3,0,0,1,3.766,1.568,5.292,5.292,0,0,1,1.569,3.766.94.94,0,0,1-.94.94.94.94,0,0,1-.939-.94,3.429,3.429,0,0,0-1.018-2.437,3.43,3.43,0,0,0-2.437-1.018,3.429,3.429,0,0,0-2.437,1.018,3.429,3.429,0,0,0-1.018,2.437,5.292,5.292,0,0,1-1.569,3.766,5.294,5.294,0,0,1-3.766,1.568,5.3,5.3,0,0,1-3.766-1.568,5.3,5.3,0,0,1-1.568-3.766.94.94,0,0,1,.94-.94.94.94,0,0,1,.94.94,3.427,3.427,0,0,0,1.018,2.437,3.427,3.427,0,0,0,2.437,1.018,3.43,3.43,0,0,0,2.438-1.018,3.43,3.43,0,0,0,1.018-2.437,5.292,5.292,0,0,1,1.569-3.766A5.293,5.293,0,0,1-3590.02,720.692Z" transform="translate(3726.82 -720.692)"/><path class="c" d="M-3590.02,720.692a5.3,5.3,0,0,1,3.766,1.568,5.292,5.292,0,0,1,1.569,3.766.94.94,0,0,1-.94.94.94.94,0,0,1-.939-.94,3.429,3.429,0,0,0-1.018-2.437,3.43,3.43,0,0,0-2.437-1.018,3.429,3.429,0,0,0-2.437,1.018,3.429,3.429,0,0,0-1.018,2.437,5.292,5.292,0,0,1-1.569,3.766,5.294,5.294,0,0,1-3.766,1.568,5.3,5.3,0,0,1-3.766-1.568,5.3,5.3,0,0,1-1.568-3.766.94.94,0,0,1,.94-.94.94.94,0,0,1,.94.94,3.427,3.427,0,0,0,1.018,2.437,3.427,3.427,0,0,0,2.437,1.018,3.43,3.43,0,0,0,2.438-1.018,3.43,3.43,0,0,0,1.018-2.437,5.292,5.292,0,0,1,1.569-3.766A5.293,5.293,0,0,1-3590.02,720.692Z" transform="translate(3709.295 -720.692)"/><path class="c" d="M-3590.02,720.692a5.3,5.3,0,0,1,3.766,1.568,5.292,5.292,0,0,1,1.569,3.766.94.94,0,0,1-.94.94.94.94,0,0,1-.939-.94,3.429,3.429,0,0,0-1.018-2.437,3.43,3.43,0,0,0-2.437-1.018,3.429,3.429,0,0,0-2.437,1.018,3.429,3.429,0,0,0-1.018,2.437,5.292,5.292,0,0,1-1.569,3.766,5.294,5.294,0,0,1-3.766,1.568,5.3,5.3,0,0,1-3.766-1.568,5.3,5.3,0,0,1-1.568-3.766.94.94,0,0,1,.94-.94.94.94,0,0,1,.94.94,3.427,3.427,0,0,0,1.018,2.437,3.427,3.427,0,0,0,2.437,1.018,3.43,3.43,0,0,0,2.438-1.018,3.43,3.43,0,0,0,1.018-2.437,5.292,5.292,0,0,1,1.569-3.766A5.293,5.293,0,0,1-3590.02,720.692Z" transform="translate(3691.769 -720.692)"/><path class="c" d="M-3590.02,720.692a5.3,5.3,0,0,1,3.766,1.568,5.292,5.292,0,0,1,1.569,3.766.94.94,0,0,1-.94.94.94.94,0,0,1-.939-.94,3.429,3.429,0,0,0-1.018-2.437,3.43,3.43,0,0,0-2.437-1.018,3.429,3.429,0,0,0-2.437,1.018,3.429,3.429,0,0,0-1.018,2.437,5.292,5.292,0,0,1-1.569,3.766,5.294,5.294,0,0,1-3.766,1.568,5.3,5.3,0,0,1-3.766-1.568,5.3,5.3,0,0,1-1.568-3.766.94.94,0,0,1,.94-.94.94.94,0,0,1,.94.94,3.427,3.427,0,0,0,1.018,2.437,3.427,3.427,0,0,0,2.437,1.018,3.43,3.43,0,0,0,2.438-1.018,3.43,3.43,0,0,0,1.018-2.437,5.292,5.292,0,0,1,1.569-3.766A5.293,5.293,0,0,1-3590.02,720.692Z" transform="translate(3674.244 -720.692)"/><path class="c" d="M-3590.02,720.692a5.3,5.3,0,0,1,3.766,1.568,5.292,5.292,0,0,1,1.569,3.766.94.94,0,0,1-.94.94.94.94,0,0,1-.939-.94,3.429,3.429,0,0,0-1.018-2.437,3.43,3.43,0,0,0-2.437-1.018,3.429,3.429,0,0,0-2.437,1.018,3.429,3.429,0,0,0-1.018,2.437,5.292,5.292,0,0,1-1.569,3.766,5.294,5.294,0,0,1-3.766,1.568,5.3,5.3,0,0,1-3.766-1.568,5.3,5.3,0,0,1-1.568-3.766.94.94,0,0,1,.94-.94.94.94,0,0,1,.94.94,3.427,3.427,0,0,0,1.018,2.437,3.427,3.427,0,0,0,2.437,1.018,3.43,3.43,0,0,0,2.438-1.018,3.43,3.43,0,0,0,1.018-2.437,5.292,5.292,0,0,1,1.569-3.766A5.293,5.293,0,0,1-3590.02,720.692Z" transform="translate(3656.719 -720.692)"/><path class="c" d="M-3590.02,720.692a5.3,5.3,0,0,1,3.766,1.568,5.292,5.292,0,0,1,1.569,3.766.94.94,0,0,1-.94.94.94.94,0,0,1-.939-.94,3.429,3.429,0,0,0-1.018-2.437,3.43,3.43,0,0,0-2.437-1.018,3.429,3.429,0,0,0-2.437,1.018,3.429,3.429,0,0,0-1.018,2.437,5.292,5.292,0,0,1-1.569,3.766,5.294,5.294,0,0,1-3.766,1.568,5.3,5.3,0,0,1-3.766-1.568,5.3,5.3,0,0,1-1.568-3.766.94.94,0,0,1,.94-.94.94.94,0,0,1,.94.94,3.427,3.427,0,0,0,1.018,2.437,3.427,3.427,0,0,0,2.437,1.018,3.43,3.43,0,0,0,2.438-1.018,3.43,3.43,0,0,0,1.018-2.437,5.292,5.292,0,0,1,1.569-3.766A5.293,5.293,0,0,1-3590.02,720.692Z" transform="translate(3639.193 -720.692)"/><path class="c" d="M-3590.02,720.692a5.3,5.3,0,0,1,3.766,1.568,5.292,5.292,0,0,1,1.569,3.766.94.94,0,0,1-.94.94.94.94,0,0,1-.939-.94,3.429,3.429,0,0,0-1.018-2.437,3.43,3.43,0,0,0-2.437-1.018,3.429,3.429,0,0,0-2.437,1.018,3.429,3.429,0,0,0-1.018,2.437,5.292,5.292,0,0,1-1.569,3.766,5.294,5.294,0,0,1-3.766,1.568,5.3,5.3,0,0,1-3.766-1.568,5.3,5.3,0,0,1-1.568-3.766.94.94,0,0,1,.94-.94.94.94,0,0,1,.94.94,3.427,3.427,0,0,0,1.018,2.437,3.427,3.427,0,0,0,2.437,1.018,3.43,3.43,0,0,0,2.438-1.018,3.43,3.43,0,0,0,1.018-2.437,5.292,5.292,0,0,1,1.569-3.766A5.293,5.293,0,0,1-3590.02,720.692Z" transform="translate(3621.668 -720.692)"/><path class="c" d="M-3590.02,720.692a5.3,5.3,0,0,1,3.766,1.568,5.292,5.292,0,0,1,1.569,3.766.94.94,0,0,1-.94.94.94.94,0,0,1-.939-.94,3.429,3.429,0,0,0-1.018-2.437,3.43,3.43,0,0,0-2.437-1.018,3.429,3.429,0,0,0-2.437,1.018,3.429,3.429,0,0,0-1.018,2.437,5.292,5.292,0,0,1-1.569,3.766,5.294,5.294,0,0,1-3.766,1.568,5.3,5.3,0,0,1-3.766-1.568,5.3,5.3,0,0,1-1.568-3.766.94.94,0,0,1,.94-.94.94.94,0,0,1,.94.94,3.427,3.427,0,0,0,1.018,2.437,3.427,3.427,0,0,0,2.437,1.018,3.43,3.43,0,0,0,2.438-1.018,3.43,3.43,0,0,0,1.018-2.437,5.292,5.292,0,0,1,1.569-3.766A5.293,5.293,0,0,1-3590.02,720.692Z" transform="translate(3604.143 -720.692)"/></g><path class="c" d="M-998.185,429.777a25.707,25.707,0,0,1,18.283,7.615,25.707,25.707,0,0,1,7.615,18.283,4.562,4.562,0,0,1-4.562,4.562,4.562,4.562,0,0,1-4.562-4.562,16.643,16.643,0,0,0-4.942-11.831,16.644,16.644,0,0,0-11.831-4.942,16.644,16.644,0,0,0-11.831,4.942,16.643,16.643,0,0,0-4.942,11.831,4.563,4.563,0,0,1-4.562,4.562,4.562,4.562,0,0,1-4.562-4.562,25.708,25.708,0,0,1,7.615-18.283A25.708,25.708,0,0,1-998.185,429.777Z" transform="translate(1422.147 -2.303)"/><g transform="translate(333.988 623.378)"><path class="c" d="M-1973.855,322.915a6.528,6.528,0,0,1,4.647,1.925,6.528,6.528,0,0,1,1.925,4.647,6.528,6.528,0,0,1-1.925,4.647,6.528,6.528,0,0,1-4.647,1.925,6.53,6.53,0,0,1-4.647-1.925,6.53,6.53,0,0,1-1.925-4.647,6.53,6.53,0,0,1,1.925-4.647A6.53,6.53,0,0,1-1973.855,322.915Zm0,10.828a4.261,4.261,0,0,0,4.256-4.256,4.261,4.261,0,0,0-4.256-4.257,4.261,4.261,0,0,0-4.257,4.257A4.261,4.261,0,0,0-1973.855,333.744Z" transform="translate(1980.427 -322.915)"/></g><g transform="translate(163.116 127.193)"><path class="c" d="M-1939.9,322.915a40.26,40.26,0,0,1,28.657,11.87,40.262,40.262,0,0,1,11.87,28.657,40.261,40.261,0,0,1-11.87,28.657,40.261,40.261,0,0,1-28.657,11.87,40.261,40.261,0,0,1-28.656-11.87,40.262,40.262,0,0,1-11.871-28.657,40.262,40.262,0,0,1,11.871-28.657A40.261,40.261,0,0,1-1939.9,322.915Zm0,66.775a26.277,26.277,0,0,0,26.247-26.248,26.277,26.277,0,0,0-26.247-26.248,26.277,26.277,0,0,0-26.247,26.248A26.277,26.277,0,0,0-1939.9,389.69Z" transform="translate(1980.428 -322.915)"/></g><circle class="c" cx="13.874" cy="13.874" r="13.874" transform="translate(410.803 195.784)"/><circle class="c" cx="12.333" cy="12.333" r="12.333" transform="translate(164.146 419.316)"/><g transform="translate(162.642 567.042)"><path class="c" d="M-431.8,782a60.575,60.575,0,0,1,43.073,17.955,60.573,60.573,0,0,1,17.955,43.073A60.572,60.572,0,0,1-388.723,886.1,60.574,60.574,0,0,1-431.8,904.055a3.1,3.1,0,0,1-3.1-3.1,3.1,3.1,0,0,1,3.1-3.1A54.421,54.421,0,0,0-393.1,881.721a54.421,54.421,0,0,0,16.141-38.693A54.42,54.42,0,0,0-393.1,804.335,54.421,54.421,0,0,0-431.8,788.194a54.421,54.421,0,0,0-38.693,16.141,54.42,54.42,0,0,0-16.141,38.693,3.1,3.1,0,0,1-3.1,3.1,3.1,3.1,0,0,1-3.1-3.1,60.573,60.573,0,0,1,17.955-43.073A60.574,60.574,0,0,1-431.8,782Z" transform="translate(492.824 -782)"/></g><g transform="translate(487.954 157.387)"><path class="c" d="M-435.9,782a56.5,56.5,0,0,0-40.174,16.747,56.5,56.5,0,0,0-16.747,40.174,56.5,56.5,0,0,0,16.747,40.174A56.5,56.5,0,0,0-435.9,895.842a2.889,2.889,0,0,0,2.889-2.888,2.889,2.889,0,0,0-2.889-2.889,50.759,50.759,0,0,1-36.089-15.055,50.76,50.76,0,0,1-15.055-36.089,50.758,50.758,0,0,1,15.055-36.089A50.759,50.759,0,0,1-435.9,787.777a50.759,50.759,0,0,1,36.089,15.055,50.759,50.759,0,0,1,15.055,36.089,2.889,2.889,0,0,0,2.889,2.889,2.889,2.889,0,0,0,2.888-2.889,56.5,56.5,0,0,0-16.747-40.174A56.5,56.5,0,0,0-435.9,782Z" transform="translate(492.824 -782)"/></g></g></svg>