<svg xmlns="http://www.w3.org/2000/svg" width="667.405" height="546.777" viewBox="0 0 667.405 546.777"><defs><style>.a{fill:#09445f;}.b{fill:#00a6f0;}.c{fill:#1ba6f0;}.d,.e,.f,.h{fill:none;}.d,.e{stroke:#1ba6f0;}.d,.f{stroke-width:2px;}.e{stroke-width:8px;}.f{stroke:#09445f;}.g{stroke:none;}</style></defs><g transform="translate(0 0)"><g transform="translate(188.193 157.971)"><path class="a" d="M-402.23,483.907a119.711,119.711,0,0,0,85.135-35.459,119.709,119.709,0,0,0,35.459-85.135,119.711,119.711,0,0,0-35.459-85.135,119.711,119.711,0,0,0-85.135-35.459,21.245,21.245,0,0,0-21.245,21.245,21.244,21.244,0,0,0,21.245,21.245,77.5,77.5,0,0,1,55.091,23.014,77.5,77.5,0,0,1,23.014,55.091A77.5,77.5,0,0,1-347.139,418.4a77.5,77.5,0,0,1-55.091,23.014A77.5,77.5,0,0,1-457.32,418.4a77.5,77.5,0,0,1-23.014-55.091,21.245,21.245,0,0,0-21.245-21.245,21.245,21.245,0,0,0-21.245,21.245,119.71,119.71,0,0,0,35.459,85.135A119.711,119.711,0,0,0-402.23,483.907Z" transform="translate(522.824 -242.718)"/></g><g transform="translate(0 245.534)"><path class="b" d="M-1402.213,577.811a22.173,22.173,0,0,1-22.172-22.173,22.172,22.172,0,0,1,22.172-22.172,82.083,82.083,0,0,0,57.641-23.875A82.085,82.085,0,0,0-1320.7,451.95a22.173,22.173,0,0,1,22.172-22.173,22.172,22.172,0,0,1,22.172,22.173,125.238,125.238,0,0,1-9.583,48.164,125.239,125.239,0,0,1-27.281,40.833,125.229,125.229,0,0,1-40.833,27.28A125.228,125.228,0,0,1-1402.213,577.811Z" transform="translate(1424.385 -429.777)"/></g><g transform="translate(447.328 458.898)"><path class="a" d="M-959.375,505.885a64.234,64.234,0,0,0,45.682-19.027,64.234,64.234,0,0,0,19.026-45.682,11.4,11.4,0,0,0-11.4-11.4,11.4,11.4,0,0,0-11.4,11.4,41.585,41.585,0,0,1-12.349,29.561,41.585,41.585,0,0,1-29.561,12.349,41.585,41.585,0,0,1-29.56-12.349,41.585,41.585,0,0,1-12.349-29.561,11.4,11.4,0,0,0-11.4-11.4,11.4,11.4,0,0,0-11.4,11.4,64.234,64.234,0,0,0,19.026,45.682A64.234,64.234,0,0,0-959.375,505.885Z" transform="translate(1024.083 -429.777)"/></g><g transform="translate(274.777 68.565)"><path class="c" d="M29.292,0A29.407,29.407,0,0,0,0,29.292a5.16,5.16,0,1,0,10.32,0A18.924,18.924,0,0,1,42.674,15.911a18.825,18.825,0,0,1,5.59,13.382,5.16,5.16,0,0,0,10.321,0A29.407,29.407,0,0,0,29.292,0Z"/></g><g transform="translate(106.388 546.777) rotate(-90)"><path class="b" d="M81.437,0A81.285,81.285,0,0,0,23.96,138.913a80.831,80.831,0,0,0,57.477,23.96,4.133,4.133,0,0,0,0-8.265A73.02,73.02,0,0,1,29.8,29.8a73.172,73.172,0,0,1,124.8,51.632,4.133,4.133,0,0,0,8.265,0A81.805,81.805,0,0,0,81.437,0Z"/></g><g transform="translate(397.53 162.873) rotate(-90)"><path class="c" d="M81.437,0A81.285,81.285,0,0,0,23.96,138.913a80.831,80.831,0,0,0,57.477,23.96,4.133,4.133,0,0,0,0-8.265A73.02,73.02,0,0,1,29.8,29.8a73.172,73.172,0,0,1,124.8,51.632,4.133,4.133,0,0,0,8.265,0A81.805,81.805,0,0,0,81.437,0Z"/></g><g transform="translate(479.586 216.566)"><path class="a" d="M-3592.3,729.637a4.441,4.441,0,0,0,3.158-1.315,4.439,4.439,0,0,0,1.315-3.158.787.787,0,0,0-.788-.788.788.788,0,0,0-.788.788,2.873,2.873,0,0,1-.854,2.043,2.875,2.875,0,0,1-2.043.854,2.874,2.874,0,0,1-2.043-.854,2.875,2.875,0,0,1-.854-2.043,4.44,4.44,0,0,0-1.315-3.157,4.44,4.44,0,0,0-3.157-1.315,4.442,4.442,0,0,0-3.158,1.315,4.441,4.441,0,0,0-1.315,3.157.788.788,0,0,0,.788.788.787.787,0,0,0,.787-.788,2.875,2.875,0,0,1,.854-2.043,2.874,2.874,0,0,1,2.043-.853,2.874,2.874,0,0,1,2.043.853,2.875,2.875,0,0,1,.854,2.043,4.439,4.439,0,0,0,1.315,3.158A4.439,4.439,0,0,0-3592.3,729.637Z" transform="translate(3662.922 -720.692)"/><path class="a" d="M-3592.3,729.637a4.441,4.441,0,0,0,3.158-1.315,4.439,4.439,0,0,0,1.315-3.158.787.787,0,0,0-.788-.788.788.788,0,0,0-.788.788,2.873,2.873,0,0,1-.854,2.043,2.875,2.875,0,0,1-2.043.854,2.874,2.874,0,0,1-2.043-.854,2.875,2.875,0,0,1-.854-2.043,4.44,4.44,0,0,0-1.315-3.157,4.44,4.44,0,0,0-3.157-1.315,4.442,4.442,0,0,0-3.158,1.315,4.441,4.441,0,0,0-1.315,3.157.788.788,0,0,0,.788.788.787.787,0,0,0,.787-.788,2.875,2.875,0,0,1,.854-2.043,2.874,2.874,0,0,1,2.043-.853,2.874,2.874,0,0,1,2.043.853,2.875,2.875,0,0,1,.854,2.043,4.439,4.439,0,0,0,1.315,3.158A4.439,4.439,0,0,0-3592.3,729.637Z" transform="translate(3648.227 -720.692)"/><path class="a" d="M-3592.3,729.637a4.441,4.441,0,0,0,3.158-1.315,4.439,4.439,0,0,0,1.315-3.158.787.787,0,0,0-.788-.788.788.788,0,0,0-.788.788,2.873,2.873,0,0,1-.854,2.043,2.875,2.875,0,0,1-2.043.854,2.874,2.874,0,0,1-2.043-.854,2.875,2.875,0,0,1-.854-2.043,4.44,4.44,0,0,0-1.315-3.157,4.44,4.44,0,0,0-3.157-1.315,4.442,4.442,0,0,0-3.158,1.315,4.441,4.441,0,0,0-1.315,3.157.788.788,0,0,0,.788.788.787.787,0,0,0,.787-.788,2.875,2.875,0,0,1,.854-2.043,2.874,2.874,0,0,1,2.043-.853,2.874,2.874,0,0,1,2.043.853,2.875,2.875,0,0,1,.854,2.043,4.439,4.439,0,0,0,1.315,3.158A4.439,4.439,0,0,0-3592.3,729.637Z" transform="translate(3633.532 -720.692)"/><path class="a" d="M-3592.3,729.637a4.441,4.441,0,0,0,3.158-1.315,4.439,4.439,0,0,0,1.315-3.158.787.787,0,0,0-.788-.788.788.788,0,0,0-.788.788,2.873,2.873,0,0,1-.854,2.043,2.875,2.875,0,0,1-2.043.854,2.874,2.874,0,0,1-2.043-.854,2.875,2.875,0,0,1-.854-2.043,4.44,4.44,0,0,0-1.315-3.157,4.44,4.44,0,0,0-3.157-1.315,4.442,4.442,0,0,0-3.158,1.315,4.441,4.441,0,0,0-1.315,3.157.788.788,0,0,0,.788.788.787.787,0,0,0,.787-.788,2.875,2.875,0,0,1,.854-2.043,2.874,2.874,0,0,1,2.043-.853,2.874,2.874,0,0,1,2.043.853,2.875,2.875,0,0,1,.854,2.043,4.439,4.439,0,0,0,1.315,3.158A4.439,4.439,0,0,0-3592.3,729.637Z" transform="translate(3618.838 -720.692)"/><path class="a" d="M-3592.3,729.637a4.441,4.441,0,0,0,3.158-1.315,4.439,4.439,0,0,0,1.315-3.158.787.787,0,0,0-.788-.788.788.788,0,0,0-.788.788,2.873,2.873,0,0,1-.854,2.043,2.875,2.875,0,0,1-2.043.854,2.874,2.874,0,0,1-2.043-.854,2.875,2.875,0,0,1-.854-2.043,4.44,4.44,0,0,0-1.315-3.157,4.44,4.44,0,0,0-3.157-1.315,4.442,4.442,0,0,0-3.158,1.315,4.441,4.441,0,0,0-1.315,3.157.788.788,0,0,0,.788.788.787.787,0,0,0,.787-.788,2.875,2.875,0,0,1,.854-2.043,2.874,2.874,0,0,1,2.043-.853,2.874,2.874,0,0,1,2.043.853,2.875,2.875,0,0,1,.854,2.043,4.439,4.439,0,0,0,1.315,3.158A4.439,4.439,0,0,0-3592.3,729.637Z" transform="translate(3604.143 -720.692)"/></g><g transform="translate(60.783 81.557)"><path class="b" d="M-3592.3,729.637a4.441,4.441,0,0,0,3.158-1.315,4.439,4.439,0,0,0,1.315-3.158.787.787,0,0,0-.788-.788.788.788,0,0,0-.788.788,2.873,2.873,0,0,1-.854,2.043,2.875,2.875,0,0,1-2.043.854,2.874,2.874,0,0,1-2.043-.854,2.875,2.875,0,0,1-.854-2.043,4.44,4.44,0,0,0-1.315-3.157,4.44,4.44,0,0,0-3.157-1.315,4.442,4.442,0,0,0-3.158,1.315,4.441,4.441,0,0,0-1.315,3.157.788.788,0,0,0,.788.788.787.787,0,0,0,.787-.788,2.875,2.875,0,0,1,.854-2.043,2.874,2.874,0,0,1,2.043-.853,2.874,2.874,0,0,1,2.043.853,2.875,2.875,0,0,1,.854,2.043,4.439,4.439,0,0,0,1.315,3.158A4.439,4.439,0,0,0-3592.3,729.637Z" transform="translate(3662.922 -720.692)"/><path class="b" d="M-3592.3,729.637a4.441,4.441,0,0,0,3.158-1.315,4.439,4.439,0,0,0,1.315-3.158.787.787,0,0,0-.788-.788.788.788,0,0,0-.788.788,2.873,2.873,0,0,1-.854,2.043,2.875,2.875,0,0,1-2.043.854,2.874,2.874,0,0,1-2.043-.854,2.875,2.875,0,0,1-.854-2.043,4.44,4.44,0,0,0-1.315-3.157,4.44,4.44,0,0,0-3.157-1.315,4.442,4.442,0,0,0-3.158,1.315,4.441,4.441,0,0,0-1.315,3.157.788.788,0,0,0,.788.788.787.787,0,0,0,.787-.788,2.875,2.875,0,0,1,.854-2.043,2.874,2.874,0,0,1,2.043-.853,2.874,2.874,0,0,1,2.043.853,2.875,2.875,0,0,1,.854,2.043,4.439,4.439,0,0,0,1.315,3.158A4.439,4.439,0,0,0-3592.3,729.637Z" transform="translate(3648.227 -720.692)"/><path class="b" d="M-3592.3,729.637a4.441,4.441,0,0,0,3.158-1.315,4.439,4.439,0,0,0,1.315-3.158.787.787,0,0,0-.788-.788.788.788,0,0,0-.788.788,2.873,2.873,0,0,1-.854,2.043,2.875,2.875,0,0,1-2.043.854,2.874,2.874,0,0,1-2.043-.854,2.875,2.875,0,0,1-.854-2.043,4.44,4.44,0,0,0-1.315-3.157,4.44,4.44,0,0,0-3.157-1.315,4.442,4.442,0,0,0-3.158,1.315,4.441,4.441,0,0,0-1.315,3.157.788.788,0,0,0,.788.788.787.787,0,0,0,.787-.788,2.875,2.875,0,0,1,.854-2.043,2.874,2.874,0,0,1,2.043-.853,2.874,2.874,0,0,1,2.043.853,2.875,2.875,0,0,1,.854,2.043,4.439,4.439,0,0,0,1.315,3.158A4.439,4.439,0,0,0-3592.3,729.637Z" transform="translate(3633.532 -720.692)"/><path class="b" d="M-3592.3,729.637a4.441,4.441,0,0,0,3.158-1.315,4.439,4.439,0,0,0,1.315-3.158.787.787,0,0,0-.788-.788.788.788,0,0,0-.788.788,2.873,2.873,0,0,1-.854,2.043,2.875,2.875,0,0,1-2.043.854,2.874,2.874,0,0,1-2.043-.854,2.875,2.875,0,0,1-.854-2.043,4.44,4.44,0,0,0-1.315-3.157,4.44,4.44,0,0,0-3.157-1.315,4.442,4.442,0,0,0-3.158,1.315,4.441,4.441,0,0,0-1.315,3.157.788.788,0,0,0,.788.788.787.787,0,0,0,.787-.788,2.875,2.875,0,0,1,.854-2.043,2.874,2.874,0,0,1,2.043-.853,2.874,2.874,0,0,1,2.043.853,2.875,2.875,0,0,1,.854,2.043,4.439,4.439,0,0,0,1.315,3.158A4.439,4.439,0,0,0-3592.3,729.637Z" transform="translate(3618.838 -720.692)"/><path class="b" d="M-3592.3,729.637a4.441,4.441,0,0,0,3.158-1.315,4.439,4.439,0,0,0,1.315-3.158.787.787,0,0,0-.788-.788.788.788,0,0,0-.788.788,2.873,2.873,0,0,1-.854,2.043,2.875,2.875,0,0,1-2.043.854,2.874,2.874,0,0,1-2.043-.854,2.875,2.875,0,0,1-.854-2.043,4.44,4.44,0,0,0-1.315-3.157,4.44,4.44,0,0,0-3.157-1.315,4.442,4.442,0,0,0-3.158,1.315,4.441,4.441,0,0,0-1.315,3.157.788.788,0,0,0,.788.788.787.787,0,0,0,.787-.788,2.875,2.875,0,0,1,.854-2.043,2.874,2.874,0,0,1,2.043-.853,2.874,2.874,0,0,1,2.043.853,2.875,2.875,0,0,1,.854,2.043,4.439,4.439,0,0,0,1.315,3.158A4.439,4.439,0,0,0-3592.3,729.637Z" transform="translate(3604.143 -720.692)"/></g><rect class="b" width="101.946" height="21.124" rx="10.562" transform="translate(404.275 398.241)"/><rect class="c" width="112.048" height="43.166" rx="21.583" transform="translate(667.405 25.818) rotate(90)"/><rect class="a" width="188.278" height="24.798" rx="12.399" transform="translate(22.209 133.734)"/><g class="d" transform="translate(495.2 294.458)"><ellipse class="g" cx="24.798" cy="24.798" rx="24.798" ry="24.798"/><ellipse class="h" cx="24.798" cy="24.798" rx="23.798" ry="23.798"/></g><g class="e" transform="translate(623.779 422.12)"><ellipse class="g" cx="21.583" cy="21.583" rx="21.583" ry="21.583"/><ellipse class="h" cx="21.583" cy="21.583" rx="17.583" ry="17.583"/></g><g class="e" transform="translate(39.659 189.758)"><ellipse class="g" cx="21.583" cy="21.583" rx="21.583" ry="21.583"/><ellipse class="h" cx="21.583" cy="21.583" rx="17.583" ry="17.583"/></g><g class="f" transform="translate(600.819 355.075)"><ellipse class="g" cx="5.511" cy="5.511" rx="5.511" ry="5.511"/><ellipse class="h" cx="5.511" cy="5.511" rx="4.511" ry="4.511"/></g><g class="d" transform="translate(338.148 461.613)"><ellipse class="g" cx="5.511" cy="5.511" rx="5.511" ry="5.511"/><ellipse class="h" cx="5.511" cy="5.511" rx="4.511" ry="4.511"/></g></g></svg>