<svg xmlns="http://www.w3.org/2000/svg" width="667.405" height="546.777"><defs><style>.a{fill:#fc0}.b{fill:#ffe166}.c,.d{fill:#ff9d00}.d{stroke:transparent;stroke-miterlimit:10}.e{fill:#fd6506}.f,.g,.i{fill:none}.f,.g{stroke:#fd6506}.f{stroke-width:2px}.g{stroke-width:8px}.h{stroke:none}</style></defs><g transform="translate(-6250.806 -1623)"><path class="a" d="M6559.593 2022.16a119.711 119.711 0 0 0 85.135-35.459 119.709 119.709 0 0 0 35.459-85.135 119.711 119.711 0 0 0-35.459-85.135 119.711 119.711 0 0 0-85.135-35.459 21.245 21.245 0 0 0-21.245 21.245 21.244 21.244 0 0 0 21.245 21.245 77.5 77.5 0 0 1 55.091 23.014 77.5 77.5 0 0 1 23.014 55.091 77.5 77.5 0 0 1-23.014 55.086 77.5 77.5 0 0 1-55.091 23.014 77.5 77.5 0 0 1-55.09-23.014 77.5 77.5 0 0 1-23.014-55.091 21.245 21.245 0 0 0-21.245-21.245 21.245 21.245 0 0 0-21.245 21.245 119.71 119.71 0 0 0 35.459 85.135 119.711 119.711 0 0 0 85.135 35.463z"/><path class="b" d="M6272.978 2016.568a22.173 22.173 0 0 1-22.172-22.173 22.172 22.172 0 0 1 22.172-22.172 82.083 82.083 0 0 0 57.641-23.875 82.085 82.085 0 0 0 23.872-57.641 22.173 22.173 0 0 1 22.172-22.173 22.172 22.172 0 0 1 22.172 22.173 125.238 125.238 0 0 1-9.583 48.164 125.239 125.239 0 0 1-27.281 40.833 125.229 125.229 0 0 1-40.833 27.28 125.228 125.228 0 0 1-48.16 9.584z"/><path class="b" d="M6762.842 2158.006a64.234 64.234 0 0 0 45.682-19.027 64.234 64.234 0 0 0 19.026-45.682 11.4 11.4 0 0 0-11.4-11.4 11.4 11.4 0 0 0-11.4 11.4 41.585 41.585 0 0 1-12.349 29.561 41.585 41.585 0 0 1-29.561 12.349 41.585 41.585 0 0 1-29.56-12.349 41.585 41.585 0 0 1-12.349-29.561 11.4 11.4 0 0 0-11.4-11.4 11.4 11.4 0 0 0-11.4 11.4 64.234 64.234 0 0 0 19.026 45.682 64.234 64.234 0 0 0 45.685 19.027z"/><path class="b" d="M6554.875 1691.565a29.407 29.407 0 0 0-29.292 29.292 5.16 5.16 0 1 0 10.32 0 18.924 18.924 0 0 1 32.354-13.381 18.825 18.825 0 0 1 5.59 13.382 5.16 5.16 0 0 0 10.321 0 29.407 29.407 0 0 0-29.293-29.293z"/><path class="a" d="M6357.194 2088.34a81.285 81.285 0 0 0 138.913 57.477 80.831 80.831 0 0 0 23.96-57.477 4.133 4.133 0 0 0-8.265 0 73.02 73.02 0 0 1-124.808 51.637 73.172 73.172 0 0 1 51.632-124.8 4.133 4.133 0 0 0 0-8.265 81.805 81.805 0 0 0-81.432 81.428z"/><path class="b" d="M6648.336 1704.436a81.285 81.285 0 0 0 138.913 57.477 80.831 80.831 0 0 0 23.96-57.477 4.133 4.133 0 0 0-8.265 0 73.02 73.02 0 0 1-124.808 51.637 73.172 73.172 0 0 1 51.632-124.8 4.133 4.133 0 0 0 0-8.265 81.805 81.805 0 0 0-81.432 81.428z"/><path class="c" d="M6797.857 1847.196a4.437 4.437 0 0 1-1.316-3.158 2.9 2.9 0 0 0-5.784-.23.788.788 0 0 1 .034.23 4.473 4.473 0 0 1-8.945 0 2.9 2.9 0 0 0-5.785-.234.788.788 0 0 1 .035.234 4.473 4.473 0 0 1-8.945 0 2.9 2.9 0 0 0-5.785-.232.786.786 0 0 1 .035.232 4.473 4.473 0 0 1-8.945 0 2.9 2.9 0 0 0-5.785-.234.787.787 0 0 1 .035.234 4.473 4.473 0 0 1-8.945 0 2.9 2.9 0 0 0-5.794 0 .788.788 0 1 1-1.574 0 4.465 4.465 0 0 1 7.629-3.157 4.44 4.44 0 0 1 1.315 3.157 2.9 2.9 0 0 0 5.785.232.789.789 0 0 1-.035-.232 4.472 4.472 0 0 1 8.944 0 2.9 2.9 0 0 0 5.785.23.789.789 0 0 1-.034-.23 4.473 4.473 0 0 1 8.945 0 2.9 2.9 0 0 0 5.784.232.789.789 0 0 1-.035-.232 4.473 4.473 0 0 1 8.945 0 2.9 2.9 0 0 0 5.784.23.789.789 0 0 1-.034-.23 4.473 4.473 0 0 1 8.945 0 2.9 2.9 0 0 0 5.793 0 .788.788 0 0 1 1.576 0 4.465 4.465 0 0 1-7.628 3.158z"/><path class="d" d="M6379.054 1712.187a4.437 4.437 0 0 1-1.316-3.157 2.9 2.9 0 0 0-5.784-.23.791.791 0 0 1 .034.23 4.473 4.473 0 0 1-8.945 0 2.9 2.9 0 0 0-5.784-.23.791.791 0 0 1 .034.23 4.473 4.473 0 0 1-8.945 0 2.9 2.9 0 0 0-5.785-.235.79.79 0 0 1 .035.235 4.473 4.473 0 0 1-8.945 0 2.9 2.9 0 0 0-5.785-.232.789.789 0 0 1 .035.232 4.473 4.473 0 0 1-8.945 0 2.9 2.9 0 0 0-5.794 0 .788.788 0 0 1-1.575 0 4.465 4.465 0 0 1 7.629-3.158 4.44 4.44 0 0 1 1.315 3.158 2.9 2.9 0 0 0 5.785.229.786.786 0 0 1-.034-.229 4.473 4.473 0 0 1 8.945 0 2.9 2.9 0 0 0 5.784.232.786.786 0 0 1-.035-.232 4.473 4.473 0 0 1 8.945 0 2.9 2.9 0 0 0 5.784.229.786.786 0 0 1-.034-.229 4.473 4.473 0 0 1 8.945 0 2.9 2.9 0 0 0 5.784.229.786.786 0 0 1-.034-.229 4.473 4.473 0 0 1 8.945 0 2.9 2.9 0 0 0 5.794 0 .787.787 0 1 1 1.575 0 4.465 4.465 0 0 1-7.628 3.157z"/><rect class="e" width="101.946" height="21.124" rx="10.562" transform="translate(6655.081 2021.241)"/><rect class="a" width="112.048" height="43.166" rx="21.583" transform="rotate(90 2634.697 4283.515)"><animate attributeName="x" from="0" to="32" dur="5s" repeatCount="indefinite" values="0;32;0" keyTimes="0;0.5;1"/></rect><rect class="a" width="188.278" height="24.798" rx="12.399" transform="translate(6273.015 1756.734)"/><g class="f" transform="translate(6746.005 1917.458)"><ellipse class="h" cx="24.798" cy="24.798" rx="24.798" ry="24.798"/><ellipse class="i" cx="24.798" cy="24.798" rx="23.798" ry="23.798"/></g><g class="g" transform="translate(6874.585 2045.12)"><ellipse class="h" cx="21.583" cy="21.583" rx="21.583" ry="21.583"/><ellipse class="i" cx="21.583" cy="21.583" rx="17.583" ry="17.583"/></g><g class="g" transform="translate(6290.465 1812.758)"><ellipse class="h" cx="21.583" cy="21.583" rx="21.583" ry="21.583"/><ellipse class="i" cx="21.583" cy="21.583" rx="17.583" ry="17.583"/></g><g class="f" transform="translate(6851.625 1978.075)"><ellipse class="h" cx="5.511" cy="5.511" rx="5.511" ry="5.511"/><ellipse class="i" cx="5.511" cy="5.511" rx="4.511" ry="4.511"/></g><g class="f" transform="translate(6588.954 2084.613)"><ellipse class="h" cx="5.511" cy="5.511" rx="5.511" ry="5.511"/><ellipse class="i" cx="5.511" cy="5.511" rx="4.511" ry="4.511"/></g></g></svg>