<svg height="434.956" viewBox="0 0 486.046 434.956" width="486.046" xmlns="http://www.w3.org/2000/svg"><g opacity=".7" transform="translate(-639.9 -8800.9)"><g fill="none" stroke="#a5a5a5" stroke-width="2" transform="matrix(0 1 -1 0 813.744 8800.9)"><rect height="16.421" rx="8.21" stroke="none" width="82.817"/><rect fill="none" height="14.421" rx="7.21" width="80.817" x="1" y="1"/></g><g fill="none" stroke="#a5a5a5" stroke-width="2"><rect height="17" rx="8.5" stroke="none" width="43" x="640" y="8912.474"/><rect fill="none" height="15" rx="7.5" width="41" x="641" y="8913.474"/></g><g fill="none" stroke="#1d1d1d" stroke-width="2"><rect height="24" rx="12" stroke="none" width="88" x="887" y="9143.474"/><rect fill="none" height="22" rx="11" width="86" x="888" y="9144.474"/></g><path d="m-973.782 488.939a49.932 49.932 0 0 1 -35.511-14.79 49.932 49.932 0 0 1 -14.79-35.511 8.861 8.861 0 0 1 8.861-8.861 8.861 8.861 0 0 1 8.861 8.861 32.326 32.326 0 0 0 9.6 22.979 32.326 32.326 0 0 0 22.979 9.6 32.326 32.326 0 0 0 22.979-9.6 32.326 32.326 0 0 0 9.6-22.979 8.861 8.861 0 0 1 8.861-8.861 8.861 8.861 0 0 1 8.861 8.861 49.932 49.932 0 0 1 -14.79 35.511 49.932 49.932 0 0 1 -35.511 14.79z" fill="#1d1d1d" transform="translate(1681.983 8388.646)"/><path d="m-2487.035 336.375a8.847 8.847 0 0 1 7.734 4.466l56.875 98.509a8.931 8.931 0 0 1 -7.734 13.4h-113.75a8.931 8.931 0 0 1 -7.735-13.4l56.875-98.509a8.847 8.847 0 0 1 7.734-4.466m0-26.794a35.854 35.854 0 0 0 -17.34 4.475 35.709 35.709 0 0 0 -13.6 13.387l-56.875 98.509a35.71 35.71 0 0 0 -4.794 18.471 35.853 35.853 0 0 0 4.794 17.254 35.854 35.854 0 0 0 12.546 12.779 35.709 35.709 0 0 0 18.393 5.084h113.749a35.708 35.708 0 0 0 18.393-5.084 35.857 35.857 0 0 0 12.546-12.779 35.852 35.852 0 0 0 4.793-17.254 35.7 35.7 0 0 0 -4.794-18.471l-56.874-98.509a35.709 35.709 0 0 0 -13.6-13.387 35.853 35.853 0 0 0 -17.34-4.475z" fill="#1d1d1d" transform="translate(3395.658 8583.774)"/><path d="m-3280.509 311.77a6.073 6.073 0 0 1 6.073 6.073v50.244a6.073 6.073 0 0 1 -6.073 6.073h-50.244a6.073 6.073 0 0 1 -6.073-6.073v-50.244a6.073 6.073 0 0 1 6.073-6.073zm0-18.686h-50.244a24.787 24.787 0 0 0 -24.759 24.759v50.244a24.787 24.787 0 0 0 24.759 24.759h50.244a24.787 24.787 0 0 0 24.759-24.759v-50.244a24.787 24.787 0 0 0 -24.759-24.759z" fill="#1d1d1d" transform="translate(4045.388 8843.01)"/><path d="m-3349.071 294.689a.521.521 0 0 1 .521.522v4.315a.521.521 0 0 1 -.521.522h-4.315a.521.521 0 0 1 -.521-.522v-4.316a.521.521 0 0 1 .521-.522h4.315m0-1.6h-4.315a2.129 2.129 0 0 0 -2.126 2.126v4.315a2.129 2.129 0 0 0 2.126 2.126h4.315a2.129 2.129 0 0 0 2.126-2.126v-4.319a2.129 2.129 0 0 0 -2.126-2.126z" fill="#1d1d1d" transform="translate(4136.772 8641.68)"/><path d="m-3349.071 294.689a.521.521 0 0 1 .521.522v4.315a.521.521 0 0 1 -.521.522h-4.315a.521.521 0 0 1 -.521-.522v-4.316a.521.521 0 0 1 .521-.522h4.315m0-1.6h-4.315a2.129 2.129 0 0 0 -2.126 2.126v4.315a2.129 2.129 0 0 0 2.126 2.126h4.315a2.129 2.129 0 0 0 2.126-2.126v-4.319a2.129 2.129 0 0 0 -2.126-2.126z" fill="#1d1d1d" transform="translate(4322.396 8795.89)"/><path d="m-3967.38 436.56a4.313 4.313 0 0 1 4.313 4.313v35.681a4.313 4.313 0 0 1 -4.313 4.313h-35.681a4.313 4.313 0 0 1 -4.312-4.313v-35.681a4.313 4.313 0 0 1 4.313-4.313h35.681m0-6.635h-35.681a10.96 10.96 0 0 0 -10.947 10.948v35.681a10.96 10.96 0 0 0 10.947 10.948h35.681a10.96 10.96 0 0 0 10.947-10.948v-35.681a10.96 10.96 0 0 0 -10.947-10.948z" fill="#1d1d1d" transform="translate(5068.707 8538.394)"/><g fill="#a5a5a5"><path d="m-1418.941 466.125a5.444 5.444 0 0 1 -5.444-5.444 5.444 5.444 0 0 1 5.444-5.444 20.154 20.154 0 0 0 14.153-5.862 20.154 20.154 0 0 0 5.862-14.153 5.444 5.444 0 0 1 5.444-5.444 5.444 5.444 0 0 1 5.444 5.444 30.748 30.748 0 0 1 -2.353 11.826 30.75 30.75 0 0 1 -6.7 10.026 30.752 30.752 0 0 1 -10.026 6.7 30.747 30.747 0 0 1 -11.824 2.351z" transform="translate(2429.822 8477.858)"/><path d="m-937.873 1028.121a55.792 55.792 0 0 1 -39.672-16.537 55.79 55.79 0 0 1 -16.538-39.672 2.852 2.852 0 0 1 2.852-2.852 2.853 2.853 0 0 1 2.853 2.852 50.123 50.123 0 0 0 14.867 35.638 50.125 50.125 0 0 0 35.638 14.867 50.124 50.124 0 0 0 35.638-14.867 50.124 50.124 0 0 0 14.867-35.638 2.852 2.852 0 0 1 2.853-2.852 2.852 2.852 0 0 1 2.852 2.852 55.792 55.792 0 0 1 -16.538 39.672 55.793 55.793 0 0 1 -39.672 16.537z" transform="translate(2007.609 8109.92)"/><path d="m-3600.666 727.646a3.452 3.452 0 0 1 -2.455-1.022 3.452 3.452 0 0 1 -1.022-2.455.613.613 0 0 1 .613-.612.612.612 0 0 1 .613.612 2.234 2.234 0 0 0 .664 1.588 2.235 2.235 0 0 0 1.588.664 2.234 2.234 0 0 0 1.588-.664 2.234 2.234 0 0 0 .664-1.588 3.453 3.453 0 0 1 1.022-2.454 3.452 3.452 0 0 1 2.455-1.022 3.452 3.452 0 0 1 2.455 1.022 3.451 3.451 0 0 1 1.022 2.454.612.612 0 0 1 -.612.613.612.612 0 0 1 -.613-.613 2.234 2.234 0 0 0 -.664-1.588 2.234 2.234 0 0 0 -1.588-.664 2.235 2.235 0 0 0 -1.588.664 2.234 2.234 0 0 0 -.663 1.588 3.45 3.45 0 0 1 -1.023 2.455 3.45 3.45 0 0 1 -2.456 1.022z" transform="translate(4564.056 8147.097)"/><path d="m-3600.666 727.646a3.452 3.452 0 0 1 -2.455-1.022 3.452 3.452 0 0 1 -1.022-2.455.613.613 0 0 1 .613-.612.612.612 0 0 1 .613.612 2.234 2.234 0 0 0 .664 1.588 2.235 2.235 0 0 0 1.588.664 2.234 2.234 0 0 0 1.588-.664 2.234 2.234 0 0 0 .664-1.588 3.453 3.453 0 0 1 1.022-2.454 3.452 3.452 0 0 1 2.455-1.022 3.452 3.452 0 0 1 2.455 1.022 3.451 3.451 0 0 1 1.022 2.454.612.612 0 0 1 -.612.613.612.612 0 0 1 -.613-.613 2.234 2.234 0 0 0 -.664-1.588 2.234 2.234 0 0 0 -1.588-.664 2.235 2.235 0 0 0 -1.588.664 2.234 2.234 0 0 0 -.663 1.588 3.45 3.45 0 0 1 -1.023 2.455 3.45 3.45 0 0 1 -2.456 1.022z" transform="translate(4575.479 8147.097)"/><path d="m-3600.666 727.646a3.452 3.452 0 0 1 -2.455-1.022 3.452 3.452 0 0 1 -1.022-2.455.613.613 0 0 1 .613-.612.612.612 0 0 1 .613.612 2.234 2.234 0 0 0 .664 1.588 2.235 2.235 0 0 0 1.588.664 2.234 2.234 0 0 0 1.588-.664 2.234 2.234 0 0 0 .664-1.588 3.453 3.453 0 0 1 1.022-2.454 3.452 3.452 0 0 1 2.455-1.022 3.452 3.452 0 0 1 2.455 1.022 3.451 3.451 0 0 1 1.022 2.454.612.612 0 0 1 -.612.613.612.612 0 0 1 -.613-.613 2.234 2.234 0 0 0 -.664-1.588 2.234 2.234 0 0 0 -1.588-.664 2.235 2.235 0 0 0 -1.588.664 2.234 2.234 0 0 0 -.663 1.588 3.45 3.45 0 0 1 -1.023 2.455 3.45 3.45 0 0 1 -2.456 1.022z" transform="translate(4586.902 8147.097)"/><path d="m-3600.666 727.646a3.452 3.452 0 0 1 -2.455-1.022 3.452 3.452 0 0 1 -1.022-2.455.613.613 0 0 1 .613-.612.612.612 0 0 1 .613.612 2.234 2.234 0 0 0 .664 1.588 2.235 2.235 0 0 0 1.588.664 2.234 2.234 0 0 0 1.588-.664 2.234 2.234 0 0 0 .664-1.588 3.453 3.453 0 0 1 1.022-2.454 3.452 3.452 0 0 1 2.455-1.022 3.452 3.452 0 0 1 2.455 1.022 3.451 3.451 0 0 1 1.022 2.454.612.612 0 0 1 -.612.613.612.612 0 0 1 -.613-.613 2.234 2.234 0 0 0 -.664-1.588 2.234 2.234 0 0 0 -1.588-.664 2.235 2.235 0 0 0 -1.588.664 2.234 2.234 0 0 0 -.663 1.588 3.45 3.45 0 0 1 -1.023 2.455 3.45 3.45 0 0 1 -2.456 1.022z" transform="translate(4598.325 8147.097)"/><path d="m-3600.666 727.646a3.452 3.452 0 0 1 -2.455-1.022 3.452 3.452 0 0 1 -1.022-2.455.613.613 0 0 1 .613-.612.612.612 0 0 1 .613.612 2.234 2.234 0 0 0 .664 1.588 2.235 2.235 0 0 0 1.588.664 2.234 2.234 0 0 0 1.588-.664 2.234 2.234 0 0 0 .664-1.588 3.453 3.453 0 0 1 1.022-2.454 3.452 3.452 0 0 1 2.455-1.022 3.452 3.452 0 0 1 2.455 1.022 3.451 3.451 0 0 1 1.022 2.454.612.612 0 0 1 -.612.613.612.612 0 0 1 -.613-.613 2.234 2.234 0 0 0 -.664-1.588 2.234 2.234 0 0 0 -1.588-.664 2.235 2.235 0 0 0 -1.588.664 2.234 2.234 0 0 0 -.663 1.588 3.45 3.45 0 0 1 -1.023 2.455 3.45 3.45 0 0 1 -2.456 1.022z" transform="translate(4609.748 8147.097)"/><path d="m-3600.666 727.646a3.452 3.452 0 0 1 -2.455-1.022 3.452 3.452 0 0 1 -1.022-2.455.613.613 0 0 1 .613-.612.612.612 0 0 1 .613.612 2.234 2.234 0 0 0 .664 1.588 2.235 2.235 0 0 0 1.588.664 2.234 2.234 0 0 0 1.588-.664 2.234 2.234 0 0 0 .664-1.588 3.453 3.453 0 0 1 1.022-2.454 3.452 3.452 0 0 1 2.455-1.022 3.452 3.452 0 0 1 2.455 1.022 3.451 3.451 0 0 1 1.022 2.454.612.612 0 0 1 -.612.613.612.612 0 0 1 -.613-.613 2.234 2.234 0 0 0 -.664-1.588 2.234 2.234 0 0 0 -1.588-.664 2.235 2.235 0 0 0 -1.588.664 2.234 2.234 0 0 0 -.663 1.588 3.45 3.45 0 0 1 -1.023 2.455 3.45 3.45 0 0 1 -2.456 1.022z" transform="translate(4621.171 8147.097)"/><path d="m-3600.666 727.646a3.452 3.452 0 0 1 -2.455-1.022 3.452 3.452 0 0 1 -1.022-2.455.613.613 0 0 1 .613-.612.612.612 0 0 1 .613.612 2.234 2.234 0 0 0 .664 1.588 2.235 2.235 0 0 0 1.588.664 2.234 2.234 0 0 0 1.588-.664 2.234 2.234 0 0 0 .664-1.588 3.453 3.453 0 0 1 1.022-2.454 3.452 3.452 0 0 1 2.455-1.022 3.452 3.452 0 0 1 2.455 1.022 3.451 3.451 0 0 1 1.022 2.454.612.612 0 0 1 -.612.613.612.612 0 0 1 -.613-.613 2.234 2.234 0 0 0 -.664-1.588 2.234 2.234 0 0 0 -1.588-.664 2.235 2.235 0 0 0 -1.588.664 2.234 2.234 0 0 0 -.663 1.588 3.45 3.45 0 0 1 -1.023 2.455 3.45 3.45 0 0 1 -2.456 1.022z" transform="translate(4632.594 8147.097)"/><path d="m-3600.666 727.646a3.452 3.452 0 0 1 -2.455-1.022 3.452 3.452 0 0 1 -1.022-2.455.613.613 0 0 1 .613-.612.612.612 0 0 1 .613.612 2.234 2.234 0 0 0 .664 1.588 2.235 2.235 0 0 0 1.588.664 2.234 2.234 0 0 0 1.588-.664 2.234 2.234 0 0 0 .664-1.588 3.453 3.453 0 0 1 1.022-2.454 3.452 3.452 0 0 1 2.455-1.022 3.452 3.452 0 0 1 2.455 1.022 3.451 3.451 0 0 1 1.022 2.454.612.612 0 0 1 -.612.613.612.612 0 0 1 -.613-.613 2.234 2.234 0 0 0 -.664-1.588 2.234 2.234 0 0 0 -1.588-.664 2.235 2.235 0 0 0 -1.588.664 2.234 2.234 0 0 0 -.663 1.588 3.45 3.45 0 0 1 -1.023 2.455 3.45 3.45 0 0 1 -2.456 1.022z" transform="translate(4644.017 8147.097)"/><path d="m-3600.666 727.646a3.452 3.452 0 0 1 -2.455-1.022 3.452 3.452 0 0 1 -1.022-2.455.613.613 0 0 1 .613-.612.612.612 0 0 1 .613.612 2.234 2.234 0 0 0 .664 1.588 2.235 2.235 0 0 0 1.588.664 2.234 2.234 0 0 0 1.588-.664 2.234 2.234 0 0 0 .664-1.588 3.453 3.453 0 0 1 1.022-2.454 3.452 3.452 0 0 1 2.455-1.022 3.452 3.452 0 0 1 2.455 1.022 3.451 3.451 0 0 1 1.022 2.454.612.612 0 0 1 -.612.613.612.612 0 0 1 -.613-.613 2.234 2.234 0 0 0 -.664-1.588 2.234 2.234 0 0 0 -1.588-.664 2.235 2.235 0 0 0 -1.588.664 2.234 2.234 0 0 0 -.663 1.588 3.45 3.45 0 0 1 -1.023 2.455 3.45 3.45 0 0 1 -2.456 1.022z" transform="translate(4655.44 8147.097)"/><path d="m-3600.666 727.646a3.452 3.452 0 0 1 -2.455-1.022 3.452 3.452 0 0 1 -1.022-2.455.613.613 0 0 1 .613-.612.612.612 0 0 1 .613.612 2.234 2.234 0 0 0 .664 1.588 2.235 2.235 0 0 0 1.588.664 2.234 2.234 0 0 0 1.588-.664 2.234 2.234 0 0 0 .664-1.588 3.453 3.453 0 0 1 1.022-2.454 3.452 3.452 0 0 1 2.455-1.022 3.452 3.452 0 0 1 2.455 1.022 3.451 3.451 0 0 1 1.022 2.454.612.612 0 0 1 -.612.613.612.612 0 0 1 -.613-.613 2.234 2.234 0 0 0 -.664-1.588 2.234 2.234 0 0 0 -1.588-.664 2.235 2.235 0 0 0 -1.588.664 2.234 2.234 0 0 0 -.663 1.588 3.45 3.45 0 0 1 -1.023 2.455 3.45 3.45 0 0 1 -2.456 1.022z" transform="translate(4666.863 8147.097)"/><path d="m-3600.666 727.646a3.452 3.452 0 0 1 -2.455-1.022 3.452 3.452 0 0 1 -1.022-2.455.613.613 0 0 1 .613-.612.612.612 0 0 1 .613.612 2.234 2.234 0 0 0 .664 1.588 2.235 2.235 0 0 0 1.588.664 2.234 2.234 0 0 0 1.588-.664 2.234 2.234 0 0 0 .664-1.588 3.453 3.453 0 0 1 1.022-2.454 3.452 3.452 0 0 1 2.455-1.022 3.452 3.452 0 0 1 2.455 1.022 3.451 3.451 0 0 1 1.022 2.454.612.612 0 0 1 -.612.613.612.612 0 0 1 -.613-.613 2.234 2.234 0 0 0 -.664-1.588 2.234 2.234 0 0 0 -1.588-.664 2.235 2.235 0 0 0 -1.588.664 2.234 2.234 0 0 0 -.663 1.588 3.45 3.45 0 0 1 -1.023 2.455 3.45 3.45 0 0 1 -2.456 1.022z" transform="translate(4678.286 8147.097)"/><path d="m-3600.666 727.646a3.452 3.452 0 0 1 -2.455-1.022 3.452 3.452 0 0 1 -1.022-2.455.613.613 0 0 1 .613-.612.612.612 0 0 1 .613.612 2.234 2.234 0 0 0 .664 1.588 2.235 2.235 0 0 0 1.588.664 2.234 2.234 0 0 0 1.588-.664 2.234 2.234 0 0 0 .664-1.588 3.453 3.453 0 0 1 1.022-2.454 3.452 3.452 0 0 1 2.455-1.022 3.452 3.452 0 0 1 2.455 1.022 3.451 3.451 0 0 1 1.022 2.454.612.612 0 0 1 -.612.613.612.612 0 0 1 -.613-.613 2.234 2.234 0 0 0 -.664-1.588 2.234 2.234 0 0 0 -1.588-.664 2.235 2.235 0 0 0 -1.588.664 2.234 2.234 0 0 0 -.663 1.588 3.45 3.45 0 0 1 -1.023 2.455 3.45 3.45 0 0 1 -2.456 1.022z" transform="translate(4295.616 8339.146)"/><path d="m-3600.666 727.646a3.452 3.452 0 0 1 -2.455-1.022 3.452 3.452 0 0 1 -1.022-2.455.613.613 0 0 1 .613-.612.612.612 0 0 1 .613.612 2.234 2.234 0 0 0 .664 1.588 2.235 2.235 0 0 0 1.588.664 2.234 2.234 0 0 0 1.588-.664 2.234 2.234 0 0 0 .664-1.588 3.453 3.453 0 0 1 1.022-2.454 3.452 3.452 0 0 1 2.455-1.022 3.452 3.452 0 0 1 2.455 1.022 3.451 3.451 0 0 1 1.022 2.454.612.612 0 0 1 -.612.613.612.612 0 0 1 -.613-.613 2.234 2.234 0 0 0 -.664-1.588 2.234 2.234 0 0 0 -1.588-.664 2.235 2.235 0 0 0 -1.588.664 2.234 2.234 0 0 0 -.663 1.588 3.45 3.45 0 0 1 -1.023 2.455 3.45 3.45 0 0 1 -2.456 1.022z" transform="translate(4307.039 8339.146)"/><path d="m-3600.666 727.646a3.452 3.452 0 0 1 -2.455-1.022 3.452 3.452 0 0 1 -1.022-2.455.613.613 0 0 1 .613-.612.612.612 0 0 1 .613.612 2.234 2.234 0 0 0 .664 1.588 2.235 2.235 0 0 0 1.588.664 2.234 2.234 0 0 0 1.588-.664 2.234 2.234 0 0 0 .664-1.588 3.453 3.453 0 0 1 1.022-2.454 3.452 3.452 0 0 1 2.455-1.022 3.452 3.452 0 0 1 2.455 1.022 3.451 3.451 0 0 1 1.022 2.454.612.612 0 0 1 -.612.613.612.612 0 0 1 -.613-.613 2.234 2.234 0 0 0 -.664-1.588 2.234 2.234 0 0 0 -1.588-.664 2.235 2.235 0 0 0 -1.588.664 2.234 2.234 0 0 0 -.663 1.588 3.45 3.45 0 0 1 -1.023 2.455 3.45 3.45 0 0 1 -2.456 1.022z" transform="translate(4318.462 8339.146)"/><path d="m-3600.666 727.646a3.452 3.452 0 0 1 -2.455-1.022 3.452 3.452 0 0 1 -1.022-2.455.613.613 0 0 1 .613-.612.612.612 0 0 1 .613.612 2.234 2.234 0 0 0 .664 1.588 2.235 2.235 0 0 0 1.588.664 2.234 2.234 0 0 0 1.588-.664 2.234 2.234 0 0 0 .664-1.588 3.453 3.453 0 0 1 1.022-2.454 3.452 3.452 0 0 1 2.455-1.022 3.452 3.452 0 0 1 2.455 1.022 3.451 3.451 0 0 1 1.022 2.454.612.612 0 0 1 -.612.613.612.612 0 0 1 -.613-.613 2.234 2.234 0 0 0 -.664-1.588 2.234 2.234 0 0 0 -1.588-.664 2.235 2.235 0 0 0 -1.588.664 2.234 2.234 0 0 0 -.663 1.588 3.45 3.45 0 0 1 -1.023 2.455 3.45 3.45 0 0 1 -2.456 1.022z" transform="translate(4329.885 8339.146)"/><path d="m-3600.666 727.646a3.452 3.452 0 0 1 -2.455-1.022 3.452 3.452 0 0 1 -1.022-2.455.613.613 0 0 1 .613-.612.612.612 0 0 1 .613.612 2.234 2.234 0 0 0 .664 1.588 2.235 2.235 0 0 0 1.588.664 2.234 2.234 0 0 0 1.588-.664 2.234 2.234 0 0 0 .664-1.588 3.453 3.453 0 0 1 1.022-2.454 3.452 3.452 0 0 1 2.455-1.022 3.452 3.452 0 0 1 2.455 1.022 3.451 3.451 0 0 1 1.022 2.454.612.612 0 0 1 -.612.613.612.612 0 0 1 -.613-.613 2.234 2.234 0 0 0 -.664-1.588 2.234 2.234 0 0 0 -1.588-.664 2.235 2.235 0 0 0 -1.588.664 2.234 2.234 0 0 0 -.663 1.588 3.45 3.45 0 0 1 -1.023 2.455 3.45 3.45 0 0 1 -2.456 1.022z" transform="translate(4341.308 8339.146)"/><path d="m-3600.666 727.646a3.452 3.452 0 0 1 -2.455-1.022 3.452 3.452 0 0 1 -1.022-2.455.613.613 0 0 1 .613-.612.612.612 0 0 1 .613.612 2.234 2.234 0 0 0 .664 1.588 2.235 2.235 0 0 0 1.588.664 2.234 2.234 0 0 0 1.588-.664 2.234 2.234 0 0 0 .664-1.588 3.453 3.453 0 0 1 1.022-2.454 3.452 3.452 0 0 1 2.455-1.022 3.452 3.452 0 0 1 2.455 1.022 3.451 3.451 0 0 1 1.022 2.454.612.612 0 0 1 -.612.613.612.612 0 0 1 -.613-.613 2.234 2.234 0 0 0 -.664-1.588 2.234 2.234 0 0 0 -1.588-.664 2.235 2.235 0 0 0 -1.588.664 2.234 2.234 0 0 0 -.663 1.588 3.45 3.45 0 0 1 -1.023 2.455 3.45 3.45 0 0 1 -2.456 1.022z" transform="translate(4598.325 8454.804)"/><path d="m-3600.666 727.646a3.452 3.452 0 0 1 -2.455-1.022 3.452 3.452 0 0 1 -1.022-2.455.613.613 0 0 1 .613-.612.612.612 0 0 1 .613.612 2.234 2.234 0 0 0 .664 1.588 2.235 2.235 0 0 0 1.588.664 2.234 2.234 0 0 0 1.588-.664 2.234 2.234 0 0 0 .664-1.588 3.453 3.453 0 0 1 1.022-2.454 3.452 3.452 0 0 1 2.455-1.022 3.452 3.452 0 0 1 2.455 1.022 3.451 3.451 0 0 1 1.022 2.454.612.612 0 0 1 -.612.613.612.612 0 0 1 -.613-.613 2.234 2.234 0 0 0 -.664-1.588 2.234 2.234 0 0 0 -1.588-.664 2.235 2.235 0 0 0 -1.588.664 2.234 2.234 0 0 0 -.663 1.588 3.45 3.45 0 0 1 -1.023 2.455 3.45 3.45 0 0 1 -2.456 1.022z" transform="translate(4609.748 8454.804)"/><path d="m-3600.666 727.646a3.452 3.452 0 0 1 -2.455-1.022 3.452 3.452 0 0 1 -1.022-2.455.613.613 0 0 1 .613-.612.612.612 0 0 1 .613.612 2.234 2.234 0 0 0 .664 1.588 2.235 2.235 0 0 0 1.588.664 2.234 2.234 0 0 0 1.588-.664 2.234 2.234 0 0 0 .664-1.588 3.453 3.453 0 0 1 1.022-2.454 3.452 3.452 0 0 1 2.455-1.022 3.452 3.452 0 0 1 2.455 1.022 3.451 3.451 0 0 1 1.022 2.454.612.612 0 0 1 -.612.613.612.612 0 0 1 -.613-.613 2.234 2.234 0 0 0 -.664-1.588 2.234 2.234 0 0 0 -1.588-.664 2.235 2.235 0 0 0 -1.588.664 2.234 2.234 0 0 0 -.663 1.588 3.45 3.45 0 0 1 -1.023 2.455 3.45 3.45 0 0 1 -2.456 1.022z" transform="translate(4621.171 8454.804)"/><path d="m-3600.666 727.646a3.452 3.452 0 0 1 -2.455-1.022 3.452 3.452 0 0 1 -1.022-2.455.613.613 0 0 1 .613-.612.612.612 0 0 1 .613.612 2.234 2.234 0 0 0 .664 1.588 2.235 2.235 0 0 0 1.588.664 2.234 2.234 0 0 0 1.588-.664 2.234 2.234 0 0 0 .664-1.588 3.453 3.453 0 0 1 1.022-2.454 3.452 3.452 0 0 1 2.455-1.022 3.452 3.452 0 0 1 2.455 1.022 3.451 3.451 0 0 1 1.022 2.454.612.612 0 0 1 -.612.613.612.612 0 0 1 -.613-.613 2.234 2.234 0 0 0 -.664-1.588 2.234 2.234 0 0 0 -1.588-.664 2.235 2.235 0 0 0 -1.588.664 2.234 2.234 0 0 0 -.663 1.588 3.45 3.45 0 0 1 -1.023 2.455 3.45 3.45 0 0 1 -2.456 1.022z" transform="translate(4632.594 8454.804)"/><path d="m-3600.666 727.646a3.452 3.452 0 0 1 -2.455-1.022 3.452 3.452 0 0 1 -1.022-2.455.613.613 0 0 1 .613-.612.612.612 0 0 1 .613.612 2.234 2.234 0 0 0 .664 1.588 2.235 2.235 0 0 0 1.588.664 2.234 2.234 0 0 0 1.588-.664 2.234 2.234 0 0 0 .664-1.588 3.453 3.453 0 0 1 1.022-2.454 3.452 3.452 0 0 1 2.455-1.022 3.452 3.452 0 0 1 2.455 1.022 3.451 3.451 0 0 1 1.022 2.454.612.612 0 0 1 -.612.613.612.612 0 0 1 -.613-.613 2.234 2.234 0 0 0 -.664-1.588 2.234 2.234 0 0 0 -1.588-.664 2.235 2.235 0 0 0 -1.588.664 2.234 2.234 0 0 0 -.663 1.588 3.45 3.45 0 0 1 -1.023 2.455 3.45 3.45 0 0 1 -2.456 1.022z" transform="translate(4644.017 8454.804)"/><path d="m-3349.071 294.689a.521.521 0 0 1 .521.522v4.315a.521.521 0 0 1 -.521.522h-4.315a.521.521 0 0 1 -.521-.522v-4.316a.521.521 0 0 1 .521-.522h4.315m0-1.6h-4.315a2.129 2.129 0 0 0 -2.126 2.126v4.315a2.129 2.129 0 0 0 2.126 2.126h4.315a2.129 2.129 0 0 0 2.126-2.126v-4.319a2.129 2.129 0 0 0 -2.126-2.126z" transform="translate(3995.412 8830.874)"/><path d="m-3349.071 294.689a.521.521 0 0 1 .521.522v4.315a.521.521 0 0 1 -.521.522h-4.315a.521.521 0 0 1 -.521-.522v-4.316a.521.521 0 0 1 .521-.522h4.315m0-1.6h-4.315a2.129 2.129 0 0 0 -2.126 2.126v4.315a2.129 2.129 0 0 0 2.126 2.126h4.315a2.129 2.129 0 0 0 2.126-2.126v-4.319a2.129 2.129 0 0 0 -2.126-2.126z" transform="translate(4179.608 8889.416)"/><path d="m-4600.937 477.93a3.318 3.318 0 0 1 3.318 3.318v27.452a3.318 3.318 0 0 1 -3.318 3.318h-27.453a3.318 3.318 0 0 1 -3.318-3.318v-27.452a3.318 3.318 0 0 1 3.318-3.318zm0-1.276h-27.453a4.6 4.6 0 0 0 -4.594 4.594v27.452a4.6 4.6 0 0 0 4.594 4.594h27.453a4.6 4.6 0 0 0 4.594-4.594v-27.452a4.6 4.6 0 0 0 -4.594-4.594z" transform="translate(5362.127 8495.948)"/><path d="m-4615.3 477.358a1.831 1.831 0 0 1 1.832 1.831v15.15a1.831 1.831 0 0 1 -1.832 1.831h-15.15a1.831 1.831 0 0 1 -1.831-1.831v-15.149a1.831 1.831 0 0 1 1.831-1.831h15.15m0-.7h-15.15a2.538 2.538 0 0 0 -2.536 2.536v15.15a2.538 2.538 0 0 0 2.536 2.536h15.15a2.538 2.538 0 0 0 2.536-2.536v-15.155a2.538 2.538 0 0 0 -2.536-2.536z" transform="translate(5446.729 8624.814)"/></g></g></svg>