<svg xmlns="http://www.w3.org/2000/svg" xmlns:xlink="http://www.w3.org/1999/xlink" width="1280" height="500" viewBox="0 0 1280 500"><defs><style>.a{fill:#fd2c6e;}.b{clip-path:url(#a);}.c{fill:#fc0;}.d{fill:#ff9d00;}.e{fill:#ffeb00;}.f,.g,.h,.j{fill:none;}.f,.h{stroke:#ffeb34;}.f,.g{stroke-width:2px;}.g{stroke:#fd9d27;}.h{stroke-width:8px;}.i{stroke:none;}</style><clipPath id="a"><rect class="a" width="1280" height="500" transform="translate(0 82)"/></clipPath></defs><g transform="translate(-180 -8678)"><g class="b" transform="translate(180 8596)"><rect class="c" width="1280" height="500" transform="translate(0 82)"/><g transform="translate(885.663 189.39)"><path class="d" d="M-391.519,505.328a130.343,130.343,0,0,1-92.7-38.609,130.342,130.342,0,0,1-38.609-92.7,130.344,130.344,0,0,1,38.609-92.7,130.343,130.343,0,0,1,92.7-38.609,23.131,23.131,0,0,1,23.131,23.131,23.131,23.131,0,0,1-23.131,23.131A84.385,84.385,0,0,0-451.5,314.039a84.385,84.385,0,0,0-25.058,59.984A84.383,84.383,0,0,0-451.5,434.007a84.385,84.385,0,0,0,59.984,25.058,84.384,84.384,0,0,0,59.984-25.058,84.383,84.383,0,0,0,25.058-59.984,23.132,23.132,0,0,1,23.131-23.131,23.132,23.132,0,0,1,23.131,23.131,130.342,130.342,0,0,1-38.609,92.7A130.343,130.343,0,0,1-391.519,505.328Z" transform="translate(522.824 -242.718)"/></g><g transform="translate(334.274 532.389) rotate(-90)"><path class="d" d="M-464.911,358.543a57.488,57.488,0,0,0,40.884-17.029A57.487,57.487,0,0,0-407,300.631a57.488,57.488,0,0,0-17.029-40.884,57.488,57.488,0,0,0-40.884-17.029,10.2,10.2,0,0,0-10.2,10.2,10.2,10.2,0,0,0,10.2,10.2,37.219,37.219,0,0,1,26.456,11.052A37.218,37.218,0,0,1-427.4,300.631a37.218,37.218,0,0,1-11.052,26.456,37.219,37.219,0,0,1-26.456,11.052,37.218,37.218,0,0,1-26.456-11.052,37.218,37.218,0,0,1-11.052-26.456,10.2,10.2,0,0,0-10.2-10.2,10.2,10.2,0,0,0-10.2,10.2A57.488,57.488,0,0,0-505.8,341.515,57.488,57.488,0,0,0-464.911,358.543Z" transform="translate(522.824 -242.718)"/></g><g transform="translate(70 122.044)"><path class="e" d="M-1411.973,512.645a12.412,12.412,0,0,1-12.412-12.412,12.412,12.412,0,0,1,12.412-12.412,45.95,45.95,0,0,0,32.267-13.365,45.95,45.95,0,0,0,13.365-32.267,12.412,12.412,0,0,1,12.412-12.412,12.412,12.412,0,0,1,12.412,12.412,70.107,70.107,0,0,1-5.365,26.962,70.11,70.11,0,0,1-15.271,22.858,70.1,70.1,0,0,1-22.858,15.271A70.1,70.1,0,0,1-1411.973,512.645Z" transform="translate(1424.385 -429.777)"/></g><g transform="translate(1192 284.73)"><path class="e" d="M-1287.345,590.959a24.142,24.142,0,0,0,24.142-24.142,24.142,24.142,0,0,0-24.142-24.142,89.374,89.374,0,0,1-62.761-26,89.376,89.376,0,0,1-26-62.761,24.142,24.142,0,0,0-24.142-24.142,24.142,24.142,0,0,0-24.142,24.142,136.361,136.361,0,0,0,10.435,52.442,136.365,136.365,0,0,0,29.7,44.46,136.352,136.352,0,0,0,44.46,29.7A136.35,136.35,0,0,0-1287.345,590.959Z" transform="translate(1424.385 -429.777)"/></g><g transform="translate(725.212 517.044)"><path class="d" d="M-953.627,512.645a69.939,69.939,0,0,1-49.739-20.717,69.939,69.939,0,0,1-20.716-49.739,12.412,12.412,0,0,1,12.412-12.412,12.412,12.412,0,0,1,12.412,12.412,45.278,45.278,0,0,0,13.446,32.186,45.279,45.279,0,0,0,32.186,13.446,45.279,45.279,0,0,0,32.186-13.446A45.279,45.279,0,0,0-908,442.189a12.412,12.412,0,0,1,12.412-12.412,12.412,12.412,0,0,1,12.412,12.412,69.938,69.938,0,0,1-20.716,49.739A69.939,69.939,0,0,1-953.627,512.645Z" transform="translate(1024.083 -429.777)"/></g><g transform="translate(1054 129.556) rotate(180)"><path class="e" d="M-992.189,467.289a31.66,31.66,0,0,1-22.516-9.378,31.66,31.66,0,0,1-9.378-22.516,5.619,5.619,0,0,1,5.619-5.619,5.619,5.619,0,0,1,5.619,5.619,20.5,20.5,0,0,0,6.087,14.57,20.5,20.5,0,0,0,14.57,6.087,20.5,20.5,0,0,0,14.57-6.087,20.5,20.5,0,0,0,6.087-14.57,5.619,5.619,0,0,1,5.619-5.619A5.619,5.619,0,0,1-960.3,435.4a31.659,31.659,0,0,1-9.378,22.516A31.66,31.66,0,0,1-992.189,467.289Z" transform="translate(1024.083 -429.777)"/></g><g transform="translate(1060.005 612.728) rotate(-90)"><path class="e" d="M-404.154,959.339a88.011,88.011,0,0,1-62.582-26.087,88.009,88.009,0,0,1-26.088-62.582,88.008,88.008,0,0,1,26.088-62.582A88.01,88.01,0,0,1-404.154,782a4.5,4.5,0,0,1,4.5,4.5,4.5,4.5,0,0,1-4.5,4.5,79.071,79.071,0,0,0-56.219,23.452,79.071,79.071,0,0,0-23.452,56.219,79.069,79.069,0,0,0,23.452,56.218,79.071,79.071,0,0,0,56.219,23.452,79.071,79.071,0,0,0,56.219-23.452,79.069,79.069,0,0,0,23.452-56.218,4.5,4.5,0,0,1,4.5-4.5,4.5,4.5,0,0,1,4.5,4.5,88.009,88.009,0,0,1-26.088,62.582A88.01,88.01,0,0,1-404.154,959.339Z" transform="translate(492.824 -782)"/></g><g transform="translate(743.005 194.728) rotate(-90)"><path class="e" d="M-404.154,959.339a88.011,88.011,0,0,1-62.582-26.087,88.009,88.009,0,0,1-26.088-62.582,88.008,88.008,0,0,1,26.088-62.582A88.01,88.01,0,0,1-404.154,782a4.5,4.5,0,0,1,4.5,4.5,4.5,4.5,0,0,1-4.5,4.5,79.071,79.071,0,0,0-56.219,23.452,79.071,79.071,0,0,0-23.452,56.219,79.069,79.069,0,0,0,23.452,56.218,79.071,79.071,0,0,0,56.219,23.452,79.071,79.071,0,0,0,56.219-23.452,79.069,79.069,0,0,0,23.452-56.218,4.5,4.5,0,0,1,4.5-4.5,4.5,4.5,0,0,1,4.5,4.5,88.009,88.009,0,0,1-26.088,62.582A88.01,88.01,0,0,1-404.154,959.339Z" transform="translate(492.824 -782)"/></g><g transform="translate(466.335 523.962)"><path class="d" d="M-1389.567,1068.824a4.818,4.818,0,0,1-4.818-4.818,4.818,4.818,0,0,1,4.818-4.818,85.9,85.9,0,0,0,60.324-24.987,85.9,85.9,0,0,0,24.987-60.324,4.818,4.818,0,0,1,4.818-4.818,4.818,4.818,0,0,1,4.818,4.818,94.474,94.474,0,0,1-7.23,36.334,94.473,94.473,0,0,1-20.58,30.8,94.476,94.476,0,0,1-30.8,20.58A94.483,94.483,0,0,1-1389.567,1068.824Z" transform="translate(1394.385 -969.059)"/></g><g transform="translate(-116.544 285.559)"><path class="d" d="M-905.413,1062.228A88.009,88.009,0,0,1-968,1036.141a88.008,88.008,0,0,1-26.088-62.582,4.5,4.5,0,0,1,4.5-4.5,4.5,4.5,0,0,1,4.5,4.5,79.068,79.068,0,0,0,23.452,56.218,79.069,79.069,0,0,0,56.219,23.452,79.069,79.069,0,0,0,56.218-23.452,79.069,79.069,0,0,0,23.452-56.218,4.5,4.5,0,0,1,4.5-4.5,4.5,4.5,0,0,1,4.5,4.5,88.01,88.01,0,0,1-26.088,62.582A88.01,88.01,0,0,1-905.413,1062.228Z" transform="translate(994.083 -969.059)"/></g><g transform="translate(-501 111)"><path class="e" d="M-3599.273,730.432a4.835,4.835,0,0,1-3.438-1.432,4.834,4.834,0,0,1-1.432-3.438.858.858,0,0,1,.858-.858.858.858,0,0,1,.858.858,3.13,3.13,0,0,0,.929,2.225,3.13,3.13,0,0,0,2.225.929,3.13,3.13,0,0,0,2.225-.929,3.13,3.13,0,0,0,.929-2.225,4.834,4.834,0,0,1,1.432-3.438,4.834,4.834,0,0,1,3.438-1.432,4.834,4.834,0,0,1,3.438,1.432,4.834,4.834,0,0,1,1.432,3.438.858.858,0,0,1-.858.858.858.858,0,0,1-.858-.858,3.13,3.13,0,0,0-.929-2.225,3.13,3.13,0,0,0-2.225-.929,3.13,3.13,0,0,0-2.225.929,3.129,3.129,0,0,0-.929,2.225,4.834,4.834,0,0,1-1.432,3.438A4.834,4.834,0,0,1-3599.273,730.432Z" transform="translate(4216.379 -312.503)"/><path class="e" d="M-3599.273,730.432a4.835,4.835,0,0,1-3.438-1.432,4.834,4.834,0,0,1-1.432-3.438.858.858,0,0,1,.858-.858.858.858,0,0,1,.858.858,3.13,3.13,0,0,0,.929,2.225,3.13,3.13,0,0,0,2.225.929,3.13,3.13,0,0,0,2.225-.929,3.13,3.13,0,0,0,.929-2.225,4.834,4.834,0,0,1,1.432-3.438,4.834,4.834,0,0,1,3.438-1.432,4.834,4.834,0,0,1,3.438,1.432,4.834,4.834,0,0,1,1.432,3.438.858.858,0,0,1-.858.858.858.858,0,0,1-.858-.858,3.13,3.13,0,0,0-.929-2.225,3.13,3.13,0,0,0-2.225-.929,3.13,3.13,0,0,0-2.225.929,3.129,3.129,0,0,0-.929,2.225,4.834,4.834,0,0,1-1.432,3.438A4.834,4.834,0,0,1-3599.273,730.432Z" transform="translate(4232.379 -312.503)"/><path class="e" d="M-3599.273,730.432a4.835,4.835,0,0,1-3.438-1.432,4.834,4.834,0,0,1-1.432-3.438.858.858,0,0,1,.858-.858.858.858,0,0,1,.858.858,3.13,3.13,0,0,0,.929,2.225,3.13,3.13,0,0,0,2.225.929,3.13,3.13,0,0,0,2.225-.929,3.13,3.13,0,0,0,.929-2.225,4.834,4.834,0,0,1,1.432-3.438,4.834,4.834,0,0,1,3.438-1.432,4.834,4.834,0,0,1,3.438,1.432,4.834,4.834,0,0,1,1.432,3.438.858.858,0,0,1-.858.858.858.858,0,0,1-.858-.858,3.13,3.13,0,0,0-.929-2.225,3.13,3.13,0,0,0-2.225-.929,3.13,3.13,0,0,0-2.225.929,3.129,3.129,0,0,0-.929,2.225,4.834,4.834,0,0,1-1.432,3.438A4.834,4.834,0,0,1-3599.273,730.432Z" transform="translate(4248.379 -312.503)"/><path class="e" d="M-3599.273,730.432a4.835,4.835,0,0,1-3.438-1.432,4.834,4.834,0,0,1-1.432-3.438.858.858,0,0,1,.858-.858.858.858,0,0,1,.858.858,3.13,3.13,0,0,0,.929,2.225,3.13,3.13,0,0,0,2.225.929,3.13,3.13,0,0,0,2.225-.929,3.13,3.13,0,0,0,.929-2.225,4.834,4.834,0,0,1,1.432-3.438,4.834,4.834,0,0,1,3.438-1.432,4.834,4.834,0,0,1,3.438,1.432,4.834,4.834,0,0,1,1.432,3.438.858.858,0,0,1-.858.858.858.858,0,0,1-.858-.858,3.13,3.13,0,0,0-.929-2.225,3.13,3.13,0,0,0-2.225-.929,3.13,3.13,0,0,0-2.225.929,3.129,3.129,0,0,0-.929,2.225,4.834,4.834,0,0,1-1.432,3.438A4.834,4.834,0,0,1-3599.273,730.432Z" transform="translate(4264.379 -312.503)"/><path class="e" d="M-3599.273,730.432a4.835,4.835,0,0,1-3.438-1.432,4.834,4.834,0,0,1-1.432-3.438.858.858,0,0,1,.858-.858.858.858,0,0,1,.858.858,3.13,3.13,0,0,0,.929,2.225,3.13,3.13,0,0,0,2.225.929,3.13,3.13,0,0,0,2.225-.929,3.13,3.13,0,0,0,.929-2.225,4.834,4.834,0,0,1,1.432-3.438,4.834,4.834,0,0,1,3.438-1.432,4.834,4.834,0,0,1,3.438,1.432,4.834,4.834,0,0,1,1.432,3.438.858.858,0,0,1-.858.858.858.858,0,0,1-.858-.858,3.13,3.13,0,0,0-.929-2.225,3.13,3.13,0,0,0-2.225-.929,3.13,3.13,0,0,0-2.225.929,3.129,3.129,0,0,0-.929,2.225,4.834,4.834,0,0,1-1.432,3.438A4.834,4.834,0,0,1-3599.273,730.432Z" transform="translate(4280.379 -312.503)"/><path class="e" d="M-3599.273,730.432a4.835,4.835,0,0,1-3.438-1.432,4.834,4.834,0,0,1-1.432-3.438.858.858,0,0,1,.858-.858.858.858,0,0,1,.858.858,3.13,3.13,0,0,0,.929,2.225,3.13,3.13,0,0,0,2.225.929,3.13,3.13,0,0,0,2.225-.929,3.13,3.13,0,0,0,.929-2.225,4.834,4.834,0,0,1,1.432-3.438,4.834,4.834,0,0,1,3.438-1.432,4.834,4.834,0,0,1,3.438,1.432,4.834,4.834,0,0,1,1.432,3.438.858.858,0,0,1-.858.858.858.858,0,0,1-.858-.858,3.13,3.13,0,0,0-.929-2.225,3.13,3.13,0,0,0-2.225-.929,3.13,3.13,0,0,0-2.225.929,3.129,3.129,0,0,0-.929,2.225,4.834,4.834,0,0,1-1.432,3.438A4.834,4.834,0,0,1-3599.273,730.432Z" transform="translate(4296.379 -312.503)"/><path class="e" d="M-3599.273,730.432a4.835,4.835,0,0,1-3.438-1.432,4.834,4.834,0,0,1-1.432-3.438.858.858,0,0,1,.858-.858.858.858,0,0,1,.858.858,3.13,3.13,0,0,0,.929,2.225,3.13,3.13,0,0,0,2.225.929,3.13,3.13,0,0,0,2.225-.929,3.13,3.13,0,0,0,.929-2.225,4.834,4.834,0,0,1,1.432-3.438,4.834,4.834,0,0,1,3.438-1.432,4.834,4.834,0,0,1,3.438,1.432,4.834,4.834,0,0,1,1.432,3.438.858.858,0,0,1-.858.858.858.858,0,0,1-.858-.858,3.13,3.13,0,0,0-.929-2.225,3.13,3.13,0,0,0-2.225-.929,3.13,3.13,0,0,0-2.225.929,3.129,3.129,0,0,0-.929,2.225,4.834,4.834,0,0,1-1.432,3.438A4.834,4.834,0,0,1-3599.273,730.432Z" transform="translate(4312.379 -312.503)"/><path class="e" d="M-3599.273,730.432a4.835,4.835,0,0,1-3.438-1.432,4.834,4.834,0,0,1-1.432-3.438.858.858,0,0,1,.858-.858.858.858,0,0,1,.858.858,3.13,3.13,0,0,0,.929,2.225,3.13,3.13,0,0,0,2.225.929,3.13,3.13,0,0,0,2.225-.929,3.13,3.13,0,0,0,.929-2.225,4.834,4.834,0,0,1,1.432-3.438,4.834,4.834,0,0,1,3.438-1.432,4.834,4.834,0,0,1,3.438,1.432,4.834,4.834,0,0,1,1.432,3.438.858.858,0,0,1-.858.858.858.858,0,0,1-.858-.858,3.13,3.13,0,0,0-.929-2.225,3.13,3.13,0,0,0-2.225-.929,3.13,3.13,0,0,0-2.225.929,3.129,3.129,0,0,0-.929,2.225,4.834,4.834,0,0,1-1.432,3.438A4.834,4.834,0,0,1-3599.273,730.432Z" transform="translate(4328.379 -312.503)"/><path class="e" d="M-3599.273,730.432a4.835,4.835,0,0,1-3.438-1.432,4.834,4.834,0,0,1-1.432-3.438.858.858,0,0,1,.858-.858.858.858,0,0,1,.858.858,3.13,3.13,0,0,0,.929,2.225,3.13,3.13,0,0,0,2.225.929,3.13,3.13,0,0,0,2.225-.929,3.13,3.13,0,0,0,.929-2.225,4.834,4.834,0,0,1,1.432-3.438,4.834,4.834,0,0,1,3.438-1.432,4.834,4.834,0,0,1,3.438,1.432,4.834,4.834,0,0,1,1.432,3.438.858.858,0,0,1-.858.858.858.858,0,0,1-.858-.858,3.13,3.13,0,0,0-.929-2.225,3.13,3.13,0,0,0-2.225-.929,3.13,3.13,0,0,0-2.225.929,3.129,3.129,0,0,0-.929,2.225,4.834,4.834,0,0,1-1.432,3.438A4.834,4.834,0,0,1-3599.273,730.432Z" transform="translate(4344.379 -312.503)"/><path class="e" d="M-3599.273,730.432a4.835,4.835,0,0,1-3.438-1.432,4.834,4.834,0,0,1-1.432-3.438.858.858,0,0,1,.858-.858.858.858,0,0,1,.858.858,3.13,3.13,0,0,0,.929,2.225,3.13,3.13,0,0,0,2.225.929,3.13,3.13,0,0,0,2.225-.929,3.13,3.13,0,0,0,.929-2.225,4.834,4.834,0,0,1,1.432-3.438,4.834,4.834,0,0,1,3.438-1.432,4.834,4.834,0,0,1,3.438,1.432,4.834,4.834,0,0,1,1.432,3.438.858.858,0,0,1-.858.858.858.858,0,0,1-.858-.858,3.13,3.13,0,0,0-.929-2.225,3.13,3.13,0,0,0-2.225-.929,3.13,3.13,0,0,0-2.225.929,3.129,3.129,0,0,0-.929,2.225,4.834,4.834,0,0,1-1.432,3.438A4.834,4.834,0,0,1-3599.273,730.432Z" transform="translate(4360.379 -312.503)"/><path class="e" d="M-3599.273,730.432a4.835,4.835,0,0,1-3.438-1.432,4.834,4.834,0,0,1-1.432-3.438.858.858,0,0,1,.858-.858.858.858,0,0,1,.858.858,3.13,3.13,0,0,0,.929,2.225,3.13,3.13,0,0,0,2.225.929,3.13,3.13,0,0,0,2.225-.929,3.13,3.13,0,0,0,.929-2.225,4.834,4.834,0,0,1,1.432-3.438,4.834,4.834,0,0,1,3.438-1.432,4.834,4.834,0,0,1,3.438,1.432,4.834,4.834,0,0,1,1.432,3.438.858.858,0,0,1-.858.858.858.858,0,0,1-.858-.858,3.13,3.13,0,0,0-.929-2.225,3.13,3.13,0,0,0-2.225-.929,3.13,3.13,0,0,0-2.225.929,3.129,3.129,0,0,0-.929,2.225,4.834,4.834,0,0,1-1.432,3.438A4.834,4.834,0,0,1-3599.273,730.432Z" transform="translate(4376.379 -312.503)"/></g><g transform="translate(184 -226)"><path class="d" d="M-3599.273,730.432a4.835,4.835,0,0,1-3.438-1.432,4.834,4.834,0,0,1-1.432-3.438.858.858,0,0,1,.858-.858.858.858,0,0,1,.858.858,3.13,3.13,0,0,0,.929,2.225,3.13,3.13,0,0,0,2.225.929,3.13,3.13,0,0,0,2.225-.929,3.13,3.13,0,0,0,.929-2.225,4.834,4.834,0,0,1,1.432-3.438,4.834,4.834,0,0,1,3.438-1.432,4.834,4.834,0,0,1,3.438,1.432,4.834,4.834,0,0,1,1.432,3.438.858.858,0,0,1-.858.858.858.858,0,0,1-.858-.858,3.13,3.13,0,0,0-.929-2.225,3.13,3.13,0,0,0-2.225-.929,3.13,3.13,0,0,0-2.225.929,3.129,3.129,0,0,0-.929,2.225,4.834,4.834,0,0,1-1.432,3.438A4.834,4.834,0,0,1-3599.273,730.432Z" transform="translate(3911.379 -276.503)"/><path class="d" d="M-3599.273,730.432a4.835,4.835,0,0,1-3.438-1.432,4.834,4.834,0,0,1-1.432-3.438.858.858,0,0,1,.858-.858.858.858,0,0,1,.858.858,3.13,3.13,0,0,0,.929,2.225,3.13,3.13,0,0,0,2.225.929,3.13,3.13,0,0,0,2.225-.929,3.13,3.13,0,0,0,.929-2.225,4.834,4.834,0,0,1,1.432-3.438,4.834,4.834,0,0,1,3.438-1.432,4.834,4.834,0,0,1,3.438,1.432,4.834,4.834,0,0,1,1.432,3.438.858.858,0,0,1-.858.858.858.858,0,0,1-.858-.858,3.13,3.13,0,0,0-.929-2.225,3.13,3.13,0,0,0-2.225-.929,3.13,3.13,0,0,0-2.225.929,3.129,3.129,0,0,0-.929,2.225,4.834,4.834,0,0,1-1.432,3.438A4.834,4.834,0,0,1-3599.273,730.432Z" transform="translate(3927.379 -276.503)"/><path class="d" d="M-3599.273,730.432a4.835,4.835,0,0,1-3.438-1.432,4.834,4.834,0,0,1-1.432-3.438.858.858,0,0,1,.858-.858.858.858,0,0,1,.858.858,3.13,3.13,0,0,0,.929,2.225,3.13,3.13,0,0,0,2.225.929,3.13,3.13,0,0,0,2.225-.929,3.13,3.13,0,0,0,.929-2.225,4.834,4.834,0,0,1,1.432-3.438,4.834,4.834,0,0,1,3.438-1.432,4.834,4.834,0,0,1,3.438,1.432,4.834,4.834,0,0,1,1.432,3.438.858.858,0,0,1-.858.858.858.858,0,0,1-.858-.858,3.13,3.13,0,0,0-.929-2.225,3.13,3.13,0,0,0-2.225-.929,3.13,3.13,0,0,0-2.225.929,3.129,3.129,0,0,0-.929,2.225,4.834,4.834,0,0,1-1.432,3.438A4.834,4.834,0,0,1-3599.273,730.432Z" transform="translate(3943.379 -276.503)"/></g><g transform="translate(21 -19)"><path class="e" d="M-3599.273,730.432a4.835,4.835,0,0,1-3.438-1.432,4.834,4.834,0,0,1-1.432-3.438.858.858,0,0,1,.858-.858.858.858,0,0,1,.858.858,3.13,3.13,0,0,0,.929,2.225,3.13,3.13,0,0,0,2.225.929,3.13,3.13,0,0,0,2.225-.929,3.13,3.13,0,0,0,.929-2.225,4.834,4.834,0,0,1,1.432-3.438,4.834,4.834,0,0,1,3.438-1.432,4.834,4.834,0,0,1,3.438,1.432,4.834,4.834,0,0,1,1.432,3.438.858.858,0,0,1-.858.858.858.858,0,0,1-.858-.858,3.13,3.13,0,0,0-.929-2.225,3.13,3.13,0,0,0-2.225-.929,3.13,3.13,0,0,0-2.225.929,3.129,3.129,0,0,0-.929,2.225,4.834,4.834,0,0,1-1.432,3.438A4.834,4.834,0,0,1-3599.273,730.432Z" transform="translate(3778.379 -516.503)"/><path class="e" d="M-3599.273,730.432a4.835,4.835,0,0,1-3.438-1.432,4.834,4.834,0,0,1-1.432-3.438.858.858,0,0,1,.858-.858.858.858,0,0,1,.858.858,3.13,3.13,0,0,0,.929,2.225,3.13,3.13,0,0,0,2.225.929,3.13,3.13,0,0,0,2.225-.929,3.13,3.13,0,0,0,.929-2.225,4.834,4.834,0,0,1,1.432-3.438,4.834,4.834,0,0,1,3.438-1.432,4.834,4.834,0,0,1,3.438,1.432,4.834,4.834,0,0,1,1.432,3.438.858.858,0,0,1-.858.858.858.858,0,0,1-.858-.858,3.13,3.13,0,0,0-.929-2.225,3.13,3.13,0,0,0-2.225-.929,3.13,3.13,0,0,0-2.225.929,3.129,3.129,0,0,0-.929,2.225,4.834,4.834,0,0,1-1.432,3.438A4.834,4.834,0,0,1-3599.273,730.432Z" transform="translate(3794.379 -516.503)"/><path class="e" d="M-3599.273,730.432a4.835,4.835,0,0,1-3.438-1.432,4.834,4.834,0,0,1-1.432-3.438.858.858,0,0,1,.858-.858.858.858,0,0,1,.858.858,3.13,3.13,0,0,0,.929,2.225,3.13,3.13,0,0,0,2.225.929,3.13,3.13,0,0,0,2.225-.929,3.13,3.13,0,0,0,.929-2.225,4.834,4.834,0,0,1,1.432-3.438,4.834,4.834,0,0,1,3.438-1.432,4.834,4.834,0,0,1,3.438,1.432,4.834,4.834,0,0,1,1.432,3.438.858.858,0,0,1-.858.858.858.858,0,0,1-.858-.858,3.13,3.13,0,0,0-.929-2.225,3.13,3.13,0,0,0-2.225-.929,3.13,3.13,0,0,0-2.225.929,3.129,3.129,0,0,0-.929,2.225,4.834,4.834,0,0,1-1.432,3.438A4.834,4.834,0,0,1-3599.273,730.432Z" transform="translate(3810.379 -516.503)"/><path class="e" d="M-3599.273,730.432a4.835,4.835,0,0,1-3.438-1.432,4.834,4.834,0,0,1-1.432-3.438.858.858,0,0,1,.858-.858.858.858,0,0,1,.858.858,3.13,3.13,0,0,0,.929,2.225,3.13,3.13,0,0,0,2.225.929,3.13,3.13,0,0,0,2.225-.929,3.13,3.13,0,0,0,.929-2.225,4.834,4.834,0,0,1,1.432-3.438,4.834,4.834,0,0,1,3.438-1.432,4.834,4.834,0,0,1,3.438,1.432,4.834,4.834,0,0,1,1.432,3.438.858.858,0,0,1-.858.858.858.858,0,0,1-.858-.858,3.13,3.13,0,0,0-.929-2.225,3.13,3.13,0,0,0-2.225-.929,3.13,3.13,0,0,0-2.225.929,3.129,3.129,0,0,0-.929,2.225,4.834,4.834,0,0,1-1.432,3.438A4.834,4.834,0,0,1-3599.273,730.432Z" transform="translate(3826.379 -516.503)"/><path class="e" d="M-3599.273,730.432a4.835,4.835,0,0,1-3.438-1.432,4.834,4.834,0,0,1-1.432-3.438.858.858,0,0,1,.858-.858.858.858,0,0,1,.858.858,3.13,3.13,0,0,0,.929,2.225,3.13,3.13,0,0,0,2.225.929,3.13,3.13,0,0,0,2.225-.929,3.13,3.13,0,0,0,.929-2.225,4.834,4.834,0,0,1,1.432-3.438,4.834,4.834,0,0,1,3.438-1.432,4.834,4.834,0,0,1,3.438,1.432,4.834,4.834,0,0,1,1.432,3.438.858.858,0,0,1-.858.858.858.858,0,0,1-.858-.858,3.13,3.13,0,0,0-.929-2.225,3.13,3.13,0,0,0-2.225-.929,3.13,3.13,0,0,0-2.225.929,3.129,3.129,0,0,0-.929,2.225,4.834,4.834,0,0,1-1.432,3.438A4.834,4.834,0,0,1-3599.273,730.432Z" transform="translate(3842.379 -516.503)"/><path class="e" d="M-3599.273,730.432a4.835,4.835,0,0,1-3.438-1.432,4.834,4.834,0,0,1-1.432-3.438.858.858,0,0,1,.858-.858.858.858,0,0,1,.858.858,3.13,3.13,0,0,0,.929,2.225,3.13,3.13,0,0,0,2.225.929,3.13,3.13,0,0,0,2.225-.929,3.13,3.13,0,0,0,.929-2.225,4.834,4.834,0,0,1,1.432-3.438,4.834,4.834,0,0,1,3.438-1.432,4.834,4.834,0,0,1,3.438,1.432,4.834,4.834,0,0,1,1.432,3.438.858.858,0,0,1-.858.858.858.858,0,0,1-.858-.858,3.13,3.13,0,0,0-.929-2.225,3.13,3.13,0,0,0-2.225-.929,3.13,3.13,0,0,0-2.225.929,3.129,3.129,0,0,0-.929,2.225,4.834,4.834,0,0,1-1.432,3.438A4.834,4.834,0,0,1-3599.273,730.432Z" transform="translate(3858.379 -516.503)"/><path class="e" d="M-3599.273,730.432a4.835,4.835,0,0,1-3.438-1.432,4.834,4.834,0,0,1-1.432-3.438.858.858,0,0,1,.858-.858.858.858,0,0,1,.858.858,3.13,3.13,0,0,0,.929,2.225,3.13,3.13,0,0,0,2.225.929,3.13,3.13,0,0,0,2.225-.929,3.13,3.13,0,0,0,.929-2.225,4.834,4.834,0,0,1,1.432-3.438,4.834,4.834,0,0,1,3.438-1.432,4.834,4.834,0,0,1,3.438,1.432,4.834,4.834,0,0,1,1.432,3.438.858.858,0,0,1-.858.858.858.858,0,0,1-.858-.858,3.13,3.13,0,0,0-.929-2.225,3.13,3.13,0,0,0-2.225-.929,3.13,3.13,0,0,0-2.225.929,3.129,3.129,0,0,0-.929,2.225,4.834,4.834,0,0,1-1.432,3.438A4.834,4.834,0,0,1-3599.273,730.432Z" transform="translate(3874.379 -516.503)"/><path class="e" d="M-3599.273,730.432a4.835,4.835,0,0,1-3.438-1.432,4.834,4.834,0,0,1-1.432-3.438.858.858,0,0,1,.858-.858.858.858,0,0,1,.858.858,3.13,3.13,0,0,0,.929,2.225,3.13,3.13,0,0,0,2.225.929,3.13,3.13,0,0,0,2.225-.929,3.13,3.13,0,0,0,.929-2.225,4.834,4.834,0,0,1,1.432-3.438,4.834,4.834,0,0,1,3.438-1.432,4.834,4.834,0,0,1,3.438,1.432,4.834,4.834,0,0,1,1.432,3.438.858.858,0,0,1-.858.858.858.858,0,0,1-.858-.858,3.13,3.13,0,0,0-.929-2.225,3.13,3.13,0,0,0-2.225-.929,3.13,3.13,0,0,0-2.225.929,3.129,3.129,0,0,0-.929,2.225,4.834,4.834,0,0,1-1.432,3.438A4.834,4.834,0,0,1-3599.273,730.432Z" transform="translate(3890.379 -516.503)"/><path class="e" d="M-3599.273,730.432a4.835,4.835,0,0,1-3.438-1.432,4.834,4.834,0,0,1-1.432-3.438.858.858,0,0,1,.858-.858.858.858,0,0,1,.858.858,3.13,3.13,0,0,0,.929,2.225,3.13,3.13,0,0,0,2.225.929,3.13,3.13,0,0,0,2.225-.929,3.13,3.13,0,0,0,.929-2.225,4.834,4.834,0,0,1,1.432-3.438,4.834,4.834,0,0,1,3.438-1.432,4.834,4.834,0,0,1,3.438,1.432,4.834,4.834,0,0,1,1.432,3.438.858.858,0,0,1-.858.858.858.858,0,0,1-.858-.858,3.13,3.13,0,0,0-.929-2.225,3.13,3.13,0,0,0-2.225-.929,3.13,3.13,0,0,0-2.225.929,3.129,3.129,0,0,0-.929,2.225,4.834,4.834,0,0,1-1.432,3.438A4.834,4.834,0,0,1-3599.273,730.432Z" transform="translate(3906.379 -516.503)"/><path class="e" d="M-3599.273,730.432a4.835,4.835,0,0,1-3.438-1.432,4.834,4.834,0,0,1-1.432-3.438.858.858,0,0,1,.858-.858.858.858,0,0,1,.858.858,3.13,3.13,0,0,0,.929,2.225,3.13,3.13,0,0,0,2.225.929,3.13,3.13,0,0,0,2.225-.929,3.13,3.13,0,0,0,.929-2.225,4.834,4.834,0,0,1,1.432-3.438,4.834,4.834,0,0,1,3.438-1.432,4.834,4.834,0,0,1,3.438,1.432,4.834,4.834,0,0,1,1.432,3.438.858.858,0,0,1-.858.858.858.858,0,0,1-.858-.858,3.13,3.13,0,0,0-.929-2.225,3.13,3.13,0,0,0-2.225-.929,3.13,3.13,0,0,0-2.225.929,3.129,3.129,0,0,0-.929,2.225,4.834,4.834,0,0,1-1.432,3.438A4.834,4.834,0,0,1-3599.273,730.432Z" transform="translate(3922.379 -516.503)"/><path class="e" d="M-3599.273,730.432a4.835,4.835,0,0,1-3.438-1.432,4.834,4.834,0,0,1-1.432-3.438.858.858,0,0,1,.858-.858.858.858,0,0,1,.858.858,3.13,3.13,0,0,0,.929,2.225,3.13,3.13,0,0,0,2.225.929,3.13,3.13,0,0,0,2.225-.929,3.13,3.13,0,0,0,.929-2.225,4.834,4.834,0,0,1,1.432-3.438,4.834,4.834,0,0,1,3.438-1.432,4.834,4.834,0,0,1,3.438,1.432,4.834,4.834,0,0,1,1.432,3.438.858.858,0,0,1-.858.858.858.858,0,0,1-.858-.858,3.13,3.13,0,0,0-.929-2.225,3.13,3.13,0,0,0-2.225-.929,3.13,3.13,0,0,0-2.225.929,3.129,3.129,0,0,0-.929,2.225,4.834,4.834,0,0,1-1.432,3.438A4.834,4.834,0,0,1-3599.273,730.432Z" transform="translate(3938.379 -516.503)"/></g><g transform="translate(-68 13)"><path class="d" d="M-3599.273,730.432a4.835,4.835,0,0,1-3.438-1.432,4.834,4.834,0,0,1-1.432-3.438.858.858,0,0,1,.858-.858.858.858,0,0,1,.858.858,3.13,3.13,0,0,0,.929,2.225,3.13,3.13,0,0,0,2.225.929,3.13,3.13,0,0,0,2.225-.929,3.13,3.13,0,0,0,.929-2.225,4.834,4.834,0,0,1,1.432-3.438,4.834,4.834,0,0,1,3.438-1.432,4.834,4.834,0,0,1,3.438,1.432,4.834,4.834,0,0,1,1.432,3.438.858.858,0,0,1-.858.858.858.858,0,0,1-.858-.858,3.13,3.13,0,0,0-.929-2.225,3.13,3.13,0,0,0-2.225-.929,3.13,3.13,0,0,0-2.225.929,3.129,3.129,0,0,0-.929,2.225,4.834,4.834,0,0,1-1.432,3.438A4.834,4.834,0,0,1-3599.273,730.432Z" transform="translate(4421.379 -480.503)"/><path class="d" d="M-3599.273,730.432a4.835,4.835,0,0,1-3.438-1.432,4.834,4.834,0,0,1-1.432-3.438.858.858,0,0,1,.858-.858.858.858,0,0,1,.858.858,3.13,3.13,0,0,0,.929,2.225,3.13,3.13,0,0,0,2.225.929,3.13,3.13,0,0,0,2.225-.929,3.13,3.13,0,0,0,.929-2.225,4.834,4.834,0,0,1,1.432-3.438,4.834,4.834,0,0,1,3.438-1.432,4.834,4.834,0,0,1,3.438,1.432,4.834,4.834,0,0,1,1.432,3.438.858.858,0,0,1-.858.858.858.858,0,0,1-.858-.858,3.13,3.13,0,0,0-.929-2.225,3.13,3.13,0,0,0-2.225-.929,3.13,3.13,0,0,0-2.225.929,3.129,3.129,0,0,0-.929,2.225,4.834,4.834,0,0,1-1.432,3.438A4.834,4.834,0,0,1-3599.273,730.432Z" transform="translate(4437.379 -480.503)"/><path class="d" d="M-3599.273,730.432a4.835,4.835,0,0,1-3.438-1.432,4.834,4.834,0,0,1-1.432-3.438.858.858,0,0,1,.858-.858.858.858,0,0,1,.858.858,3.13,3.13,0,0,0,.929,2.225,3.13,3.13,0,0,0,2.225.929,3.13,3.13,0,0,0,2.225-.929,3.13,3.13,0,0,0,.929-2.225,4.834,4.834,0,0,1,1.432-3.438,4.834,4.834,0,0,1,3.438-1.432,4.834,4.834,0,0,1,3.438,1.432,4.834,4.834,0,0,1,1.432,3.438.858.858,0,0,1-.858.858.858.858,0,0,1-.858-.858,3.13,3.13,0,0,0-.929-2.225,3.13,3.13,0,0,0-2.225-.929,3.13,3.13,0,0,0-2.225.929,3.129,3.129,0,0,0-.929,2.225,4.834,4.834,0,0,1-1.432,3.438A4.834,4.834,0,0,1-3599.273,730.432Z" transform="translate(4453.379 -480.503)"/><path class="d" d="M-3599.273,730.432a4.835,4.835,0,0,1-3.438-1.432,4.834,4.834,0,0,1-1.432-3.438.858.858,0,0,1,.858-.858.858.858,0,0,1,.858.858,3.13,3.13,0,0,0,.929,2.225,3.13,3.13,0,0,0,2.225.929,3.13,3.13,0,0,0,2.225-.929,3.13,3.13,0,0,0,.929-2.225,4.834,4.834,0,0,1,1.432-3.438,4.834,4.834,0,0,1,3.438-1.432,4.834,4.834,0,0,1,3.438,1.432,4.834,4.834,0,0,1,1.432,3.438.858.858,0,0,1-.858.858.858.858,0,0,1-.858-.858,3.13,3.13,0,0,0-.929-2.225,3.13,3.13,0,0,0-2.225-.929,3.13,3.13,0,0,0-2.225.929,3.129,3.129,0,0,0-.929,2.225,4.834,4.834,0,0,1-1.432,3.438A4.834,4.834,0,0,1-3599.273,730.432Z" transform="translate(4469.379 -480.503)"/><path class="d" d="M-3599.273,730.432a4.835,4.835,0,0,1-3.438-1.432,4.834,4.834,0,0,1-1.432-3.438.858.858,0,0,1,.858-.858.858.858,0,0,1,.858.858,3.13,3.13,0,0,0,.929,2.225,3.13,3.13,0,0,0,2.225.929,3.13,3.13,0,0,0,2.225-.929,3.13,3.13,0,0,0,.929-2.225,4.834,4.834,0,0,1,1.432-3.438,4.834,4.834,0,0,1,3.438-1.432,4.834,4.834,0,0,1,3.438,1.432,4.834,4.834,0,0,1,1.432,3.438.858.858,0,0,1-.858.858.858.858,0,0,1-.858-.858,3.13,3.13,0,0,0-.929-2.225,3.13,3.13,0,0,0-2.225-.929,3.13,3.13,0,0,0-2.225.929,3.129,3.129,0,0,0-.929,2.225,4.834,4.834,0,0,1-1.432,3.438A4.834,4.834,0,0,1-3599.273,730.432Z" transform="translate(4485.379 -480.503)"/></g><g transform="translate(388 -134)"><path class="e" d="M-3599.273,730.432a4.835,4.835,0,0,1-3.438-1.432,4.834,4.834,0,0,1-1.432-3.438.858.858,0,0,1,.858-.858.858.858,0,0,1,.858.858,3.13,3.13,0,0,0,.929,2.225,3.13,3.13,0,0,0,2.225.929,3.13,3.13,0,0,0,2.225-.929,3.13,3.13,0,0,0,.929-2.225,4.834,4.834,0,0,1,1.432-3.438,4.834,4.834,0,0,1,3.438-1.432,4.834,4.834,0,0,1,3.438,1.432,4.834,4.834,0,0,1,1.432,3.438.858.858,0,0,1-.858.858.858.858,0,0,1-.858-.858,3.13,3.13,0,0,0-.929-2.225,3.13,3.13,0,0,0-2.225-.929,3.13,3.13,0,0,0-2.225.929,3.129,3.129,0,0,0-.929,2.225,4.834,4.834,0,0,1-1.432,3.438A4.834,4.834,0,0,1-3599.273,730.432Z" transform="translate(4421.379 -480.503)"/><path class="e" d="M-3599.273,730.432a4.835,4.835,0,0,1-3.438-1.432,4.834,4.834,0,0,1-1.432-3.438.858.858,0,0,1,.858-.858.858.858,0,0,1,.858.858,3.13,3.13,0,0,0,.929,2.225,3.13,3.13,0,0,0,2.225.929,3.13,3.13,0,0,0,2.225-.929,3.13,3.13,0,0,0,.929-2.225,4.834,4.834,0,0,1,1.432-3.438,4.834,4.834,0,0,1,3.438-1.432,4.834,4.834,0,0,1,3.438,1.432,4.834,4.834,0,0,1,1.432,3.438.858.858,0,0,1-.858.858.858.858,0,0,1-.858-.858,3.13,3.13,0,0,0-.929-2.225,3.13,3.13,0,0,0-2.225-.929,3.13,3.13,0,0,0-2.225.929,3.129,3.129,0,0,0-.929,2.225,4.834,4.834,0,0,1-1.432,3.438A4.834,4.834,0,0,1-3599.273,730.432Z" transform="translate(4437.379 -480.503)"/><path class="e" d="M-3599.273,730.432a4.835,4.835,0,0,1-3.438-1.432,4.834,4.834,0,0,1-1.432-3.438.858.858,0,0,1,.858-.858.858.858,0,0,1,.858.858,3.13,3.13,0,0,0,.929,2.225,3.13,3.13,0,0,0,2.225.929,3.13,3.13,0,0,0,2.225-.929,3.13,3.13,0,0,0,.929-2.225,4.834,4.834,0,0,1,1.432-3.438,4.834,4.834,0,0,1,3.438-1.432,4.834,4.834,0,0,1,3.438,1.432,4.834,4.834,0,0,1,1.432,3.438.858.858,0,0,1-.858.858.858.858,0,0,1-.858-.858,3.13,3.13,0,0,0-.929-2.225,3.13,3.13,0,0,0-2.225-.929,3.13,3.13,0,0,0-2.225.929,3.129,3.129,0,0,0-.929,2.225,4.834,4.834,0,0,1-1.432,3.438A4.834,4.834,0,0,1-3599.273,730.432Z" transform="translate(4453.379 -480.503)"/><path class="e" d="M-3599.273,730.432a4.835,4.835,0,0,1-3.438-1.432,4.834,4.834,0,0,1-1.432-3.438.858.858,0,0,1,.858-.858.858.858,0,0,1,.858.858,3.13,3.13,0,0,0,.929,2.225,3.13,3.13,0,0,0,2.225.929,3.13,3.13,0,0,0,2.225-.929,3.13,3.13,0,0,0,.929-2.225,4.834,4.834,0,0,1,1.432-3.438,4.834,4.834,0,0,1,3.438-1.432,4.834,4.834,0,0,1,3.438,1.432,4.834,4.834,0,0,1,1.432,3.438.858.858,0,0,1-.858.858.858.858,0,0,1-.858-.858,3.13,3.13,0,0,0-.929-2.225,3.13,3.13,0,0,0-2.225-.929,3.13,3.13,0,0,0-2.225.929,3.129,3.129,0,0,0-.929,2.225,4.834,4.834,0,0,1-1.432,3.438A4.834,4.834,0,0,1-3599.273,730.432Z" transform="translate(4469.379 -480.503)"/><path class="e" d="M-3599.273,730.432a4.835,4.835,0,0,1-3.438-1.432,4.834,4.834,0,0,1-1.432-3.438.858.858,0,0,1,.858-.858.858.858,0,0,1,.858.858,3.13,3.13,0,0,0,.929,2.225,3.13,3.13,0,0,0,2.225.929,3.13,3.13,0,0,0,2.225-.929,3.13,3.13,0,0,0,.929-2.225,4.834,4.834,0,0,1,1.432-3.438,4.834,4.834,0,0,1,3.438-1.432,4.834,4.834,0,0,1,3.438,1.432,4.834,4.834,0,0,1,1.432,3.438.858.858,0,0,1-.858.858.858.858,0,0,1-.858-.858,3.13,3.13,0,0,0-.929-2.225,3.13,3.13,0,0,0-2.225-.929,3.13,3.13,0,0,0-2.225.929,3.129,3.129,0,0,0-.929,2.225,4.834,4.834,0,0,1-1.432,3.438A4.834,4.834,0,0,1-3599.273,730.432Z" transform="translate(4485.379 -480.503)"/></g><rect class="e" width="111" height="23" rx="11.5" transform="translate(802 451)"/><g class="f" transform="translate(479 132)"><rect class="i" width="60" height="23" rx="11.5"/><rect class="j" x="1" y="1" width="58" height="21" rx="10.5"/></g><rect class="e" width="122" height="47" rx="23.5" transform="translate(673.5 45.5) rotate(90)"/><rect class="d" width="205" height="27" rx="13.5" transform="translate(1329 190) rotate(180)"/><g class="f" transform="translate(760 338)"><circle class="i" cx="27" cy="27" r="27"/><circle class="j" cx="27" cy="27" r="26"/></g><g class="g" transform="translate(331 38)"><circle class="i" cx="44" cy="44" r="44"/><circle class="j" cx="44" cy="44" r="43"/></g><g class="f" transform="translate(250 126)"><circle class="i" cx="6" cy="6" r="6"/><circle class="j" cx="6" cy="6" r="5"/></g><g class="g" transform="translate(174 471)"><circle class="i" cx="6" cy="6" r="6"/><circle class="j" cx="6" cy="6" r="5"/></g><g class="h" transform="translate(37 488)"><circle class="i" cx="23.5" cy="23.5" r="23.5"/><circle class="j" cx="23.5" cy="23.5" r="19.5"/></g><g class="h" transform="translate(627 477)"><circle class="i" cx="23.5" cy="23.5" r="23.5"/><circle class="j" cx="23.5" cy="23.5" r="19.5"/></g><g class="h" transform="translate(1263 224)"><circle class="i" cx="23.5" cy="23.5" r="23.5"/><circle class="j" cx="23.5" cy="23.5" r="19.5"/></g><g class="g" transform="translate(687 404)"><circle class="i" cx="6" cy="6" r="6"/><circle class="j" cx="6" cy="6" r="5"/></g><circle class="d" cx="13.5" cy="13.5" r="13.5" transform="translate(24 104)"/><circle class="e" cx="39" cy="39" r="39" transform="translate(186 561)"/><g class="f" transform="translate(973 520)"><circle class="i" cx="6" cy="6" r="6"/><circle class="j" cx="6" cy="6" r="5"/></g></g></g></svg>