<svg xmlns="http://www.w3.org/2000/svg" xmlns:xlink="http://www.w3.org/1999/xlink" width="1280" height="500" viewBox="0 0 1280 500"><defs><style>.a{fill:#ffe166;}.b{clip-path:url(#a);}.c{fill:#bb1e4f;}.d,.e,.i{fill:none;}.d{stroke:#fd2c6e;}.d,.e{stroke-width:2px;}.e{stroke:#7e1536;}.f{fill:#7e1536;}.g{fill:#fd2c6e;}.h{stroke:none;}</style><clipPath id="a"><rect class="a" width="1280" height="500" transform="translate(180 8883)"/></clipPath></defs><g transform="translate(1489 -8235)"><g class="b" transform="translate(-1669 -648)"><rect class="c" width="1280" height="500" transform="translate(180 8883)"/><g class="d" transform="translate(1082.5 8817.5) rotate(90)"><rect class="h" width="116" height="23" rx="11.5"/><rect class="i" x="1" y="1" width="114" height="21" rx="10.5"/></g><g class="d" transform="translate(839 8974)"><rect class="h" width="60" height="23" rx="11.5"/><rect class="i" x="1" y="1" width="58" height="21" rx="10.5"/></g><g class="e" transform="translate(1185 9298)"><rect class="h" width="124" height="33" rx="16.5"/><rect class="i" x="1" y="1" width="122" height="31" rx="15.5"/></g><g class="e" transform="translate(143 9229)"><rect class="h" width="173" height="47" rx="23.5"/><rect class="i" x="1" y="1" width="171" height="45" rx="22.5"/></g><path class="f" d="M-953.627,512.645a69.939,69.939,0,0,1-49.739-20.717,69.939,69.939,0,0,1-20.716-49.739,12.412,12.412,0,0,1,12.412-12.412,12.412,12.412,0,0,1,12.412,12.412,45.278,45.278,0,0,0,13.446,32.186,45.279,45.279,0,0,0,32.186,13.446,45.279,45.279,0,0,0,32.186-13.446A45.279,45.279,0,0,0-908,442.189a12.412,12.412,0,0,1,12.412-12.412,12.412,12.412,0,0,1,12.412,12.412,69.938,69.938,0,0,1-20.716,49.739A69.939,69.939,0,0,1-953.627,512.645Z" transform="translate(1888.295 8412.267)"/><g transform="translate(366 9004.557) rotate(180)"><path class="f" d="M-992.189,467.289a31.66,31.66,0,0,1-22.516-9.378,31.66,31.66,0,0,1-9.378-22.516,5.619,5.619,0,0,1,5.619-5.619,5.619,5.619,0,0,1,5.619,5.619,20.5,20.5,0,0,0,6.087,14.57,20.5,20.5,0,0,0,14.57,6.087,20.5,20.5,0,0,0,14.57-6.087,20.5,20.5,0,0,0,6.087-14.57,5.619,5.619,0,0,1,5.619-5.619A5.619,5.619,0,0,1-960.3,435.4a31.659,31.659,0,0,1-9.378,22.516A31.66,31.66,0,0,1-992.189,467.289Z" transform="translate(1024.083 -429.777)"/></g><g transform="translate(389 8799)"><path class="f" d="M-3599.273,730.432a4.835,4.835,0,0,1-3.438-1.432,4.834,4.834,0,0,1-1.432-3.438.858.858,0,0,1,.858-.858.858.858,0,0,1,.858.858,3.13,3.13,0,0,0,.929,2.225,3.13,3.13,0,0,0,2.225.929,3.13,3.13,0,0,0,2.225-.929,3.13,3.13,0,0,0,.929-2.225,4.834,4.834,0,0,1,1.432-3.438,4.834,4.834,0,0,1,3.438-1.432,4.834,4.834,0,0,1,3.438,1.432,4.834,4.834,0,0,1,1.432,3.438.858.858,0,0,1-.858.858.858.858,0,0,1-.858-.858,3.13,3.13,0,0,0-.929-2.225,3.13,3.13,0,0,0-2.225-.929,3.13,3.13,0,0,0-2.225.929,3.129,3.129,0,0,0-.929,2.225,4.834,4.834,0,0,1-1.432,3.438A4.834,4.834,0,0,1-3599.273,730.432Z" transform="translate(3911.379 -276.503)"/><path class="f" d="M-3599.273,730.432a4.835,4.835,0,0,1-3.438-1.432,4.834,4.834,0,0,1-1.432-3.438.858.858,0,0,1,.858-.858.858.858,0,0,1,.858.858,3.13,3.13,0,0,0,.929,2.225,3.13,3.13,0,0,0,2.225.929,3.13,3.13,0,0,0,2.225-.929,3.13,3.13,0,0,0,.929-2.225,4.834,4.834,0,0,1,1.432-3.438,4.834,4.834,0,0,1,3.438-1.432,4.834,4.834,0,0,1,3.438,1.432,4.834,4.834,0,0,1,1.432,3.438.858.858,0,0,1-.858.858.858.858,0,0,1-.858-.858,3.13,3.13,0,0,0-.929-2.225,3.13,3.13,0,0,0-2.225-.929,3.13,3.13,0,0,0-2.225.929,3.129,3.129,0,0,0-.929,2.225,4.834,4.834,0,0,1-1.432,3.438A4.834,4.834,0,0,1-3599.273,730.432Z" transform="translate(3927.379 -276.503)"/><path class="f" d="M-3599.273,730.432a4.835,4.835,0,0,1-3.438-1.432,4.834,4.834,0,0,1-1.432-3.438.858.858,0,0,1,.858-.858.858.858,0,0,1,.858.858,3.13,3.13,0,0,0,.929,2.225,3.13,3.13,0,0,0,2.225.929,3.13,3.13,0,0,0,2.225-.929,3.13,3.13,0,0,0,.929-2.225,4.834,4.834,0,0,1,1.432-3.438,4.834,4.834,0,0,1,3.438-1.432,4.834,4.834,0,0,1,3.438,1.432,4.834,4.834,0,0,1,1.432,3.438.858.858,0,0,1-.858.858.858.858,0,0,1-.858-.858,3.13,3.13,0,0,0-.929-2.225,3.13,3.13,0,0,0-2.225-.929,3.13,3.13,0,0,0-2.225.929,3.129,3.129,0,0,0-.929,2.225,4.834,4.834,0,0,1-1.432,3.438A4.834,4.834,0,0,1-3599.273,730.432Z" transform="translate(3943.379 -276.503)"/></g><path class="f" d="M25.669,7.507a5,5,0,0,1,8.662,0L55.674,44.5A5,5,0,0,1,51.343,52H8.657a5,5,0,0,1-4.331-7.5Z" transform="translate(636 8953)"/><path class="f" d="M71.667,7.526a5,5,0,0,1,8.666,0l67.352,116.979A5,5,0,0,1,143.352,132H8.648a5,5,0,0,1-4.333-7.495Z" transform="translate(721 9429) rotate(180)"/><path class="f" d="M-2449.927,347.111a12.393,12.393,0,0,1,10.833,6.255l79.663,137.981a12.509,12.509,0,0,1-10.833,18.764H-2529.59a12.51,12.51,0,0,1-10.833-18.764l79.663-137.981a12.392,12.392,0,0,1,10.833-6.255m0-37.53a50.221,50.221,0,0,0-24.287,6.268,50.021,50.021,0,0,0-19.048,18.751l-79.663,137.981a50.02,50.02,0,0,0-6.715,25.871,50.215,50.215,0,0,0,6.715,24.168,50.218,50.218,0,0,0,17.573,17.9,50.019,50.019,0,0,0,25.763,7.12h159.326a50.017,50.017,0,0,0,25.763-7.12,50.221,50.221,0,0,0,17.573-17.9,50.22,50.22,0,0,0,6.715-24.168,50.01,50.01,0,0,0-6.715-25.871L-2406.592,334.6a50.016,50.016,0,0,0-19.049-18.751,50.218,50.218,0,0,0-24.287-6.268Z" transform="translate(3665.322 8637.419)"/><path class="f" d="M-2562.893,314.429a1.6,1.6,0,0,1,1.4.808l10.29,17.823a1.616,1.616,0,0,1-1.4,2.424h-20.58a1.616,1.616,0,0,1-1.4-2.424l10.29-17.823a1.6,1.6,0,0,1,1.4-.808m0-4.848a6.487,6.487,0,0,0-3.137.81,6.463,6.463,0,0,0-2.46,2.422l-10.29,17.823a6.462,6.462,0,0,0-.867,3.342,6.486,6.486,0,0,0,.867,3.122,6.487,6.487,0,0,0,2.27,2.312,6.461,6.461,0,0,0,3.328.92h20.58a6.46,6.46,0,0,0,3.328-.92A6.486,6.486,0,0,0-2547,337.1a6.488,6.488,0,0,0,.867-3.122,6.459,6.459,0,0,0-.867-3.342l-10.29-17.823a6.461,6.461,0,0,0-2.46-2.422,6.487,6.487,0,0,0-3.137-.81Z" transform="translate(2800.288 8607.074)"/><path class="f" d="M-2553.492,350.014a2.5,2.5,0,0,0,2.184-1.261l16.063-27.821a2.522,2.522,0,0,0-2.184-3.783h-32.125a2.522,2.522,0,0,0-2.184,3.783l16.063,27.821a2.5,2.5,0,0,0,2.184,1.261m0,7.567a10.126,10.126,0,0,1-4.9-1.264,10.086,10.086,0,0,1-3.841-3.781l-16.062-27.821a10.088,10.088,0,0,1-1.354-5.216,10.125,10.125,0,0,1,1.354-4.873,10.125,10.125,0,0,1,3.543-3.609,10.085,10.085,0,0,1,5.195-1.436h32.125a10.084,10.084,0,0,1,5.194,1.436,10.126,10.126,0,0,1,3.543,3.609,10.127,10.127,0,0,1,1.354,4.873,10.083,10.083,0,0,1-1.354,5.216l-16.062,27.821a10.084,10.084,0,0,1-3.841,3.781,10.125,10.125,0,0,1-4.9,1.264Z" transform="translate(3299.226 8595.419)"/><path class="f" d="M-3250.457,319.257a8.506,8.506,0,0,1,8.506,8.506v70.376a8.506,8.506,0,0,1-8.506,8.506h-70.375a8.506,8.506,0,0,1-8.506-8.506V327.764a8.506,8.506,0,0,1,8.506-8.506h70.375m0-26.173h-70.375a34.719,34.719,0,0,0-34.68,34.68v70.376a34.719,34.719,0,0,0,34.68,34.68h70.375a34.719,34.719,0,0,0,34.68-34.68V327.764a34.719,34.719,0,0,0-34.68-34.68Z" transform="translate(4264.512 8993.916)"/><path class="f" d="M-3346.49,295.332a.731.731,0,0,1,.73.73v6.044a.731.731,0,0,1-.73.73h-6.044a.731.731,0,0,1-.73-.73v-6.044a.731.731,0,0,1,.73-.73h6.044m0-2.248h-6.044a2.981,2.981,0,0,0-2.978,2.978v6.044a2.981,2.981,0,0,0,2.978,2.978h6.044a2.981,2.981,0,0,0,2.978-2.978v-6.044a2.981,2.981,0,0,0-2.978-2.978Z" transform="translate(3649.512 8831.916)"/><path class="f" d="M-3346.49,295.332a.731.731,0,0,1,.73.73v6.044a.731.731,0,0,1-.73.73h-6.044a.731.731,0,0,1-.73-.73v-6.044a.731.731,0,0,1,.73-.73h6.044m0-2.248h-6.044a2.981,2.981,0,0,0-2.978,2.978v6.044a2.981,2.981,0,0,0,2.978,2.978h6.044a2.981,2.981,0,0,0,2.978-2.978v-6.044a2.981,2.981,0,0,0-2.978-2.978Z" transform="translate(4392.512 8711.916)"/><path class="f" d="M-3346.49,295.332a.731.731,0,0,1,.73.73v6.044a.731.731,0,0,1-.73.73h-6.044a.731.731,0,0,1-.73-.73v-6.044a.731.731,0,0,1,.73-.73h6.044m0-2.248h-6.044a2.981,2.981,0,0,0-2.978,2.978v6.044a2.981,2.981,0,0,0,2.978,2.978h6.044a2.981,2.981,0,0,0,2.978-2.978v-6.044a2.981,2.981,0,0,0-2.978-2.978Z" transform="translate(4652.512 8927.916)"/><path class="f" d="M-3948.7,439.219a6.041,6.041,0,0,1,6.041,6.041v49.978a6.041,6.041,0,0,1-6.041,6.041h-49.978a6.041,6.041,0,0,1-6.041-6.041V445.259a6.041,6.041,0,0,1,6.041-6.041h49.978m0-9.294h-49.978a15.352,15.352,0,0,0-15.334,15.334v49.978a15.352,15.352,0,0,0,15.334,15.334h49.978a15.352,15.352,0,0,0,15.334-15.334V445.259a15.352,15.352,0,0,0-15.334-15.334Z" transform="translate(5434.008 8622.075)"/><g transform="translate(1351 8967)"><path class="g" d="M-1416.759,480.689a7.625,7.625,0,0,1-7.625-7.625,7.625,7.625,0,0,1,7.625-7.626,28.23,28.23,0,0,0,19.824-8.211,28.23,28.23,0,0,0,8.211-19.824,7.626,7.626,0,0,1,7.625-7.625,7.625,7.625,0,0,1,7.625,7.625,43.071,43.071,0,0,1-3.3,16.565,43.074,43.074,0,0,1-9.382,14.043,43.074,43.074,0,0,1-14.043,9.382A43.067,43.067,0,0,1-1416.759,480.689Z" transform="translate(1424.385 -429.777)"/></g><g transform="translate(601.71 8759.474) rotate(90)"><path class="g" d="M-905.413,1062.228A88.009,88.009,0,0,1-968,1036.141a88.008,88.008,0,0,1-26.088-62.582,4.5,4.5,0,0,1,4.5-4.5,4.5,4.5,0,0,1,4.5,4.5,79.068,79.068,0,0,0,23.452,56.218,79.069,79.069,0,0,0,56.219,23.452,79.069,79.069,0,0,0,56.218-23.452,79.069,79.069,0,0,0,23.452-56.218,4.5,4.5,0,0,1,4.5-4.5,4.5,4.5,0,0,1,4.5,4.5,88.01,88.01,0,0,1-26.088,62.582A88.01,88.01,0,0,1-905.413,1062.228Z" transform="translate(994.083 -969.059)"/></g><g transform="translate(1362.331 9207)"><path class="g" d="M-915.351,1051.786a78.147,78.147,0,0,1-55.568-23.164,78.145,78.145,0,0,1-23.164-55.568,4,4,0,0,1,4-4,4,4,0,0,1,4,4,70.206,70.206,0,0,0,20.823,49.918,70.208,70.208,0,0,0,49.918,20.823,70.208,70.208,0,0,0,49.918-20.823,70.208,70.208,0,0,0,20.823-49.918,4,4,0,0,1,4-4,4,4,0,0,1,4,4,78.146,78.146,0,0,1-23.164,55.568A78.147,78.147,0,0,1-915.351,1051.786Z" transform="translate(994.083 -969.059)"/></g><g transform="translate(-311 8910)"><path class="g" d="M-3599.273,730.432a4.835,4.835,0,0,1-3.438-1.432,4.834,4.834,0,0,1-1.432-3.438.858.858,0,0,1,.858-.858.858.858,0,0,1,.858.858,3.13,3.13,0,0,0,.929,2.225,3.13,3.13,0,0,0,2.225.929,3.13,3.13,0,0,0,2.225-.929,3.13,3.13,0,0,0,.929-2.225,4.834,4.834,0,0,1,1.432-3.438,4.834,4.834,0,0,1,3.438-1.432,4.834,4.834,0,0,1,3.438,1.432,4.834,4.834,0,0,1,1.432,3.438.858.858,0,0,1-.858.858.858.858,0,0,1-.858-.858,3.13,3.13,0,0,0-.929-2.225,3.13,3.13,0,0,0-2.225-.929,3.13,3.13,0,0,0-2.225.929,3.129,3.129,0,0,0-.929,2.225,4.834,4.834,0,0,1-1.432,3.438A4.834,4.834,0,0,1-3599.273,730.432Z" transform="translate(4216.379 -312.503)"/><path class="g" d="M-3599.273,730.432a4.835,4.835,0,0,1-3.438-1.432,4.834,4.834,0,0,1-1.432-3.438.858.858,0,0,1,.858-.858.858.858,0,0,1,.858.858,3.13,3.13,0,0,0,.929,2.225,3.13,3.13,0,0,0,2.225.929,3.13,3.13,0,0,0,2.225-.929,3.13,3.13,0,0,0,.929-2.225,4.834,4.834,0,0,1,1.432-3.438,4.834,4.834,0,0,1,3.438-1.432,4.834,4.834,0,0,1,3.438,1.432,4.834,4.834,0,0,1,1.432,3.438.858.858,0,0,1-.858.858.858.858,0,0,1-.858-.858,3.13,3.13,0,0,0-.929-2.225,3.13,3.13,0,0,0-2.225-.929,3.13,3.13,0,0,0-2.225.929,3.129,3.129,0,0,0-.929,2.225,4.834,4.834,0,0,1-1.432,3.438A4.834,4.834,0,0,1-3599.273,730.432Z" transform="translate(4232.379 -312.503)"/><path class="g" d="M-3599.273,730.432a4.835,4.835,0,0,1-3.438-1.432,4.834,4.834,0,0,1-1.432-3.438.858.858,0,0,1,.858-.858.858.858,0,0,1,.858.858,3.13,3.13,0,0,0,.929,2.225,3.13,3.13,0,0,0,2.225.929,3.13,3.13,0,0,0,2.225-.929,3.13,3.13,0,0,0,.929-2.225,4.834,4.834,0,0,1,1.432-3.438,4.834,4.834,0,0,1,3.438-1.432,4.834,4.834,0,0,1,3.438,1.432,4.834,4.834,0,0,1,1.432,3.438.858.858,0,0,1-.858.858.858.858,0,0,1-.858-.858,3.13,3.13,0,0,0-.929-2.225,3.13,3.13,0,0,0-2.225-.929,3.13,3.13,0,0,0-2.225.929,3.129,3.129,0,0,0-.929,2.225,4.834,4.834,0,0,1-1.432,3.438A4.834,4.834,0,0,1-3599.273,730.432Z" transform="translate(4248.379 -312.503)"/><path class="g" d="M-3599.273,730.432a4.835,4.835,0,0,1-3.438-1.432,4.834,4.834,0,0,1-1.432-3.438.858.858,0,0,1,.858-.858.858.858,0,0,1,.858.858,3.13,3.13,0,0,0,.929,2.225,3.13,3.13,0,0,0,2.225.929,3.13,3.13,0,0,0,2.225-.929,3.13,3.13,0,0,0,.929-2.225,4.834,4.834,0,0,1,1.432-3.438,4.834,4.834,0,0,1,3.438-1.432,4.834,4.834,0,0,1,3.438,1.432,4.834,4.834,0,0,1,1.432,3.438.858.858,0,0,1-.858.858.858.858,0,0,1-.858-.858,3.13,3.13,0,0,0-.929-2.225,3.13,3.13,0,0,0-2.225-.929,3.13,3.13,0,0,0-2.225.929,3.129,3.129,0,0,0-.929,2.225,4.834,4.834,0,0,1-1.432,3.438A4.834,4.834,0,0,1-3599.273,730.432Z" transform="translate(4264.379 -312.503)"/><path class="g" d="M-3599.273,730.432a4.835,4.835,0,0,1-3.438-1.432,4.834,4.834,0,0,1-1.432-3.438.858.858,0,0,1,.858-.858.858.858,0,0,1,.858.858,3.13,3.13,0,0,0,.929,2.225,3.13,3.13,0,0,0,2.225.929,3.13,3.13,0,0,0,2.225-.929,3.13,3.13,0,0,0,.929-2.225,4.834,4.834,0,0,1,1.432-3.438,4.834,4.834,0,0,1,3.438-1.432,4.834,4.834,0,0,1,3.438,1.432,4.834,4.834,0,0,1,1.432,3.438.858.858,0,0,1-.858.858.858.858,0,0,1-.858-.858,3.13,3.13,0,0,0-.929-2.225,3.13,3.13,0,0,0-2.225-.929,3.13,3.13,0,0,0-2.225.929,3.129,3.129,0,0,0-.929,2.225,4.834,4.834,0,0,1-1.432,3.438A4.834,4.834,0,0,1-3599.273,730.432Z" transform="translate(4280.379 -312.503)"/><path class="g" d="M-3599.273,730.432a4.835,4.835,0,0,1-3.438-1.432,4.834,4.834,0,0,1-1.432-3.438.858.858,0,0,1,.858-.858.858.858,0,0,1,.858.858,3.13,3.13,0,0,0,.929,2.225,3.13,3.13,0,0,0,2.225.929,3.13,3.13,0,0,0,2.225-.929,3.13,3.13,0,0,0,.929-2.225,4.834,4.834,0,0,1,1.432-3.438,4.834,4.834,0,0,1,3.438-1.432,4.834,4.834,0,0,1,3.438,1.432,4.834,4.834,0,0,1,1.432,3.438.858.858,0,0,1-.858.858.858.858,0,0,1-.858-.858,3.13,3.13,0,0,0-.929-2.225,3.13,3.13,0,0,0-2.225-.929,3.13,3.13,0,0,0-2.225.929,3.129,3.129,0,0,0-.929,2.225,4.834,4.834,0,0,1-1.432,3.438A4.834,4.834,0,0,1-3599.273,730.432Z" transform="translate(4296.379 -312.503)"/><path class="g" d="M-3599.273,730.432a4.835,4.835,0,0,1-3.438-1.432,4.834,4.834,0,0,1-1.432-3.438.858.858,0,0,1,.858-.858.858.858,0,0,1,.858.858,3.13,3.13,0,0,0,.929,2.225,3.13,3.13,0,0,0,2.225.929,3.13,3.13,0,0,0,2.225-.929,3.13,3.13,0,0,0,.929-2.225,4.834,4.834,0,0,1,1.432-3.438,4.834,4.834,0,0,1,3.438-1.432,4.834,4.834,0,0,1,3.438,1.432,4.834,4.834,0,0,1,1.432,3.438.858.858,0,0,1-.858.858.858.858,0,0,1-.858-.858,3.13,3.13,0,0,0-.929-2.225,3.13,3.13,0,0,0-2.225-.929,3.13,3.13,0,0,0-2.225.929,3.129,3.129,0,0,0-.929,2.225,4.834,4.834,0,0,1-1.432,3.438A4.834,4.834,0,0,1-3599.273,730.432Z" transform="translate(4312.379 -312.503)"/><path class="g" d="M-3599.273,730.432a4.835,4.835,0,0,1-3.438-1.432,4.834,4.834,0,0,1-1.432-3.438.858.858,0,0,1,.858-.858.858.858,0,0,1,.858.858,3.13,3.13,0,0,0,.929,2.225,3.13,3.13,0,0,0,2.225.929,3.13,3.13,0,0,0,2.225-.929,3.13,3.13,0,0,0,.929-2.225,4.834,4.834,0,0,1,1.432-3.438,4.834,4.834,0,0,1,3.438-1.432,4.834,4.834,0,0,1,3.438,1.432,4.834,4.834,0,0,1,1.432,3.438.858.858,0,0,1-.858.858.858.858,0,0,1-.858-.858,3.13,3.13,0,0,0-.929-2.225,3.13,3.13,0,0,0-2.225-.929,3.13,3.13,0,0,0-2.225.929,3.129,3.129,0,0,0-.929,2.225,4.834,4.834,0,0,1-1.432,3.438A4.834,4.834,0,0,1-3599.273,730.432Z" transform="translate(4328.379 -312.503)"/><path class="g" d="M-3599.273,730.432a4.835,4.835,0,0,1-3.438-1.432,4.834,4.834,0,0,1-1.432-3.438.858.858,0,0,1,.858-.858.858.858,0,0,1,.858.858,3.13,3.13,0,0,0,.929,2.225,3.13,3.13,0,0,0,2.225.929,3.13,3.13,0,0,0,2.225-.929,3.13,3.13,0,0,0,.929-2.225,4.834,4.834,0,0,1,1.432-3.438,4.834,4.834,0,0,1,3.438-1.432,4.834,4.834,0,0,1,3.438,1.432,4.834,4.834,0,0,1,1.432,3.438.858.858,0,0,1-.858.858.858.858,0,0,1-.858-.858,3.13,3.13,0,0,0-.929-2.225,3.13,3.13,0,0,0-2.225-.929,3.13,3.13,0,0,0-2.225.929,3.129,3.129,0,0,0-.929,2.225,4.834,4.834,0,0,1-1.432,3.438A4.834,4.834,0,0,1-3599.273,730.432Z" transform="translate(4344.379 -312.503)"/><path class="g" d="M-3599.273,730.432a4.835,4.835,0,0,1-3.438-1.432,4.834,4.834,0,0,1-1.432-3.438.858.858,0,0,1,.858-.858.858.858,0,0,1,.858.858,3.13,3.13,0,0,0,.929,2.225,3.13,3.13,0,0,0,2.225.929,3.13,3.13,0,0,0,2.225-.929,3.13,3.13,0,0,0,.929-2.225,4.834,4.834,0,0,1,1.432-3.438,4.834,4.834,0,0,1,3.438-1.432,4.834,4.834,0,0,1,3.438,1.432,4.834,4.834,0,0,1,1.432,3.438.858.858,0,0,1-.858.858.858.858,0,0,1-.858-.858,3.13,3.13,0,0,0-.929-2.225,3.13,3.13,0,0,0-2.225-.929,3.13,3.13,0,0,0-2.225.929,3.129,3.129,0,0,0-.929,2.225,4.834,4.834,0,0,1-1.432,3.438A4.834,4.834,0,0,1-3599.273,730.432Z" transform="translate(4360.379 -312.503)"/><path class="g" d="M-3599.273,730.432a4.835,4.835,0,0,1-3.438-1.432,4.834,4.834,0,0,1-1.432-3.438.858.858,0,0,1,.858-.858.858.858,0,0,1,.858.858,3.13,3.13,0,0,0,.929,2.225,3.13,3.13,0,0,0,2.225.929,3.13,3.13,0,0,0,2.225-.929,3.13,3.13,0,0,0,.929-2.225,4.834,4.834,0,0,1,1.432-3.438,4.834,4.834,0,0,1,3.438-1.432,4.834,4.834,0,0,1,3.438,1.432,4.834,4.834,0,0,1,1.432,3.438.858.858,0,0,1-.858.858.858.858,0,0,1-.858-.858,3.13,3.13,0,0,0-.929-2.225,3.13,3.13,0,0,0-2.225-.929,3.13,3.13,0,0,0-2.225.929,3.129,3.129,0,0,0-.929,2.225,4.834,4.834,0,0,1-1.432,3.438A4.834,4.834,0,0,1-3599.273,730.432Z" transform="translate(4376.379 -312.503)"/></g><g transform="translate(162 8543)"><path class="g" d="M-3599.273,730.432a4.835,4.835,0,0,1-3.438-1.432,4.834,4.834,0,0,1-1.432-3.438.858.858,0,0,1,.858-.858.858.858,0,0,1,.858.858,3.13,3.13,0,0,0,.929,2.225,3.13,3.13,0,0,0,2.225.929,3.13,3.13,0,0,0,2.225-.929,3.13,3.13,0,0,0,.929-2.225,4.834,4.834,0,0,1,1.432-3.438,4.834,4.834,0,0,1,3.438-1.432,4.834,4.834,0,0,1,3.438,1.432,4.834,4.834,0,0,1,1.432,3.438.858.858,0,0,1-.858.858.858.858,0,0,1-.858-.858,3.13,3.13,0,0,0-.929-2.225,3.13,3.13,0,0,0-2.225-.929,3.13,3.13,0,0,0-2.225.929,3.129,3.129,0,0,0-.929,2.225,4.834,4.834,0,0,1-1.432,3.438A4.834,4.834,0,0,1-3599.273,730.432Z" transform="translate(3911.379 -276.503)"/><path class="g" d="M-3599.273,730.432a4.835,4.835,0,0,1-3.438-1.432,4.834,4.834,0,0,1-1.432-3.438.858.858,0,0,1,.858-.858.858.858,0,0,1,.858.858,3.13,3.13,0,0,0,.929,2.225,3.13,3.13,0,0,0,2.225.929,3.13,3.13,0,0,0,2.225-.929,3.13,3.13,0,0,0,.929-2.225,4.834,4.834,0,0,1,1.432-3.438,4.834,4.834,0,0,1,3.438-1.432,4.834,4.834,0,0,1,3.438,1.432,4.834,4.834,0,0,1,1.432,3.438.858.858,0,0,1-.858.858.858.858,0,0,1-.858-.858,3.13,3.13,0,0,0-.929-2.225,3.13,3.13,0,0,0-2.225-.929,3.13,3.13,0,0,0-2.225.929,3.129,3.129,0,0,0-.929,2.225,4.834,4.834,0,0,1-1.432,3.438A4.834,4.834,0,0,1-3599.273,730.432Z" transform="translate(3927.379 -276.503)"/><path class="g" d="M-3599.273,730.432a4.835,4.835,0,0,1-3.438-1.432,4.834,4.834,0,0,1-1.432-3.438.858.858,0,0,1,.858-.858.858.858,0,0,1,.858.858,3.13,3.13,0,0,0,.929,2.225,3.13,3.13,0,0,0,2.225.929,3.13,3.13,0,0,0,2.225-.929,3.13,3.13,0,0,0,.929-2.225,4.834,4.834,0,0,1,1.432-3.438,4.834,4.834,0,0,1,3.438-1.432,4.834,4.834,0,0,1,3.438,1.432,4.834,4.834,0,0,1,1.432,3.438.858.858,0,0,1-.858.858.858.858,0,0,1-.858-.858,3.13,3.13,0,0,0-.929-2.225,3.13,3.13,0,0,0-2.225-.929,3.13,3.13,0,0,0-2.225.929,3.129,3.129,0,0,0-.929,2.225,4.834,4.834,0,0,1-1.432,3.438A4.834,4.834,0,0,1-3599.273,730.432Z" transform="translate(3943.379 -276.503)"/></g><g transform="translate(1113 8707)"><path class="g" d="M-3599.273,730.432a4.835,4.835,0,0,1-3.438-1.432,4.834,4.834,0,0,1-1.432-3.438.858.858,0,0,1,.858-.858.858.858,0,0,1,.858.858,3.13,3.13,0,0,0,.929,2.225,3.13,3.13,0,0,0,2.225.929,3.13,3.13,0,0,0,2.225-.929,3.13,3.13,0,0,0,.929-2.225,4.834,4.834,0,0,1,1.432-3.438,4.834,4.834,0,0,1,3.438-1.432,4.834,4.834,0,0,1,3.438,1.432,4.834,4.834,0,0,1,1.432,3.438.858.858,0,0,1-.858.858.858.858,0,0,1-.858-.858,3.13,3.13,0,0,0-.929-2.225,3.13,3.13,0,0,0-2.225-.929,3.13,3.13,0,0,0-2.225.929,3.129,3.129,0,0,0-.929,2.225,4.834,4.834,0,0,1-1.432,3.438A4.834,4.834,0,0,1-3599.273,730.432Z" transform="translate(3778.379 -516.503)"/><path class="g" d="M-3599.273,730.432a4.835,4.835,0,0,1-3.438-1.432,4.834,4.834,0,0,1-1.432-3.438.858.858,0,0,1,.858-.858.858.858,0,0,1,.858.858,3.13,3.13,0,0,0,.929,2.225,3.13,3.13,0,0,0,2.225.929,3.13,3.13,0,0,0,2.225-.929,3.13,3.13,0,0,0,.929-2.225,4.834,4.834,0,0,1,1.432-3.438,4.834,4.834,0,0,1,3.438-1.432,4.834,4.834,0,0,1,3.438,1.432,4.834,4.834,0,0,1,1.432,3.438.858.858,0,0,1-.858.858.858.858,0,0,1-.858-.858,3.13,3.13,0,0,0-.929-2.225,3.13,3.13,0,0,0-2.225-.929,3.13,3.13,0,0,0-2.225.929,3.129,3.129,0,0,0-.929,2.225,4.834,4.834,0,0,1-1.432,3.438A4.834,4.834,0,0,1-3599.273,730.432Z" transform="translate(3794.379 -516.503)"/><path class="g" d="M-3599.273,730.432a4.835,4.835,0,0,1-3.438-1.432,4.834,4.834,0,0,1-1.432-3.438.858.858,0,0,1,.858-.858.858.858,0,0,1,.858.858,3.13,3.13,0,0,0,.929,2.225,3.13,3.13,0,0,0,2.225.929,3.13,3.13,0,0,0,2.225-.929,3.13,3.13,0,0,0,.929-2.225,4.834,4.834,0,0,1,1.432-3.438,4.834,4.834,0,0,1,3.438-1.432,4.834,4.834,0,0,1,3.438,1.432,4.834,4.834,0,0,1,1.432,3.438.858.858,0,0,1-.858.858.858.858,0,0,1-.858-.858,3.13,3.13,0,0,0-.929-2.225,3.13,3.13,0,0,0-2.225-.929,3.13,3.13,0,0,0-2.225.929,3.129,3.129,0,0,0-.929,2.225,4.834,4.834,0,0,1-1.432,3.438A4.834,4.834,0,0,1-3599.273,730.432Z" transform="translate(3810.379 -516.503)"/><path class="g" d="M-3599.273,730.432a4.835,4.835,0,0,1-3.438-1.432,4.834,4.834,0,0,1-1.432-3.438.858.858,0,0,1,.858-.858.858.858,0,0,1,.858.858,3.13,3.13,0,0,0,.929,2.225,3.13,3.13,0,0,0,2.225.929,3.13,3.13,0,0,0,2.225-.929,3.13,3.13,0,0,0,.929-2.225,4.834,4.834,0,0,1,1.432-3.438,4.834,4.834,0,0,1,3.438-1.432,4.834,4.834,0,0,1,3.438,1.432,4.834,4.834,0,0,1,1.432,3.438.858.858,0,0,1-.858.858.858.858,0,0,1-.858-.858,3.13,3.13,0,0,0-.929-2.225,3.13,3.13,0,0,0-2.225-.929,3.13,3.13,0,0,0-2.225.929,3.129,3.129,0,0,0-.929,2.225,4.834,4.834,0,0,1-1.432,3.438A4.834,4.834,0,0,1-3599.273,730.432Z" transform="translate(3826.379 -516.503)"/><path class="g" d="M-3599.273,730.432a4.835,4.835,0,0,1-3.438-1.432,4.834,4.834,0,0,1-1.432-3.438.858.858,0,0,1,.858-.858.858.858,0,0,1,.858.858,3.13,3.13,0,0,0,.929,2.225,3.13,3.13,0,0,0,2.225.929,3.13,3.13,0,0,0,2.225-.929,3.13,3.13,0,0,0,.929-2.225,4.834,4.834,0,0,1,1.432-3.438,4.834,4.834,0,0,1,3.438-1.432,4.834,4.834,0,0,1,3.438,1.432,4.834,4.834,0,0,1,1.432,3.438.858.858,0,0,1-.858.858.858.858,0,0,1-.858-.858,3.13,3.13,0,0,0-.929-2.225,3.13,3.13,0,0,0-2.225-.929,3.13,3.13,0,0,0-2.225.929,3.129,3.129,0,0,0-.929,2.225,4.834,4.834,0,0,1-1.432,3.438A4.834,4.834,0,0,1-3599.273,730.432Z" transform="translate(3842.379 -516.503)"/><path class="g" d="M-3599.273,730.432a4.835,4.835,0,0,1-3.438-1.432,4.834,4.834,0,0,1-1.432-3.438.858.858,0,0,1,.858-.858.858.858,0,0,1,.858.858,3.13,3.13,0,0,0,.929,2.225,3.13,3.13,0,0,0,2.225.929,3.13,3.13,0,0,0,2.225-.929,3.13,3.13,0,0,0,.929-2.225,4.834,4.834,0,0,1,1.432-3.438,4.834,4.834,0,0,1,3.438-1.432,4.834,4.834,0,0,1,3.438,1.432,4.834,4.834,0,0,1,1.432,3.438.858.858,0,0,1-.858.858.858.858,0,0,1-.858-.858,3.13,3.13,0,0,0-.929-2.225,3.13,3.13,0,0,0-2.225-.929,3.13,3.13,0,0,0-2.225.929,3.129,3.129,0,0,0-.929,2.225,4.834,4.834,0,0,1-1.432,3.438A4.834,4.834,0,0,1-3599.273,730.432Z" transform="translate(3858.379 -516.503)"/><path class="g" d="M-3599.273,730.432a4.835,4.835,0,0,1-3.438-1.432,4.834,4.834,0,0,1-1.432-3.438.858.858,0,0,1,.858-.858.858.858,0,0,1,.858.858,3.13,3.13,0,0,0,.929,2.225,3.13,3.13,0,0,0,2.225.929,3.13,3.13,0,0,0,2.225-.929,3.13,3.13,0,0,0,.929-2.225,4.834,4.834,0,0,1,1.432-3.438,4.834,4.834,0,0,1,3.438-1.432,4.834,4.834,0,0,1,3.438,1.432,4.834,4.834,0,0,1,1.432,3.438.858.858,0,0,1-.858.858.858.858,0,0,1-.858-.858,3.13,3.13,0,0,0-.929-2.225,3.13,3.13,0,0,0-2.225-.929,3.13,3.13,0,0,0-2.225.929,3.129,3.129,0,0,0-.929,2.225,4.834,4.834,0,0,1-1.432,3.438A4.834,4.834,0,0,1-3599.273,730.432Z" transform="translate(3874.379 -516.503)"/><path class="g" d="M-3599.273,730.432a4.835,4.835,0,0,1-3.438-1.432,4.834,4.834,0,0,1-1.432-3.438.858.858,0,0,1,.858-.858.858.858,0,0,1,.858.858,3.13,3.13,0,0,0,.929,2.225,3.13,3.13,0,0,0,2.225.929,3.13,3.13,0,0,0,2.225-.929,3.13,3.13,0,0,0,.929-2.225,4.834,4.834,0,0,1,1.432-3.438,4.834,4.834,0,0,1,3.438-1.432,4.834,4.834,0,0,1,3.438,1.432,4.834,4.834,0,0,1,1.432,3.438.858.858,0,0,1-.858.858.858.858,0,0,1-.858-.858,3.13,3.13,0,0,0-.929-2.225,3.13,3.13,0,0,0-2.225-.929,3.13,3.13,0,0,0-2.225.929,3.129,3.129,0,0,0-.929,2.225,4.834,4.834,0,0,1-1.432,3.438A4.834,4.834,0,0,1-3599.273,730.432Z" transform="translate(3890.379 -516.503)"/><path class="g" d="M-3599.273,730.432a4.835,4.835,0,0,1-3.438-1.432,4.834,4.834,0,0,1-1.432-3.438.858.858,0,0,1,.858-.858.858.858,0,0,1,.858.858,3.13,3.13,0,0,0,.929,2.225,3.13,3.13,0,0,0,2.225.929,3.13,3.13,0,0,0,2.225-.929,3.13,3.13,0,0,0,.929-2.225,4.834,4.834,0,0,1,1.432-3.438,4.834,4.834,0,0,1,3.438-1.432,4.834,4.834,0,0,1,3.438,1.432,4.834,4.834,0,0,1,1.432,3.438.858.858,0,0,1-.858.858.858.858,0,0,1-.858-.858,3.13,3.13,0,0,0-.929-2.225,3.13,3.13,0,0,0-2.225-.929,3.13,3.13,0,0,0-2.225.929,3.129,3.129,0,0,0-.929,2.225,4.834,4.834,0,0,1-1.432,3.438A4.834,4.834,0,0,1-3599.273,730.432Z" transform="translate(3906.379 -516.503)"/><path class="g" d="M-3599.273,730.432a4.835,4.835,0,0,1-3.438-1.432,4.834,4.834,0,0,1-1.432-3.438.858.858,0,0,1,.858-.858.858.858,0,0,1,.858.858,3.13,3.13,0,0,0,.929,2.225,3.13,3.13,0,0,0,2.225.929,3.13,3.13,0,0,0,2.225-.929,3.13,3.13,0,0,0,.929-2.225,4.834,4.834,0,0,1,1.432-3.438,4.834,4.834,0,0,1,3.438-1.432,4.834,4.834,0,0,1,3.438,1.432,4.834,4.834,0,0,1,1.432,3.438.858.858,0,0,1-.858.858.858.858,0,0,1-.858-.858,3.13,3.13,0,0,0-.929-2.225,3.13,3.13,0,0,0-2.225-.929,3.13,3.13,0,0,0-2.225.929,3.129,3.129,0,0,0-.929,2.225,4.834,4.834,0,0,1-1.432,3.438A4.834,4.834,0,0,1-3599.273,730.432Z" transform="translate(3922.379 -516.503)"/><path class="g" d="M-3599.273,730.432a4.835,4.835,0,0,1-3.438-1.432,4.834,4.834,0,0,1-1.432-3.438.858.858,0,0,1,.858-.858.858.858,0,0,1,.858.858,3.13,3.13,0,0,0,.929,2.225,3.13,3.13,0,0,0,2.225.929,3.13,3.13,0,0,0,2.225-.929,3.13,3.13,0,0,0,.929-2.225,4.834,4.834,0,0,1,1.432-3.438,4.834,4.834,0,0,1,3.438-1.432,4.834,4.834,0,0,1,3.438,1.432,4.834,4.834,0,0,1,1.432,3.438.858.858,0,0,1-.858.858.858.858,0,0,1-.858-.858,3.13,3.13,0,0,0-.929-2.225,3.13,3.13,0,0,0-2.225-.929,3.13,3.13,0,0,0-2.225.929,3.129,3.129,0,0,0-.929,2.225,4.834,4.834,0,0,1-1.432,3.438A4.834,4.834,0,0,1-3599.273,730.432Z" transform="translate(3938.379 -516.503)"/></g><g transform="translate(94 8940)"><path class="g" d="M-3599.273,730.432a4.835,4.835,0,0,1-3.438-1.432,4.834,4.834,0,0,1-1.432-3.438.858.858,0,0,1,.858-.858.858.858,0,0,1,.858.858,3.13,3.13,0,0,0,.929,2.225,3.13,3.13,0,0,0,2.225.929,3.13,3.13,0,0,0,2.225-.929,3.13,3.13,0,0,0,.929-2.225,4.834,4.834,0,0,1,1.432-3.438,4.834,4.834,0,0,1,3.438-1.432,4.834,4.834,0,0,1,3.438,1.432,4.834,4.834,0,0,1,1.432,3.438.858.858,0,0,1-.858.858.858.858,0,0,1-.858-.858,3.13,3.13,0,0,0-.929-2.225,3.13,3.13,0,0,0-2.225-.929,3.13,3.13,0,0,0-2.225.929,3.129,3.129,0,0,0-.929,2.225,4.834,4.834,0,0,1-1.432,3.438A4.834,4.834,0,0,1-3599.273,730.432Z" transform="translate(4421.379 -480.503)"/><path class="g" d="M-3599.273,730.432a4.835,4.835,0,0,1-3.438-1.432,4.834,4.834,0,0,1-1.432-3.438.858.858,0,0,1,.858-.858.858.858,0,0,1,.858.858,3.13,3.13,0,0,0,.929,2.225,3.13,3.13,0,0,0,2.225.929,3.13,3.13,0,0,0,2.225-.929,3.13,3.13,0,0,0,.929-2.225,4.834,4.834,0,0,1,1.432-3.438,4.834,4.834,0,0,1,3.438-1.432,4.834,4.834,0,0,1,3.438,1.432,4.834,4.834,0,0,1,1.432,3.438.858.858,0,0,1-.858.858.858.858,0,0,1-.858-.858,3.13,3.13,0,0,0-.929-2.225,3.13,3.13,0,0,0-2.225-.929,3.13,3.13,0,0,0-2.225.929,3.129,3.129,0,0,0-.929,2.225,4.834,4.834,0,0,1-1.432,3.438A4.834,4.834,0,0,1-3599.273,730.432Z" transform="translate(4437.379 -480.503)"/><path class="g" d="M-3599.273,730.432a4.835,4.835,0,0,1-3.438-1.432,4.834,4.834,0,0,1-1.432-3.438.858.858,0,0,1,.858-.858.858.858,0,0,1,.858.858,3.13,3.13,0,0,0,.929,2.225,3.13,3.13,0,0,0,2.225.929,3.13,3.13,0,0,0,2.225-.929,3.13,3.13,0,0,0,.929-2.225,4.834,4.834,0,0,1,1.432-3.438,4.834,4.834,0,0,1,3.438-1.432,4.834,4.834,0,0,1,3.438,1.432,4.834,4.834,0,0,1,1.432,3.438.858.858,0,0,1-.858.858.858.858,0,0,1-.858-.858,3.13,3.13,0,0,0-.929-2.225,3.13,3.13,0,0,0-2.225-.929,3.13,3.13,0,0,0-2.225.929,3.129,3.129,0,0,0-.929,2.225,4.834,4.834,0,0,1-1.432,3.438A4.834,4.834,0,0,1-3599.273,730.432Z" transform="translate(4453.379 -480.503)"/><path class="g" d="M-3599.273,730.432a4.835,4.835,0,0,1-3.438-1.432,4.834,4.834,0,0,1-1.432-3.438.858.858,0,0,1,.858-.858.858.858,0,0,1,.858.858,3.13,3.13,0,0,0,.929,2.225,3.13,3.13,0,0,0,2.225.929,3.13,3.13,0,0,0,2.225-.929,3.13,3.13,0,0,0,.929-2.225,4.834,4.834,0,0,1,1.432-3.438,4.834,4.834,0,0,1,3.438-1.432,4.834,4.834,0,0,1,3.438,1.432,4.834,4.834,0,0,1,1.432,3.438.858.858,0,0,1-.858.858.858.858,0,0,1-.858-.858,3.13,3.13,0,0,0-.929-2.225,3.13,3.13,0,0,0-2.225-.929,3.13,3.13,0,0,0-2.225.929,3.129,3.129,0,0,0-.929,2.225,4.834,4.834,0,0,1-1.432,3.438A4.834,4.834,0,0,1-3599.273,730.432Z" transform="translate(4469.379 -480.503)"/><path class="g" d="M-3599.273,730.432a4.835,4.835,0,0,1-3.438-1.432,4.834,4.834,0,0,1-1.432-3.438.858.858,0,0,1,.858-.858.858.858,0,0,1,.858.858,3.13,3.13,0,0,0,.929,2.225,3.13,3.13,0,0,0,2.225.929,3.13,3.13,0,0,0,2.225-.929,3.13,3.13,0,0,0,.929-2.225,4.834,4.834,0,0,1,1.432-3.438,4.834,4.834,0,0,1,3.438-1.432,4.834,4.834,0,0,1,3.438,1.432,4.834,4.834,0,0,1,1.432,3.438.858.858,0,0,1-.858.858.858.858,0,0,1-.858-.858,3.13,3.13,0,0,0-.929-2.225,3.13,3.13,0,0,0-2.225-.929,3.13,3.13,0,0,0-2.225.929,3.129,3.129,0,0,0-.929,2.225,4.834,4.834,0,0,1-1.432,3.438A4.834,4.834,0,0,1-3599.273,730.432Z" transform="translate(4485.379 -480.503)"/></g><g transform="translate(518 9102)"><path class="g" d="M-3599.273,730.432a4.835,4.835,0,0,1-3.438-1.432,4.834,4.834,0,0,1-1.432-3.438.858.858,0,0,1,.858-.858.858.858,0,0,1,.858.858,3.13,3.13,0,0,0,.929,2.225,3.13,3.13,0,0,0,2.225.929,3.13,3.13,0,0,0,2.225-.929,3.13,3.13,0,0,0,.929-2.225,4.834,4.834,0,0,1,1.432-3.438,4.834,4.834,0,0,1,3.438-1.432,4.834,4.834,0,0,1,3.438,1.432,4.834,4.834,0,0,1,1.432,3.438.858.858,0,0,1-.858.858.858.858,0,0,1-.858-.858,3.13,3.13,0,0,0-.929-2.225,3.13,3.13,0,0,0-2.225-.929,3.13,3.13,0,0,0-2.225.929,3.129,3.129,0,0,0-.929,2.225,4.834,4.834,0,0,1-1.432,3.438A4.834,4.834,0,0,1-3599.273,730.432Z" transform="translate(4421.379 -480.503)"/><path class="g" d="M-3599.273,730.432a4.835,4.835,0,0,1-3.438-1.432,4.834,4.834,0,0,1-1.432-3.438.858.858,0,0,1,.858-.858.858.858,0,0,1,.858.858,3.13,3.13,0,0,0,.929,2.225,3.13,3.13,0,0,0,2.225.929,3.13,3.13,0,0,0,2.225-.929,3.13,3.13,0,0,0,.929-2.225,4.834,4.834,0,0,1,1.432-3.438,4.834,4.834,0,0,1,3.438-1.432,4.834,4.834,0,0,1,3.438,1.432,4.834,4.834,0,0,1,1.432,3.438.858.858,0,0,1-.858.858.858.858,0,0,1-.858-.858,3.13,3.13,0,0,0-.929-2.225,3.13,3.13,0,0,0-2.225-.929,3.13,3.13,0,0,0-2.225.929,3.129,3.129,0,0,0-.929,2.225,4.834,4.834,0,0,1-1.432,3.438A4.834,4.834,0,0,1-3599.273,730.432Z" transform="translate(4437.379 -480.503)"/><path class="g" d="M-3599.273,730.432a4.835,4.835,0,0,1-3.438-1.432,4.834,4.834,0,0,1-1.432-3.438.858.858,0,0,1,.858-.858.858.858,0,0,1,.858.858,3.13,3.13,0,0,0,.929,2.225,3.13,3.13,0,0,0,2.225.929,3.13,3.13,0,0,0,2.225-.929,3.13,3.13,0,0,0,.929-2.225,4.834,4.834,0,0,1,1.432-3.438,4.834,4.834,0,0,1,3.438-1.432,4.834,4.834,0,0,1,3.438,1.432,4.834,4.834,0,0,1,1.432,3.438.858.858,0,0,1-.858.858.858.858,0,0,1-.858-.858,3.13,3.13,0,0,0-.929-2.225,3.13,3.13,0,0,0-2.225-.929,3.13,3.13,0,0,0-2.225.929,3.129,3.129,0,0,0-.929,2.225,4.834,4.834,0,0,1-1.432,3.438A4.834,4.834,0,0,1-3599.273,730.432Z" transform="translate(4453.379 -480.503)"/><path class="g" d="M-3599.273,730.432a4.835,4.835,0,0,1-3.438-1.432,4.834,4.834,0,0,1-1.432-3.438.858.858,0,0,1,.858-.858.858.858,0,0,1,.858.858,3.13,3.13,0,0,0,.929,2.225,3.13,3.13,0,0,0,2.225.929,3.13,3.13,0,0,0,2.225-.929,3.13,3.13,0,0,0,.929-2.225,4.834,4.834,0,0,1,1.432-3.438,4.834,4.834,0,0,1,3.438-1.432,4.834,4.834,0,0,1,3.438,1.432,4.834,4.834,0,0,1,1.432,3.438.858.858,0,0,1-.858.858.858.858,0,0,1-.858-.858,3.13,3.13,0,0,0-.929-2.225,3.13,3.13,0,0,0-2.225-.929,3.13,3.13,0,0,0-2.225.929,3.129,3.129,0,0,0-.929,2.225,4.834,4.834,0,0,1-1.432,3.438A4.834,4.834,0,0,1-3599.273,730.432Z" transform="translate(4469.379 -480.503)"/><path class="g" d="M-3599.273,730.432a4.835,4.835,0,0,1-3.438-1.432,4.834,4.834,0,0,1-1.432-3.438.858.858,0,0,1,.858-.858.858.858,0,0,1,.858.858,3.13,3.13,0,0,0,.929,2.225,3.13,3.13,0,0,0,2.225.929,3.13,3.13,0,0,0,2.225-.929,3.13,3.13,0,0,0,.929-2.225,4.834,4.834,0,0,1,1.432-3.438,4.834,4.834,0,0,1,3.438-1.432,4.834,4.834,0,0,1,3.438,1.432,4.834,4.834,0,0,1,1.432,3.438.858.858,0,0,1-.858.858.858.858,0,0,1-.858-.858,3.13,3.13,0,0,0-.929-2.225,3.13,3.13,0,0,0-2.225-.929,3.13,3.13,0,0,0-2.225.929,3.129,3.129,0,0,0-.929,2.225,4.834,4.834,0,0,1-1.432,3.438A4.834,4.834,0,0,1-3599.273,730.432Z" transform="translate(4485.379 -480.503)"/></g><path class="g" d="M-3346.49,295.332a.731.731,0,0,1,.73.73v6.044a.731.731,0,0,1-.73.73h-6.044a.731.731,0,0,1-.73-.73v-6.044a.731.731,0,0,1,.73-.73h6.044m0-2.248h-6.044a2.981,2.981,0,0,0-2.978,2.978v6.044a2.981,2.981,0,0,0,2.978,2.978h6.044a2.981,2.981,0,0,0,2.978-2.978v-6.044a2.981,2.981,0,0,0-2.978-2.978Z" transform="translate(4194.512 8976.916)"/><path class="g" d="M-3346.49,295.332a.731.731,0,0,1,.73.73v6.044a.731.731,0,0,1-.73.73h-6.044a.731.731,0,0,1-.73-.73v-6.044a.731.731,0,0,1,.73-.73h6.044m0-2.248h-6.044a2.981,2.981,0,0,0-2.978,2.978v6.044a2.981,2.981,0,0,0,2.978,2.978h6.044a2.981,2.981,0,0,0,2.978-2.978v-6.044a2.981,2.981,0,0,0-2.978-2.978Z" transform="translate(4452.512 9058.916)"/><path class="g" d="M-3948.7,439.219a6.041,6.041,0,0,1,6.041,6.041v49.978a6.041,6.041,0,0,1-6.041,6.041h-49.978a6.041,6.041,0,0,1-6.041-6.041V445.259a6.041,6.041,0,0,1,6.041-6.041h49.978m0-9.294h-49.978a15.352,15.352,0,0,0-15.334,15.334v49.978a15.352,15.352,0,0,0,15.334,15.334h49.978a15.352,15.352,0,0,0,15.334-15.334V445.259a15.352,15.352,0,0,0-15.334-15.334Z" transform="translate(4171.008 8596.075)"/><path class="g" d="M-4588.1,478.442a4.647,4.647,0,0,1,4.647,4.648v38.453a4.648,4.648,0,0,1-4.647,4.648h-38.453a4.648,4.648,0,0,1-4.648-4.648V483.089a4.648,4.648,0,0,1,4.648-4.648h38.453m0-1.788h-38.453a6.443,6.443,0,0,0-6.436,6.435v38.453a6.443,6.443,0,0,0,6.436,6.435h38.453a6.443,6.443,0,0,0,6.436-6.435V483.089a6.443,6.443,0,0,0-6.436-6.435Z" transform="translate(5596.984 8581.346)"/><path class="g" d="M-4608.212,477.641a2.565,2.565,0,0,1,2.565,2.565v21.221a2.565,2.565,0,0,1-2.565,2.565h-21.22a2.565,2.565,0,0,1-2.565-2.565V480.205a2.565,2.565,0,0,1,2.565-2.565h21.22m0-.987h-21.22a3.556,3.556,0,0,0-3.552,3.551v21.221a3.556,3.556,0,0,0,3.552,3.551h21.22a3.556,3.556,0,0,0,3.552-3.551V480.205a3.556,3.556,0,0,0-3.552-3.551Z" transform="translate(5715.484 8761.846)"/></g></g></svg>