<svg xmlns="http://www.w3.org/2000/svg" xmlns:xlink="http://www.w3.org/1999/xlink" width="1280" height="500" viewBox="0 0 1280 500"><defs><style>.a{fill:#ffe166;}.b{clip-path:url(#a);}.c{fill:#fc0;}.d,.e,.i{fill:none;}.d{stroke:#ffeb34;}.d,.e{stroke-width:2px;}.e{stroke:#fd9d27;}.f{fill:#ff9d00;}.g{fill:#ffeb00;}.h{stroke:none;}</style><clipPath id="a"><rect class="a" width="1280" height="500" transform="translate(180 8883)"/></clipPath></defs><g transform="translate(1489 -8235)"><g class="b" transform="translate(-1669 -648)"><rect class="c" width="1280" height="500" transform="translate(180 8883)"/><g class="d" transform="translate(951.5 9166.5) rotate(90)"><rect class="h" width="116" height="23" rx="11.5"/><rect class="i" x="1" y="1" width="114" height="21" rx="10.5"/></g><g class="d" transform="translate(1412 9294)"><rect class="h" width="60" height="23" rx="11.5"/><rect class="i" x="1" y="1" width="58" height="21" rx="10.5"/></g><g class="e" transform="translate(678 9264)"><rect class="h" width="186" height="50" rx="25"/><rect class="i" x="1" y="1" width="184" height="48" rx="24"/></g><rect class="f" width="282" height="67" rx="33.5" transform="translate(1283 9055) rotate(90)"/><rect class="f" width="153" height="15" rx="7.5" transform="translate(524 9332) rotate(90)"/><g transform="translate(1110 8455)"><path class="f" d="M-3599.273,730.432a4.835,4.835,0,0,1-3.438-1.432,4.834,4.834,0,0,1-1.432-3.438.858.858,0,0,1,.858-.858.858.858,0,0,1,.858.858,3.13,3.13,0,0,0,.929,2.225,3.13,3.13,0,0,0,2.225.929,3.13,3.13,0,0,0,2.225-.929,3.13,3.13,0,0,0,.929-2.225,4.834,4.834,0,0,1,1.432-3.438,4.834,4.834,0,0,1,3.438-1.432,4.834,4.834,0,0,1,3.438,1.432,4.834,4.834,0,0,1,1.432,3.438.858.858,0,0,1-.858.858.858.858,0,0,1-.858-.858,3.13,3.13,0,0,0-.929-2.225,3.13,3.13,0,0,0-2.225-.929,3.13,3.13,0,0,0-2.225.929,3.129,3.129,0,0,0-.929,2.225,4.834,4.834,0,0,1-1.432,3.438A4.834,4.834,0,0,1-3599.273,730.432Z" transform="translate(3911.379 -276.503)"/><path class="f" d="M-3599.273,730.432a4.835,4.835,0,0,1-3.438-1.432,4.834,4.834,0,0,1-1.432-3.438.858.858,0,0,1,.858-.858.858.858,0,0,1,.858.858,3.13,3.13,0,0,0,.929,2.225,3.13,3.13,0,0,0,2.225.929,3.13,3.13,0,0,0,2.225-.929,3.13,3.13,0,0,0,.929-2.225,4.834,4.834,0,0,1,1.432-3.438,4.834,4.834,0,0,1,3.438-1.432,4.834,4.834,0,0,1,3.438,1.432,4.834,4.834,0,0,1,1.432,3.438.858.858,0,0,1-.858.858.858.858,0,0,1-.858-.858,3.13,3.13,0,0,0-.929-2.225,3.13,3.13,0,0,0-2.225-.929,3.13,3.13,0,0,0-2.225.929,3.129,3.129,0,0,0-.929,2.225,4.834,4.834,0,0,1-1.432,3.438A4.834,4.834,0,0,1-3599.273,730.432Z" transform="translate(3927.379 -276.503)"/><path class="f" d="M-3599.273,730.432a4.835,4.835,0,0,1-3.438-1.432,4.834,4.834,0,0,1-1.432-3.438.858.858,0,0,1,.858-.858.858.858,0,0,1,.858.858,3.13,3.13,0,0,0,.929,2.225,3.13,3.13,0,0,0,2.225.929,3.13,3.13,0,0,0,2.225-.929,3.13,3.13,0,0,0,.929-2.225,4.834,4.834,0,0,1,1.432-3.438,4.834,4.834,0,0,1,3.438-1.432,4.834,4.834,0,0,1,3.438,1.432,4.834,4.834,0,0,1,1.432,3.438.858.858,0,0,1-.858.858.858.858,0,0,1-.858-.858,3.13,3.13,0,0,0-.929-2.225,3.13,3.13,0,0,0-2.225-.929,3.13,3.13,0,0,0-2.225.929,3.129,3.129,0,0,0-.929,2.225,4.834,4.834,0,0,1-1.432,3.438A4.834,4.834,0,0,1-3599.273,730.432Z" transform="translate(3943.379 -276.503)"/></g><g transform="translate(-472 8837)"><path class="f" d="M-3599.273,730.432a4.835,4.835,0,0,1-3.438-1.432,4.834,4.834,0,0,1-1.432-3.438.858.858,0,0,1,.858-.858.858.858,0,0,1,.858.858,3.13,3.13,0,0,0,.929,2.225,3.13,3.13,0,0,0,2.225.929,3.13,3.13,0,0,0,2.225-.929,3.13,3.13,0,0,0,.929-2.225,4.834,4.834,0,0,1,1.432-3.438,4.834,4.834,0,0,1,3.438-1.432,4.834,4.834,0,0,1,3.438,1.432,4.834,4.834,0,0,1,1.432,3.438.858.858,0,0,1-.858.858.858.858,0,0,1-.858-.858,3.13,3.13,0,0,0-.929-2.225,3.13,3.13,0,0,0-2.225-.929,3.13,3.13,0,0,0-2.225.929,3.129,3.129,0,0,0-.929,2.225,4.834,4.834,0,0,1-1.432,3.438A4.834,4.834,0,0,1-3599.273,730.432Z" transform="translate(4216.379 -312.503)"/><path class="f" d="M-3599.273,730.432a4.835,4.835,0,0,1-3.438-1.432,4.834,4.834,0,0,1-1.432-3.438.858.858,0,0,1,.858-.858.858.858,0,0,1,.858.858,3.13,3.13,0,0,0,.929,2.225,3.13,3.13,0,0,0,2.225.929,3.13,3.13,0,0,0,2.225-.929,3.13,3.13,0,0,0,.929-2.225,4.834,4.834,0,0,1,1.432-3.438,4.834,4.834,0,0,1,3.438-1.432,4.834,4.834,0,0,1,3.438,1.432,4.834,4.834,0,0,1,1.432,3.438.858.858,0,0,1-.858.858.858.858,0,0,1-.858-.858,3.13,3.13,0,0,0-.929-2.225,3.13,3.13,0,0,0-2.225-.929,3.13,3.13,0,0,0-2.225.929,3.129,3.129,0,0,0-.929,2.225,4.834,4.834,0,0,1-1.432,3.438A4.834,4.834,0,0,1-3599.273,730.432Z" transform="translate(4232.379 -312.503)"/><path class="f" d="M-3599.273,730.432a4.835,4.835,0,0,1-3.438-1.432,4.834,4.834,0,0,1-1.432-3.438.858.858,0,0,1,.858-.858.858.858,0,0,1,.858.858,3.13,3.13,0,0,0,.929,2.225,3.13,3.13,0,0,0,2.225.929,3.13,3.13,0,0,0,2.225-.929,3.13,3.13,0,0,0,.929-2.225,4.834,4.834,0,0,1,1.432-3.438,4.834,4.834,0,0,1,3.438-1.432,4.834,4.834,0,0,1,3.438,1.432,4.834,4.834,0,0,1,1.432,3.438.858.858,0,0,1-.858.858.858.858,0,0,1-.858-.858,3.13,3.13,0,0,0-.929-2.225,3.13,3.13,0,0,0-2.225-.929,3.13,3.13,0,0,0-2.225.929,3.129,3.129,0,0,0-.929,2.225,4.834,4.834,0,0,1-1.432,3.438A4.834,4.834,0,0,1-3599.273,730.432Z" transform="translate(4248.379 -312.503)"/><path class="f" d="M-3599.273,730.432a4.835,4.835,0,0,1-3.438-1.432,4.834,4.834,0,0,1-1.432-3.438.858.858,0,0,1,.858-.858.858.858,0,0,1,.858.858,3.13,3.13,0,0,0,.929,2.225,3.13,3.13,0,0,0,2.225.929,3.13,3.13,0,0,0,2.225-.929,3.13,3.13,0,0,0,.929-2.225,4.834,4.834,0,0,1,1.432-3.438,4.834,4.834,0,0,1,3.438-1.432,4.834,4.834,0,0,1,3.438,1.432,4.834,4.834,0,0,1,1.432,3.438.858.858,0,0,1-.858.858.858.858,0,0,1-.858-.858,3.13,3.13,0,0,0-.929-2.225,3.13,3.13,0,0,0-2.225-.929,3.13,3.13,0,0,0-2.225.929,3.129,3.129,0,0,0-.929,2.225,4.834,4.834,0,0,1-1.432,3.438A4.834,4.834,0,0,1-3599.273,730.432Z" transform="translate(4264.379 -312.503)"/><path class="f" d="M-3599.273,730.432a4.835,4.835,0,0,1-3.438-1.432,4.834,4.834,0,0,1-1.432-3.438.858.858,0,0,1,.858-.858.858.858,0,0,1,.858.858,3.13,3.13,0,0,0,.929,2.225,3.13,3.13,0,0,0,2.225.929,3.13,3.13,0,0,0,2.225-.929,3.13,3.13,0,0,0,.929-2.225,4.834,4.834,0,0,1,1.432-3.438,4.834,4.834,0,0,1,3.438-1.432,4.834,4.834,0,0,1,3.438,1.432,4.834,4.834,0,0,1,1.432,3.438.858.858,0,0,1-.858.858.858.858,0,0,1-.858-.858,3.13,3.13,0,0,0-.929-2.225,3.13,3.13,0,0,0-2.225-.929,3.13,3.13,0,0,0-2.225.929,3.129,3.129,0,0,0-.929,2.225,4.834,4.834,0,0,1-1.432,3.438A4.834,4.834,0,0,1-3599.273,730.432Z" transform="translate(4280.379 -312.503)"/><path class="f" d="M-3599.273,730.432a4.835,4.835,0,0,1-3.438-1.432,4.834,4.834,0,0,1-1.432-3.438.858.858,0,0,1,.858-.858.858.858,0,0,1,.858.858,3.13,3.13,0,0,0,.929,2.225,3.13,3.13,0,0,0,2.225.929,3.13,3.13,0,0,0,2.225-.929,3.13,3.13,0,0,0,.929-2.225,4.834,4.834,0,0,1,1.432-3.438,4.834,4.834,0,0,1,3.438-1.432,4.834,4.834,0,0,1,3.438,1.432,4.834,4.834,0,0,1,1.432,3.438.858.858,0,0,1-.858.858.858.858,0,0,1-.858-.858,3.13,3.13,0,0,0-.929-2.225,3.13,3.13,0,0,0-2.225-.929,3.13,3.13,0,0,0-2.225.929,3.129,3.129,0,0,0-.929,2.225,4.834,4.834,0,0,1-1.432,3.438A4.834,4.834,0,0,1-3599.273,730.432Z" transform="translate(4296.379 -312.503)"/><path class="f" d="M-3599.273,730.432a4.835,4.835,0,0,1-3.438-1.432,4.834,4.834,0,0,1-1.432-3.438.858.858,0,0,1,.858-.858.858.858,0,0,1,.858.858,3.13,3.13,0,0,0,.929,2.225,3.13,3.13,0,0,0,2.225.929,3.13,3.13,0,0,0,2.225-.929,3.13,3.13,0,0,0,.929-2.225,4.834,4.834,0,0,1,1.432-3.438,4.834,4.834,0,0,1,3.438-1.432,4.834,4.834,0,0,1,3.438,1.432,4.834,4.834,0,0,1,1.432,3.438.858.858,0,0,1-.858.858.858.858,0,0,1-.858-.858,3.13,3.13,0,0,0-.929-2.225,3.13,3.13,0,0,0-2.225-.929,3.13,3.13,0,0,0-2.225.929,3.129,3.129,0,0,0-.929,2.225,4.834,4.834,0,0,1-1.432,3.438A4.834,4.834,0,0,1-3599.273,730.432Z" transform="translate(4312.379 -312.503)"/><path class="f" d="M-3599.273,730.432a4.835,4.835,0,0,1-3.438-1.432,4.834,4.834,0,0,1-1.432-3.438.858.858,0,0,1,.858-.858.858.858,0,0,1,.858.858,3.13,3.13,0,0,0,.929,2.225,3.13,3.13,0,0,0,2.225.929,3.13,3.13,0,0,0,2.225-.929,3.13,3.13,0,0,0,.929-2.225,4.834,4.834,0,0,1,1.432-3.438,4.834,4.834,0,0,1,3.438-1.432,4.834,4.834,0,0,1,3.438,1.432,4.834,4.834,0,0,1,1.432,3.438.858.858,0,0,1-.858.858.858.858,0,0,1-.858-.858,3.13,3.13,0,0,0-.929-2.225,3.13,3.13,0,0,0-2.225-.929,3.13,3.13,0,0,0-2.225.929,3.129,3.129,0,0,0-.929,2.225,4.834,4.834,0,0,1-1.432,3.438A4.834,4.834,0,0,1-3599.273,730.432Z" transform="translate(4328.379 -312.503)"/><path class="f" d="M-3599.273,730.432a4.835,4.835,0,0,1-3.438-1.432,4.834,4.834,0,0,1-1.432-3.438.858.858,0,0,1,.858-.858.858.858,0,0,1,.858.858,3.13,3.13,0,0,0,.929,2.225,3.13,3.13,0,0,0,2.225.929,3.13,3.13,0,0,0,2.225-.929,3.13,3.13,0,0,0,.929-2.225,4.834,4.834,0,0,1,1.432-3.438,4.834,4.834,0,0,1,3.438-1.432,4.834,4.834,0,0,1,3.438,1.432,4.834,4.834,0,0,1,1.432,3.438.858.858,0,0,1-.858.858.858.858,0,0,1-.858-.858,3.13,3.13,0,0,0-.929-2.225,3.13,3.13,0,0,0-2.225-.929,3.13,3.13,0,0,0-2.225.929,3.129,3.129,0,0,0-.929,2.225,4.834,4.834,0,0,1-1.432,3.438A4.834,4.834,0,0,1-3599.273,730.432Z" transform="translate(4344.379 -312.503)"/><path class="f" d="M-3599.273,730.432a4.835,4.835,0,0,1-3.438-1.432,4.834,4.834,0,0,1-1.432-3.438.858.858,0,0,1,.858-.858.858.858,0,0,1,.858.858,3.13,3.13,0,0,0,.929,2.225,3.13,3.13,0,0,0,2.225.929,3.13,3.13,0,0,0,2.225-.929,3.13,3.13,0,0,0,.929-2.225,4.834,4.834,0,0,1,1.432-3.438,4.834,4.834,0,0,1,3.438-1.432,4.834,4.834,0,0,1,3.438,1.432,4.834,4.834,0,0,1,1.432,3.438.858.858,0,0,1-.858.858.858.858,0,0,1-.858-.858,3.13,3.13,0,0,0-.929-2.225,3.13,3.13,0,0,0-2.225-.929,3.13,3.13,0,0,0-2.225.929,3.129,3.129,0,0,0-.929,2.225,4.834,4.834,0,0,1-1.432,3.438A4.834,4.834,0,0,1-3599.273,730.432Z" transform="translate(4360.379 -312.503)"/><path class="f" d="M-3599.273,730.432a4.835,4.835,0,0,1-3.438-1.432,4.834,4.834,0,0,1-1.432-3.438.858.858,0,0,1,.858-.858.858.858,0,0,1,.858.858,3.13,3.13,0,0,0,.929,2.225,3.13,3.13,0,0,0,2.225.929,3.13,3.13,0,0,0,2.225-.929,3.13,3.13,0,0,0,.929-2.225,4.834,4.834,0,0,1,1.432-3.438,4.834,4.834,0,0,1,3.438-1.432,4.834,4.834,0,0,1,3.438,1.432,4.834,4.834,0,0,1,1.432,3.438.858.858,0,0,1-.858.858.858.858,0,0,1-.858-.858,3.13,3.13,0,0,0-.929-2.225,3.13,3.13,0,0,0-2.225-.929,3.13,3.13,0,0,0-2.225.929,3.129,3.129,0,0,0-.929,2.225,4.834,4.834,0,0,1-1.432,3.438A4.834,4.834,0,0,1-3599.273,730.432Z" transform="translate(4376.379 -312.503)"/></g><g transform="translate(234 8930)"><path class="f" d="M-3599.273,730.432a4.835,4.835,0,0,1-3.438-1.432,4.834,4.834,0,0,1-1.432-3.438.858.858,0,0,1,.858-.858.858.858,0,0,1,.858.858,3.13,3.13,0,0,0,.929,2.225,3.13,3.13,0,0,0,2.225.929,3.13,3.13,0,0,0,2.225-.929,3.13,3.13,0,0,0,.929-2.225,4.834,4.834,0,0,1,1.432-3.438,4.834,4.834,0,0,1,3.438-1.432,4.834,4.834,0,0,1,3.438,1.432,4.834,4.834,0,0,1,1.432,3.438.858.858,0,0,1-.858.858.858.858,0,0,1-.858-.858,3.13,3.13,0,0,0-.929-2.225,3.13,3.13,0,0,0-2.225-.929,3.13,3.13,0,0,0-2.225.929,3.129,3.129,0,0,0-.929,2.225,4.834,4.834,0,0,1-1.432,3.438A4.834,4.834,0,0,1-3599.273,730.432Z" transform="translate(4421.379 -480.503)"/><path class="f" d="M-3599.273,730.432a4.835,4.835,0,0,1-3.438-1.432,4.834,4.834,0,0,1-1.432-3.438.858.858,0,0,1,.858-.858.858.858,0,0,1,.858.858,3.13,3.13,0,0,0,.929,2.225,3.13,3.13,0,0,0,2.225.929,3.13,3.13,0,0,0,2.225-.929,3.13,3.13,0,0,0,.929-2.225,4.834,4.834,0,0,1,1.432-3.438,4.834,4.834,0,0,1,3.438-1.432,4.834,4.834,0,0,1,3.438,1.432,4.834,4.834,0,0,1,1.432,3.438.858.858,0,0,1-.858.858.858.858,0,0,1-.858-.858,3.13,3.13,0,0,0-.929-2.225,3.13,3.13,0,0,0-2.225-.929,3.13,3.13,0,0,0-2.225.929,3.129,3.129,0,0,0-.929,2.225,4.834,4.834,0,0,1-1.432,3.438A4.834,4.834,0,0,1-3599.273,730.432Z" transform="translate(4437.379 -480.503)"/><path class="f" d="M-3599.273,730.432a4.835,4.835,0,0,1-3.438-1.432,4.834,4.834,0,0,1-1.432-3.438.858.858,0,0,1,.858-.858.858.858,0,0,1,.858.858,3.13,3.13,0,0,0,.929,2.225,3.13,3.13,0,0,0,2.225.929,3.13,3.13,0,0,0,2.225-.929,3.13,3.13,0,0,0,.929-2.225,4.834,4.834,0,0,1,1.432-3.438,4.834,4.834,0,0,1,3.438-1.432,4.834,4.834,0,0,1,3.438,1.432,4.834,4.834,0,0,1,1.432,3.438.858.858,0,0,1-.858.858.858.858,0,0,1-.858-.858,3.13,3.13,0,0,0-.929-2.225,3.13,3.13,0,0,0-2.225-.929,3.13,3.13,0,0,0-2.225.929,3.129,3.129,0,0,0-.929,2.225,4.834,4.834,0,0,1-1.432,3.438A4.834,4.834,0,0,1-3599.273,730.432Z" transform="translate(4453.379 -480.503)"/><path class="f" d="M-3599.273,730.432a4.835,4.835,0,0,1-3.438-1.432,4.834,4.834,0,0,1-1.432-3.438.858.858,0,0,1,.858-.858.858.858,0,0,1,.858.858,3.13,3.13,0,0,0,.929,2.225,3.13,3.13,0,0,0,2.225.929,3.13,3.13,0,0,0,2.225-.929,3.13,3.13,0,0,0,.929-2.225,4.834,4.834,0,0,1,1.432-3.438,4.834,4.834,0,0,1,3.438-1.432,4.834,4.834,0,0,1,3.438,1.432,4.834,4.834,0,0,1,1.432,3.438.858.858,0,0,1-.858.858.858.858,0,0,1-.858-.858,3.13,3.13,0,0,0-.929-2.225,3.13,3.13,0,0,0-2.225-.929,3.13,3.13,0,0,0-2.225.929,3.129,3.129,0,0,0-.929,2.225,4.834,4.834,0,0,1-1.432,3.438A4.834,4.834,0,0,1-3599.273,730.432Z" transform="translate(4469.379 -480.503)"/><path class="f" d="M-3599.273,730.432a4.835,4.835,0,0,1-3.438-1.432,4.834,4.834,0,0,1-1.432-3.438.858.858,0,0,1,.858-.858.858.858,0,0,1,.858.858,3.13,3.13,0,0,0,.929,2.225,3.13,3.13,0,0,0,2.225.929,3.13,3.13,0,0,0,2.225-.929,3.13,3.13,0,0,0,.929-2.225,4.834,4.834,0,0,1,1.432-3.438,4.834,4.834,0,0,1,3.438-1.432,4.834,4.834,0,0,1,3.438,1.432,4.834,4.834,0,0,1,1.432,3.438.858.858,0,0,1-.858.858.858.858,0,0,1-.858-.858,3.13,3.13,0,0,0-.929-2.225,3.13,3.13,0,0,0-2.225-.929,3.13,3.13,0,0,0-2.225.929,3.129,3.129,0,0,0-.929,2.225,4.834,4.834,0,0,1-1.432,3.438A4.834,4.834,0,0,1-3599.273,730.432Z" transform="translate(4485.379 -480.503)"/></g><g transform="translate(3031.545 8581.202)"><path class="f" d="M-1924.486,434.8a55.575,55.575,0,0,1-39.557-16.385,55.575,55.575,0,0,1-16.385-39.556,55.575,55.575,0,0,1,16.385-39.556,55.575,55.575,0,0,1,39.557-16.385,55.574,55.574,0,0,1,39.556,16.385,55.575,55.575,0,0,1,16.385,39.556,55.575,55.575,0,0,1-16.385,39.556A55.575,55.575,0,0,1-1924.486,434.8Zm0-92.173a36.272,36.272,0,0,0-36.231,36.231,36.272,36.272,0,0,0,36.231,36.231,36.272,36.272,0,0,0,36.231-36.231A36.272,36.272,0,0,0-1924.486,342.625Z" transform="translate(0)"/></g><g transform="translate(3319.427 8859.084)"><path class="f" d="M-1974.427,334.915a5.96,5.96,0,0,1-4.243-1.757,5.961,5.961,0,0,1-1.757-4.243,5.961,5.961,0,0,1,1.757-4.243,5.96,5.96,0,0,1,4.243-1.757,5.961,5.961,0,0,1,4.243,1.757,5.961,5.961,0,0,1,1.757,4.243,5.961,5.961,0,0,1-1.757,4.243A5.961,5.961,0,0,1-1974.427,334.915Zm0-9.886a3.89,3.89,0,0,0-3.886,3.886,3.89,3.89,0,0,0,3.886,3.886,3.89,3.89,0,0,0,3.886-3.886A3.89,3.89,0,0,0-1974.427,325.029Z" transform="translate(0)"/></g><g transform="translate(3146.427 9018.084)"><path class="f" d="M-1974.427,334.915a5.96,5.96,0,0,1-4.243-1.757,5.961,5.961,0,0,1-1.757-4.243,5.961,5.961,0,0,1,1.757-4.243,5.96,5.96,0,0,1,4.243-1.757,5.961,5.961,0,0,1,4.243,1.757,5.961,5.961,0,0,1,1.757,4.243,5.961,5.961,0,0,1-1.757,4.243A5.961,5.961,0,0,1-1974.427,334.915Zm0-9.886a3.89,3.89,0,0,0-3.886,3.886,3.89,3.89,0,0,0,3.886,3.886,3.89,3.89,0,0,0,3.886-3.886A3.89,3.89,0,0,0-1974.427,325.029Z" transform="translate(0)"/></g><g transform="translate(2286.427 8997.084)"><path class="f" d="M-1974.427,334.915a5.96,5.96,0,0,1-4.243-1.757,5.961,5.961,0,0,1-1.757-4.243,5.961,5.961,0,0,1,1.757-4.243,5.96,5.96,0,0,1,4.243-1.757,5.961,5.961,0,0,1,4.243,1.757,5.961,5.961,0,0,1,1.757,4.243,5.961,5.961,0,0,1-1.757,4.243A5.961,5.961,0,0,1-1974.427,334.915Zm0-9.886a3.89,3.89,0,0,0-3.886,3.886,3.89,3.89,0,0,0,3.886,3.886,3.89,3.89,0,0,0,3.886-3.886A3.89,3.89,0,0,0-1974.427,325.029Z" transform="translate(0)"/></g><g transform="translate(2652.427 8644.084)"><path class="f" d="M-1974.427,334.915a5.96,5.96,0,0,1-4.243-1.757,5.961,5.961,0,0,1-1.757-4.243,5.961,5.961,0,0,1,1.757-4.243,5.96,5.96,0,0,1,4.243-1.757,5.961,5.961,0,0,1,4.243,1.757,5.961,5.961,0,0,1,1.757,4.243,5.961,5.961,0,0,1-1.757,4.243A5.961,5.961,0,0,1-1974.427,334.915Zm0-9.886a3.89,3.89,0,0,0-3.886,3.886,3.89,3.89,0,0,0,3.886,3.886,3.89,3.89,0,0,0,3.886-3.886A3.89,3.89,0,0,0-1974.427,325.029Z" transform="translate(0)"/></g><circle class="f" cx="5" cy="5" r="5" transform="translate(333 9011)"/><g transform="translate(357.914 9269.118)"><path class="f" d="M-486.384,315.6a36.173,36.173,0,0,1-25.726-10.715,36.173,36.173,0,0,1-10.715-25.726,36.173,36.173,0,0,1,10.715-25.726,36.173,36.173,0,0,1,25.726-10.715,6.42,6.42,0,0,1,6.42,6.42,6.419,6.419,0,0,1-6.42,6.42,23.419,23.419,0,0,0-16.647,6.954,23.419,23.419,0,0,0-6.954,16.647,23.419,23.419,0,0,0,6.954,16.647,23.419,23.419,0,0,0,16.647,6.954,23.419,23.419,0,0,0,16.647-6.954,23.419,23.419,0,0,0,6.954-16.647,6.42,6.42,0,0,1,6.42-6.42,6.42,6.42,0,0,1,6.42,6.42,36.173,36.173,0,0,1-10.715,25.726A36.173,36.173,0,0,1-486.384,315.6Z" transform="translate(522.824 -242.718)"/></g><g transform="translate(563.914 8911.999)"><path class="f" d="M-500.764,242.718a21.9,21.9,0,0,1,15.573,6.486,21.9,21.9,0,0,1,6.486,15.573,21.9,21.9,0,0,1-6.486,15.573,21.9,21.9,0,0,1-15.573,6.486,3.886,3.886,0,0,1-3.886-3.886,3.886,3.886,0,0,1,3.886-3.886,14.177,14.177,0,0,0,10.077-4.21,14.177,14.177,0,0,0,4.21-10.078,14.176,14.176,0,0,0-4.21-10.077,14.177,14.177,0,0,0-10.077-4.21,14.177,14.177,0,0,0-10.077,4.21,14.177,14.177,0,0,0-4.21,10.077,3.886,3.886,0,0,1-3.886,3.886,3.886,3.886,0,0,1-3.886-3.886,21.9,21.9,0,0,1,6.486-15.573A21.9,21.9,0,0,1-500.764,242.718Z" transform="translate(522.824 -242.718)"/></g><g transform="translate(221.884 8903.676)"><path class="f" d="M-1409.929,526.291a14.456,14.456,0,0,1-14.456-14.456,14.456,14.456,0,0,1,14.456-14.456,53.516,53.516,0,0,0,37.58-15.566,53.517,53.517,0,0,0,15.566-37.58,14.456,14.456,0,0,1,14.456-14.456,14.456,14.456,0,0,1,14.456,14.456,81.65,81.65,0,0,1-6.248,31.4,81.652,81.652,0,0,1-17.786,26.622,81.646,81.646,0,0,1-26.622,17.786A81.645,81.645,0,0,1-1409.929,526.291Z" transform="translate(1424.385 -429.777)"/></g><g transform="translate(1401.884 9120.965)"><path class="f" d="M-1312.976,560.813a19.626,19.626,0,0,0,19.626-19.626,19.626,19.626,0,0,0-19.626-19.626A72.658,72.658,0,0,1-1364,500.426a72.661,72.661,0,0,1-21.133-51.022,19.627,19.627,0,0,0-19.627-19.627,19.626,19.626,0,0,0-19.626,19.627,110.852,110.852,0,0,0,8.483,42.634,110.859,110.859,0,0,0,24.148,36.145,110.853,110.853,0,0,0,36.145,24.148A110.847,110.847,0,0,0-1312.976,560.813Z" transform="translate(1424.385 -429.777)"/></g><g transform="translate(610.884 9232.676)"><path class="f" d="M-1402.048,456.049a3.935,3.935,0,0,0,3.935-3.935,3.935,3.935,0,0,0-3.935-3.935,14.568,14.568,0,0,1-10.23-4.237,14.568,14.568,0,0,1-4.237-10.23,3.935,3.935,0,0,0-3.935-3.935,3.935,3.935,0,0,0-3.935,3.935,22.222,22.222,0,0,0,1.7,8.548,22.225,22.225,0,0,0,4.841,7.247,22.228,22.228,0,0,0,7.247,4.842A22.225,22.225,0,0,0-1402.048,456.049Z" transform="translate(1424.385 -429.777)"/></g><g transform="translate(2362.44 8073.941)"><path class="f" d="M-1389.7,1066.062a4.685,4.685,0,0,1-4.685-4.685,4.685,4.685,0,0,1,4.685-4.685,83.524,83.524,0,0,0,58.654-24.3,83.524,83.524,0,0,0,24.3-58.654,4.685,4.685,0,0,1,4.685-4.685,4.685,4.685,0,0,1,4.685,4.685,91.855,91.855,0,0,1-7.03,35.328,91.854,91.854,0,0,1-20.01,29.951,91.861,91.861,0,0,1-29.952,20.01A91.864,91.864,0,0,1-1389.7,1066.062Z" transform="translate(0)"/></g><g transform="translate(819.78 8933.601) rotate(180)"><path class="g" d="M-973.409,489.378a50.3,50.3,0,0,1-35.774-14.9,50.3,50.3,0,0,1-14.9-35.774,8.927,8.927,0,0,1,8.927-8.927,8.927,8.927,0,0,1,8.927,8.927,32.565,32.565,0,0,0,9.671,23.149,32.566,32.566,0,0,0,23.149,9.671,32.566,32.566,0,0,0,23.149-9.671A32.565,32.565,0,0,0-940.59,438.7a8.927,8.927,0,0,1,8.927-8.927,8.927,8.927,0,0,1,8.927,8.927,50.3,50.3,0,0,1-14.9,35.774A50.3,50.3,0,0,1-973.409,489.378Z" transform="translate(1024.083 -429.777)"/></g><g transform="translate(279 8888)"><path class="g" d="M-3599.273,730.432a4.835,4.835,0,0,1-3.438-1.432,4.834,4.834,0,0,1-1.432-3.438.858.858,0,0,1,.858-.858.858.858,0,0,1,.858.858,3.13,3.13,0,0,0,.929,2.225,3.13,3.13,0,0,0,2.225.929,3.13,3.13,0,0,0,2.225-.929,3.13,3.13,0,0,0,.929-2.225,4.834,4.834,0,0,1,1.432-3.438,4.834,4.834,0,0,1,3.438-1.432,4.834,4.834,0,0,1,3.438,1.432,4.834,4.834,0,0,1,1.432,3.438.858.858,0,0,1-.858.858.858.858,0,0,1-.858-.858,3.13,3.13,0,0,0-.929-2.225,3.13,3.13,0,0,0-2.225-.929,3.13,3.13,0,0,0-2.225.929,3.129,3.129,0,0,0-.929,2.225,4.834,4.834,0,0,1-1.432,3.438A4.834,4.834,0,0,1-3599.273,730.432Z" transform="translate(3911.379 -276.503)"/><path class="g" d="M-3599.273,730.432a4.835,4.835,0,0,1-3.438-1.432,4.834,4.834,0,0,1-1.432-3.438.858.858,0,0,1,.858-.858.858.858,0,0,1,.858.858,3.13,3.13,0,0,0,.929,2.225,3.13,3.13,0,0,0,2.225.929,3.13,3.13,0,0,0,2.225-.929,3.13,3.13,0,0,0,.929-2.225,4.834,4.834,0,0,1,1.432-3.438,4.834,4.834,0,0,1,3.438-1.432,4.834,4.834,0,0,1,3.438,1.432,4.834,4.834,0,0,1,1.432,3.438.858.858,0,0,1-.858.858.858.858,0,0,1-.858-.858,3.13,3.13,0,0,0-.929-2.225,3.13,3.13,0,0,0-2.225-.929,3.13,3.13,0,0,0-2.225.929,3.129,3.129,0,0,0-.929,2.225,4.834,4.834,0,0,1-1.432,3.438A4.834,4.834,0,0,1-3599.273,730.432Z" transform="translate(3927.379 -276.503)"/><path class="g" d="M-3599.273,730.432a4.835,4.835,0,0,1-3.438-1.432,4.834,4.834,0,0,1-1.432-3.438.858.858,0,0,1,.858-.858.858.858,0,0,1,.858.858,3.13,3.13,0,0,0,.929,2.225,3.13,3.13,0,0,0,2.225.929,3.13,3.13,0,0,0,2.225-.929,3.13,3.13,0,0,0,.929-2.225,4.834,4.834,0,0,1,1.432-3.438,4.834,4.834,0,0,1,3.438-1.432,4.834,4.834,0,0,1,3.438,1.432,4.834,4.834,0,0,1,1.432,3.438.858.858,0,0,1-.858.858.858.858,0,0,1-.858-.858,3.13,3.13,0,0,0-.929-2.225,3.13,3.13,0,0,0-2.225-.929,3.13,3.13,0,0,0-2.225.929,3.129,3.129,0,0,0-.929,2.225,4.834,4.834,0,0,1-1.432,3.438A4.834,4.834,0,0,1-3599.273,730.432Z" transform="translate(3943.379 -276.503)"/></g><g transform="translate(-97 8598)"><path class="g" d="M-3599.273,730.432a4.835,4.835,0,0,1-3.438-1.432,4.834,4.834,0,0,1-1.432-3.438.858.858,0,0,1,.858-.858.858.858,0,0,1,.858.858,3.13,3.13,0,0,0,.929,2.225,3.13,3.13,0,0,0,2.225.929,3.13,3.13,0,0,0,2.225-.929,3.13,3.13,0,0,0,.929-2.225,4.834,4.834,0,0,1,1.432-3.438,4.834,4.834,0,0,1,3.438-1.432,4.834,4.834,0,0,1,3.438,1.432,4.834,4.834,0,0,1,1.432,3.438.858.858,0,0,1-.858.858.858.858,0,0,1-.858-.858,3.13,3.13,0,0,0-.929-2.225,3.13,3.13,0,0,0-2.225-.929,3.13,3.13,0,0,0-2.225.929,3.129,3.129,0,0,0-.929,2.225,4.834,4.834,0,0,1-1.432,3.438A4.834,4.834,0,0,1-3599.273,730.432Z" transform="translate(3911.379 -276.503)"/><path class="g" d="M-3599.273,730.432a4.835,4.835,0,0,1-3.438-1.432,4.834,4.834,0,0,1-1.432-3.438.858.858,0,0,1,.858-.858.858.858,0,0,1,.858.858,3.13,3.13,0,0,0,.929,2.225,3.13,3.13,0,0,0,2.225.929,3.13,3.13,0,0,0,2.225-.929,3.13,3.13,0,0,0,.929-2.225,4.834,4.834,0,0,1,1.432-3.438,4.834,4.834,0,0,1,3.438-1.432,4.834,4.834,0,0,1,3.438,1.432,4.834,4.834,0,0,1,1.432,3.438.858.858,0,0,1-.858.858.858.858,0,0,1-.858-.858,3.13,3.13,0,0,0-.929-2.225,3.13,3.13,0,0,0-2.225-.929,3.13,3.13,0,0,0-2.225.929,3.129,3.129,0,0,0-.929,2.225,4.834,4.834,0,0,1-1.432,3.438A4.834,4.834,0,0,1-3599.273,730.432Z" transform="translate(3927.379 -276.503)"/><path class="g" d="M-3599.273,730.432a4.835,4.835,0,0,1-3.438-1.432,4.834,4.834,0,0,1-1.432-3.438.858.858,0,0,1,.858-.858.858.858,0,0,1,.858.858,3.13,3.13,0,0,0,.929,2.225,3.13,3.13,0,0,0,2.225.929,3.13,3.13,0,0,0,2.225-.929,3.13,3.13,0,0,0,.929-2.225,4.834,4.834,0,0,1,1.432-3.438,4.834,4.834,0,0,1,3.438-1.432,4.834,4.834,0,0,1,3.438,1.432,4.834,4.834,0,0,1,1.432,3.438.858.858,0,0,1-.858.858.858.858,0,0,1-.858-.858,3.13,3.13,0,0,0-.929-2.225,3.13,3.13,0,0,0-2.225-.929,3.13,3.13,0,0,0-2.225.929,3.129,3.129,0,0,0-.929,2.225,4.834,4.834,0,0,1-1.432,3.438A4.834,4.834,0,0,1-3599.273,730.432Z" transform="translate(3943.379 -276.503)"/></g><g transform="translate(665 8766)"><path class="g" d="M-3599.273,730.432a4.835,4.835,0,0,1-3.438-1.432,4.834,4.834,0,0,1-1.432-3.438.858.858,0,0,1,.858-.858.858.858,0,0,1,.858.858,3.13,3.13,0,0,0,.929,2.225,3.13,3.13,0,0,0,2.225.929,3.13,3.13,0,0,0,2.225-.929,3.13,3.13,0,0,0,.929-2.225,4.834,4.834,0,0,1,1.432-3.438,4.834,4.834,0,0,1,3.438-1.432,4.834,4.834,0,0,1,3.438,1.432,4.834,4.834,0,0,1,1.432,3.438.858.858,0,0,1-.858.858.858.858,0,0,1-.858-.858,3.13,3.13,0,0,0-.929-2.225,3.13,3.13,0,0,0-2.225-.929,3.13,3.13,0,0,0-2.225.929,3.129,3.129,0,0,0-.929,2.225,4.834,4.834,0,0,1-1.432,3.438A4.834,4.834,0,0,1-3599.273,730.432Z" transform="translate(3778.379 -516.503)"/><path class="g" d="M-3599.273,730.432a4.835,4.835,0,0,1-3.438-1.432,4.834,4.834,0,0,1-1.432-3.438.858.858,0,0,1,.858-.858.858.858,0,0,1,.858.858,3.13,3.13,0,0,0,.929,2.225,3.13,3.13,0,0,0,2.225.929,3.13,3.13,0,0,0,2.225-.929,3.13,3.13,0,0,0,.929-2.225,4.834,4.834,0,0,1,1.432-3.438,4.834,4.834,0,0,1,3.438-1.432,4.834,4.834,0,0,1,3.438,1.432,4.834,4.834,0,0,1,1.432,3.438.858.858,0,0,1-.858.858.858.858,0,0,1-.858-.858,3.13,3.13,0,0,0-.929-2.225,3.13,3.13,0,0,0-2.225-.929,3.13,3.13,0,0,0-2.225.929,3.129,3.129,0,0,0-.929,2.225,4.834,4.834,0,0,1-1.432,3.438A4.834,4.834,0,0,1-3599.273,730.432Z" transform="translate(3794.379 -516.503)"/><path class="g" d="M-3599.273,730.432a4.835,4.835,0,0,1-3.438-1.432,4.834,4.834,0,0,1-1.432-3.438.858.858,0,0,1,.858-.858.858.858,0,0,1,.858.858,3.13,3.13,0,0,0,.929,2.225,3.13,3.13,0,0,0,2.225.929,3.13,3.13,0,0,0,2.225-.929,3.13,3.13,0,0,0,.929-2.225,4.834,4.834,0,0,1,1.432-3.438,4.834,4.834,0,0,1,3.438-1.432,4.834,4.834,0,0,1,3.438,1.432,4.834,4.834,0,0,1,1.432,3.438.858.858,0,0,1-.858.858.858.858,0,0,1-.858-.858,3.13,3.13,0,0,0-.929-2.225,3.13,3.13,0,0,0-2.225-.929,3.13,3.13,0,0,0-2.225.929,3.129,3.129,0,0,0-.929,2.225,4.834,4.834,0,0,1-1.432,3.438A4.834,4.834,0,0,1-3599.273,730.432Z" transform="translate(3810.379 -516.503)"/><path class="g" d="M-3599.273,730.432a4.835,4.835,0,0,1-3.438-1.432,4.834,4.834,0,0,1-1.432-3.438.858.858,0,0,1,.858-.858.858.858,0,0,1,.858.858,3.13,3.13,0,0,0,.929,2.225,3.13,3.13,0,0,0,2.225.929,3.13,3.13,0,0,0,2.225-.929,3.13,3.13,0,0,0,.929-2.225,4.834,4.834,0,0,1,1.432-3.438,4.834,4.834,0,0,1,3.438-1.432,4.834,4.834,0,0,1,3.438,1.432,4.834,4.834,0,0,1,1.432,3.438.858.858,0,0,1-.858.858.858.858,0,0,1-.858-.858,3.13,3.13,0,0,0-.929-2.225,3.13,3.13,0,0,0-2.225-.929,3.13,3.13,0,0,0-2.225.929,3.129,3.129,0,0,0-.929,2.225,4.834,4.834,0,0,1-1.432,3.438A4.834,4.834,0,0,1-3599.273,730.432Z" transform="translate(3826.379 -516.503)"/><path class="g" d="M-3599.273,730.432a4.835,4.835,0,0,1-3.438-1.432,4.834,4.834,0,0,1-1.432-3.438.858.858,0,0,1,.858-.858.858.858,0,0,1,.858.858,3.13,3.13,0,0,0,.929,2.225,3.13,3.13,0,0,0,2.225.929,3.13,3.13,0,0,0,2.225-.929,3.13,3.13,0,0,0,.929-2.225,4.834,4.834,0,0,1,1.432-3.438,4.834,4.834,0,0,1,3.438-1.432,4.834,4.834,0,0,1,3.438,1.432,4.834,4.834,0,0,1,1.432,3.438.858.858,0,0,1-.858.858.858.858,0,0,1-.858-.858,3.13,3.13,0,0,0-.929-2.225,3.13,3.13,0,0,0-2.225-.929,3.13,3.13,0,0,0-2.225.929,3.129,3.129,0,0,0-.929,2.225,4.834,4.834,0,0,1-1.432,3.438A4.834,4.834,0,0,1-3599.273,730.432Z" transform="translate(3842.379 -516.503)"/><path class="g" d="M-3599.273,730.432a4.835,4.835,0,0,1-3.438-1.432,4.834,4.834,0,0,1-1.432-3.438.858.858,0,0,1,.858-.858.858.858,0,0,1,.858.858,3.13,3.13,0,0,0,.929,2.225,3.13,3.13,0,0,0,2.225.929,3.13,3.13,0,0,0,2.225-.929,3.13,3.13,0,0,0,.929-2.225,4.834,4.834,0,0,1,1.432-3.438,4.834,4.834,0,0,1,3.438-1.432,4.834,4.834,0,0,1,3.438,1.432,4.834,4.834,0,0,1,1.432,3.438.858.858,0,0,1-.858.858.858.858,0,0,1-.858-.858,3.13,3.13,0,0,0-.929-2.225,3.13,3.13,0,0,0-2.225-.929,3.13,3.13,0,0,0-2.225.929,3.129,3.129,0,0,0-.929,2.225,4.834,4.834,0,0,1-1.432,3.438A4.834,4.834,0,0,1-3599.273,730.432Z" transform="translate(3858.379 -516.503)"/><path class="g" d="M-3599.273,730.432a4.835,4.835,0,0,1-3.438-1.432,4.834,4.834,0,0,1-1.432-3.438.858.858,0,0,1,.858-.858.858.858,0,0,1,.858.858,3.13,3.13,0,0,0,.929,2.225,3.13,3.13,0,0,0,2.225.929,3.13,3.13,0,0,0,2.225-.929,3.13,3.13,0,0,0,.929-2.225,4.834,4.834,0,0,1,1.432-3.438,4.834,4.834,0,0,1,3.438-1.432,4.834,4.834,0,0,1,3.438,1.432,4.834,4.834,0,0,1,1.432,3.438.858.858,0,0,1-.858.858.858.858,0,0,1-.858-.858,3.13,3.13,0,0,0-.929-2.225,3.13,3.13,0,0,0-2.225-.929,3.13,3.13,0,0,0-2.225.929,3.129,3.129,0,0,0-.929,2.225,4.834,4.834,0,0,1-1.432,3.438A4.834,4.834,0,0,1-3599.273,730.432Z" transform="translate(3874.379 -516.503)"/><path class="g" d="M-3599.273,730.432a4.835,4.835,0,0,1-3.438-1.432,4.834,4.834,0,0,1-1.432-3.438.858.858,0,0,1,.858-.858.858.858,0,0,1,.858.858,3.13,3.13,0,0,0,.929,2.225,3.13,3.13,0,0,0,2.225.929,3.13,3.13,0,0,0,2.225-.929,3.13,3.13,0,0,0,.929-2.225,4.834,4.834,0,0,1,1.432-3.438,4.834,4.834,0,0,1,3.438-1.432,4.834,4.834,0,0,1,3.438,1.432,4.834,4.834,0,0,1,1.432,3.438.858.858,0,0,1-.858.858.858.858,0,0,1-.858-.858,3.13,3.13,0,0,0-.929-2.225,3.13,3.13,0,0,0-2.225-.929,3.13,3.13,0,0,0-2.225.929,3.129,3.129,0,0,0-.929,2.225,4.834,4.834,0,0,1-1.432,3.438A4.834,4.834,0,0,1-3599.273,730.432Z" transform="translate(3890.379 -516.503)"/><path class="g" d="M-3599.273,730.432a4.835,4.835,0,0,1-3.438-1.432,4.834,4.834,0,0,1-1.432-3.438.858.858,0,0,1,.858-.858.858.858,0,0,1,.858.858,3.13,3.13,0,0,0,.929,2.225,3.13,3.13,0,0,0,2.225.929,3.13,3.13,0,0,0,2.225-.929,3.13,3.13,0,0,0,.929-2.225,4.834,4.834,0,0,1,1.432-3.438,4.834,4.834,0,0,1,3.438-1.432,4.834,4.834,0,0,1,3.438,1.432,4.834,4.834,0,0,1,1.432,3.438.858.858,0,0,1-.858.858.858.858,0,0,1-.858-.858,3.13,3.13,0,0,0-.929-2.225,3.13,3.13,0,0,0-2.225-.929,3.13,3.13,0,0,0-2.225.929,3.129,3.129,0,0,0-.929,2.225,4.834,4.834,0,0,1-1.432,3.438A4.834,4.834,0,0,1-3599.273,730.432Z" transform="translate(3906.379 -516.503)"/><path class="g" d="M-3599.273,730.432a4.835,4.835,0,0,1-3.438-1.432,4.834,4.834,0,0,1-1.432-3.438.858.858,0,0,1,.858-.858.858.858,0,0,1,.858.858,3.13,3.13,0,0,0,.929,2.225,3.13,3.13,0,0,0,2.225.929,3.13,3.13,0,0,0,2.225-.929,3.13,3.13,0,0,0,.929-2.225,4.834,4.834,0,0,1,1.432-3.438,4.834,4.834,0,0,1,3.438-1.432,4.834,4.834,0,0,1,3.438,1.432,4.834,4.834,0,0,1,1.432,3.438.858.858,0,0,1-.858.858.858.858,0,0,1-.858-.858,3.13,3.13,0,0,0-.929-2.225,3.13,3.13,0,0,0-2.225-.929,3.13,3.13,0,0,0-2.225.929,3.129,3.129,0,0,0-.929,2.225,4.834,4.834,0,0,1-1.432,3.438A4.834,4.834,0,0,1-3599.273,730.432Z" transform="translate(3922.379 -516.503)"/><path class="g" d="M-3599.273,730.432a4.835,4.835,0,0,1-3.438-1.432,4.834,4.834,0,0,1-1.432-3.438.858.858,0,0,1,.858-.858.858.858,0,0,1,.858.858,3.13,3.13,0,0,0,.929,2.225,3.13,3.13,0,0,0,2.225.929,3.13,3.13,0,0,0,2.225-.929,3.13,3.13,0,0,0,.929-2.225,4.834,4.834,0,0,1,1.432-3.438,4.834,4.834,0,0,1,3.438-1.432,4.834,4.834,0,0,1,3.438,1.432,4.834,4.834,0,0,1,1.432,3.438.858.858,0,0,1-.858.858.858.858,0,0,1-.858-.858,3.13,3.13,0,0,0-.929-2.225,3.13,3.13,0,0,0-2.225-.929,3.13,3.13,0,0,0-2.225.929,3.129,3.129,0,0,0-.929,2.225,4.834,4.834,0,0,1-1.432,3.438A4.834,4.834,0,0,1-3599.273,730.432Z" transform="translate(3938.379 -516.503)"/></g><g transform="translate(1120 8802)"><path class="g" d="M-3599.273,730.432a4.835,4.835,0,0,1-3.438-1.432,4.834,4.834,0,0,1-1.432-3.438.858.858,0,0,1,.858-.858.858.858,0,0,1,.858.858,3.13,3.13,0,0,0,.929,2.225,3.13,3.13,0,0,0,2.225.929,3.13,3.13,0,0,0,2.225-.929,3.13,3.13,0,0,0,.929-2.225,4.834,4.834,0,0,1,1.432-3.438,4.834,4.834,0,0,1,3.438-1.432,4.834,4.834,0,0,1,3.438,1.432,4.834,4.834,0,0,1,1.432,3.438.858.858,0,0,1-.858.858.858.858,0,0,1-.858-.858,3.13,3.13,0,0,0-.929-2.225,3.13,3.13,0,0,0-2.225-.929,3.13,3.13,0,0,0-2.225.929,3.129,3.129,0,0,0-.929,2.225,4.834,4.834,0,0,1-1.432,3.438A4.834,4.834,0,0,1-3599.273,730.432Z" transform="translate(3778.379 -516.503)"/><path class="g" d="M-3599.273,730.432a4.835,4.835,0,0,1-3.438-1.432,4.834,4.834,0,0,1-1.432-3.438.858.858,0,0,1,.858-.858.858.858,0,0,1,.858.858,3.13,3.13,0,0,0,.929,2.225,3.13,3.13,0,0,0,2.225.929,3.13,3.13,0,0,0,2.225-.929,3.13,3.13,0,0,0,.929-2.225,4.834,4.834,0,0,1,1.432-3.438,4.834,4.834,0,0,1,3.438-1.432,4.834,4.834,0,0,1,3.438,1.432,4.834,4.834,0,0,1,1.432,3.438.858.858,0,0,1-.858.858.858.858,0,0,1-.858-.858,3.13,3.13,0,0,0-.929-2.225,3.13,3.13,0,0,0-2.225-.929,3.13,3.13,0,0,0-2.225.929,3.129,3.129,0,0,0-.929,2.225,4.834,4.834,0,0,1-1.432,3.438A4.834,4.834,0,0,1-3599.273,730.432Z" transform="translate(3794.379 -516.503)"/><path class="g" d="M-3599.273,730.432a4.835,4.835,0,0,1-3.438-1.432,4.834,4.834,0,0,1-1.432-3.438.858.858,0,0,1,.858-.858.858.858,0,0,1,.858.858,3.13,3.13,0,0,0,.929,2.225,3.13,3.13,0,0,0,2.225.929,3.13,3.13,0,0,0,2.225-.929,3.13,3.13,0,0,0,.929-2.225,4.834,4.834,0,0,1,1.432-3.438,4.834,4.834,0,0,1,3.438-1.432,4.834,4.834,0,0,1,3.438,1.432,4.834,4.834,0,0,1,1.432,3.438.858.858,0,0,1-.858.858.858.858,0,0,1-.858-.858,3.13,3.13,0,0,0-.929-2.225,3.13,3.13,0,0,0-2.225-.929,3.13,3.13,0,0,0-2.225.929,3.129,3.129,0,0,0-.929,2.225,4.834,4.834,0,0,1-1.432,3.438A4.834,4.834,0,0,1-3599.273,730.432Z" transform="translate(3810.379 -516.503)"/><path class="g" d="M-3599.273,730.432a4.835,4.835,0,0,1-3.438-1.432,4.834,4.834,0,0,1-1.432-3.438.858.858,0,0,1,.858-.858.858.858,0,0,1,.858.858,3.13,3.13,0,0,0,.929,2.225,3.13,3.13,0,0,0,2.225.929,3.13,3.13,0,0,0,2.225-.929,3.13,3.13,0,0,0,.929-2.225,4.834,4.834,0,0,1,1.432-3.438,4.834,4.834,0,0,1,3.438-1.432,4.834,4.834,0,0,1,3.438,1.432,4.834,4.834,0,0,1,1.432,3.438.858.858,0,0,1-.858.858.858.858,0,0,1-.858-.858,3.13,3.13,0,0,0-.929-2.225,3.13,3.13,0,0,0-2.225-.929,3.13,3.13,0,0,0-2.225.929,3.129,3.129,0,0,0-.929,2.225,4.834,4.834,0,0,1-1.432,3.438A4.834,4.834,0,0,1-3599.273,730.432Z" transform="translate(3826.379 -516.503)"/><path class="g" d="M-3599.273,730.432a4.835,4.835,0,0,1-3.438-1.432,4.834,4.834,0,0,1-1.432-3.438.858.858,0,0,1,.858-.858.858.858,0,0,1,.858.858,3.13,3.13,0,0,0,.929,2.225,3.13,3.13,0,0,0,2.225.929,3.13,3.13,0,0,0,2.225-.929,3.13,3.13,0,0,0,.929-2.225,4.834,4.834,0,0,1,1.432-3.438,4.834,4.834,0,0,1,3.438-1.432,4.834,4.834,0,0,1,3.438,1.432,4.834,4.834,0,0,1,1.432,3.438.858.858,0,0,1-.858.858.858.858,0,0,1-.858-.858,3.13,3.13,0,0,0-.929-2.225,3.13,3.13,0,0,0-2.225-.929,3.13,3.13,0,0,0-2.225.929,3.129,3.129,0,0,0-.929,2.225,4.834,4.834,0,0,1-1.432,3.438A4.834,4.834,0,0,1-3599.273,730.432Z" transform="translate(3842.379 -516.503)"/><path class="g" d="M-3599.273,730.432a4.835,4.835,0,0,1-3.438-1.432,4.834,4.834,0,0,1-1.432-3.438.858.858,0,0,1,.858-.858.858.858,0,0,1,.858.858,3.13,3.13,0,0,0,.929,2.225,3.13,3.13,0,0,0,2.225.929,3.13,3.13,0,0,0,2.225-.929,3.13,3.13,0,0,0,.929-2.225,4.834,4.834,0,0,1,1.432-3.438,4.834,4.834,0,0,1,3.438-1.432,4.834,4.834,0,0,1,3.438,1.432,4.834,4.834,0,0,1,1.432,3.438.858.858,0,0,1-.858.858.858.858,0,0,1-.858-.858,3.13,3.13,0,0,0-.929-2.225,3.13,3.13,0,0,0-2.225-.929,3.13,3.13,0,0,0-2.225.929,3.129,3.129,0,0,0-.929,2.225,4.834,4.834,0,0,1-1.432,3.438A4.834,4.834,0,0,1-3599.273,730.432Z" transform="translate(3858.379 -516.503)"/><path class="g" d="M-3599.273,730.432a4.835,4.835,0,0,1-3.438-1.432,4.834,4.834,0,0,1-1.432-3.438.858.858,0,0,1,.858-.858.858.858,0,0,1,.858.858,3.13,3.13,0,0,0,.929,2.225,3.13,3.13,0,0,0,2.225.929,3.13,3.13,0,0,0,2.225-.929,3.13,3.13,0,0,0,.929-2.225,4.834,4.834,0,0,1,1.432-3.438,4.834,4.834,0,0,1,3.438-1.432,4.834,4.834,0,0,1,3.438,1.432,4.834,4.834,0,0,1,1.432,3.438.858.858,0,0,1-.858.858.858.858,0,0,1-.858-.858,3.13,3.13,0,0,0-.929-2.225,3.13,3.13,0,0,0-2.225-.929,3.13,3.13,0,0,0-2.225.929,3.129,3.129,0,0,0-.929,2.225,4.834,4.834,0,0,1-1.432,3.438A4.834,4.834,0,0,1-3599.273,730.432Z" transform="translate(3874.379 -516.503)"/><path class="g" d="M-3599.273,730.432a4.835,4.835,0,0,1-3.438-1.432,4.834,4.834,0,0,1-1.432-3.438.858.858,0,0,1,.858-.858.858.858,0,0,1,.858.858,3.13,3.13,0,0,0,.929,2.225,3.13,3.13,0,0,0,2.225.929,3.13,3.13,0,0,0,2.225-.929,3.13,3.13,0,0,0,.929-2.225,4.834,4.834,0,0,1,1.432-3.438,4.834,4.834,0,0,1,3.438-1.432,4.834,4.834,0,0,1,3.438,1.432,4.834,4.834,0,0,1,1.432,3.438.858.858,0,0,1-.858.858.858.858,0,0,1-.858-.858,3.13,3.13,0,0,0-.929-2.225,3.13,3.13,0,0,0-2.225-.929,3.13,3.13,0,0,0-2.225.929,3.129,3.129,0,0,0-.929,2.225,4.834,4.834,0,0,1-1.432,3.438A4.834,4.834,0,0,1-3599.273,730.432Z" transform="translate(3890.379 -516.503)"/><path class="g" d="M-3599.273,730.432a4.835,4.835,0,0,1-3.438-1.432,4.834,4.834,0,0,1-1.432-3.438.858.858,0,0,1,.858-.858.858.858,0,0,1,.858.858,3.13,3.13,0,0,0,.929,2.225,3.13,3.13,0,0,0,2.225.929,3.13,3.13,0,0,0,2.225-.929,3.13,3.13,0,0,0,.929-2.225,4.834,4.834,0,0,1,1.432-3.438,4.834,4.834,0,0,1,3.438-1.432,4.834,4.834,0,0,1,3.438,1.432,4.834,4.834,0,0,1,1.432,3.438.858.858,0,0,1-.858.858.858.858,0,0,1-.858-.858,3.13,3.13,0,0,0-.929-2.225,3.13,3.13,0,0,0-2.225-.929,3.13,3.13,0,0,0-2.225.929,3.129,3.129,0,0,0-.929,2.225,4.834,4.834,0,0,1-1.432,3.438A4.834,4.834,0,0,1-3599.273,730.432Z" transform="translate(3906.379 -516.503)"/><path class="g" d="M-3599.273,730.432a4.835,4.835,0,0,1-3.438-1.432,4.834,4.834,0,0,1-1.432-3.438.858.858,0,0,1,.858-.858.858.858,0,0,1,.858.858,3.13,3.13,0,0,0,.929,2.225,3.13,3.13,0,0,0,2.225.929,3.13,3.13,0,0,0,2.225-.929,3.13,3.13,0,0,0,.929-2.225,4.834,4.834,0,0,1,1.432-3.438,4.834,4.834,0,0,1,3.438-1.432,4.834,4.834,0,0,1,3.438,1.432,4.834,4.834,0,0,1,1.432,3.438.858.858,0,0,1-.858.858.858.858,0,0,1-.858-.858,3.13,3.13,0,0,0-.929-2.225,3.13,3.13,0,0,0-2.225-.929,3.13,3.13,0,0,0-2.225.929,3.129,3.129,0,0,0-.929,2.225,4.834,4.834,0,0,1-1.432,3.438A4.834,4.834,0,0,1-3599.273,730.432Z" transform="translate(3922.379 -516.503)"/><path class="g" d="M-3599.273,730.432a4.835,4.835,0,0,1-3.438-1.432,4.834,4.834,0,0,1-1.432-3.438.858.858,0,0,1,.858-.858.858.858,0,0,1,.858.858,3.13,3.13,0,0,0,.929,2.225,3.13,3.13,0,0,0,2.225.929,3.13,3.13,0,0,0,2.225-.929,3.13,3.13,0,0,0,.929-2.225,4.834,4.834,0,0,1,1.432-3.438,4.834,4.834,0,0,1,3.438-1.432,4.834,4.834,0,0,1,3.438,1.432,4.834,4.834,0,0,1,1.432,3.438.858.858,0,0,1-.858.858.858.858,0,0,1-.858-.858,3.13,3.13,0,0,0-.929-2.225,3.13,3.13,0,0,0-2.225-.929,3.13,3.13,0,0,0-2.225.929,3.129,3.129,0,0,0-.929,2.225,4.834,4.834,0,0,1-1.432,3.438A4.834,4.834,0,0,1-3599.273,730.432Z" transform="translate(3938.379 -516.503)"/></g><path class="g" d="M-1000.439,457.586a23.47,23.47,0,0,1-16.692-6.952,23.47,23.47,0,0,1-6.952-16.692,4.165,4.165,0,0,1,4.165-4.165,4.165,4.165,0,0,1,4.165,4.165,15.2,15.2,0,0,0,4.512,10.8,15.2,15.2,0,0,0,10.8,4.512,15.2,15.2,0,0,0,10.8-4.512,15.2,15.2,0,0,0,4.512-10.8,4.165,4.165,0,0,1,4.165-4.165,4.165,4.165,0,0,1,4.165,4.165,23.47,23.47,0,0,1-6.952,16.692A23.47,23.47,0,0,1-1000.439,457.586Z" transform="translate(2146.295 8637.267)"/><g transform="translate(3196.427 8581.084)"><path class="g" d="M-1974.427,334.915a5.96,5.96,0,0,1-4.243-1.757,5.961,5.961,0,0,1-1.757-4.243,5.961,5.961,0,0,1,1.757-4.243,5.96,5.96,0,0,1,4.243-1.757,5.961,5.961,0,0,1,4.243,1.757,5.961,5.961,0,0,1,1.757,4.243,5.961,5.961,0,0,1-1.757,4.243A5.961,5.961,0,0,1-1974.427,334.915Zm0-9.886a3.89,3.89,0,0,0-3.886,3.886,3.89,3.89,0,0,0,3.886,3.886,3.89,3.89,0,0,0,3.886-3.886A3.89,3.89,0,0,0-1974.427,325.029Z" transform="translate(0)"/></g><g transform="translate(2960.427 8709.084)"><path class="g" d="M-1974.427,334.915a5.96,5.96,0,0,1-4.243-1.757,5.961,5.961,0,0,1-1.757-4.243,5.961,5.961,0,0,1,1.757-4.243,5.96,5.96,0,0,1,4.243-1.757,5.961,5.961,0,0,1,4.243,1.757,5.961,5.961,0,0,1,1.757,4.243,5.961,5.961,0,0,1-1.757,4.243A5.961,5.961,0,0,1-1974.427,334.915Zm0-9.886a3.89,3.89,0,0,0-3.886,3.886,3.89,3.89,0,0,0,3.886,3.886,3.89,3.89,0,0,0,3.886-3.886A3.89,3.89,0,0,0-1974.427,325.029Z" transform="translate(0)"/></g><g transform="translate(2351.427 8603.084)"><path class="g" d="M-1968.927,345.916a11.424,11.424,0,0,1-8.132-3.368,11.425,11.425,0,0,1-3.368-8.132,11.425,11.425,0,0,1,3.368-8.132,11.425,11.425,0,0,1,8.132-3.368,11.425,11.425,0,0,1,8.132,3.368,11.425,11.425,0,0,1,3.368,8.132,11.425,11.425,0,0,1-3.368,8.132A11.425,11.425,0,0,1-1968.927,345.916Zm0-18.949a7.457,7.457,0,0,0-7.448,7.448,7.457,7.457,0,0,0,7.448,7.449,7.457,7.457,0,0,0,7.448-7.449A7.457,7.457,0,0,0-1968.927,326.967Z"/></g><g transform="translate(3290.427 8972.085)"><path class="g" d="M-1943.427,396.914a36.757,36.757,0,0,1-26.163-10.837,36.758,36.758,0,0,1-10.837-26.163,36.758,36.758,0,0,1,10.837-26.163,36.757,36.757,0,0,1,26.163-10.837,36.759,36.759,0,0,1,26.163,10.837,36.759,36.759,0,0,1,10.837,26.163,36.76,36.76,0,0,1-10.837,26.163A36.758,36.758,0,0,1-1943.427,396.914Zm0-60.963a23.99,23.99,0,0,0-23.963,23.963,23.99,23.99,0,0,0,23.963,23.964,23.99,23.99,0,0,0,23.962-23.964A23.99,23.99,0,0,0-1943.427,335.951Z" transform="translate(0)"/></g><g transform="translate(2483.427 8948.084)"><path class="g" d="M-1974.427,334.915a5.96,5.96,0,0,1-4.243-1.757,5.961,5.961,0,0,1-1.757-4.243,5.961,5.961,0,0,1,1.757-4.243,5.96,5.96,0,0,1,4.243-1.757,5.961,5.961,0,0,1,4.243,1.757,5.961,5.961,0,0,1,1.757,4.243,5.961,5.961,0,0,1-1.757,4.243A5.961,5.961,0,0,1-1974.427,334.915Zm0-9.886a3.89,3.89,0,0,0-3.886,3.886,3.89,3.89,0,0,0,3.886,3.886,3.89,3.89,0,0,0,3.886-3.886A3.89,3.89,0,0,0-1974.427,325.029Z" transform="translate(0)"/></g><circle class="g" cx="12.5" cy="12.5" r="12.5" transform="translate(1133 9281)"/><circle class="g" cx="48.5" cy="48.5" r="48.5" transform="translate(122 9080)"/><circle class="g" cx="5" cy="5" r="5" transform="translate(932 8909)"/><circle class="g" cx="11.5" cy="11.5" r="11.5" transform="translate(1360 9080)"/><g transform="translate(2073.427 8481.967)"><path class="g" d="M-1873.462,955.962A72.046,72.046,0,0,1-1945.427,884a72.046,72.046,0,0,1,71.965-71.965A72.046,72.046,0,0,1-1801.5,884,72.046,72.046,0,0,1-1873.462,955.962Zm0-140.182A68.3,68.3,0,0,0-1941.68,884a68.3,68.3,0,0,0,68.218,68.217A68.3,68.3,0,0,0-1805.244,884,68.3,68.3,0,0,0-1873.462,815.78Z"/></g><g transform="translate(2392.427 8136.967)"><path class="g" d="M-1918.893,865.1a26.564,26.564,0,0,1-26.534-26.534,26.564,26.564,0,0,1,26.534-26.534,26.564,26.564,0,0,1,26.534,26.534A26.564,26.564,0,0,1-1918.893,865.1Zm0-51.687a25.181,25.181,0,0,0-25.153,25.153,25.181,25.181,0,0,0,25.153,25.153,25.181,25.181,0,0,0,25.153-25.153A25.181,25.181,0,0,0-1918.893,813.415Z" transform="translate(0 0)"/></g><g transform="translate(1765.824 8074)"><path class="g" d="M-437.108,893.432a55.3,55.3,0,0,1-39.324-16.392,55.3,55.3,0,0,1-16.392-39.324,55.3,55.3,0,0,1,16.392-39.324A55.3,55.3,0,0,1-437.108,782a2.828,2.828,0,0,1,2.827,2.827,2.828,2.828,0,0,1-2.827,2.827,49.685,49.685,0,0,0-35.325,14.736,49.685,49.685,0,0,0-14.736,35.325,49.684,49.684,0,0,0,14.736,35.325,49.685,49.685,0,0,0,35.325,14.736,49.685,49.685,0,0,0,35.325-14.736,49.684,49.684,0,0,0,14.736-35.325,2.827,2.827,0,0,1,2.827-2.827,2.827,2.827,0,0,1,2.827,2.827,55.3,55.3,0,0,1-16.392,39.324A55.3,55.3,0,0,1-437.108,893.432Z"/></g><g transform="translate(983.5 9237.5)"><path class="g" d="M-440.857,885.934a51.581,51.581,0,0,0,36.678-15.289,51.58,51.58,0,0,0,15.289-36.678,51.579,51.579,0,0,0-15.289-36.678A51.58,51.58,0,0,0-440.857,782a2.637,2.637,0,0,0-2.637,2.637,2.637,2.637,0,0,0,2.637,2.637,46.341,46.341,0,0,1,32.948,13.744,46.342,46.342,0,0,1,13.744,32.948,46.34,46.34,0,0,1-13.744,32.948,46.341,46.341,0,0,1-32.948,13.745,46.341,46.341,0,0,1-32.948-13.745,46.34,46.34,0,0,1-13.745-32.948,2.637,2.637,0,0,0-2.637-2.637,2.637,2.637,0,0,0-2.637,2.637,51.58,51.58,0,0,0,15.289,36.678A51.58,51.58,0,0,0-440.857,885.934Z" transform="translate(492.824 -782)"/></g><g transform="translate(2881.427 8999.084)"><path class="g" d="M-1974.427,334.915a5.96,5.96,0,0,1-4.243-1.757,5.961,5.961,0,0,1-1.757-4.243,5.961,5.961,0,0,1,1.757-4.243,5.96,5.96,0,0,1,4.243-1.757,5.961,5.961,0,0,1,4.243,1.757,5.961,5.961,0,0,1,1.757,4.243,5.961,5.961,0,0,1-1.757,4.243A5.961,5.961,0,0,1-1974.427,334.915Zm0-9.886a3.89,3.89,0,0,0-3.886,3.886,3.89,3.89,0,0,0,3.886,3.886,3.89,3.89,0,0,0,3.886-3.886A3.89,3.89,0,0,0-1974.427,325.029Z" transform="translate(0)"/></g></g></g></svg>