<svg xmlns="http://www.w3.org/2000/svg" width="15.09" height="15.09" viewBox="0 0 15.09 15.09"><defs><style>.a{fill:#d80027;}.b{fill:#496e2d;}.c{fill:#ffda44;}</style></defs><path class="a" d="M130.08.749a8.439,8.439,0,0,0-6.95,0l-.695,6.8.695,6.8a8.439,8.439,0,0,0,6.95,0l.695-6.8Z" transform="translate(-119.06)"/><path d="M3.989,25.411a7.867,7.867,0,0,0,0,13.689Z" transform="translate(0 -24.711)"/><path class="b" d="M367.3,25.411V39.1a7.867,7.867,0,0,0,0-13.689Z" transform="translate(-356.203 -24.711)"/><g transform="translate(5.09 5.09)"><path class="c" d="M169.412,166.957a2.455,2.455,0,1,0,2.455,2.455A2.455,2.455,0,0,0,169.412,166.957Zm0,3.989a1.534,1.534,0,1,1,1.534-1.534A1.534,1.534,0,0,1,169.412,170.946Z" transform="translate(-166.957 -166.957)"/><path class="c" d="M234.353,222.609a.614.614,0,0,0-.614.614v.92h1.227v-.92A.614.614,0,0,0,234.353,222.609Z" transform="translate(-231.898 -221.075)"/></g></svg>