<svg xmlns="http://www.w3.org/2000/svg" width="15.006" height="15.006" viewBox="0 0 15.006 15.006"><defs><style>.a{fill:#f0f0f0;}.b{fill:#338af3;}</style></defs><path class="a" d="M.355,167.294a8.085,8.085,0,0,0,0,4.734l7.149.338,7.149-.338a8.084,8.084,0,0,0,0-4.734L7.5,166.956Z" transform="translate(-0.001 -162.158)"/><path d="M15.006,212.83a8.1,8.1,0,0,0-.113-1.353H.113a8.126,8.126,0,0,0,0,2.705H14.893A8.1,8.1,0,0,0,15.006,212.83Z" transform="translate(0 -205.327)"/><g transform="translate(0.367 0)"><path class="b" d="M19.226,339.322a7.528,7.528,0,0,0,7.136-5.41H12.09A7.529,7.529,0,0,0,19.226,339.322Z" transform="translate(-12.09 -324.316)"/><path class="b" d="M19.225,0a7.529,7.529,0,0,0-7.136,5.41H26.36A7.528,7.528,0,0,0,19.225,0Z" transform="translate(-12.089 -0.001)"/></g></svg>