<svg xmlns="http://www.w3.org/2000/svg" width="15.006" height="15.006" viewBox="0 0 15.006 15.006"><defs><style>.a{fill:#d80027;}.b{fill:#ffda44;}.c{fill:#496e2d;}</style></defs><path class="a" d="M129.371.744a7.047,7.047,0,0,0-6.305,0L122.435,7.5l.631,6.758a7.047,7.047,0,0,0,6.305,0L130,7.5Z" transform="translate(-118.715)"/><path class="b" d="M165.218,166.957l.671,2.066h2.173l-1.758,1.277.671,2.067-1.758-1.277-1.758,1.277.672-2.067-1.758-1.277h2.173Z" transform="translate(-157.716 -162.159)"/><path class="c" d="M4.4,25.411a7.351,7.351,0,0,0,0,13.462Z" transform="translate(0 -24.639)"/><path class="b" d="M367.3,25.411V38.873a7.351,7.351,0,0,0,0-13.462Z" transform="translate(-356.694 -24.639)"/></svg>