<svg xmlns="http://www.w3.org/2000/svg" width="15.006" height="15.006" viewBox="0 0 15.006 15.006"><defs><style>.a{fill:#ffda44;}.b{fill:#d80027;}.c{fill:#496e2d;}</style></defs><path class="a" d="M0,158.869a8.014,8.014,0,0,0,.467,2.705l7.036.338,7.036-.338a8.074,8.074,0,0,0,0-5.41L7.5,155.826l-7.036.338A8.015,8.015,0,0,0,0,158.869Z" transform="translate(0 -151.366)"/><path class="b" d="M22.942,0a7.507,7.507,0,0,0-7.019,5.072H29.961A7.507,7.507,0,0,0,22.942,0Z" transform="translate(-15.439)"/><path class="c" d="M29.961,345.043H15.923a7.393,7.393,0,0,0,14.038,0Z" transform="translate(-15.439 -335.11)"/><path d="M165.218,166.957l.671,2.067h2.173l-1.758,1.277.671,2.067-1.758-1.277-1.758,1.277.672-2.067-1.758-1.277h2.173Z" transform="translate(-157.716 -162.159)"/></svg>