<svg xmlns="http://www.w3.org/2000/svg" width="15.006" height="15.006" viewBox="0 0 15.006 15.006"><defs><style>.a{fill:#ffda44;}.b{fill:#6da544;}.c{fill:#d80027;}</style></defs><path class="a" d="M169.521,0A7.255,7.255,0,0,0,167.6.258L166.957,7.5l.641,7.244a7.255,7.255,0,0,0,1.923.258,7.437,7.437,0,0,0,7.37-7.5A7.437,7.437,0,0,0,169.521,0Z" transform="translate(-161.885 0)"/><path class="b" d="M166.957,256l.676,7.51A7.782,7.782,0,0,0,177.44,256Z" transform="translate(-162.434 -248.772)"/><g transform="translate(0 0.268)"><path class="c" d="M0,37.684a7.425,7.425,0,0,0,4.058,6.557V31.127A7.425,7.425,0,0,0,0,37.684Z" transform="translate(0 -30.449)"/><path class="c" d="M0,16.054a7.548,7.548,0,0,0,5.749,7.235V8.819A7.548,7.548,0,0,0,0,16.054Z" transform="translate(0 -8.819)"/></g><path d="M28.65,189.217l.5,1.55h1.63l-1.319.958.5,1.55-1.318-.958-1.319.958.5-1.55-1.318-.958h1.63Z" transform="translate(-25.711 -183.743)"/></svg>