<svg xmlns="http://www.w3.org/2000/svg" width="15.006" height="15.006" viewBox="0 0 15.006 15.006"><defs><style>.a{fill:#ffda44;}.b{fill:#d80027;}.c{fill:#6da544;}</style></defs><path class="a" d="M161.577.467a8.074,8.074,0,0,0-5.411,0L155.828,7.5l.338,7.036a8.075,8.075,0,0,0,5.411,0l.338-7.036Z" transform="translate(-151.368 0)"/><path class="b" d="M0,22.941A7.507,7.507,0,0,0,5.072,29.96V15.922A7.507,7.507,0,0,0,0,22.941Z" transform="translate(0 -15.438)"/><path class="c" d="M350.115,22.941a7.507,7.507,0,0,0-5.072-7.019V29.96A7.507,7.507,0,0,0,350.115,22.941Z" transform="translate(-335.11 -15.438)"/></svg>