<svg xmlns="http://www.w3.org/2000/svg" width="15.006" height="15.006" viewBox="0 0 15.006 15.006"><defs><style>.a{fill:#f0f0f0;}.b{fill:#d80027;}.c{fill:#6da544;}</style></defs><ellipse class="a" cx="7.503" cy="7.503" rx="7.503" ry="7.503"/><path class="b" d="M177.582,189.216h-1.018c.008.112.013.225.013.338a3.848,3.848,0,0,1-.516,2,1.841,1.841,0,0,1-.5.539v-2.878h-1.014v2.878a1.841,1.841,0,0,1-.5-.539,3.848,3.848,0,0,1-.516-2c0-.113,0-.226.013-.338H172.53q-.01.167-.01.338c0,2.086,1.114,3.72,2.536,3.72s2.536-1.634,2.536-3.72C177.593,189.44,177.589,189.327,177.582,189.216Z" transform="translate(-167.553 -183.742)"/><path class="c" d="M27.747,3.72h.975V4.4H29.7V3.72h.975V4.4h.975V3.72h.975V4.4H33.6V3.72h.975V4.4h.975V3.72h.975V4.4h2.345A7.351,7.351,0,0,0,25.4,4.4h2.345Z" transform="translate(-24.63)"/><path class="b" d="M36.519,367.3v.676h-.975V367.3H34.57v.676H33.6V367.3h-.975v.676h-.975V367.3h-.975v.676H29.7V367.3h-.975v.676h-.975V367.3H25.4a7.351,7.351,0,0,0,13.462,0H36.519Z" transform="translate(-24.63 -356.694)"/></svg>