<svg xmlns="http://www.w3.org/2000/svg" width="15.006" height="15.006" viewBox="0 0 15.006 15.006"><defs><style>.a{fill:#f0f0f0;}.b{fill:#ff9811;}.c{fill:#6da544;}</style></defs><path class="a" d="M158.869,15.006a8.014,8.014,0,0,0,2.705-.467l.338-7.036L161.575.467a8.074,8.074,0,0,0-5.411,0L155.826,7.5l.338,7.036A8.014,8.014,0,0,0,158.869,15.006Z" transform="translate(-151.366 0)"/><path class="b" d="M0,22.942a7.507,7.507,0,0,0,5.072,7.019V15.923A7.507,7.507,0,0,0,0,22.942Z" transform="translate(0 -15.439)"/><path class="c" d="M345.043,15.923V29.961a7.393,7.393,0,0,0,0-14.038Z" transform="translate(-335.11 -15.439)"/></svg>