<svg xmlns="http://www.w3.org/2000/svg" width="15.006" height="15.006" viewBox="0 0 15.006 15.006"><defs><style>.a{fill:#f0f0f0;}.b{fill:#d80027;}.c{fill:#0052b4;}</style></defs><ellipse class="a" cx="7.503" cy="7.503" rx="7.503" ry="7.503"/><path class="a" d="M58.516,47.959H69.973a7.607,7.607,0,0,0-1.458-1.412h-8.54A7.605,7.605,0,0,0,58.516,47.959Z" transform="translate(-56.741 -45.135)"/><path class="a" d="M0,233.434c0,.238.011.473.031.706H14.975c.02-.233.031-.468.031-.706s-.011-.473-.031-.706H.031C.011,232.961,0,233.2,0,233.434Z" transform="translate(0 -225.931)"/><path class="a" d="M10.175,327.231H23.526a7.882,7.882,0,0,0,.535-1.411H9.64A7.881,7.881,0,0,0,10.175,327.231Z" transform="translate(-9.348 -316.303)"/><path class="a" d="M59.974,420.322h8.54a7.606,7.606,0,0,0,1.458-1.412H58.516A7.61,7.61,0,0,0,59.974,420.322Z" transform="translate(-56.741 -406.727)"/><path class="a" d="M9.639,141.049H24.06a7.879,7.879,0,0,0-.535-1.412H10.174A7.881,7.881,0,0,0,9.639,141.049Z" transform="translate(-9.347 -135.559)"/><g transform="translate(0.032)"><path class="b" d="M122.435,1.412h7.993A6.954,6.954,0,0,0,126.237,0,7.368,7.368,0,0,0,122.435,1.412Z" transform="translate(-118.754 0)"/><path class="b" d="M244.87,94.5h7.255a7.772,7.772,0,0,0-.928-1.412H244.87Z" transform="translate(-237.998 -90.373)"/><path class="b" d="M244.87,187.595h8.069a7.735,7.735,0,0,0-.26-1.412H244.87Z" transform="translate(-237.998 -180.745)"/><path class="b" d="M1.315,280.686H15.754a7.978,7.978,0,0,0,.251-1.412H1.064A7.979,7.979,0,0,0,1.315,280.686Z" transform="translate(-1.064 -271.117)"/><path class="b" d="M28.809,373.775H40.336a7.812,7.812,0,0,0,.893-1.412H27.916A7.81,7.81,0,0,0,28.809,373.775Z" transform="translate(-27.102 -361.488)"/><path class="b" d="M113,466.867a6.989,6.989,0,0,0,4.2-1.412h-8.407A6.989,6.989,0,0,0,113,466.867Z" transform="translate(-105.526 -451.861)"/></g><path class="c" d="M1.324,5.646a7.735,7.735,0,0,0-.26,1.412H8.8V0A7.767,7.767,0,0,0,1.324,5.646Z" transform="translate(-1.032)"/><path class="a" d="M84.3,66.783l.5,1.547h1.627l-1.316.956.5,1.547L84.3,69.877l-1.316.956.5-1.547-1.316-.956H83.8Z" transform="translate(-79.792 -64.758)"/></svg>