<svg xmlns="http://www.w3.org/2000/svg" width="15.006" height="15.006" viewBox="0 0 15.006 15.006"><defs><style>.a{fill:#f0f0f0;}.b{fill:#a2001d;}.c{fill:#0052b4;}.d{fill:#496e2d;}.e{fill:#ffda44;}</style></defs><circle class="a" cx="7.503" cy="7.503" r="7.503"/><path class="b" d="M47.07,57.6a7.49,7.49,0,0,0,1,.836l10.37-10.37A7.511,7.511,0,0,0,56.6,46.235l-10.37,10.37A7.491,7.491,0,0,0,47.07,57.6Z" transform="translate(-44.832 -44.833)"/><path class="c" d="M2.283,2.285a7.767,7.767,0,0,0-1.412,9.05L11.333.873A7.767,7.767,0,0,0,2.283,2.285Z" transform="translate(-0.009 -0.011)"/><path class="d" d="M147.672,147.672a7.767,7.767,0,0,0,1.412-9.05l-10.461,10.461A7.767,7.767,0,0,0,147.672,147.672Z" transform="translate(-134.94 -134.94)"/><path class="e" d="M75.33,79.938l-.87.409.463.843-.945-.181-.12.954-.658-.7-.658.7-.12-.954-.945.181.463-.843-.87-.409.87-.409-.463-.842.945.181.12-.954.658.7.658-.7.12.954.945-.181-.463.843Z" transform="translate(-68.917 -75.658)"/></svg>