<svg xmlns="http://www.w3.org/2000/svg" width="15" height="15" viewBox="0 0 15 15"><defs><style>.a{fill:#f0f0f0;}.b{fill:#ffda44;}.c{fill:#6da544;}.d{fill:#0052b4;}.e{fill:#d80027;}</style></defs><ellipse class="a" cx="7.5" cy="7.5" rx="7.5" ry="7.5" transform="translate(0)"/><path d="M2.221,85.537a7.382,7.382,0,0,1,0-10.557l4.374,5.279Z" transform="translate(0 -72.759)"/><path class="b" d="M24.561,132.29l-5.589-3.777a7.559,7.559,0,0,0-.457.941l2.83,2.836-2.83,2.836a7.548,7.548,0,0,0,.457.94Z" transform="translate(-17.965 -124.79)"/><path class="c" d="M47.874,79.289H39.466l-4.322-4.3a7.5,7.5,0,0,0-1.2,1.561l3.725,3.718L33.943,83.98a7.5,7.5,0,0,0,1.2,1.561l4.322-4.3h8.408a7.5,7.5,0,0,0,0-1.947Z" transform="translate(-32.937 -72.762)"/><path class="d" d="M100.138,326.821a7.586,7.586,0,0,0,11.941-4.038h-7.9Z" transform="translate(-97.34 -313.389)"/><path class="e" d="M112.079,5.606a7.586,7.586,0,0,0-11.941-4.038l4.038,4.038h7.9Z" transform="translate(-97.34)"/></svg>