<svg height="561.904" viewBox="0 0 618.712 561.904" width="618.712" xmlns="http://www.w3.org/2000/svg"><g transform="translate(-7658 -1612.158)"><g fill="none" stroke="#ff2c6e" stroke-width="2"><rect height="26.207" rx="13.104" stroke="none" width="64.747" x="7725.025" y="1668.416"/><rect fill="none" height="24.207" rx="12.104" width="62.747" x="7726.025" y="1669.416"/></g><rect fill="#bb1e4f" height="73.997" rx="36.998" transform="matrix(0 -1 1 0 7931.6 1956.695)" width="309.862"/><path d="m-3590.02 720.692a5.3 5.3 0 0 1 3.766 1.568 5.292 5.292 0 0 1 1.569 3.766.94.94 0 0 1 -.94.94.94.94 0 0 1 -.939-.94 3.429 3.429 0 0 0 -1.018-2.437 3.43 3.43 0 0 0 -2.437-1.018 3.429 3.429 0 0 0 -2.437 1.018 3.429 3.429 0 0 0 -1.018 2.437 5.292 5.292 0 0 1 -1.569 3.766 5.294 5.294 0 0 1 -3.766 1.568 5.3 5.3 0 0 1 -3.766-1.568 5.3 5.3 0 0 1 -1.568-3.766.94.94 0 0 1 .94-.94.94.94 0 0 1 .94.94 3.427 3.427 0 0 0 1.018 2.437 3.427 3.427 0 0 0 2.437 1.018 3.43 3.43 0 0 0 2.438-1.018 3.43 3.43 0 0 0 1.018-2.437 5.292 5.292 0 0 1 1.569-3.766 5.293 5.293 0 0 1 3.763-1.568z" fill="#d67896" transform="translate(11369.397 1395.395)"/><path d="m-3590.02 720.692a5.3 5.3 0 0 1 3.766 1.568 5.292 5.292 0 0 1 1.569 3.766.94.94 0 0 1 -.94.94.94.94 0 0 1 -.939-.94 3.429 3.429 0 0 0 -1.018-2.437 3.43 3.43 0 0 0 -2.437-1.018 3.429 3.429 0 0 0 -2.437 1.018 3.429 3.429 0 0 0 -1.018 2.437 5.292 5.292 0 0 1 -1.569 3.766 5.294 5.294 0 0 1 -3.766 1.568 5.3 5.3 0 0 1 -3.766-1.568 5.3 5.3 0 0 1 -1.568-3.766.94.94 0 0 1 .94-.94.94.94 0 0 1 .94.94 3.427 3.427 0 0 0 1.018 2.437 3.427 3.427 0 0 0 2.437 1.018 3.43 3.43 0 0 0 2.438-1.018 3.43 3.43 0 0 0 1.018-2.437 5.292 5.292 0 0 1 1.569-3.766 5.293 5.293 0 0 1 3.763-1.568z" fill="#d67896" transform="translate(11351.872 1395.395)"/><path d="m-3590.02 720.692a5.3 5.3 0 0 1 3.766 1.568 5.292 5.292 0 0 1 1.569 3.766.94.94 0 0 1 -.94.94.94.94 0 0 1 -.939-.94 3.429 3.429 0 0 0 -1.018-2.437 3.43 3.43 0 0 0 -2.437-1.018 3.429 3.429 0 0 0 -2.437 1.018 3.429 3.429 0 0 0 -1.018 2.437 5.292 5.292 0 0 1 -1.569 3.766 5.294 5.294 0 0 1 -3.766 1.568 5.3 5.3 0 0 1 -3.766-1.568 5.3 5.3 0 0 1 -1.568-3.766.94.94 0 0 1 .94-.94.94.94 0 0 1 .94.94 3.427 3.427 0 0 0 1.018 2.437 3.427 3.427 0 0 0 2.437 1.018 3.43 3.43 0 0 0 2.438-1.018 3.43 3.43 0 0 0 1.018-2.437 5.292 5.292 0 0 1 1.569-3.766 5.293 5.293 0 0 1 3.763-1.568z" fill="#d67896" transform="translate(11334.347 1395.395)"/><path d="m-3590.02 720.692a5.3 5.3 0 0 1 3.766 1.568 5.292 5.292 0 0 1 1.569 3.766.94.94 0 0 1 -.94.94.94.94 0 0 1 -.939-.94 3.429 3.429 0 0 0 -1.018-2.437 3.43 3.43 0 0 0 -2.437-1.018 3.429 3.429 0 0 0 -2.437 1.018 3.429 3.429 0 0 0 -1.018 2.437 5.292 5.292 0 0 1 -1.569 3.766 5.294 5.294 0 0 1 -3.766 1.568 5.3 5.3 0 0 1 -3.766-1.568 5.3 5.3 0 0 1 -1.568-3.766.94.94 0 0 1 .94-.94.94.94 0 0 1 .94.94 3.427 3.427 0 0 0 1.018 2.437 3.427 3.427 0 0 0 2.437 1.018 3.43 3.43 0 0 0 2.438-1.018 3.43 3.43 0 0 0 1.018-2.437 5.292 5.292 0 0 1 1.569-3.766 5.293 5.293 0 0 1 3.763-1.568z" fill="#d67896" transform="translate(11770.288 1098.56)"/><path d="m-3590.02 720.692a5.3 5.3 0 0 1 3.766 1.568 5.292 5.292 0 0 1 1.569 3.766.94.94 0 0 1 -.94.94.94.94 0 0 1 -.939-.94 3.429 3.429 0 0 0 -1.018-2.437 3.43 3.43 0 0 0 -2.437-1.018 3.429 3.429 0 0 0 -2.437 1.018 3.429 3.429 0 0 0 -1.018 2.437 5.292 5.292 0 0 1 -1.569 3.766 5.294 5.294 0 0 1 -3.766 1.568 5.3 5.3 0 0 1 -3.766-1.568 5.3 5.3 0 0 1 -1.568-3.766.94.94 0 0 1 .94-.94.94.94 0 0 1 .94.94 3.427 3.427 0 0 0 1.018 2.437 3.427 3.427 0 0 0 2.437 1.018 3.43 3.43 0 0 0 2.438-1.018 3.43 3.43 0 0 0 1.018-2.437 5.292 5.292 0 0 1 1.569-3.766 5.293 5.293 0 0 1 3.763-1.568z" fill="#d67896" transform="translate(11752.763 1098.56)"/><path d="m-3590.02 720.692a5.3 5.3 0 0 1 3.766 1.568 5.292 5.292 0 0 1 1.569 3.766.94.94 0 0 1 -.94.94.94.94 0 0 1 -.939-.94 3.429 3.429 0 0 0 -1.018-2.437 3.43 3.43 0 0 0 -2.437-1.018 3.429 3.429 0 0 0 -2.437 1.018 3.429 3.429 0 0 0 -1.018 2.437 5.292 5.292 0 0 1 -1.569 3.766 5.294 5.294 0 0 1 -3.766 1.568 5.3 5.3 0 0 1 -3.766-1.568 5.3 5.3 0 0 1 -1.568-3.766.94.94 0 0 1 .94-.94.94.94 0 0 1 .94.94 3.427 3.427 0 0 0 1.018 2.437 3.427 3.427 0 0 0 2.437 1.018 3.43 3.43 0 0 0 2.438-1.018 3.43 3.43 0 0 0 1.018-2.437 5.292 5.292 0 0 1 1.569-3.766 5.293 5.293 0 0 1 3.763-1.568z" fill="#d67896" transform="translate(11735.238 1098.56)"/><path d="m-3590.02 720.692a5.3 5.3 0 0 1 3.766 1.568 5.292 5.292 0 0 1 1.569 3.766.94.94 0 0 1 -.94.94.94.94 0 0 1 -.939-.94 3.429 3.429 0 0 0 -1.018-2.437 3.43 3.43 0 0 0 -2.437-1.018 3.429 3.429 0 0 0 -2.437 1.018 3.429 3.429 0 0 0 -1.018 2.437 5.292 5.292 0 0 1 -1.569 3.766 5.294 5.294 0 0 1 -3.766 1.568 5.3 5.3 0 0 1 -3.766-1.568 5.3 5.3 0 0 1 -1.568-3.766.94.94 0 0 1 .94-.94.94.94 0 0 1 .94.94 3.427 3.427 0 0 0 1.018 2.437 3.427 3.427 0 0 0 2.437 1.018 3.43 3.43 0 0 0 2.438-1.018 3.43 3.43 0 0 0 1.018-2.437 5.292 5.292 0 0 1 1.569-3.766 5.293 5.293 0 0 1 3.763-1.568z" fill="#d67896" transform="translate(11717.712 1098.56)"/><path d="m-3590.02 720.692a5.3 5.3 0 0 1 3.766 1.568 5.292 5.292 0 0 1 1.569 3.766.94.94 0 0 1 -.94.94.94.94 0 0 1 -.939-.94 3.429 3.429 0 0 0 -1.018-2.437 3.43 3.43 0 0 0 -2.437-1.018 3.429 3.429 0 0 0 -2.437 1.018 3.429 3.429 0 0 0 -1.018 2.437 5.292 5.292 0 0 1 -1.569 3.766 5.294 5.294 0 0 1 -3.766 1.568 5.3 5.3 0 0 1 -3.766-1.568 5.3 5.3 0 0 1 -1.568-3.766.94.94 0 0 1 .94-.94.94.94 0 0 1 .94.94 3.427 3.427 0 0 0 1.018 2.437 3.427 3.427 0 0 0 2.437 1.018 3.43 3.43 0 0 0 2.438-1.018 3.43 3.43 0 0 0 1.018-2.437 5.292 5.292 0 0 1 1.569-3.766 5.293 5.293 0 0 1 3.763-1.568z" fill="#d67896" transform="translate(11700.187 1098.56)"/><path d="m-1919.153 322.915a60.872 60.872 0 0 1 43.328 17.947 60.872 60.872 0 0 1 17.947 43.327 60.872 60.872 0 0 1 -17.947 43.327 60.873 60.873 0 0 1 -43.328 17.947 60.873 60.873 0 0 1 -43.327-17.947 60.873 60.873 0 0 1 -17.947-43.327 60.872 60.872 0 0 1 17.947-43.327 60.873 60.873 0 0 1 43.327-17.947zm0 100.959a39.73 39.73 0 0 0 39.685-39.685 39.73 39.73 0 0 0 -39.685-39.685 39.73 39.73 0 0 0 -39.685 39.685 39.73 39.73 0 0 0 39.685 39.685z" fill="#bb1e4f" transform="translate(10043.61 1675.895)"/><path d="m-1973.855 322.915a6.528 6.528 0 0 1 4.647 1.925 6.528 6.528 0 0 1 1.925 4.647 6.528 6.528 0 0 1 -1.925 4.647 6.528 6.528 0 0 1 -4.647 1.925 6.53 6.53 0 0 1 -4.647-1.925 6.53 6.53 0 0 1 -1.925-4.647 6.53 6.53 0 0 1 1.925-4.647 6.53 6.53 0 0 1 4.647-1.925zm0 10.828a4.261 4.261 0 0 0 4.256-4.256 4.261 4.261 0 0 0 -4.256-4.257 4.261 4.261 0 0 0 -4.257 4.257 4.261 4.261 0 0 0 4.257 4.257z" fill="#ff2c6e" transform="translate(9837.689 1480.926)"/><path d="m-1973.855 322.915a6.528 6.528 0 0 1 4.647 1.925 6.528 6.528 0 0 1 1.925 4.647 6.528 6.528 0 0 1 -1.925 4.647 6.528 6.528 0 0 1 -4.647 1.925 6.53 6.53 0 0 1 -4.647-1.925 6.53 6.53 0 0 1 -1.925-4.647 6.53 6.53 0 0 1 1.925-4.647 6.53 6.53 0 0 1 4.647-1.925zm0 10.828a4.261 4.261 0 0 0 4.256-4.256 4.261 4.261 0 0 0 -4.256-4.257 4.261 4.261 0 0 0 -4.257 4.257 4.261 4.261 0 0 0 4.257 4.257z" fill="#d67896" transform="translate(10027.181 1306.769)"/><path d="m-1402.888 429.777a21.5 21.5 0 0 0 -21.5 21.5 21.5 21.5 0 0 0 21.5 21.5 79.585 79.585 0 0 1 55.888 23.143 79.587 79.587 0 0 1 23.148 55.886 21.5 21.5 0 0 0 21.5 21.5 21.5 21.5 0 0 0 21.5-21.5 121.418 121.418 0 0 0 -9.292-46.7 121.417 121.417 0 0 0 -26.45-39.59 121.421 121.421 0 0 0 -39.59-26.45 121.416 121.416 0 0 0 -46.704-9.289z" fill="#bb1e4f" transform="translate(9082.385 1310.534)"/><path d="m-1293.265 969.059a5.131 5.131 0 0 1 5.132 5.131 5.131 5.131 0 0 1 -5.132 5.131 91.485 91.485 0 0 0 -64.245 26.611 91.487 91.487 0 0 0 -26.611 64.245 5.132 5.132 0 0 1 -5.131 5.132 5.132 5.132 0 0 1 -5.132-5.132 100.613 100.613 0 0 1 7.7-38.7 100.611 100.611 0 0 1 21.917-32.806 100.62 100.62 0 0 1 32.807-21.918 100.617 100.617 0 0 1 38.695-7.694z" fill="#bb1e4f" transform="translate(9564.846 893.925)"/><g fill="#d67896"><path d="m-3590.02 720.692a5.3 5.3 0 0 1 3.766 1.568 5.292 5.292 0 0 1 1.569 3.766.94.94 0 0 1 -.94.94.94.94 0 0 1 -.939-.94 3.429 3.429 0 0 0 -1.018-2.437 3.43 3.43 0 0 0 -2.437-1.018 3.429 3.429 0 0 0 -2.437 1.018 3.429 3.429 0 0 0 -1.018 2.437 5.292 5.292 0 0 1 -1.569 3.766 5.294 5.294 0 0 1 -3.766 1.568 5.3 5.3 0 0 1 -3.766-1.568 5.3 5.3 0 0 1 -1.568-3.766.94.94 0 0 1 .94-.94.94.94 0 0 1 .94.94 3.427 3.427 0 0 0 1.018 2.437 3.427 3.427 0 0 0 2.437 1.018 3.43 3.43 0 0 0 2.438-1.018 3.43 3.43 0 0 0 1.018-2.437 5.292 5.292 0 0 1 1.569-3.766 5.293 5.293 0 0 1 3.763-1.568z" transform="translate(11504.123 1278.195)"/><path d="m-3590.02 720.692a5.3 5.3 0 0 1 3.766 1.568 5.292 5.292 0 0 1 1.569 3.766.94.94 0 0 1 -.94.94.94.94 0 0 1 -.939-.94 3.429 3.429 0 0 0 -1.018-2.437 3.43 3.43 0 0 0 -2.437-1.018 3.429 3.429 0 0 0 -2.437 1.018 3.429 3.429 0 0 0 -1.018 2.437 5.292 5.292 0 0 1 -1.569 3.766 5.294 5.294 0 0 1 -3.766 1.568 5.3 5.3 0 0 1 -3.766-1.568 5.3 5.3 0 0 1 -1.568-3.766.94.94 0 0 1 .94-.94.94.94 0 0 1 .94.94 3.427 3.427 0 0 0 1.018 2.437 3.427 3.427 0 0 0 2.437 1.018 3.43 3.43 0 0 0 2.438-1.018 3.43 3.43 0 0 0 1.018-2.437 5.292 5.292 0 0 1 1.569-3.766 5.293 5.293 0 0 1 3.763-1.568z" transform="translate(11486.598 1278.195)"/><path d="m-3590.02 720.692a5.3 5.3 0 0 1 3.766 1.568 5.292 5.292 0 0 1 1.569 3.766.94.94 0 0 1 -.94.94.94.94 0 0 1 -.939-.94 3.429 3.429 0 0 0 -1.018-2.437 3.43 3.43 0 0 0 -2.437-1.018 3.429 3.429 0 0 0 -2.437 1.018 3.429 3.429 0 0 0 -1.018 2.437 5.292 5.292 0 0 1 -1.569 3.766 5.294 5.294 0 0 1 -3.766 1.568 5.3 5.3 0 0 1 -3.766-1.568 5.3 5.3 0 0 1 -1.568-3.766.94.94 0 0 1 .94-.94.94.94 0 0 1 .94.94 3.427 3.427 0 0 0 1.018 2.437 3.427 3.427 0 0 0 2.437 1.018 3.43 3.43 0 0 0 2.438-1.018 3.43 3.43 0 0 0 1.018-2.437 5.292 5.292 0 0 1 1.569-3.766 5.293 5.293 0 0 1 3.763-1.568z" transform="translate(11469.072 1278.195)"/><path d="m-3590.02 720.692a5.3 5.3 0 0 1 3.766 1.568 5.292 5.292 0 0 1 1.569 3.766.94.94 0 0 1 -.94.94.94.94 0 0 1 -.939-.94 3.429 3.429 0 0 0 -1.018-2.437 3.43 3.43 0 0 0 -2.437-1.018 3.429 3.429 0 0 0 -2.437 1.018 3.429 3.429 0 0 0 -1.018 2.437 5.292 5.292 0 0 1 -1.569 3.766 5.294 5.294 0 0 1 -3.766 1.568 5.3 5.3 0 0 1 -3.766-1.568 5.3 5.3 0 0 1 -1.568-3.766.94.94 0 0 1 .94-.94.94.94 0 0 1 .94.94 3.427 3.427 0 0 0 1.018 2.437 3.427 3.427 0 0 0 2.437 1.018 3.43 3.43 0 0 0 2.438-1.018 3.43 3.43 0 0 0 1.018-2.437 5.292 5.292 0 0 1 1.569-3.766 5.293 5.293 0 0 1 3.763-1.568z" transform="translate(11451.547 1278.195)"/><path d="m-3590.02 720.692a5.3 5.3 0 0 1 3.766 1.568 5.292 5.292 0 0 1 1.569 3.766.94.94 0 0 1 -.94.94.94.94 0 0 1 -.939-.94 3.429 3.429 0 0 0 -1.018-2.437 3.43 3.43 0 0 0 -2.437-1.018 3.429 3.429 0 0 0 -2.437 1.018 3.429 3.429 0 0 0 -1.018 2.437 5.292 5.292 0 0 1 -1.569 3.766 5.294 5.294 0 0 1 -3.766 1.568 5.3 5.3 0 0 1 -3.766-1.568 5.3 5.3 0 0 1 -1.568-3.766.94.94 0 0 1 .94-.94.94.94 0 0 1 .94.94 3.427 3.427 0 0 0 1.018 2.437 3.427 3.427 0 0 0 2.437 1.018 3.43 3.43 0 0 0 2.438-1.018 3.43 3.43 0 0 0 1.018-2.437 5.292 5.292 0 0 1 1.569-3.766 5.293 5.293 0 0 1 3.763-1.568z" transform="translate(11434.022 1278.195)"/><path d="m-3590.02 720.692a5.3 5.3 0 0 1 3.766 1.568 5.292 5.292 0 0 1 1.569 3.766.94.94 0 0 1 -.94.94.94.94 0 0 1 -.939-.94 3.429 3.429 0 0 0 -1.018-2.437 3.43 3.43 0 0 0 -2.437-1.018 3.429 3.429 0 0 0 -2.437 1.018 3.429 3.429 0 0 0 -1.018 2.437 5.292 5.292 0 0 1 -1.569 3.766 5.294 5.294 0 0 1 -3.766 1.568 5.3 5.3 0 0 1 -3.766-1.568 5.3 5.3 0 0 1 -1.568-3.766.94.94 0 0 1 .94-.94.94.94 0 0 1 .94.94 3.427 3.427 0 0 0 1.018 2.437 3.427 3.427 0 0 0 2.437 1.018 3.43 3.43 0 0 0 2.438-1.018 3.43 3.43 0 0 0 1.018-2.437 5.292 5.292 0 0 1 1.569-3.766 5.293 5.293 0 0 1 3.763-1.568z" transform="translate(11416.496 1278.195)"/><path d="m-3590.02 720.692a5.3 5.3 0 0 1 3.766 1.568 5.292 5.292 0 0 1 1.569 3.766.94.94 0 0 1 -.94.94.94.94 0 0 1 -.939-.94 3.429 3.429 0 0 0 -1.018-2.437 3.43 3.43 0 0 0 -2.437-1.018 3.429 3.429 0 0 0 -2.437 1.018 3.429 3.429 0 0 0 -1.018 2.437 5.292 5.292 0 0 1 -1.569 3.766 5.294 5.294 0 0 1 -3.766 1.568 5.3 5.3 0 0 1 -3.766-1.568 5.3 5.3 0 0 1 -1.568-3.766.94.94 0 0 1 .94-.94.94.94 0 0 1 .94.94 3.427 3.427 0 0 0 1.018 2.437 3.427 3.427 0 0 0 2.437 1.018 3.43 3.43 0 0 0 2.438-1.018 3.43 3.43 0 0 0 1.018-2.437 5.292 5.292 0 0 1 1.569-3.766 5.293 5.293 0 0 1 3.763-1.568z" transform="translate(11398.971 1278.195)"/><path d="m-3590.02 720.692a5.3 5.3 0 0 1 3.766 1.568 5.292 5.292 0 0 1 1.569 3.766.94.94 0 0 1 -.94.94.94.94 0 0 1 -.939-.94 3.429 3.429 0 0 0 -1.018-2.437 3.43 3.43 0 0 0 -2.437-1.018 3.429 3.429 0 0 0 -2.437 1.018 3.429 3.429 0 0 0 -1.018 2.437 5.292 5.292 0 0 1 -1.569 3.766 5.294 5.294 0 0 1 -3.766 1.568 5.3 5.3 0 0 1 -3.766-1.568 5.3 5.3 0 0 1 -1.568-3.766.94.94 0 0 1 .94-.94.94.94 0 0 1 .94.94 3.427 3.427 0 0 0 1.018 2.437 3.427 3.427 0 0 0 2.437 1.018 3.43 3.43 0 0 0 2.438-1.018 3.43 3.43 0 0 0 1.018-2.437 5.292 5.292 0 0 1 1.569-3.766 5.293 5.293 0 0 1 3.763-1.568z" transform="translate(11381.446 1278.195)"/><path d="m-3590.02 720.692a5.3 5.3 0 0 1 3.766 1.568 5.292 5.292 0 0 1 1.569 3.766.94.94 0 0 1 -.94.94.94.94 0 0 1 -.939-.94 3.429 3.429 0 0 0 -1.018-2.437 3.43 3.43 0 0 0 -2.437-1.018 3.429 3.429 0 0 0 -2.437 1.018 3.429 3.429 0 0 0 -1.018 2.437 5.292 5.292 0 0 1 -1.569 3.766 5.294 5.294 0 0 1 -3.766 1.568 5.3 5.3 0 0 1 -3.766-1.568 5.3 5.3 0 0 1 -1.568-3.766.94.94 0 0 1 .94-.94.94.94 0 0 1 .94.94 3.427 3.427 0 0 0 1.018 2.437 3.427 3.427 0 0 0 2.437 1.018 3.43 3.43 0 0 0 2.438-1.018 3.43 3.43 0 0 0 1.018-2.437 5.292 5.292 0 0 1 1.569-3.766 5.293 5.293 0 0 1 3.763-1.568z" transform="translate(11363.92 1278.195)"/><path d="m-3590.02 720.692a5.3 5.3 0 0 1 3.766 1.568 5.292 5.292 0 0 1 1.569 3.766.94.94 0 0 1 -.94.94.94.94 0 0 1 -.939-.94 3.429 3.429 0 0 0 -1.018-2.437 3.43 3.43 0 0 0 -2.437-1.018 3.429 3.429 0 0 0 -2.437 1.018 3.429 3.429 0 0 0 -1.018 2.437 5.292 5.292 0 0 1 -1.569 3.766 5.294 5.294 0 0 1 -3.766 1.568 5.3 5.3 0 0 1 -3.766-1.568 5.3 5.3 0 0 1 -1.568-3.766.94.94 0 0 1 .94-.94.94.94 0 0 1 .94.94 3.427 3.427 0 0 0 1.018 2.437 3.427 3.427 0 0 0 2.437 1.018 3.43 3.43 0 0 0 2.438-1.018 3.43 3.43 0 0 0 1.018-2.437 5.292 5.292 0 0 1 1.569-3.766 5.293 5.293 0 0 1 3.763-1.568z" transform="translate(11346.395 1278.195)"/><path d="m-3590.02 720.692a5.3 5.3 0 0 1 3.766 1.568 5.292 5.292 0 0 1 1.569 3.766.94.94 0 0 1 -.94.94.94.94 0 0 1 -.939-.94 3.429 3.429 0 0 0 -1.018-2.437 3.43 3.43 0 0 0 -2.437-1.018 3.429 3.429 0 0 0 -2.437 1.018 3.429 3.429 0 0 0 -1.018 2.437 5.292 5.292 0 0 1 -1.569 3.766 5.294 5.294 0 0 1 -3.766 1.568 5.3 5.3 0 0 1 -3.766-1.568 5.3 5.3 0 0 1 -1.568-3.766.94.94 0 0 1 .94-.94.94.94 0 0 1 .94.94 3.427 3.427 0 0 0 1.018 2.437 3.427 3.427 0 0 0 2.437 1.018 3.43 3.43 0 0 0 2.438-1.018 3.43 3.43 0 0 0 1.018-2.437 5.292 5.292 0 0 1 1.569-3.766 5.293 5.293 0 0 1 3.763-1.568z" transform="translate(11328.87 1278.195)"/><path d="m-998.185 429.777a25.707 25.707 0 0 1 18.283 7.615 25.707 25.707 0 0 1 7.615 18.283 4.562 4.562 0 0 1 -4.562 4.562 4.562 4.562 0 0 1 -4.562-4.562 16.643 16.643 0 0 0 -4.942-11.831 16.644 16.644 0 0 0 -11.831-4.942 16.644 16.644 0 0 0 -11.831 4.942 16.643 16.643 0 0 0 -4.942 11.831 4.563 4.563 0 0 1 -4.562 4.562 4.562 4.562 0 0 1 -4.562-4.562 25.708 25.708 0 0 1 7.615-18.283 25.708 25.708 0 0 1 18.281-7.615z" transform="translate(9080.146 1482.662)"/></g><path d="m-1973.855 322.915a6.528 6.528 0 0 1 4.647 1.925 6.528 6.528 0 0 1 1.925 4.647 6.528 6.528 0 0 1 -1.925 4.647 6.528 6.528 0 0 1 -4.647 1.925 6.53 6.53 0 0 1 -4.647-1.925 6.53 6.53 0 0 1 -1.925-4.647 6.53 6.53 0 0 1 1.925-4.647 6.53 6.53 0 0 1 4.647-1.925zm0 10.828a4.261 4.261 0 0 0 4.256-4.256 4.261 4.261 0 0 0 -4.256-4.257 4.261 4.261 0 0 0 -4.257 4.257 4.261 4.261 0 0 0 4.257 4.257z" fill="#ff2c6e" transform="translate(9972.415 1785.428)"/><path d="m-1939.9 322.915a40.26 40.26 0 0 1 28.657 11.87 40.262 40.262 0 0 1 11.87 28.657 40.261 40.261 0 0 1 -11.87 28.657 40.261 40.261 0 0 1 -28.657 11.87 40.261 40.261 0 0 1 -28.656-11.87 40.262 40.262 0 0 1 -11.871-28.657 40.262 40.262 0 0 1 11.871-28.657 40.261 40.261 0 0 1 28.656-11.87zm0 66.775a26.277 26.277 0 0 0 26.247-26.248 26.277 26.277 0 0 0 -26.247-26.248 26.277 26.277 0 0 0 -26.247 26.248 26.277 26.277 0 0 0 26.247 26.248z" fill="#d67896" transform="translate(9801.544 1289.243)"/><circle cx="8082.677" cy="1694.623" fill="#d67896" r="13.874"/><circle cx="7834.479" cy="1916.614" fill="#ff2c6e" r="12.333"/><path d="m-431.8 782a60.575 60.575 0 0 1 43.073 17.955 60.573 60.573 0 0 1 17.955 43.073 60.572 60.572 0 0 1 -17.951 43.072 60.574 60.574 0 0 1 -43.077 17.955 3.1 3.1 0 0 1 -3.1-3.1 3.1 3.1 0 0 1 3.1-3.1 54.421 54.421 0 0 0 38.7-16.134 54.421 54.421 0 0 0 16.141-38.693 54.42 54.42 0 0 0 -16.141-38.693 54.421 54.421 0 0 0 -38.7-16.141 54.421 54.421 0 0 0 -38.693 16.141 54.42 54.42 0 0 0 -16.141 38.693 3.1 3.1 0 0 1 -3.1 3.1 3.1 3.1 0 0 1 -3.1-3.1 60.573 60.573 0 0 1 17.955-43.073 60.574 60.574 0 0 1 43.079-17.955z" fill="#d67896" transform="translate(8313.466 1270.006)"/><path d="m-435.9 782a56.5 56.5 0 0 0 -40.174 16.747 56.5 56.5 0 0 0 -16.747 40.174 56.5 56.5 0 0 0 16.747 40.174 56.5 56.5 0 0 0 40.174 16.747 2.889 2.889 0 0 0 2.889-2.888 2.889 2.889 0 0 0 -2.889-2.889 50.759 50.759 0 0 1 -36.089-15.055 50.76 50.76 0 0 1 -15.055-36.089 50.758 50.758 0 0 1 15.055-36.089 50.759 50.759 0 0 1 36.089-15.055 50.759 50.759 0 0 1 36.089 15.055 50.759 50.759 0 0 1 15.055 36.089 2.889 2.889 0 0 0 2.889 2.889 2.889 2.889 0 0 0 2.888-2.889 56.5 56.5 0 0 0 -16.747-40.174 56.5 56.5 0 0 0 -40.174-16.747z" fill="#d67896" transform="translate(8638.778 860.352)"/></g></svg>