<svg height="546.777" width="667.405" xmlns="http://www.w3.org/2000/svg"><g transform="translate(-8950.806 -1626)"><path d="M9259.593 2025.16a119.711 119.711 0 0 0 85.135-35.459 119.709 119.709 0 0 0 35.459-85.135 119.711 119.711 0 0 0-35.459-85.135 119.711 119.711 0 0 0-85.135-35.459 21.245 21.245 0 0 0-21.245 21.245 21.244 21.244 0 0 0 21.245 21.245 77.5 77.5 0 0 1 55.091 23.014 77.5 77.5 0 0 1 23.014 55.091 77.5 77.5 0 0 1-23.014 55.086 77.5 77.5 0 0 1-55.091 23.014 77.5 77.5 0 0 1-55.09-23.014 77.5 77.5 0 0 1-23.014-55.091 21.245 21.245 0 0 0-21.245-21.245 21.245 21.245 0 0 0-21.245 21.245 119.71 119.71 0 0 0 35.459 85.135 119.711 119.711 0 0 0 85.135 35.463z" fill="#ff2c6e"/><path d="M8972.978 2019.568a22.173 22.173 0 0 1-22.172-22.173 22.172 22.172 0 0 1 22.172-22.172 82.083 82.083 0 0 0 57.641-23.875 82.085 82.085 0 0 0 23.872-57.641 22.173 22.173 0 0 1 22.172-22.173 22.172 22.172 0 0 1 22.172 22.173 125.238 125.238 0 0 1-9.583 48.164 125.239 125.239 0 0 1-27.281 40.833 125.229 125.229 0 0 1-40.833 27.28 125.228 125.228 0 0 1-48.16 9.584z" fill="#c94b72"/><path d="M9462.842 2161.006a64.234 64.234 0 0 0 45.682-19.027 64.234 64.234 0 0 0 19.026-45.682 11.4 11.4 0 0 0-11.4-11.4 11.4 11.4 0 0 0-11.4 11.4 41.585 41.585 0 0 1-12.349 29.561 41.585 41.585 0 0 1-29.561 12.349 41.585 41.585 0 0 1-29.56-12.349 41.585 41.585 0 0 1-12.349-29.561 11.4 11.4 0 0 0-11.4-11.4 11.4 11.4 0 0 0-11.4 11.4 64.234 64.234 0 0 0 19.026 45.682 64.234 64.234 0 0 0 45.685 19.027z" fill="#ff2c6e"/><g fill="#c94b72"><path d="M9254.874 1694.565a29.407 29.407 0 0 0-29.292 29.292 5.16 5.16 0 1 0 10.32 0 18.924 18.924 0 0 1 32.354-13.381 18.825 18.825 0 0 1 5.59 13.382 5.16 5.16 0 0 0 10.321 0 29.407 29.407 0 0 0-29.293-29.293z"/><path d="M9057.193 2091.34a81.285 81.285 0 0 0 138.913 57.477 80.831 80.831 0 0 0 23.96-57.477 4.133 4.133 0 0 0-8.265 0 73.02 73.02 0 0 1-124.808 51.637 73.172 73.172 0 0 1 51.632-124.8 4.133 4.133 0 0 0 0-8.265 81.805 81.805 0 0 0-81.432 81.428z"/><path d="M9348.336 1707.436a81.285 81.285 0 0 0 138.913 57.477 80.831 80.831 0 0 0 23.96-57.477 4.133 4.133 0 0 0-8.265 0 73.02 73.02 0 0 1-124.808 51.637 73.172 73.172 0 0 1 51.632-124.8 4.133 4.133 0 0 0 0-8.265 81.805 81.805 0 0 0-81.432 81.428z"/><path d="M9501.015 1851.511a4.441 4.441 0 0 0 3.158-1.315 4.439 4.439 0 0 0 1.315-3.158.787.787 0 0 0-.788-.788.788.788 0 0 0-.788.788 2.873 2.873 0 0 1-.854 2.043 2.875 2.875 0 0 1-2.043.854 2.874 2.874 0 0 1-2.043-.854 2.875 2.875 0 0 1-.854-2.043 4.44 4.44 0 0 0-1.315-3.157 4.44 4.44 0 0 0-3.157-1.315 4.442 4.442 0 0 0-3.158 1.315 4.441 4.441 0 0 0-1.315 3.157.788.788 0 0 0 .788.788.787.787 0 0 0 .787-.788 2.875 2.875 0 0 1 .854-2.043 2.874 2.874 0 0 1 2.043-.853 2.874 2.874 0 0 1 2.043.853 2.875 2.875 0 0 1 .854 2.043 4.439 4.439 0 0 0 1.315 3.158 4.439 4.439 0 0 0 3.158 1.315z"/><path d="M9486.32 1851.511a4.441 4.441 0 0 0 3.158-1.315 4.439 4.439 0 0 0 1.315-3.158.787.787 0 0 0-.788-.788.788.788 0 0 0-.788.788 2.873 2.873 0 0 1-.854 2.043 2.875 2.875 0 0 1-2.043.854 2.874 2.874 0 0 1-2.043-.854 2.875 2.875 0 0 1-.854-2.043 4.44 4.44 0 0 0-1.315-3.157 4.44 4.44 0 0 0-3.157-1.315 4.442 4.442 0 0 0-3.158 1.315 4.441 4.441 0 0 0-1.315 3.157.788.788 0 0 0 .788.788.787.787 0 0 0 .787-.788 2.875 2.875 0 0 1 .854-2.043 2.874 2.874 0 0 1 2.043-.853 2.874 2.874 0 0 1 2.043.853 2.875 2.875 0 0 1 .854 2.043 4.439 4.439 0 0 0 1.315 3.158 4.439 4.439 0 0 0 3.158 1.315z"/><path d="M9471.625 1851.511a4.441 4.441 0 0 0 3.158-1.315 4.439 4.439 0 0 0 1.315-3.158.787.787 0 0 0-.788-.788.788.788 0 0 0-.788.788 2.873 2.873 0 0 1-.854 2.043 2.875 2.875 0 0 1-2.043.854 2.874 2.874 0 0 1-2.043-.854 2.875 2.875 0 0 1-.854-2.043 4.44 4.44 0 0 0-1.315-3.157 4.44 4.44 0 0 0-3.157-1.315 4.442 4.442 0 0 0-3.158 1.315 4.441 4.441 0 0 0-1.315 3.157.788.788 0 0 0 .788.788.787.787 0 0 0 .787-.788 2.875 2.875 0 0 1 .854-2.043 2.874 2.874 0 0 1 2.043-.853 2.874 2.874 0 0 1 2.043.853 2.875 2.875 0 0 1 .854 2.043 4.439 4.439 0 0 0 1.315 3.158 4.439 4.439 0 0 0 3.158 1.315z"/><path d="M9456.931 1851.511a4.441 4.441 0 0 0 3.158-1.315 4.439 4.439 0 0 0 1.315-3.158.787.787 0 0 0-.788-.788.788.788 0 0 0-.788.788 2.873 2.873 0 0 1-.854 2.043 2.875 2.875 0 0 1-2.043.854 2.874 2.874 0 0 1-2.043-.854 2.875 2.875 0 0 1-.854-2.043 4.44 4.44 0 0 0-1.315-3.157 4.44 4.44 0 0 0-3.157-1.315 4.442 4.442 0 0 0-3.158 1.315 4.441 4.441 0 0 0-1.315 3.157.788.788 0 0 0 .788.788.787.787 0 0 0 .787-.788 2.875 2.875 0 0 1 .854-2.043 2.874 2.874 0 0 1 2.043-.853 2.874 2.874 0 0 1 2.043.853 2.875 2.875 0 0 1 .854 2.043 4.439 4.439 0 0 0 1.315 3.158 4.439 4.439 0 0 0 3.158 1.315z"/><path d="M9442.236 1851.511a4.441 4.441 0 0 0 3.158-1.315 4.439 4.439 0 0 0 1.315-3.158.787.787 0 0 0-.788-.788.788.788 0 0 0-.788.788 2.873 2.873 0 0 1-.854 2.043 2.875 2.875 0 0 1-2.043.854 2.874 2.874 0 0 1-2.043-.854 2.875 2.875 0 0 1-.854-2.043 4.44 4.44 0 0 0-1.315-3.157 4.44 4.44 0 0 0-3.157-1.315 4.442 4.442 0 0 0-3.158 1.315 4.441 4.441 0 0 0-1.315 3.157.788.788 0 0 0 .788.788.787.787 0 0 0 .787-.788 2.875 2.875 0 0 1 .854-2.043 2.874 2.874 0 0 1 2.043-.853 2.874 2.874 0 0 1 2.043.853 2.875 2.875 0 0 1 .854 2.043 4.439 4.439 0 0 0 1.315 3.158 4.439 4.439 0 0 0 3.158 1.315z"/><path d="M9082.211 1716.502a4.441 4.441 0 0 0 3.158-1.315 4.439 4.439 0 0 0 1.315-3.158.787.787 0 0 0-.788-.788.788.788 0 0 0-.788.788 2.873 2.873 0 0 1-.854 2.043 2.875 2.875 0 0 1-2.043.854 2.874 2.874 0 0 1-2.043-.854 2.875 2.875 0 0 1-.854-2.043 4.44 4.44 0 0 0-1.315-3.157 4.44 4.44 0 0 0-3.157-1.315 4.442 4.442 0 0 0-3.158 1.315 4.441 4.441 0 0 0-1.315 3.157.788.788 0 0 0 .788.788.787.787 0 0 0 .787-.788 2.875 2.875 0 0 1 .854-2.043 2.874 2.874 0 0 1 2.043-.853 2.874 2.874 0 0 1 2.043.853 2.875 2.875 0 0 1 .854 2.043 4.439 4.439 0 0 0 1.315 3.158 4.439 4.439 0 0 0 3.158 1.315z"/><path d="M9067.516 1716.502a4.441 4.441 0 0 0 3.158-1.315 4.439 4.439 0 0 0 1.315-3.158.787.787 0 0 0-.788-.788.788.788 0 0 0-.788.788 2.873 2.873 0 0 1-.854 2.043 2.875 2.875 0 0 1-2.043.854 2.874 2.874 0 0 1-2.043-.854 2.875 2.875 0 0 1-.854-2.043 4.44 4.44 0 0 0-1.315-3.157 4.44 4.44 0 0 0-3.157-1.315 4.442 4.442 0 0 0-3.158 1.315 4.441 4.441 0 0 0-1.315 3.157.788.788 0 0 0 .788.788.787.787 0 0 0 .787-.788 2.875 2.875 0 0 1 .854-2.043 2.874 2.874 0 0 1 2.043-.853 2.874 2.874 0 0 1 2.043.853 2.875 2.875 0 0 1 .854 2.043 4.439 4.439 0 0 0 1.315 3.158 4.439 4.439 0 0 0 3.158 1.315z"/><path d="M9052.821 1716.502a4.441 4.441 0 0 0 3.158-1.315 4.439 4.439 0 0 0 1.315-3.158.787.787 0 0 0-.788-.788.788.788 0 0 0-.788.788 2.873 2.873 0 0 1-.854 2.043 2.875 2.875 0 0 1-2.043.854 2.874 2.874 0 0 1-2.043-.854 2.875 2.875 0 0 1-.854-2.043 4.44 4.44 0 0 0-1.315-3.157 4.44 4.44 0 0 0-3.157-1.315 4.442 4.442 0 0 0-3.158 1.315 4.441 4.441 0 0 0-1.315 3.157.788.788 0 0 0 .788.788.787.787 0 0 0 .787-.788 2.875 2.875 0 0 1 .854-2.043 2.874 2.874 0 0 1 2.043-.853 2.874 2.874 0 0 1 2.043.853 2.875 2.875 0 0 1 .854 2.043 4.439 4.439 0 0 0 1.315 3.158 4.439 4.439 0 0 0 3.158 1.315z"/><path d="M9038.127 1716.502a4.441 4.441 0 0 0 3.158-1.315 4.439 4.439 0 0 0 1.315-3.158.787.787 0 0 0-.788-.788.788.788 0 0 0-.788.788 2.873 2.873 0 0 1-.854 2.043 2.875 2.875 0 0 1-2.043.854 2.874 2.874 0 0 1-2.043-.854 2.875 2.875 0 0 1-.854-2.043 4.44 4.44 0 0 0-1.315-3.157 4.44 4.44 0 0 0-3.157-1.315 4.442 4.442 0 0 0-3.158 1.315 4.441 4.441 0 0 0-1.315 3.157.788.788 0 0 0 .788.788.787.787 0 0 0 .787-.788 2.875 2.875 0 0 1 .854-2.043 2.874 2.874 0 0 1 2.043-.853 2.874 2.874 0 0 1 2.043.853 2.875 2.875 0 0 1 .854 2.043 4.439 4.439 0 0 0 1.315 3.158 4.439 4.439 0 0 0 3.158 1.315z"/><path d="M9023.432 1716.502a4.441 4.441 0 0 0 3.158-1.315 4.439 4.439 0 0 0 1.315-3.158.787.787 0 0 0-.788-.788.788.788 0 0 0-.788.788 2.873 2.873 0 0 1-.854 2.043 2.875 2.875 0 0 1-2.043.854 2.874 2.874 0 0 1-2.043-.854 2.875 2.875 0 0 1-.854-2.043 4.44 4.44 0 0 0-1.315-3.157 4.44 4.44 0 0 0-3.157-1.315 4.442 4.442 0 0 0-3.158 1.315 4.441 4.441 0 0 0-1.315 3.157.788.788 0 0 0 .788.788.787.787 0 0 0 .787-.788 2.875 2.875 0 0 1 .854-2.043 2.874 2.874 0 0 1 2.043-.853 2.874 2.874 0 0 1 2.043.853 2.875 2.875 0 0 1 .854 2.043 4.439 4.439 0 0 0 1.315 3.158 4.439 4.439 0 0 0 3.158 1.315z"/></g><rect fill="#e4a5b8" height="21.124" rx="10.562" width="101.946" x="9355.081" y="2024.241"/><rect fill="#c94b72" height="43.166" rx="21.583" transform="rotate(90 3983.196 5635.014)" width="112.048"><animate attributeName="x" from="0" to="32" dur="5s" repeatCount="indefinite" values="0;32;0" keyTimes="0;0.5;1"/></rect><rect fill="#ff2c6e" height="24.798" rx="12.399" width="188.278" x="8973.015" y="1759.734"/><g fill="none" stroke="#ff2c6e" stroke-width="2"><ellipse cx="9470.804" cy="1945.256" rx="24.798" ry="24.798" stroke="none"/><ellipse cx="9470.804" cy="1945.256" rx="23.798" ry="23.798"/></g><g fill="none" stroke="#ff2c6e" stroke-width="8"><ellipse cx="9596.168" cy="2069.703" rx="21.583" ry="21.583" stroke="none"/><ellipse cx="9596.168" cy="2069.703" rx="17.583" ry="17.583"/></g><g fill="none" stroke="#ff2c6e" stroke-width="8"><ellipse cx="9012.048" cy="1837.341" rx="21.583" ry="21.583" stroke="none"/><ellipse cx="9012.048" cy="1837.341" rx="17.583" ry="17.583"/></g><g fill="none" stroke="#ff2c6e" stroke-width="2"><ellipse cx="9557.136" cy="1986.586" rx="5.511" ry="5.511" stroke="none"/><ellipse cx="9557.136" cy="1986.586" rx="4.511" ry="4.511"/></g><g fill="none" stroke="#ff2c6e" stroke-width="2"><ellipse cx="9294.465" cy="2093.124" rx="5.511" ry="5.511" stroke="none"/><ellipse cx="9294.465" cy="2093.124" rx="4.511" ry="4.511"/></g></g></svg>