<svg width="18" height="18" xmlns="http://www.w3.org/2000/svg"><path d="M8.915 12.337c.3.05.565-.178.565-.474v-2.38h2.383A.486.486 0 0 0 12.346 9V8.93l-.002-.011a.498.498 0 0 0-.496-.402H9.483V6.156a.495.495 0 0 0-.402-.497.482.482 0 0 0-.564.474v2.38H6.152a.498.498 0 0 0-.496.402v.002a.484.484 0 0 0 .478.563h2.379v2.36c0 .234.157.455.402.497z" stroke-width=".25"/><path d="M9 .875C4.518.875.875 4.518.875 9c0 4.552 3.404 8.125 7.76 8.125 4.597 0 8.49-3.713 8.49-8.125C17.125 4.522 13.478.875 9 .875zm-.366 15.283c-3.866 0-6.792-3.068-6.792-7.158 0-3.948 3.214-7.158 7.158-7.158A7.165 7.165 0 0 1 16.158 9c0 3.874-3.442 7.158-7.524 7.158z" stroke="#00678F" stroke-width=".25"/></svg>