<svg xmlns="http://www.w3.org/2000/svg" width="104.898" height="104.898" viewBox="0 0 104.898 104.898"><defs><style>.a{fill:#fc0;}.b{fill:#151a6a;}</style></defs><path class="a" d="M6,10V50.976a8.205,8.205,0,0,0,8.2,8.2H92.869a8.205,8.205,0,0,0,8.2-8.2V10Z" transform="translate(3.834 6.39)"/><path class="a" d="M92.869,0H14.2A8.205,8.205,0,0,0,6,8.2v4.917h95.064V8.2A8.205,8.205,0,0,0,92.869,0ZM14.2,9.2a1.639,1.639,0,1,1,1.639-1.639A1.639,1.639,0,0,1,14.2,9.2Zm6.556,0A1.639,1.639,0,1,1,22.39,7.561,1.639,1.639,0,0,1,20.751,9.2Zm6.556,0a1.639,1.639,0,1,1,1.639-1.639A1.639,1.639,0,0,1,27.307,9.2Z" transform="translate(3.834)"/><g transform="translate(0 23.356)"><path class="b" d="M40.015,35.125h-4.1A4.917,4.917,0,0,0,31,40.042v7.99a4.917,4.917,0,0,0,4.917,4.917h4.1a4.917,4.917,0,0,0,4.917-4.917v-7.99A4.917,4.917,0,0,0,40.015,35.125Zm1.639,12.907a1.639,1.639,0,0,1-1.639,1.639h-4.1a1.639,1.639,0,0,1-1.639-1.639v-7.99A1.639,1.639,0,0,1,35.917,38.4h4.1a1.639,1.639,0,0,1,1.639,1.639Z" transform="translate(19.81 -0.91)"/><path class="b" d="M52.515,35.125h-4.1A4.917,4.917,0,0,0,43.5,40.042v7.99a4.917,4.917,0,0,0,4.917,4.917h4.1a4.917,4.917,0,0,0,4.917-4.917v-7.99A4.917,4.917,0,0,0,52.515,35.125Zm1.639,12.907a1.639,1.639,0,0,1-1.639,1.639h-4.1a1.639,1.639,0,0,1-1.639-1.639v-7.99A1.639,1.639,0,0,1,48.417,38.4h4.1a1.639,1.639,0,0,1,1.639,1.639Z" transform="translate(27.798 -0.91)"/><path class="b" d="M60.5,20.25H35.917A4.917,4.917,0,0,0,31,25.167v7.99a4.917,4.917,0,0,0,4.917,4.917H60.5a4.917,4.917,0,0,0,4.917-4.917v-7.99A4.917,4.917,0,0,0,60.5,20.25Zm1.639,12.907A1.639,1.639,0,0,1,60.5,34.8H35.917a1.639,1.639,0,0,1-1.639-1.639v-7.99a1.639,1.639,0,0,1,1.639-1.639H60.5a1.639,1.639,0,0,1,1.639,1.639Z" transform="translate(19.81 -10.416)"/><path class="b" d="M35.5,20.25H10.917A4.917,4.917,0,0,0,6,25.167V57.538a4.917,4.917,0,0,0,4.917,4.917H35.5a4.917,4.917,0,0,0,4.917-4.917V25.167A4.917,4.917,0,0,0,35.5,20.25Zm1.639,37.288A1.639,1.639,0,0,1,35.5,59.177H10.917a1.639,1.639,0,0,1-1.639-1.639V25.167a1.639,1.639,0,0,1,1.639-1.639H35.5a1.639,1.639,0,0,1,1.639,1.639Z" transform="translate(3.834 -10.416)"/><path class="b" d="M86.869,14.25H8.2a8.205,8.205,0,0,0-8.2,8.2V77.763a8.205,8.205,0,0,0,8.2,8.2H33.436a8.21,8.21,0,0,1-8.031,6.556,1.639,1.639,0,0,0,0,3.278H69.659a1.639,1.639,0,0,0,0-3.278,8.21,8.21,0,0,1-8.031-6.556H86.869a8.205,8.205,0,0,0,8.2-8.2V22.445a8.205,8.205,0,0,0-8.2-8.2ZM61.628,92.514H33.436a11.454,11.454,0,0,0,3.319-6.556H58.317a11.454,11.454,0,0,0,3.311,6.556ZM91.786,77.763a4.917,4.917,0,0,1-4.917,4.917H8.2a4.917,4.917,0,0,1-4.917-4.917V76.124H91.786Zm0-4.917H3.278v-50.4A4.917,4.917,0,0,1,8.2,17.528H86.869a4.917,4.917,0,0,1,4.917,4.917Z" transform="translate(0 -14.25)"/></g></svg>
