<svg width="32" height="32" viewBox="0 0 32 32" xmlns="http://www.w3.org/2000/svg"><path d="M28.678 4.65l-1.325-1.325a.259.259 0 0 0-.356 0l-2.378 2.378a6.228 6.228 0 0 0-3.503-1.072c-1.6 0-3.2.61-4.422 1.832l-3.185 3.184a.251.251 0 0 0 0 .353L22 18.49c.05.05.113.073.178.073a.264.264 0 0 0 .178-.072l3.185-3.185a6.256 6.256 0 0 0 .759-7.922l2.378-2.378a.255.255 0 0 0 0-.356zM18.091 17.084a.25.25 0 0 0-.354 0l-2.08 2.082-2.823-2.822 2.085-2.085a.251.251 0 0 0 0-.353L13.78 12.77a.25.25 0 0 0-.353 0l-2.084 2.084L10 13.51a.244.244 0 0 0-.178-.072.264.264 0 0 0-.178.072l-3.181 3.185a6.256 6.256 0 0 0-.76 7.922l-2.378 2.378a.25.25 0 0 0 0 .353l1.325 1.325a.259.259 0 0 0 .356 0l2.378-2.378a6.227 6.227 0 0 0 3.503 1.072c1.6 0 3.2-.61 4.422-1.832l3.185-3.184a.251.251 0 0 0 0-.353l-1.344-1.344 2.084-2.084a.25.25 0 0 0 0-.353l-1.143-1.132z"/></svg>