<svg width="22" height="18" fill="none" xmlns="http://www.w3.org/2000/svg">
<g clip-path="url(#clip0_446_2)">
<rect x="7.0293" y="8" width="11.5135" height="8.40716" transform="rotate(0.199417 7.0293 8)"/>
<rect x="7.0293" y="8" width="11.5135" height="8.40716" transform="rotate(0.199417 7.0293 8)"/>
<rect x="7.0293" y="8" width="11.5135" height="8.40716" transform="rotate(0.199417 7.0293 8)"/>
<rect x="17.3203" y="7.08755" width="4.33642" height="7.43695" transform="rotate(15.8507 17.3203 7.08755)"/>
<rect x="17.3203" y="7.08755" width="4.33642" height="7.43695" transform="rotate(15.8507 17.3203 7.08755)"/>
<rect x="17.3203" y="7.08755" width="4.33642" height="7.43695" transform="rotate(15.8507 17.3203 7.08755)"/>
<rect x="11.3242" y="1.94107" width="3.2335" height="7.43695" transform="rotate(33.5761 11.3242 1.94107)"/>
<rect x="11.3242" y="1.94107" width="3.2335" height="7.43695" transform="rotate(33.5761 11.3242 1.94107)"/>
<rect x="11.3242" y="1.94107" width="3.2335" height="7.43695" transform="rotate(33.5761 11.3242 1.94107)"/>
<path d="M8 18H17C17.83 18 18.54 17.55 18.84 16.902L21.86 10.557C21.95 10.35 22 10.134 22 9.9V8.1C22 7.11 21.1 6.3 20 6.3H13.69L14.64 2.187L14.67 1.899C14.67 1.53 14.5 1.188 14.23 0.945L13.17 0L6.58 5.931C6.22 6.255 6 6.705 6 7.2V16.2C6 17.19 6.9 18 8 18ZM8 7.2L12.34 3.294L11 8.1H20V9.9L17 16.2H8V7.2ZM0 7.2H4V18H0V7.2Z" fill="#00678F"/>
</g>
<defs>
<clipPath id="clip0_446_2">
<rect width="22" height="18" fill="white"/>
</clipPath>
</defs>
<!-- <path d="M8 18h9c.83 0 1.54-.45 1.84-1.098l3.02-6.345c.09-.207.14-.423.14-.657V8.1c0-.99-.9-1.8-2-1.8h-6.31l.95-4.113.03-.288c0-.369-.17-.711-.44-.954L13.17 0 6.58 5.931C6.22 6.255 6 6.705 6 7.2v9c0 .99.9 1.8 2 1.8zM8 7.2l4.34-3.906L11 8.1h9v1.8l-3 6.3H8v-9zm-8 0h4V18H0V7.2z" fill="#00678F"/> -->
</svg>