<svg width="20" height="20" viewBox="0 0 20 20" fill="none" xmlns="http://www.w3.org/2000/svg">
    <path d="M13.3335 3.33333H18.3335C18.5545 3.33333 18.7665 3.42113 18.9228 3.57741C19.079 3.73369 19.1668 3.94565 19.1668 4.16667C19.1668 4.38768 19.079 4.59964 18.9228 4.75592C18.7665 4.9122 18.5545 5 18.3335 5H17.4118L16.1585 16.2933C16.0453 17.3126 15.5602 18.2542 14.796 18.9381C14.0319 19.622 13.0423 20.0001 12.0168 20H7.9835C6.958 20.0001 5.96847 19.622 5.20431 18.9381C4.44016 18.2542 3.95504 17.3126 3.84183 16.2933L2.58683 5H1.66683C1.44582 5 1.23385 4.9122 1.07757 4.75592C0.921294 4.59964 0.833496 4.38768 0.833496 4.16667C0.833496 3.94565 0.921294 3.73369 1.07757 3.57741C1.23385 3.42113 1.44582 3.33333 1.66683 3.33333H6.66683C6.66683 2.44928 7.01802 1.60143 7.64314 0.976311C8.26826 0.351189 9.11611 0 10.0002 0C10.8842 0 11.7321 0.351189 12.3572 0.976311C12.9823 1.60143 13.3335 2.44928 13.3335 3.33333ZM10.0002 1.66667C9.55814 1.66667 9.13421 1.84226 8.82165 2.15482C8.50909 2.46738 8.3335 2.89131 8.3335 3.33333H11.6668C11.6668 2.89131 11.4912 2.46738 11.1787 2.15482C10.8661 1.84226 10.4422 1.66667 10.0002 1.66667ZM7.50016 8.33333V15C7.50016 15.221 7.58796 15.433 7.74424 15.5893C7.90052 15.7455 8.11248 15.8333 8.3335 15.8333C8.55451 15.8333 8.76647 15.7455 8.92275 15.5893C9.07903 15.433 9.16683 15.221 9.16683 15V8.33333C9.16683 8.11232 9.07903 7.90036 8.92275 7.74408C8.76647 7.5878 8.55451 7.5 8.3335 7.5C8.11248 7.5 7.90052 7.5878 7.74424 7.74408C7.58796 7.90036 7.50016 8.11232 7.50016 8.33333ZM11.6668 7.5C11.4458 7.5 11.2339 7.5878 11.0776 7.74408C10.9213 7.90036 10.8335 8.11232 10.8335 8.33333V15C10.8335 15.221 10.9213 15.433 11.0776 15.5893C11.2339 15.7455 11.4458 15.8333 11.6668 15.8333C11.8878 15.8333 12.0998 15.7455 12.2561 15.5893C12.4124 15.433 12.5002 15.221 12.5002 15V8.33333C12.5002 8.11232 12.4124 7.90036 12.2561 7.74408C12.0998 7.5878 11.8878 7.5 11.6668 7.5Z" fill="#00678F"/>
</svg>
