<svg width="32" height="32" xmlns="http://www.w3.org/2000/svg"><path d="M3.63 10.517l11.83 5.366a1.3 1.3 0 0 0 1.08 0l11.83-5.366c.84-.381.84-1.651 0-2.033L16.54 3.118a1.3 1.3 0 0 0-1.08 0L3.63 8.484c-.84.381-.84 1.652 0 2.033zM28.37 15l-2.95-1.337-8.208 3.72a2.915 2.915 0 0 1-2.424 0l-8.207-3.72L3.63 15c-.841.38-.841 1.65 0 2.031l11.828 5.362c.346.156.736.156 1.081 0l11.83-5.362c.84-.38.84-1.65 0-2.031zm0 6.49l-2.939-1.332-8.22 3.725a2.915 2.915 0 0 1-2.423 0L6.57 20.158 3.63 21.49c-.84.38-.84 1.65 0 2.03l11.83 5.363c.345.156.735.156 1.08 0l11.83-5.362c.84-.381.84-1.65 0-2.031z"/></svg>