<?xml version="1.0" encoding="utf-8"?>
<!-- Generator: Adobe Illustrator 26.2.1, SVG Export Plug-In . SVG Version: 6.00 Build 0)  -->
<svg version="1.1" class="calendar-svg" xmlns="http://www.w3.org/2000/svg" xmlns:xlink="http://www.w3.org/1999/xlink"
	 viewBox="0 0 26 24" width="27" height="27" style="enable-background:new 0 0 26 24;" xml:space="preserve">
<path d="M25.6,1.9h-2.7V1.2c0-0.7-0.5-1.2-1.2-1.2c-0.7,0-1.2,0.5-1.2,1.2v0.7h-3.3V1.2C17.2,0.5,16.6,0,16,0
	c-0.7,0-1.2,0.5-1.2,1.2v0.7h-3.3V1.2c0-0.7-0.5-1.2-1.2-1.2C9.6,0,9.1,0.5,9.1,1.2v0.7H5.8V1.2C5.8,0.5,5.2,0,4.6,0
	S3.3,0.5,3.3,1.2v0.7H0.4C0.2,1.9,0,2.1,0,2.3v21.3C0,23.8,0.2,24,0.4,24l25.2,0c0.2,0,0.4-0.2,0.4-0.4l0-21.3
	C26,2.1,25.8,1.9,25.6,1.9L25.6,1.9z M21.3,1.2c0-0.2,0.2-0.4,0.4-0.4s0.4,0.2,0.4,0.4v1.1v0v0v1.1c0,0.2-0.2,0.4-0.4,0.4
	s-0.4-0.2-0.4-0.4V1.2z M16,0.8c0.2,0,0.4,0.2,0.4,0.4v2.2c0,0.2-0.2,0.4-0.4,0.4c-0.2,0-0.4-0.2-0.4-0.4V2.3v0v0V1.2
	C15.6,1,15.8,0.8,16,0.8L16,0.8z M10.3,0.8c0.2,0,0.4,0.2,0.4,0.4v2.2c0,0.2-0.2,0.4-0.4,0.4S9.9,3.6,9.9,3.4V2.3v0v0V1.2
	C9.9,1,10.1,0.8,10.3,0.8L10.3,0.8z M4.2,1.2c0-0.2,0.2-0.4,0.4-0.4c0.2,0,0.4,0.2,0.4,0.4v1.1v0v0v1.1c0,0.2-0.2,0.4-0.4,0.4
	c-0.2,0-0.4-0.2-0.4-0.4V1.2z M3.3,2.7v0.7c0,0.7,0.5,1.2,1.2,1.2c0.7,0,1.2-0.5,1.2-1.2V2.7h3.3v0.7c0,0.7,0.5,1.2,1.2,1.2
	c0.7,0,1.2-0.5,1.2-1.2V2.7h3.3v0.7c0,0.7,0.5,1.2,1.2,1.2c0.7,0,1.2-0.5,1.2-1.2V2.7h3.3v0.7c0,0.7,0.5,1.2,1.2,1.2
	c0.7,0,1.2-0.5,1.2-1.2V2.7h2.3v3.6H0.8V2.7H3.3z M0.8,23.2v-16h24.3v16H0.8z"/>
<path d="M10.1,9.2c-0.9,0-1.6,0.7-1.6,1.7c0,0.9,0.7,1.7,1.6,1.7c0.9,0,1.6-0.7,1.6-1.7C11.8,10,11,9.2,10.1,9.2z M10.1,11.7
	c-0.4,0-0.8-0.4-0.8-0.8c0-0.4,0.4-0.8,0.8-0.8c0.4,0,0.8,0.4,0.8,0.8C10.9,11.3,10.6,11.7,10.1,11.7z"/>
<path d="M15.9,9.2c-0.9,0-1.6,0.7-1.6,1.7c0,0.9,0.7,1.7,1.6,1.7c0.9,0,1.6-0.7,1.6-1.7C17.5,10,16.8,9.2,15.9,9.2z M15.9,11.7
	c-0.4,0-0.8-0.4-0.8-0.8c0-0.4,0.4-0.8,0.8-0.8s0.8,0.4,0.8,0.8C16.7,11.3,16.3,11.7,15.9,11.7z"/>
<path d="M21.6,9.2c-0.9,0-1.6,0.7-1.6,1.7c0,0.9,0.7,1.7,1.6,1.7c0.9,0,1.6-0.7,1.6-1.7C23.2,10,22.5,9.2,21.6,9.2z M21.6,11.7
	c-0.4,0-0.8-0.4-0.8-0.8c0-0.4,0.4-0.8,0.8-0.8c0.4,0,0.8,0.4,0.8,0.8C22.4,11.3,22,11.7,21.6,11.7z"/>
<path d="M4.4,13.6c-0.9,0-1.6,0.7-1.6,1.7c0,0.9,0.7,1.7,1.6,1.7c0.9,0,1.6-0.7,1.6-1.7C6.1,14.3,5.3,13.6,4.4,13.6z M4.4,16.1
	c-0.4,0-0.8-0.4-0.8-0.8c0-0.4,0.4-0.8,0.8-0.8c0.4,0,0.8,0.4,0.8,0.8C5.2,15.7,4.9,16.1,4.4,16.1z"/>
<path d="M10.1,13.6c-0.9,0-1.6,0.7-1.6,1.7c0,0.9,0.7,1.7,1.6,1.7c0.9,0,1.6-0.7,1.6-1.7C11.8,14.3,11,13.6,10.1,13.6z M10.1,16.1
	c-0.4,0-0.8-0.4-0.8-0.8c0-0.4,0.4-0.8,0.8-0.8c0.4,0,0.8,0.4,0.8,0.8C10.9,15.7,10.6,16.1,10.1,16.1z"/>
<path d="M15.9,13.6c-0.9,0-1.6,0.7-1.6,1.7c0,0.9,0.7,1.7,1.6,1.7c0.9,0,1.6-0.7,1.6-1.7S16.8,13.6,15.9,13.6z M15.9,16.1
	c-0.4,0-0.8-0.4-0.8-0.8c0-0.4,0.4-0.8,0.8-0.8s0.8,0.4,0.8,0.8C16.7,15.7,16.3,16.1,15.9,16.1z"/>
<path d="M21.6,13.6c-0.9,0-1.6,0.7-1.6,1.7c0,0.9,0.7,1.7,1.6,1.7c0.9,0,1.6-0.7,1.6-1.7S22.5,13.6,21.6,13.6z M21.6,16.1
	c-0.4,0-0.8-0.4-0.8-0.8c0-0.4,0.4-0.8,0.8-0.8c0.4,0,0.8,0.4,0.8,0.8C22.4,15.7,22,16.1,21.6,16.1z"/>
<path d="M4.4,18c-0.9,0-1.6,0.7-1.6,1.7c0,0.9,0.7,1.7,1.6,1.7c0.9,0,1.6-0.7,1.6-1.7C6.1,18.7,5.3,18,4.4,18z M4.4,20.4
	c-0.4,0-0.8-0.4-0.8-0.8c0-0.4,0.4-0.8,0.8-0.8c0.4,0,0.8,0.4,0.8,0.8C5.2,20.1,4.9,20.4,4.4,20.4z"/>
<path d="M10.1,18c-0.9,0-1.6,0.7-1.6,1.7c0,0.9,0.7,1.7,1.6,1.7c0.9,0,1.6-0.7,1.6-1.7C11.8,18.7,11,18,10.1,18z M10.1,20.4
	c-0.4,0-0.8-0.4-0.8-0.8c0-0.4,0.4-0.8,0.8-0.8c0.4,0,0.8,0.4,0.8,0.8C10.9,20.1,10.6,20.4,10.1,20.4z"/>
<path d="M15.9,18c-0.9,0-1.6,0.7-1.6,1.7c0,0.9,0.7,1.7,1.6,1.7c0.9,0,1.6-0.7,1.6-1.7C17.5,18.7,16.8,18,15.9,18z M15.9,20.4
	c-0.4,0-0.8-0.4-0.8-0.8c0-0.4,0.4-0.8,0.8-0.8s0.8,0.4,0.8,0.8C16.7,20.1,16.3,20.4,15.9,20.4z"/>
</svg>
