<svg id="_545676" data-name="545676" xmlns="http://www.w3.org/2000/svg" width="64" height="64" viewBox="0 0 64 64">
  <g id="Group_92" data-name="Group 92">
    <g id="Group_91" data-name="Group 91">
      <path id="Path_115" data-name="Path 115" d="M32,0A32,32,0,1,0,64,32,31.982,31.982,0,0,0,32,0Zm0,59A27,27,0,1,1,59,32,26.985,26.985,0,0,1,32,59Z" fill="#FFF"/>
    </g>
  </g>
  <g id="Group_94" data-name="Group 94" transform="translate(20.319 20.319)">
    <g id="Group_93" data-name="Group 93">
      <path id="Path_116" data-name="Path 116" d="M185.184,181.649l-7.413-7.413,7.413-7.413a2.5,2.5,0,1,0-3.535-3.536l-7.413,7.413-7.413-7.413a2.5,2.5,0,1,0-3.535,3.536l7.413,7.413-7.413,7.413a2.5,2.5,0,1,0,3.535,3.535l7.413-7.413,7.413,7.413a2.5,2.5,0,1,0,3.535-3.535Z" transform="translate(-162.555 -162.556)" fill="#FFF"/>
    </g>
  </g>
</svg>
