<svg xmlns="http://www.w3.org/2000/svg" height="24" viewBox="0 0 24 24" width="24"><path d="M0 0h24v24H0V0z" fill="none"/>
<g clip-path="url(#clip0_440_2)">
<rect x="8" y="6" width="8" height="3" />
<rect x="5" y="7" width="5" height="3" />
<rect x="3" y="9" width="5" height="3" />
<rect x="3" y="12" width="5" height="3" />
<rect x="5" y="14" width="5" height="3" />
<rect x="8" y="15" width="5" height="3" />
<rect x="13" y="15" width="4" height="3" />
<rect x="14" y="14" width="4" height="3" />
<rect x="15" y="13" width="5" height="3" />
<rect x="16" y="11" width="5" height="3" />
<rect x="16" y="9" width="5" height="3" />
<rect x="15" y="7" width="4" height="3" />
<path d="M12 6.5C15.79 6.5 19.17 8.63 20.82 12C19.17 15.37 15.8 17.5 12 17.5C8.2 17.5 4.83 15.37 3.18 12C4.83 8.63 8.21 6.5 12 6.5ZM12 4.5C7 4.5 2.73 7.61 1 12C2.73 16.39 7 19.5 12 19.5C17 19.5 21.27 16.39 23 12C21.27 7.61 17 4.5 12 4.5ZM12 9.5C13.38 9.5 14.5 10.62 14.5 12C14.5 13.38 13.38 14.5 12 14.5C10.62 14.5 9.5 13.38 9.5 12C9.5 10.62 10.62 9.5 12 9.5ZM12 7.5C9.52 7.5 7.5 9.52 7.5 12C7.5 14.48 9.52 16.5 12 16.5C14.48 16.5 16.5 14.48 16.5 12C16.5 9.52 14.48 7.5 12 7.5Z" />
</g>
<defs>
<clipPath id="clip0_440_2">
<rect width="24" height="24" fill="white"/>
</clipPath>
</defs>
<!-- <path d="M12 6.5c3.79 0 7.17 2.13 8.82 5.5-1.65 3.37-5.02 5.5-8.82 5.5S4.83 15.37 3.18 12C4.83 8.63 8.21 6.5 12 6.5m0-2C7 4.5 2.73 7.61 1 12c1.73 4.39 6 7.5 11 7.5s9.27-3.11 11-7.5c-1.73-4.39-6-7.5-11-7.5zm0 5c1.38 0 2.5 1.12 2.5 2.5s-1.12 2.5-2.5 2.5-2.5-1.12-2.5-2.5 1.12-2.5 2.5-2.5m0-2c-2.48 0-4.5 2.02-4.5 4.5s2.02 4.5 4.5 4.5 4.5-2.02 4.5-4.5-2.02-4.5-4.5-4.5z"/> -->
</svg>
