<svg width="32" height="32" viewBox="0 0 32 32" xmlns="http://www.w3.org/2000/svg">
    <path d="M29 16a13 13 0 1 1-26 0 13 13 0 0 1 26 0zm-17.069-3.196h1.34c.225 0 .404-.184.433-.407.146-1.066.877-1.842 2.18-1.842 1.115 0 2.136.557 2.136 1.898 0 1.032-.608 1.506-1.568 2.228-1.094.794-1.96 1.722-1.898 3.228l.005.353a.406.406 0 0 0 .406.4h1.318a.407.407 0 0 0 .406-.406v-.171c0-1.167.444-1.507 1.641-2.415.99-.752 2.022-1.588 2.022-3.34 0-2.456-2.074-3.643-4.344-3.643-2.059 0-4.314.96-4.469 3.715a.385.385 0 0 0 .392.402zm3.778 10.47c.991 0 1.672-.64 1.672-1.507 0-.897-.682-1.527-1.672-1.527-.949 0-1.64.63-1.64 1.527 0 .866.691 1.506 1.642 1.506h-.002z" /></svg>
