<svg id="_1828885" data-name="1828885" xmlns="http://www.w3.org/2000/svg" width="66" height="66" viewBox="0 0 66 66">
  <path id="Path_109" data-name="Path 109" d="M240.168,109.418a2.75,2.75,0,1,1-2.75-2.75A2.75,2.75,0,0,1,240.168,109.418Zm0,0" transform="translate(-204.418 -92.918)" fill="#FFF"/>
  <path id="Path_110" data-name="Path 110" d="M209.543,219.5a2.063,2.063,0,0,1-2.062-2.062V196.125h-2.75a2.063,2.063,0,0,1,0-4.125h4.812a2.063,2.063,0,0,1,2.063,2.063v23.375A2.063,2.063,0,0,1,209.543,219.5Zm0,0" transform="translate(-176.543 -167.25)" fill="#FFF"/>
  <path id="Path_111" data-name="Path 111" d="M33,66A33,33,0,1,1,66,33,33.037,33.037,0,0,1,33,66ZM33,4.125A28.875,28.875,0,1,0,61.875,33,28.907,28.907,0,0,0,33,4.125Zm0,0" fill="#FFF"/>
  <path id="Path_112" data-name="Path 112" d="M206.438,377.457H194.063a2.063,2.063,0,0,1,0-4.125h12.375a2.063,2.063,0,0,1,0,4.125Zm0,0" transform="translate(-167.25 -325.207)" fill="#FFF"/>
</svg>
