<svg width="35" height="35" viewBox="0 0 35 35" fill="none" xmlns="http://www.w3.org/2000/svg">
<circle cx="17.5" cy="17.5" r="17.5" fill="#C4C4C4"/>
<path d="M10.208 19H9.47559L8.0498 16.6611V19H7.31738V15.4453H8.0498L9.47803 17.7891V15.4453H10.208V19ZM13.7676 17.3032C13.7676 17.6532 13.7057 17.96 13.582 18.2236C13.4583 18.4873 13.2809 18.6908 13.0498 18.834C12.8203 18.9772 12.5566 19.0488 12.2588 19.0488C11.9642 19.0488 11.7013 18.978 11.4702 18.8364C11.2391 18.6948 11.0601 18.493 10.9331 18.231C10.8062 17.9673 10.7419 17.6646 10.7402 17.3228V17.147C10.7402 16.797 10.8029 16.4894 10.9282 16.2241C11.0552 15.9572 11.2334 15.7529 11.4629 15.6113C11.694 15.4681 11.9577 15.3965 12.2539 15.3965C12.5501 15.3965 12.813 15.4681 13.0425 15.6113C13.2736 15.7529 13.4518 15.9572 13.5771 16.2241C13.7041 16.4894 13.7676 16.7962 13.7676 17.1445V17.3032ZM13.0254 17.1421C13.0254 16.7694 12.9587 16.4862 12.8252 16.2925C12.6917 16.0988 12.5013 16.002 12.2539 16.002C12.0081 16.002 11.8185 16.098 11.6851 16.29C11.5516 16.4805 11.484 16.7604 11.4824 17.1299V17.3032C11.4824 17.6662 11.5492 17.9478 11.6826 18.1479C11.8161 18.3481 12.0081 18.4482 12.2588 18.4482C12.5046 18.4482 12.6934 18.3522 12.8252 18.1602C12.957 17.9665 13.0238 17.6849 13.0254 17.3154V17.1421ZM16.2773 18.4116H17.8325V19H15.5449V15.4453H16.2773V18.4116ZM21.0186 17.3032C21.0186 17.6532 20.9567 17.96 20.833 18.2236C20.7093 18.4873 20.5319 18.6908 20.3008 18.834C20.0713 18.9772 19.8076 19.0488 19.5098 19.0488C19.2152 19.0488 18.9523 18.978 18.7212 18.8364C18.4901 18.6948 18.311 18.493 18.1841 18.231C18.0571 17.9673 17.9928 17.6646 17.9912 17.3228V17.147C17.9912 16.797 18.0539 16.4894 18.1792 16.2241C18.3062 15.9572 18.4844 15.7529 18.7139 15.6113C18.945 15.4681 19.2087 15.3965 19.5049 15.3965C19.8011 15.3965 20.064 15.4681 20.2935 15.6113C20.5246 15.7529 20.7028 15.9572 20.8281 16.2241C20.9551 16.4894 21.0186 16.7962 21.0186 17.1445V17.3032ZM20.2764 17.1421C20.2764 16.7694 20.2096 16.4862 20.0762 16.2925C19.9427 16.0988 19.7523 16.002 19.5049 16.002C19.2591 16.002 19.0695 16.098 18.936 16.29C18.8026 16.4805 18.735 16.7604 18.7334 17.1299V17.3032C18.7334 17.6662 18.8001 17.9478 18.9336 18.1479C19.0671 18.3481 19.2591 18.4482 19.5098 18.4482C19.7555 18.4482 19.9443 18.3522 20.0762 18.1602C20.208 17.9665 20.2747 17.6849 20.2764 17.3154V17.1421ZM24.3633 18.5508C24.2314 18.7087 24.0451 18.8315 23.8042 18.9194C23.5633 19.0057 23.2964 19.0488 23.0034 19.0488C22.6958 19.0488 22.4256 18.9821 22.1929 18.8486C21.9618 18.7135 21.7827 18.5182 21.6558 18.2627C21.5304 18.0072 21.4661 17.7069 21.4629 17.3618V17.1201C21.4629 16.7653 21.5223 16.4585 21.6411 16.1997C21.7616 15.9393 21.9341 15.7407 22.1587 15.604C22.3849 15.4657 22.6494 15.3965 22.9521 15.3965C23.3737 15.3965 23.7033 15.4974 23.9409 15.6992C24.1785 15.8994 24.3193 16.1916 24.3633 16.5757H23.6504C23.6178 16.3722 23.5454 16.2233 23.4331 16.1289C23.3224 16.0345 23.1694 15.9873 22.9741 15.9873C22.7251 15.9873 22.5355 16.0809 22.4053 16.2681C22.2751 16.4552 22.2091 16.7336 22.2075 17.103V17.3301C22.2075 17.7028 22.2783 17.9844 22.4199 18.1748C22.5615 18.3652 22.769 18.4604 23.0425 18.4604C23.3175 18.4604 23.5137 18.4019 23.6309 18.2847V17.6719H22.9644V17.1323H24.3633V18.5508ZM27.8789 17.3032C27.8789 17.6532 27.8171 17.96 27.6934 18.2236C27.5697 18.4873 27.3923 18.6908 27.1611 18.834C26.9316 18.9772 26.668 19.0488 26.3701 19.0488C26.0755 19.0488 25.8127 18.978 25.5815 18.8364C25.3504 18.6948 25.1714 18.493 25.0444 18.231C24.9175 17.9673 24.8532 17.6646 24.8516 17.3228V17.147C24.8516 16.797 24.9142 16.4894 25.0396 16.2241C25.1665 15.9572 25.3447 15.7529 25.5742 15.6113C25.8053 15.4681 26.069 15.3965 26.3652 15.3965C26.6615 15.3965 26.9243 15.4681 27.1538 15.6113C27.3849 15.7529 27.5632 15.9572 27.6885 16.2241C27.8154 16.4894 27.8789 16.7962 27.8789 17.1445V17.3032ZM27.1367 17.1421C27.1367 16.7694 27.07 16.4862 26.9365 16.2925C26.8031 16.0988 26.6126 16.002 26.3652 16.002C26.1195 16.002 25.9299 16.098 25.7964 16.29C25.6629 16.4805 25.5954 16.7604 25.5938 17.1299V17.3032C25.5938 17.6662 25.6605 17.9478 25.7939 18.1479C25.9274 18.3481 26.1195 18.4482 26.3701 18.4482C26.6159 18.4482 26.8047 18.3522 26.9365 18.1602C27.0684 17.9665 27.1351 17.6849 27.1367 17.3154V17.1421Z" fill="#F2F2F2"/>
</svg>
