<svg width="22" height="28" viewBox="0 0 22 28" fill="none" xmlns="http://www.w3.org/2000/svg">
<path d="M11 27.3333C10.2926 27.3298 9.61493 27.0482 9.11346 26.5492C8.612 26.0502 8.32697 25.374 8.31998 24.6666H13.6533C13.6561 25.0231 13.5882 25.3766 13.4533 25.7066C13.2809 26.1023 13.0169 26.4513 12.683 26.7248C12.3492 26.9984 11.9551 27.1887 11.5333 27.28H11.4706C11.3157 27.3122 11.1582 27.3301 11 27.3333ZM21.6666 23.3333H0.333313V20.6666L2.99998 19.3333V12C2.92974 10.1188 3.35456 8.25213 4.23198 6.58663C4.66376 5.82298 5.25255 5.15957 5.95951 4.64016C6.66647 4.12074 7.47553 3.75712 8.33331 3.57329V0.666626H13.6666V3.57329C17.1053 4.39196 19 7.38396 19 12V19.3333L21.6666 20.6666V23.3333Z"/>
</svg>
