<svg width="16" height="16" viewBox="0 0 16 16" xmlns="http://www.w3.org/2000/svg">
<path d="M9.88757 2.67154L1.08379 11.49C1.04003 11.5342 1.00893 11.5893 0.993745 11.6496L0.0101592 15.5697C-0.00268599 15.6216 -0.00335944 15.6758 0.00819153 15.7281C0.0197425 15.7803 0.0432047 15.8292 0.0767429 15.8709C0.110281 15.9125 0.152986 15.9458 0.201517 15.9682C0.250048 15.9906 0.303089 16.0014 0.356492 15.9999H0.439612L4.35317 15.0216C4.41339 15.0064 4.46842 14.9752 4.51249 14.9314L13.3093 6.11983L9.88757 2.67154Z"/>
<path d="M15.4913 1.47124L14.5146 0.492951C14.1846 0.176585 13.7454 0 13.2886 0C12.8318 0 12.3926 0.176585 12.0626 0.492951L10.8643 1.69326L14.293 5.12768L15.4913 3.92737C15.6525 3.76624 15.7805 3.57483 15.8678 3.3641C15.9551 3.15337 16 2.92746 16 2.6993C16 2.47115 15.9551 2.24524 15.8678 2.03451C15.7805 1.82377 15.6525 1.63236 15.4913 1.47124Z"/>
</svg>
