<svg width="15" height="18" viewBox="0 0 15 18" fill="none" xmlns="http://www.w3.org/2000/svg">
<path d="M1.32842 12.8125C1.09864 12.8125 0.926312 12.6969 0.811424 12.5236C0.236988 11.4261 -0.0502296 10.2708 0.00721404 9.05777C0.00721404 4.9565 3.39639 1.60616 7.47488 1.60616C7.81954 1.60616 8.04932 1.83721 8.04932 2.1838C8.04932 2.53039 7.81954 2.76145 7.47488 2.76145C4.02827 2.76145 1.15609 5.5919 1.15609 9.05777C1.15609 10.0398 1.38586 11.0795 1.84541 11.946C2.01774 12.2348 1.90285 12.5814 1.61563 12.6969C1.55819 12.7547 1.4433 12.8125 1.32842 12.8125Z" fill="#00678F"/>
<path d="M7.47483 16.5094C7.13016 16.5094 6.90039 16.2783 6.90039 15.9317C6.90039 15.5852 7.13016 15.3541 7.47483 15.3541C10.9214 15.3541 13.7936 12.5236 13.7936 9.05777C13.7936 8.07577 13.5638 7.03601 13.1043 6.16954C12.932 5.88072 13.0469 5.53413 13.3341 5.36084C13.6213 5.18755 13.966 5.30308 14.1383 5.5919C14.7127 6.68942 14.9999 7.84471 14.9999 9.05777C14.9425 13.159 11.5533 16.5094 7.47483 16.5094Z" fill="#00678F"/>
<path d="M10.1749 1.77944L7.76226 0.046504C7.64738 -0.069025 7.4176 0.0465039 7.4176 0.219797V4.09002C7.4176 4.26331 7.64738 4.37884 7.76226 4.26331L10.1749 2.12603C10.2898 2.0105 10.2898 1.8372 10.1749 1.77944Z" fill="#00678F"/>
<path d="M7.18764 13.7945L4.77501 15.5274C4.66012 15.5852 4.66012 15.7584 4.77501 15.8162L7.18764 17.9535C7.30253 18.069 7.5323 17.9535 7.5323 17.7802V13.91C7.5323 13.7945 7.35997 13.7367 7.18764 13.7945Z" fill="#00678F"/>
</svg>
