<svg width="22" height="18" viewBox="0 0 22 18" fill="none" xmlns="http://www.w3.org/2000/svg">
    <g clip-path="url(#clip0_441_18)">
        <rect x="4" y="1" width="10" height="10" />
        <rect x="11.6689" y="9" width="3.06949" height="6" transform="rotate(37.6941 11.6689 9)" />
        <rect x="2.74707" y="3" width="3.48119" height="6.85262" transform="rotate(14.7727 2.74707 3)" />
        <path d="M14 0H5C4.17 0 3.46 0.450001 3.16 1.098L0.139999 7.443C0.0499992 7.65 0 7.866 0 8.1V9.9C0 10.89 0.9 11.7 2 11.7H8.31L7.36 15.813L7.33 16.101C7.33 16.47 7.5 16.812 7.77 17.055L8.83 18L15.42 12.069C15.78 11.745 16 11.295 16 10.8V1.8C16 0.810001 15.1 0 14 0ZM14 10.8L9.66 14.706L11 9.9H2V8.1L5 1.8H14V10.8ZM22 10.8H18V0H22V10.8Z" />
    </g>
    <defs>
        <clipPath id="clip0_441_18">
        <rect width="22" height="18" fill="white"/>
        </clipPath>
    </defs>
</svg>
