<svg width="32" height="32" xmlns="http://www.w3.org/2000/svg"><path d="M26.995 16.93v.032c0 1.543-.322 3.01-.9 4.336l.026-.069C24.411 25.242 20.525 28 15.998 28c-4.528 0-8.415-2.76-10.096-6.699l-.028-.072A10.677 10.677 0 0 1 5 16.962v-.069c0-3.596 1.717-6.788 4.368-8.79l.03-.02a1.795 1.795 0 0 1 1.377-.36h-.01c.498.059.923.328 1.192.715l.004.005a1.75 1.75 0 0 1 .35 1.37v-.01a1.807 1.807 0 0 1-.704 1.216l-.005.003a7.383 7.383 0 0 0-2.17 2.612 7.443 7.443 0 0 0 .152 6.918 7.376 7.376 0 0 0 2.552 2.69 7.304 7.304 0 0 0 9.926-2.119 7.45 7.45 0 0 0 .65-7.175 7.39 7.39 0 0 0-2.298-2.913l-.02-.014a1.8 1.8 0 0 1-.707-1.21l-.001-.009a1.757 1.757 0 0 1 .353-1.363l-.003.004a1.704 1.704 0 0 1 1.195-.72h.008a1.754 1.754 0 0 1 1.365.364l-.004-.003a11 11 0 0 1 4.4 8.812v.034-.002l-.005.001zM17.831 5.847v9.272c0 .49-.193.96-.537 1.306a1.826 1.826 0 0 1-2.591 0 1.854 1.854 0 0 1-.537-1.306v-.04.002-9.25c0-.504.208-.96.543-1.283a1.786 1.786 0 0 1 2.578 0c.336.323.544.778.544 1.282v.017-.001z"/></svg>