<svg class="skype" xmlns="http://www.w3.org/2000/svg" width="60" height="60" viewBox="0 0 60 60"><g transform="translate(0.006)"><path class="a" d="M31.116,48.057c-10.022,0-14.6-5.077-14.6-8.8a3.222,3.222,0,0,1,1.014-2.349,3.258,3.258,0,0,1,2.413-.881c4.291,0,3.169,6.4,11.174,6.4,4.092,0,6.5-2.45,6.5-4.751,0-1.383-.795-2.963-3.5-3.6l-8.939-2.242c-7.181-1.818-8.433-5.789-8.433-9.473,0-7.646,7.032-10.412,13.727-10.412,6.168,0,13.5,3.388,13.5,7.972,0,1.976-1.659,3.033-3.586,3.033-3.665,0-3.049-5.117-10.419-5.117-3.665,0-5.592,1.709-5.592,4.1s2.851,3.2,5.354,3.744l6.6,1.482c7.231,1.62,9.158,5.838,9.158,9.878,0,6.213-4.837,11.014-14.373,11.014M58.788,34.909a28.356,28.356,0,0,0,.427-4.939A28.011,28.011,0,0,0,49.183,8.39,28.34,28.34,0,0,0,26.1,2.2,16.678,16.678,0,0,0,17.776,0,16.9,16.9,0,0,0,3.256,8.4a16.713,16.713,0,0,0-.051,16.7,28,28,0,0,0,7.763,24.841A28.347,28.347,0,0,0,35.9,57.8,16.668,16.668,0,0,0,44.217,60,16.9,16.9,0,0,0,58.73,51.606a16.713,16.713,0,0,0,.058-16.7" transform="translate(-1 0)"/></g></svg>
