<svg xmlns="http://www.w3.org/2000/svg" width="108.393" height="17.195" viewBox="0 0 108.393 17.195"><defs><style>.a{fill:#fff;fill-rule:evenodd;}</style></defs><path class="a" d="M0,1.048A.892.892,0,0,1,.892.156h.781A11.709,11.709,0,0,1,13.382,11.865v.781a.892.892,0,0,1-.892.892H7.583a.892.892,0,0,1-.892-.892v-.781A5.018,5.018,0,0,0,1.673,6.847H.892A.892.892,0,0,1,0,5.955V1.048Z" transform="translate(0 -0.156)"/><g transform="translate(20.037 0.495)"><path class="a" d="M71.872,18.739c.08,1.1,1.084,3.131,4.215,3.131,2.67,0,3.974-1.666,3.974-3.372,0-1.465-1-2.71-3.071-3.131l-1.325-.261c-.442-.08-.783-.321-.783-.743a.972.972,0,0,1,1.084-.863,1.311,1.311,0,0,1,1.425,1.224l2.529-.462c-.1-1.164-1.1-2.971-3.994-2.971-2.228,0-3.834,1.485-3.834,3.312,0,1.405.843,2.609,2.971,3.071l1.144.261c.743.161.984.462.984.823,0,.442-.381.863-1.164.863a1.421,1.421,0,0,1-1.566-1.345l-2.589.462Z" transform="translate(-71.872 -8.683)"/><path class="a" d="M111.414,25.539v-4.6a3.507,3.507,0,0,0,2.71,1c2.79,0,4.757-2.188,4.757-5.239,0-2.991-1.746-5.2-4.637-5.2a3.549,3.549,0,0,0-2.931,1.265V11.749h-2.951v13.79Zm4.476-8.812a2.269,2.269,0,1,1-4.516,0,2.267,2.267,0,1,1,4.516,0Z" transform="translate(-98.19 -8.838)"/><path class="a" d="M153.591,15.387a1.9,1.9,0,0,1,1.987-1.686,1.789,1.789,0,0,1,2.007,1.686Zm4.215,2.589a1.927,1.927,0,0,1-2.007,1.3,2.159,2.159,0,0,1-2.268-1.927h6.945a6.368,6.368,0,0,0,.06-.943c0-3.212-1.907-5.118-5-5.118a5.032,5.032,0,0,0-4.978,5.259,5.08,5.08,0,0,0,5.2,5.319,4.48,4.48,0,0,0,4.6-3.171l-2.549-.723Z" transform="translate(-128.623 -8.683)"/><path class="a" d="M196.1,14.1a1.962,1.962,0,0,1,2.007,1.485l2.73-.823a4.664,4.664,0,0,0-4.8-3.473,5.15,5.15,0,0,0-5.259,5.3,5.2,5.2,0,0,0,5.359,5.279A4.723,4.723,0,0,0,200.9,18.4l-2.69-.823a2.057,2.057,0,0,1-2.067,1.485,2.283,2.283,0,0,1-2.328-2.469A2.26,2.26,0,0,1,196.1,14.1Z" transform="translate(-157.63 -8.683)"/><path class="a" d="M234.475,1.932h-2.73V3.217A1.465,1.465,0,0,1,230.2,4.842h-.5v2.67h1.766v4.275A3.028,3.028,0,0,0,234.8,15a3.63,3.63,0,0,0,1.586-.281V12.189a3.763,3.763,0,0,1-.8.1c-.662,0-1.1-.221-1.1-1.044V7.512h1.947V4.842h-1.947V1.932Z" transform="translate(-185.699 -1.932)"/><path class="a" d="M267.495,12.112a3.014,3.014,0,0,0-.8-.1,2.817,2.817,0,0,0-2.589,1.445V12.112h-2.951v9.976H264.2V17.733c0-1.987,1.1-2.71,2.328-2.71a4.141,4.141,0,0,1,.964.1V12.112Z" transform="translate(-208.384 -9.202)"/><path class="a" d="M296.445,22.348h2.931a15.575,15.575,0,0,1-.1-1.786v-8.19h-3.051v5.68a1.591,1.591,0,0,1-1.666,1.706,1.55,1.55,0,0,1-1.606-1.726v-5.66H289.9v6.3a3.659,3.659,0,0,0,3.794,3.894,3.1,3.1,0,0,0,2.67-1.224A7.264,7.264,0,0,0,296.445,22.348Z" transform="translate(-229.118 -9.462)"/><path class="a" d="M336.2,21.569V15.828a1.622,1.622,0,0,1,1.646-1.726,1.518,1.518,0,0,1,1.606,1.686v5.781h3.011V15.808a1.621,1.621,0,0,1,1.666-1.706,1.513,1.513,0,0,1,1.586,1.686v5.781h2.951V15.106a3.492,3.492,0,0,0-3.693-3.814,3.42,3.42,0,0,0-3.091,1.566,3.086,3.086,0,0,0-2.951-1.566,3.471,3.471,0,0,0-2.87,1.445V11.593h-2.911v9.976Z" transform="translate(-260.312 -8.683)"/></g></svg>