<svg id="_304570" data-name="304570" xmlns="http://www.w3.org/2000/svg" width="68.039" height="68.039" viewBox="0 0 68.039 68.039">
  <g id="Group_84" data-name="Group 84">
    <g id="Group_83" data-name="Group 83">
      <path id="Path_107" data-name="Path 107" d="M34.02,0a34.02,34.02,0,1,0,34.02,34.02A34,34,0,0,0,34.02,0Zm0,63.5A29.484,29.484,0,1,1,63.5,34.02,29.517,29.517,0,0,1,34.02,63.5Z" fill="#FFF"/>
    </g>
  </g>
  <g id="Group_86" data-name="Group 86" transform="translate(15.347 20.854)">
    <g id="Group_85" data-name="Group 85">
      <path id="Path_108" data-name="Path 108" d="M152.168,157.595a2.268,2.268,0,0,0-3.207,0L128.77,177.785l-9.411-9.411a2.268,2.268,0,0,0-3.207,3.207L127.166,182.6a2.268,2.268,0,0,0,3.207,0L152.168,160.8A2.268,2.268,0,0,0,152.168,157.595Z" transform="translate(-115.487 -156.93)" fill="#FFF"/>
    </g>
  </g>
</svg>
