<svg width="15" height="15" viewBox="0 0 15 15" fill="none" xmlns="http://www.w3.org/2000/svg">
<path d="M8.4395 0.9395C8.15826 0.658176 7.77679 0.500085 7.379 0.5H2C1.60218 0.5 1.22064 0.658035 0.93934 0.93934C0.658035 1.22064 0.5 1.60218 0.5 2V7.379C0.500085 7.77679 0.658176 8.15826 0.9395 8.4395L6.9395 14.4395C7.22079 14.7207 7.60225 14.8787 8 14.8787C8.39775 14.8787 8.77921 14.7207 9.0605 14.4395L14.4395 9.0605C14.7207 8.77921 14.8787 8.39775 14.8787 8C14.8787 7.60225 14.7207 7.22079 14.4395 6.9395L8.4395 0.9395V0.9395ZM4.25 5.75C3.85208 5.7499 3.47049 5.59173 3.18918 5.31029C2.90788 5.02884 2.7499 4.64717 2.75 4.24925C2.7501 3.85133 2.90827 3.46974 3.18972 3.18843C3.47116 2.90713 3.85283 2.74915 4.25075 2.74925C4.64867 2.74935 5.03026 2.90752 5.31157 3.18897C5.59287 3.47041 5.75085 3.85208 5.75075 4.25C5.75065 4.64792 5.59248 5.02951 5.31104 5.31082C5.02959 5.59212 4.64792 5.7501 4.25 5.75V5.75Z" fill="#00678F"/>
</svg>
