<svg width="20" height="25" viewBox="0 0 22 28" fill="none" xmlns="http://www.w3.org/2000/svg">
<path d="M13.3333 0.666504H8.66665C7.92873 0.666526 7.21671 0.938513 6.6667 1.43047C6.1167 1.92242 5.7673 2.59982 5.68531 3.33317H3.33331C2.53766 3.33317 1.7746 3.64924 1.21199 4.21185C0.649384 4.77446 0.333313 5.53752 0.333313 6.33317V24.3332C0.333313 25.1288 0.649384 25.8919 1.21199 26.4545C1.7746 27.0171 2.53766 27.3332 3.33331 27.3332H18.6666C19.0606 27.3332 19.4507 27.2556 19.8147 27.1048C20.1787 26.954 20.5094 26.7331 20.788 26.4545C21.0665 26.1759 21.2875 25.8452 21.4383 25.4812C21.589 25.1172 21.6666 24.7271 21.6666 24.3332V6.33317C21.6666 5.93921 21.589 5.5491 21.4383 5.18512C21.2875 4.82114 21.0665 4.49043 20.788 4.21185C20.5094 3.93327 20.1787 3.7123 19.8147 3.56153C19.4507 3.41077 19.0606 3.33317 18.6666 3.33317H16.3146C16.2327 2.59982 15.8833 1.92242 15.3333 1.43047C14.7833 0.938513 14.0712 0.666526 13.3333 0.666504ZM8.66665 2.6665H13.3333C13.5985 2.6665 13.8529 2.77186 14.0404 2.9594C14.228 3.14693 14.3333 3.40129 14.3333 3.6665C14.3333 3.93172 14.228 4.18607 14.0404 4.37361C13.8529 4.56115 13.5985 4.6665 13.3333 4.6665H8.66665C8.40143 4.6665 8.14708 4.56115 7.95954 4.37361C7.772 4.18607 7.66665 3.93172 7.66665 3.6665C7.66665 3.40129 7.772 3.14693 7.95954 2.9594C8.14708 2.77186 8.40143 2.6665 8.66665 2.6665ZM18.04 9.6265C18.2272 9.814 18.3324 10.0682 18.3324 10.3332C18.3324 10.5982 18.2272 10.8523 18.04 11.0398L15.3733 13.7065C15.1858 13.8938 14.9316 13.999 14.6666 13.999C14.4016 13.999 14.1475 13.8938 13.96 13.7065L12.6266 12.3732C12.5284 12.2816 12.4496 12.1712 12.3949 12.0486C12.3403 11.9259 12.3109 11.7935 12.3085 11.6592C12.3062 11.5249 12.3309 11.3916 12.3811 11.267C12.4314 11.1425 12.5063 11.0294 12.6013 10.9345C12.6962 10.8395 12.8093 10.7646 12.9338 10.7143C13.0584 10.664 13.1917 10.6393 13.326 10.6417C13.4603 10.6441 13.5927 10.6735 13.7154 10.7281C13.838 10.7828 13.9484 10.8616 14.04 10.9598L14.6666 11.5865L16.6266 9.6265C16.8141 9.43924 17.0683 9.33405 17.3333 9.33405C17.5983 9.33405 17.8525 9.43924 18.04 9.6265ZM18.04 18.3732L15.3733 21.0398C15.1858 21.2271 14.9316 21.3323 14.6666 21.3323C14.4016 21.3323 14.1475 21.2271 13.96 21.0398L12.6266 19.7065C12.5284 19.615 12.4496 19.5046 12.3949 19.3819C12.3403 19.2592 12.3109 19.1268 12.3085 18.9925C12.3062 18.8583 12.3309 18.7249 12.3811 18.6004C12.4314 18.4759 12.5063 18.3627 12.6013 18.2678C12.6962 18.1728 12.8093 18.098 12.9338 18.0477C13.0584 17.9974 13.1917 17.9727 13.326 17.975C13.4603 17.9774 13.5927 18.0068 13.7154 18.0615C13.838 18.1161 13.9484 18.1949 14.04 18.2932L14.6666 18.9198L16.6266 16.9598C16.7182 16.8616 16.8286 16.7828 16.9513 16.7281C17.0739 16.6735 17.2063 16.6441 17.3406 16.6417C17.4749 16.6393 17.6083 16.664 17.7328 16.7143C17.8573 16.7646 17.9704 16.8395 18.0654 16.9345C18.1603 17.0294 18.2352 17.1425 18.2855 17.267C18.3358 17.3916 18.3605 17.5249 18.3581 17.6592C18.3557 17.7935 18.3263 17.9259 18.2717 18.0486C18.217 18.1712 18.1382 18.2816 18.04 18.3732ZM4.33331 11.6665C4.33331 11.4013 4.43867 11.1469 4.62621 10.9594C4.81374 10.7719 5.0681 10.6665 5.33331 10.6665H9.99998C10.2652 10.6665 10.5195 10.7719 10.7071 10.9594C10.8946 11.1469 11 11.4013 11 11.6665C11 11.9317 10.8946 12.1861 10.7071 12.3736C10.5195 12.5611 10.2652 12.6665 9.99998 12.6665H5.33331C5.0681 12.6665 4.81374 12.5611 4.62621 12.3736C4.43867 12.1861 4.33331 11.9317 4.33331 11.6665ZM5.33331 17.9998H9.99998C10.2652 17.9998 10.5195 18.1052 10.7071 18.2927C10.8946 18.4803 11 18.7346 11 18.9998C11 19.2651 10.8946 19.5194 10.7071 19.7069C10.5195 19.8945 10.2652 19.9998 9.99998 19.9998H5.33331C5.0681 19.9998 4.81374 19.8945 4.62621 19.7069C4.43867 19.5194 4.33331 19.2651 4.33331 18.9998C4.33331 18.7346 4.43867 18.4803 4.62621 18.2927C4.81374 18.1052 5.0681 17.9998 5.33331 17.9998Z"/>
</svg>
