<svg width="23" height="14" fill="none" xmlns="http://www.w3.org/2000/svg"><path d="M23 7l-.213-.311a22.431 22.431 0 0 0-3.282-3.319C16.863 1.167 14.088 0 11.5 0 8.912 0 6.137 1.167 3.495 3.37A22.437 22.437 0 0 0 .213 6.69L0 7l.213.311a22.435 22.435 0 0 0 3.282 3.319C6.137 12.833 8.912 14 11.5 14c2.588 0 5.363-1.167 8.005-3.37a22.43 22.43 0 0 0 3.282-3.319L23 7zm-11.5 5.963C6.59 12.963 2.375 8.27 1.334 7 2.374 5.73 6.59 1.037 11.5 1.037S20.625 5.73 21.666 7c-1.04 1.27-5.256 5.963-10.166 5.963z" fill="#00678F"/><path d="M11.5 2.696c-.876 0-1.732.253-2.46.726a4.333 4.333 0 0 0-1.632 1.931 4.19 4.19 0 0 0-.252 2.487c.17.834.593 1.601 1.212 2.203a4.47 4.47 0 0 0 2.268 1.178c.86.166 1.75.08 2.559-.245a4.404 4.404 0 0 0 1.988-1.585c.486-.708.746-1.54.746-2.391a4.243 4.243 0 0 0-1.297-3.043 4.496 4.496 0 0 0-3.132-1.26zm0 7.57a3.432 3.432 0 0 1-1.868-.55A3.289 3.289 0 0 1 8.394 8.25a3.18 3.18 0 0 1-.191-1.887c.13-.634.45-1.216.92-1.673a3.393 3.393 0 0 1 1.721-.894 3.453 3.453 0 0 1 1.943.186c.614.247 1.139.666 1.508 1.203.37.537.567 1.169.567 1.815.004.43-.081.856-.249 1.254-.167.398-.415.76-.728 1.064a3.343 3.343 0 0 1-1.094.707 3.42 3.42 0 0 1-1.291.242z" fill="#00678F"/></svg>