<svg xmlns="http://www.w3.org/2000/svg" width="59.837" height="54.7" viewBox="0 0 59.837 54.7">
  <g id="_159469" data-name="159469" transform="translate(0 -20.882)">
    <g id="Group_81" data-name="Group 81" transform="translate(0 20.882)">
      <path id="Path_104" data-name="Path 104" d="M221.3,333.382a3.075,3.075,0,0,0,0,6.15,3.076,3.076,0,0,0,0-6.15Z" transform="translate(-191.382 -294.943)" fill="#FFF"/>
      <path id="Path_105" data-name="Path 105" d="M58.381,70.219a10.5,10.5,0,0,0,.025-10.628L39.143,26.233a10.613,10.613,0,0,0-18.426-.012L1.43,59.616a10.653,10.653,0,0,0,9.225,15.966H49.131A10.593,10.593,0,0,0,58.381,70.219ZM54.2,67.808a5.813,5.813,0,0,1-5.08,2.94H10.643A5.733,5.733,0,0,1,5.624,67.87,5.821,5.821,0,0,1,5.612,62L24.9,28.619a5.793,5.793,0,0,1,10.062.012L54.235,62.015A5.743,5.743,0,0,1,54.2,67.808Z" transform="translate(0 -20.882)" fill="#FFF"/>
      <path id="Path_106" data-name="Path 106" d="M220.1,157.263a3.344,3.344,0,0,0-2.374,3.358c.074.972.135,1.956.209,2.928.209,3.7.418,7.331.627,11.034a2.253,2.253,0,0,0,2.3,2.165,2.3,2.3,0,0,0,2.3-2.239c0-.763,0-1.464.074-2.239.135-2.374.283-4.748.418-7.122.074-1.538.209-3.075.283-4.613a3.8,3.8,0,0,0-.283-1.538A3.083,3.083,0,0,0,220.1,157.263Z" transform="translate(-190.944 -140.411)" fill="#FFF"/>
    </g>
  </g>
</svg>
