<svg xmlns="http://www.w3.org/2000/svg" xmlns:xlink="http://www.w3.org/1999/xlink" width="60" height="60" viewBox="0 0 60 60"><defs><linearGradient id="a" x1="0.5" y1="1" x2="0.5" gradientUnits="objectBoundingBox"><stop offset="0" stop-color="#20b038"/><stop offset="1" stop-color="#60d66a"/></linearGradient><linearGradient id="b" x1="0.5" y1="1" x2="0.5" gradientUnits="objectBoundingBox"><stop offset="0" stop-color="#f9f9f9"/><stop offset="1" stop-color="#fff"/></linearGradient><filter id="c" x="9.062" y="11.827" width="42.107" height="40.357" filterUnits="userSpaceOnUse"><feOffset dy="2" input="SourceAlpha"/><feGaussianBlur stdDeviation="2" result="d"/><feFlood flood-opacity="0.059"/><feComposite operator="in" in2="d"/><feComposite in="SourceGraphic"/></filter></defs><g transform="translate(-405.108 -303.367)"><path d="M430.8,385.491l4.238-15.406a29.9,29.9,0,1,1,25.887,14.891h-.013a29.959,29.959,0,0,1-14.276-3.619Zm16.571-9.517.907.535a24.885,24.885,0,0,0,12.638,3.445h.01a24.807,24.807,0,0,0,24.83-24.712,24.776,24.776,0,0,0-24.821-24.73,24.7,24.7,0,0,0-21.044,37.861l.591.935-2.509,9.119Z" transform="translate(-25.696 -22.124)" fill="#fff"/><path d="M438.058,390.674l4.09-14.867a28.858,28.858,0,1,1,24.984,14.369h-.013a28.927,28.927,0,0,1-13.777-3.492Z" transform="translate(-31.903 -28.358)" fill="url(#a)"/><path d="M430.8,385.491l4.238-15.406a29.9,29.9,0,1,1,25.887,14.891h-.013a29.959,29.959,0,0,1-14.276-3.619Zm16.571-9.517.907.535a24.885,24.885,0,0,0,12.638,3.445h.01a24.807,24.807,0,0,0,24.83-24.712,24.776,24.776,0,0,0-24.821-24.73,24.7,24.7,0,0,0-21.044,37.861l.591.935-2.509,9.119Z" transform="translate(-25.696 -22.124)" fill="url(#b)"/><g transform="matrix(1, 0, 0, 1, 405.11, 303.37)" filter="url(#c)"><path d="M542.8,439.009c-.555-1.253-1.139-1.278-1.667-1.3-.432-.019-.926-.018-1.42-.018a2.7,2.7,0,0,0-1.975.941,8.489,8.489,0,0,0-2.593,6.274c0,3.7,2.655,7.278,3.025,7.78s5.125,8.34,12.654,11.355c6.257,2.506,7.531,2.007,8.889,1.882s4.382-1.82,5-3.576a6.378,6.378,0,0,0,.432-3.577c-.185-.313-.679-.5-1.42-.878s-4.383-2.2-5.062-2.447-1.173-.376-1.667.377-1.913,2.446-2.345,2.948-.864.565-1.605.189a20.2,20.2,0,0,1-5.957-3.734,22.611,22.611,0,0,1-4.121-5.209c-.432-.752-.046-1.16.325-1.535.333-.337.741-.878,1.111-1.317a5.175,5.175,0,0,0,.74-1.254,1.4,1.4,0,0,0-.062-1.318C544.9,444.217,543.456,440.5,542.8,439.009Z" transform="translate(-520.08 -421.86)" fill="#fff" fill-rule="evenodd"/></g></g></svg>