<svg xmlns="http://www.w3.org/2000/svg" xmlns:xlink="http://www.w3.org/1999/xlink" width="78.469" height="78.74" viewBox="0 0 78.469 78.74"><defs><style>.a,.d{fill:#fff;}.b{fill:url(#c);}.c{fill:url(#d);}.d{fill-rule:evenodd;}.e{filter:url(#e);}.f{filter:url(#a);}</style><filter id="a" x="0" y="0" width="78.469" height="78.74" filterUnits="userSpaceOnUse"><feOffset dy="3" input="SourceAlpha"/><feGaussianBlur stdDeviation="3" result="b"/><feFlood flood-opacity="0.161"/><feComposite operator="in" in2="b"/><feComposite in="SourceGraphic"/></filter><linearGradient id="c" x1="0.5" y1="1" x2="0.5" gradientUnits="objectBoundingBox"><stop offset="0" stop-color="#20b038"/><stop offset="1" stop-color="#60d66a"/></linearGradient><linearGradient id="d" x1="0.5" y1="1" x2="0.5" gradientUnits="objectBoundingBox"><stop offset="0" stop-color="#f9f9f9"/><stop offset="1" stop-color="#fff"/></linearGradient><filter id="e" x="18.062" y="18.197" width="42.576" height="40.357" filterUnits="userSpaceOnUse"><feOffset dy="2" input="SourceAlpha"/><feGaussianBlur stdDeviation="2" result="f"/><feFlood flood-opacity="0.059"/><feComposite operator="in" in2="f"/><feComposite in="SourceGraphic"/></filter></defs><g transform="translate(-396.108 -297.367)"><g class="f" transform="matrix(1, 0, 0, 1, 396.11, 297.37)"><path class="a" d="M430.8,386.231l4.271-15.6a30.11,30.11,0,1,1,26.09,15.075h-.013a30.086,30.086,0,0,1-14.387-3.664Zm16.7-9.634.914.542a24.994,24.994,0,0,0,12.737,3.488h.01a25.021,25.021,0,1,0-21.2-11.724l.6.946-2.529,9.231Z" transform="translate(-421.8 -319.49)"/></g><path class="b" d="M438.058,391.414l4.124-15.057a29.067,29.067,0,1,1,25.186,14.553h-.013a29.055,29.055,0,0,1-13.889-3.536Z" transform="translate(-31.903 -28.358)"/><path class="c" d="M430.8,386.231l4.271-15.6a30.11,30.11,0,1,1,26.09,15.075h-.013a30.086,30.086,0,0,1-14.387-3.664Zm16.7-9.634.914.542a24.994,24.994,0,0,0,12.737,3.488h.01a25.021,25.021,0,1,0-21.2-11.724l.6.946-2.529,9.231Z" transform="translate(-25.696 -22.124)"/><g class="e" transform="matrix(1, 0, 0, 1, 396.11, 297.37)"><path class="d" d="M542.917,439.009c-.564-1.253-1.157-1.278-1.693-1.3-.439-.019-.941-.018-1.442-.018a2.764,2.764,0,0,0-2.006.941,8.434,8.434,0,0,0-2.633,6.274c0,3.7,2.7,7.278,3.072,7.78s5.2,8.34,12.851,11.355c6.355,2.506,7.648,2.007,9.027,1.882s4.451-1.82,5.078-3.576a6.286,6.286,0,0,0,.439-3.577c-.188-.313-.69-.5-1.442-.878s-4.451-2.2-5.14-2.447-1.191-.376-1.693.377-1.942,2.446-2.381,2.948-.878.565-1.63.189a20.578,20.578,0,0,1-6.05-3.734,22.657,22.657,0,0,1-4.185-5.209c-.439-.752-.047-1.16.33-1.535.338-.337.752-.878,1.129-1.317a5.156,5.156,0,0,0,.752-1.254,1.385,1.385,0,0,0-.063-1.318C545.048,444.217,543.586,440.5,542.917,439.009Z" transform="translate(-511.08 -415.49)"/></g></g></svg>