<?xml version="1.0" encoding="UTF-8" standalone="no"?>
<svg
   xmlns:dc="http://purl.org/dc/elements/1.1/"
   xmlns:cc="http://creativecommons.org/ns#"
   xmlns:rdf="http://www.w3.org/1999/02/22-rdf-syntax-ns#"
   xmlns:svg="http://www.w3.org/2000/svg"
   xmlns="http://www.w3.org/2000/svg"
   xmlns:sodipodi="http://sodipodi.sourceforge.net/DTD/sodipodi-0.dtd"
   xmlns:inkscape="http://www.inkscape.org/namespaces/inkscape"
   inkscape:version="1.0 (4035a4f, 2020-05-01)"
   sodipodi:docname="2fa.svg"
   id="svg1077"
   version="1.1"
   viewBox="0 0 95.489998 131.99062"
   height="131.99063"
   width="95.489998">
  <metadata
     id="metadata1081">
    <rdf:RDF>
      <cc:Work
         rdf:about="">
        <dc:format>image/svg+xml</dc:format>
        <dc:type
           rdf:resource="http://purl.org/dc/dcmitype/StillImage" />
        <dc:title></dc:title>
      </cc:Work>
    </rdf:RDF>
  </metadata>
  <sodipodi:namedview
     inkscape:current-layer="g1075"
     inkscape:window-maximized="0"
     inkscape:window-y="23"
     inkscape:window-x="0"
     inkscape:cy="128.32209"
     inkscape:cx="46.992573"
     inkscape:zoom="1.3290323"
     showgrid="false"
     id="namedview1079"
     inkscape:window-height="855"
     inkscape:window-width="1440"
     inkscape:pageshadow="2"
     inkscape:pageopacity="0"
     guidetolerance="10"
     gridtolerance="10"
     objecttolerance="10"
     borderopacity="1"
     bordercolor="#666666"
     pagecolor="#ffffff" />
  <defs
     id="defs861">
    <filter
       filterUnits="userSpaceOnUse"
       height="123"
       width="465"
       y="145.683"
       x="0"
       id="a">
      <feOffset
         id="feOffset833"
         input="SourceAlpha"
         dy="12" />
      <feGaussianBlur
         id="feGaussianBlur835"
         result="b"
         stdDeviation="12" />
      <feFlood
         id="feFlood837"
         flood-opacity="0.2" />
      <feComposite
         result="result1"
         id="feComposite839"
         in2="b"
         operator="in" />
      <feComposite
         id="feComposite841"
         in2="result1"
         in="SourceGraphic" />
    </filter>
    <clipPath
       id="c">
      <rect
         y="0"
         x="0"
         id="rect844"
         fill="none"
         height="31"
         width="282" />
    </clipPath>
    <filter
       filterUnits="userSpaceOnUse"
       height="124"
       width="441"
       y="93.682999"
       x="12"
       id="d">
      <feOffset
         id="feOffset847"
         input="SourceAlpha"
         dy="12" />
      <feGaussianBlur
         id="feGaussianBlur849"
         result="e"
         stdDeviation="12" />
      <feFlood
         id="feFlood851"
         flood-opacity="0.122" />
      <feComposite
         result="result1"
         id="feComposite853"
         in2="e"
         operator="in" />
      <feComposite
         id="feComposite855"
         in2="result1"
         in="SourceGraphic" />
    </filter>
    <clipPath
       id="f">
      <rect
         y="0"
         x="0"
         id="rect858"
         fill="none"
         height="32"
         width="281" />
    </clipPath>
  </defs>
  <g
     id="g1075"
     transform="translate(-325.755,-2579.316)">
    <g
       id="g1073"
       transform="translate(-622.958,616.945)">
      <path
         style="fill:#0c678f;fill-opacity:1"
         transform="translate(948.713,1982.371)"
         id="path1069"
         fill="#1d1d1d"
         d="m 0,-12.525 c 0,0 23.872,-7.475 47.745,-7.475 23.873,0 47.745,7.475 47.745,7.475 v 80.54 c 0,0 -23.872,7.475 -47.745,7.475 C 23.872,75.49 0,68.015 0,68.015 Z" />
      <path
         id="path1071"
         fill="#ffffff"
         transform="translate(972.055,2028.055)"
         d="m 24,-25.969 a 1.908,1.908 0 0 1 1.406,0.563 1.908,1.908 0 0 1 0.563,1.406 1.908,1.908 0 0 1 -0.562,1.406 A 1.908,1.908 0 0 1 24,-22.031 1.908,1.908 0 0 1 22.594,-22.593 1.908,1.908 0 0 1 22.031,-24 1.908,1.908 0 0 1 22.594,-25.406 1.908,1.908 0 0 1 24,-25.969 Z m 18,6 a 24.722,24.722 0 0 1 -2.344,10.5 25.287,25.287 0 0 1 -6.468,8.625 A 22.587,22.587 0 0 1 24,4.031 22.587,22.587 0 0 1 14.813,-0.844 25.287,25.287 0 0 1 8.344,-9.469 24.722,24.722 0 0 1 6,-19.969 v -12 l 18,-8.062 18,8.063 z M 24,-30 A 5.8,5.8 0 0 0 19.734,-28.266 5.8,5.8 0 0 0 18,-24 a 5.827,5.827 0 0 0 1.125,3.516 5.6,5.6 0 0 0 2.906,2.109 V -6 h 3.938 v -4.031 H 30 v -3.937 h -4.031 v -4.406 A 5.6,5.6 0 0 0 28.875,-20.483 5.827,5.827 0 0 0 30,-24 5.8,5.8 0 0 0 28.266,-28.266 5.8,5.8 0 0 0 24,-30 Z" />
    </g>
    <g
       id="g1067"
       transform="matrix(0.18141312,0,0,0.5162155,341.35566,2659.73)">
      <g
         id="g967"
         filter="url(#d)"
         transform="translate(-58,-117.77)">
        <rect
           y="0"
           x="0"
           id="rect965"
           fill="#fbfbfb"
           transform="translate(48,117.68)"
           rx="5"
           height="52"
           width="369" />
      </g>
    </g>
    <text
       id="text1091"
       y="2679.3889"
       x="355.31308"
       style="font-style:normal;font-weight:normal;font-size:18.6667px;line-height:1.25;font-family:sans-serif;fill:#ffcc00;fill-opacity:1;stroke:none"
       xml:space="preserve"><tspan
         style="font-style:normal;font-variant:normal;font-weight:500;font-stretch:normal;font-size:18.6667px;font-family:'MTN Brighter Sans';-inkscape-font-specification:'MTN Brighter Sans Medium';fill:#ffcc00;fill-opacity:1"
         y="2679.3889"
         x="355.31308"
         id="tspan1089"
         sodipodi:role="line">2FA</tspan></text>
  </g>
</svg>
