<svg height="296.892" viewBox="0 0 262.57 296.892" width="262.57" xmlns="http://www.w3.org/2000/svg" xmlns:xlink="http://www.w3.org/1999/xlink"><clipPath id="a"><path d="m773.684 101.145s17.482 33.135 19.911 32.9c1.328-2.253 15.739-14.808 18.658-23.556 1.8-5.4-.725-8.966-2.093-10.942s-2.625-4.006-1.5-5.069c1.366-1.288 1.444-3.747 2.186-3.747s1.448.93 1.541 2.569 7.836-1.424 7.836-1.424 5.064 4.007 6 4.71 1.346.79 1.085 2.337c-1.225 7.254-5.289 7.213-6.883 11.827-10.594 30.674-25.873 38.776-29.36 39.625-1.678.409-23.639-23.591-24.569-28.909-1.001-5.736 7.188-20.321 7.188-20.321z"/></clipPath><clipPath id="b"><path d="m766.3 131.093c-4.735-10.683 1.153-37.99 5.093-35.871s17.739 29.6 19.481 32.147c1.526 2.231-17.36 19.997-24.574 3.724z"/></clipPath><clipPath id="c"><path d="m724.3 296.013-.157 8.4 7.852.3.429-8.557z"/></clipPath><clipPath id="d"><path d="m766.1 295.94 1.15 12.807s-12.472.828-11.374-3.251c1-3.728 2.063-13.96 2.063-13.96z"/></clipPath><clipPath id="e"><path d="m753.839 211.483c5.565.448.878 85.714.878 85.714 4.979 3.169 9.169 3.1 12.543-.324 2.342-30.868 12.815-108.929 9.291-122.6 0 0-7.835-18.512-22.4-18.6-14.658-.087-24.279 16.142-24.279 16.142-8.729 34.858-8.434 124.088-8.434 124.088 5.427 2.038 9.723 2.529 12.146.46.004.002 14.69-85.329 20.255-84.88z"/></clipPath><clipPath id="f"><path d="m732.655 303.179a4.253 4.253 0 0 0 -4.206-3.906 4.416 4.416 0 0 0 -4.586 3.591s-2.716 12.989-3.877 14.448-.389 7.5-.389 7.5 8.08 4.182 15.934-1.187c0 0 .239-5.369-1.145-7.169s-1.039-6.28-1.039-6.28z"/></clipPath><clipPath id="g"><path d="m719.354 321.507c.042 1.732.243 3.3.243 3.3s8.08 4.182 15.934-1.187a28 28 0 0 0 -.046-2.8s-9.285 4.426-16.131.687z"/></clipPath><clipPath id="h"><path d="m790.069 318.362s1.224-3.563-.8-4.517-18.67-8.663-22.655-13c0 0-6.2 1.741-2.827 5.085 0 0-5.891 4.679-7.087-4.319 0 0-3.579 1.531-3.514 13.776-.003 0 29.432 5.849 36.883 2.975z"/></clipPath><clipPath id="i"><path d="m753.234 312.815c-.061.977-.226 2.165-.22 3.32 0 0 29.65 4.722 36.889 2.954a14.4 14.4 0 0 0 .53-2.744 124 124 0 0 1 -37.199-3.53z"/></clipPath><clipPath id="j"><path d="m726.266 180.041c2.756-3.938 4.839-.673 10.084 7.3 6.562 9.974 24.77 7.94 24.77 7.94s2.228-16.927 4.59-17.19 3.438 13.728 4.488 16.09c6.03-2.411 10.348-12.058 7.774-21.013-3.589-12.484-49.89-4.331-49.89-4.331z"/></clipPath><clipPath id="k"><path d="m726.921 170.017c4.226-27.887-10.55-54.789-2.9-68.81s39.83-10.197 46.879-6.307c7.669 4.233 4.312 53.068 7.068 78.265.432 3.876-52.359 5.514-51.047-3.148z"/></clipPath><clipPath id="l"><path d="m740.7 91.8c6.277-7.3 18.07-5.774 21.785 1.05a11.018 11.018 0 0 1 -3.275 13.38c-1.982-2.421-3.455-8.227-5.9-10.565-2.669 1.978-3.507 10.174-4.915 12.531-10.561-8.845-8.586-15.358-7.695-16.396z"/></clipPath><clipPath id="m"><path d="m768.719 53.6c1.34 12.485-5.084 23.412-14.349 24.406s-17.861-8.321-19.2-20.806 9.216-3.368 14.009-17.953c5.363-16.324 18.201 1.867 19.54 14.353z"/></clipPath><clipPath id="n"><path d="m768.616 62.86a21.643 21.643 0 0 0 -.022-9.508c-.506-1.973-9.555-8.523-14.2 2.236s-5.975 13.194-10.239 19.192c3.035 4.686.715 11.576-.372 15.954-1.366 5.5 18.051 4.911 16.432.57a8.853 8.853 0 0 1 .209-7.357s3.668 1.084 5.077.572 1.109-4.76 2.443-5.907a31.119 31.119 0 0 1 -2.944-3.128c.1-.188 4.393-1.339 4.326-1.416-1.88-2.155 3.055-.729 2.978-3.294-.032-1.089-4.509-3.407-3.688-7.914z"/></clipPath><clipPath id="o"><path d="m728.707 134.746c-.461-10.789-5.644-16.178-11.226-.375-2.312 14.452.962 34.244 5.584 51.98 1.57 6.024-3.868 8.131-1.56 16.191.6 2.1 2.178 2.623 2.7 1.984.346 1.064 2.092 1.728 2.58 1.05a2.718 2.718 0 0 0 2.6 1.907c.133 1.506 3 2.419 3.424.694l1.287-8.44c.047 3.5 1.22 5.786 2.779 6.581 1.623.827 2.31.09 1.126-1.58s-1.066-4.469-1.563-8.228c-.522-3.944-4.425-7.407-5-9.308-3.873-12.854-3.597-25.967-2.731-52.456z"/></clipPath><clipPath id="p"><path d="m730.652 138.275c-1.523-1.743-13.606-3.4-16.9 1.027.473-9.961 6.22-38.065 13.16-40.4 12.467-4.192 4.648 32.826 3.74 39.373z"/></clipPath><clipPath id="q"><path d="m853.843 161.728c8.855 31.285-14.911 49.4-11.7 86.091 2.54 29.023-4.325 45.415-3.628 52.241s-6.886 7.553-6.962.068c-.223-21.97-7.521-27.622-5.661-52.706 1.635-22.069-3.1-32.84-3.943-56.65-6.052 16.146-21.855 31.622-13.764 47.952 8.115 16.38 6.606 33.38 15.067 58.564 3.02 8.99-7.808 6.23-10.172-1.793-6.688-22.709-25.96-53.185-27.3-64.39s-.227-35.591 13.666-69.4c9.944-24.219 46.287-28.633 54.397.023z"/></clipPath><clipPath id="r"><path d="m837.066 79.628a126.315 126.315 0 0 1 -23.952-.456c-9.244-1.075.682 39.468-13.661 77.17-13.8 36.271 66.383 17.955 52.534-1.786-23.377-33.325 16.88-77.828-14.921-74.928z"/></clipPath><clipPath id="s"><path d="m845.417 80.411c6.638-34.786-8.4-42.465-20.294-41.415-6.414.566-15.727 5.589-16.583 22.232-1.581 30.725 8.5 41.53 15.33 40.5 9.461-1.422 17.383-22.859 21.547-21.317z"/></clipPath><clipPath id="t"><path d="m826.269 48.394c-4.471 2.235-13.1 5.274-13.1 15.449-.006 8.872 8.013 17.136 11.874 17.648s11.875-7.9 11.875-17.648c-.004-7.325-6.936-13.71-10.649-15.449z"/></clipPath><clipPath id="u"><path d="m830.3 72.423.022-.008c-1.5-.648-2.928-1.006-3.4-.7a1.131 1.131 0 0 1 -1.9 0c-.47-.3-1.689.2-3.4.7l.022.008-.046-.008s1.413 3.813 4.357 3.813 4.388-3.813 4.388-3.813z"/></clipPath><clipPath id="v"><path d="m834.824 105.382h-7.591c-.828 0-1.054.833-.891 1.45l.9 3.5a1.129 1.129 0 0 0 1.063.9l7.922 1.838a.739.739 0 0 0 .745-.9l-1.023-5.768a1.142 1.142 0 0 0 -1.125-1.02z"/></clipPath><clipPath id="w"><path d="m836.089 111.615c-.776.037-8.694-1.8-10.18-1.781-.872.013-.9 1.442.185 1.588-.613.331-.185 1.072.369 1.367a28.1 28.1 0 0 0 10.387 5.611c11.022 2.85 13.208 7.775 18.353 10.276 6.854 3.332 11.577 2.317 12.978.2s-6.6-35.461-21.2-47.532c-1.246-1.03-5.408 11.645-3.84 18.886 2.238 10.337 10.752 16.539 9.694 16.253-9.588-2.584-11.018-9.948-13.417-9.845a28.138 28.138 0 0 0 -3.335.535l.28 1.583s-4.505-.346-5.541-.534c-1.454-.265-1.922.8-.69 1.318 1.202.516 5.957 2.075 5.957 2.075z"/></clipPath><clipPath id="x"><path d="m843.588 84.939c10.843 10.235 13.79 29.235 14.512 32.41.36 1.584-.646.6-5.7-1.04-5.752-1.871-11.852-10.749-12.384-9.482-.488 1.164.7 2.452-.449 3.065s.981 2.289-.327 3.27 1.349 1.675.245 3.065c-1.251 1.575 4.456-.229 8.956 3.407 7.282 5.884 15.042 11.233 19.046 9.248 3.334-1.653-4.216-20.107.042-14.505s11.016 27.988 11.016 27.988l-67.357-25.786 1.684-18.106s25.069-18.864 30.716-13.534z"/></clipPath><clipPath id="y"><path d="m873.266 99.823c-.467 3.969-11.442 6.909-13.018 4.411a33.424 33.424 0 0 0 1.752 4.715c6.756 2.714 11.638 2.091 12.724-5.293z"/></clipPath><clipPath id="z"><path d="m874.944 102.013c-1.259 5.9-12.269 8.554-14.463 5.845 6.47 17.016 25.326 43.019 29.051 43.072 3.024.044 9.429-4.8 16.7-19.482 5.215-10.534 1.32-41.723-2.874-40.092s-11.478 37.077-14.2 36.9-14.214-26.243-14.214-26.243z"/></clipPath><clipPath id="A"><path d="m964.824 177.15a55.49 55.49 0 0 0 1.221 7.777c1.24 4.8-.794 6.136-2.038 5.946-1.573-.241-2.026.808-1.562.979a8.368 8.368 0 0 0 2.5.508c.643-.032 2.258-1.547 2.684-1.466s-.326 2.2-2.293 2.633c-1.1.245-2.175-.026-2.328.9-.071.429 1.8.666 3.265.553.649-.05 2.483-1.78 2.914-1.492s-2.114 2.781-3.111 3.628-1.2 2.606-.384 2.6 5.631-5.387 5.655-4.792c.046 1.11-1.04 3.694-1.247 4.8-.181.959.888 1.254 1.122.859 2.71-4.571 5.174-12.076 5.088-13.663s-4.719-10.147-5.415-11.775c0 0-.523-2.051-3.529-1.383a2.99 2.99 0 0 0 -2.542 3.388z"/></clipPath><clipPath id="B"><path d="m915.694 291.631a50.821 50.821 0 0 1 -1.237 13.78s15.776-.829 12.226-4.469c-3.424-3.509-2.208-14.049-2.208-14.049s-9.241-2.262-8.781 4.738z"/></clipPath><clipPath id="C"><path d="m889.909 315.756c-.3-2.126-1.318-3.834.863-4.86s20.089-9.321 24.376-13.987c0 0 6.672 1.872 3.042 5.471 0 0 10.512-.77 8.749-4.348 1.083.612 3.262 11.83 2.658 14.523-.285 1.267-8.617 1.43-18.242 3.273s-21.284 1.052-21.446-.072z"/></clipPath><clipPath id="D"><path d="m930.62 309.587c.065 1.052 1.89 3.38 1.883 4.622 0 0-36.12 4.9-43.91 3a36.791 36.791 0 0 0 .514-4.365c.208 1.066 12.411 3.762 41.513-3.257z"/></clipPath><clipPath id="E"><path d="m959.449 291.536-.1 9.207-7.839.321-.462-9.207z"/></clipPath><clipPath id="F"><path d="m928.006 200.759c-5.987.483-.48 92.45-.428 95.366s-12.994 2.263-13.5-.349-13.288-111.467-9.693-125.848 38.758-27.5 47.635-3.053 10.989 126.28 10.905 129.491-12.4 3.856-13.068.495-15.863-96.584-21.851-96.102z"/></clipPath><clipPath id="G"><path d="m950.965 301.976c-.062-3.428 9.025-3.571 9.3-.423s-.282 5.72 3.14 11.368c1.834 3.027 1.584 6.4 1.439 8.584s-16.973 2.193-16.973.062a15.039 15.039 0 0 1 1.538-8.312c1.603-2.955 1.618-7.855 1.556-11.279z"/></clipPath><clipPath id="H"><path d="m967.37 318.069a14.942 14.942 0 0 1 -1.188 4.455s-10.495 6.831-19.8-.495a10.576 10.576 0 0 1 .2-4.257c-.102 2.839 16.727 4.297 20.788.297z"/></clipPath><clipPath id="I"><path d="m922.076 82.633c-1.372.337-5.256 4.872-2.342 32.863s-2.157 55.394-2.157 55.394 25.611 8.311 32.256-3.032c0 0-7.353-40.683-7.048-52.161s-2.455-32.936-4.843-33.106-14.493-.291-15.866.042z"/></clipPath><clipPath id="J"><path d="m931.572 88.534s-2.946-9.375-1.907-1.522a76.656 76.656 0 0 1 .11 9.779c-1.137 19.011 2.271 73.127 3.595 80.963 1.573 9.308-11.528 13.456-20.69 14.665s3.927 122.432-29.9 136.125l-22.154-42.164v-220.237l59.958 7.662z"/></clipPath><clipPath id="K"><path d="m919.782 171.528c5.614-4.257 11.91-5.329 14.447-2.316a5.483 5.483 0 0 1 .941 4.613 64.258 64.258 0 0 1 -15.388-2.297zm.024-18.521a24.371 24.371 0 0 1 4.073 2.381c5.276 3.8-.317 13.238-5.925 13.241.461-2.916 1.246-8.475 1.853-15.621zm8.991.63c4.577-6.124 11-9.059 14.346-6.557s2.346 9.492-2.231 15.615a4.98 4.98 0 0 1 -4.151 2.037c-5.191-.001-11.468-6.408-7.961-11.095zm-8.633-5.428c.283-4.393.471-9.216.473-14.287a24.859 24.859 0 0 1 3.417-.905c7.509-1.436 14.232.725 15.016 4.828s-4.666 8.593-12.175 10.03a24.429 24.429 0 0 1 -4.571.444 20.9 20.9 0 0 1 -2.16-.109zm23.728-15.141a4.2 4.2 0 0 1 .36-.435c.413 3.155.885 6.457 1.374 9.719-2.55-3.452-3.357-7.028-1.734-9.283zm-18.914-9.023c-5.06-5.73-6.624-12.617-3.493-15.382s9.772-.361 14.832 5.369 6.624 12.617 3.493 15.382a4.951 4.951 0 0 1 -3.367 1.148c-3.379 0-7.829-2.4-11.465-6.517zm15.348-10.237c-5.2-5.6-6.929-12.451-3.866-15.293a5.813 5.813 0 0 1 5.248-1.048 138.115 138.115 0 0 1 1.088 17.817 4.911 4.911 0 0 1 -2.471-1.475zm-20.878-12.188q-.38-.41-.736-.828c-.212-8.57.562-13.188 1.466-15.621 3.188.42 7.074 2.62 10.361 6.164 4.143 4.468-2.061 11.908-7.382 11.908a4.91 4.91 0 0 1 -3.71-1.622z"/></clipPath><clipPath id="L"><path d="m931.705 40.327a7.335 7.335 0 0 1 -6.541-1.89c-3.764-3.66-10.413-7.689-10.362 9.61.013 4.328.566 17.837.566 17.837l23.459.528s1.132-12.351 1.843-17.369c.871-6.143 2.841-11.048-8.965-8.716z"/></clipPath><clipPath id="M"><path d="m921.437 73.6s.046 6.308-.309 12.957c-.168 3.14 2.188 5.75 8.647 10.375 5.375-3.792 9.073-9.544 8.583-13.6-.556-4.61-1.119-12.069.454-13.848-.399-3.297-10.686 4.731-17.375 4.116z"/></clipPath><clipPath id="N"><path d="m915.457 49.5c-2.311 13.994.993 29.688 8.466 29.7 4.987.01 13.8-2.466 13.8-15.083-1.169-23.429-5.569-15-13.036-13.655-4.019.732-8.835-2.405-9.23-.962z"/></clipPath><clipPath id="O"><path d="m923.858 69.5c-.788.168-1.774.682-2.492.171-.645-.46-.95 1.578-.95 1.578s.271 3.47 2.874 3.256 4.392-3.8 4.392-3.8c-.758.283-2.908-1.399-3.824-1.205z"/></clipPath><clipPath id="P"><path d="m924.8 70.705c-.954.008-1.49.536-2.36.32-.665-.164-1.653-.17-1.693.344s.563 1.84 2.581 1.675 4.168-2.216 4.168-2.216-1.789-.128-2.696-.123z"/></clipPath><clipPath id="Q"><path d="m863.788 90.47a1.862 1.862 0 0 1 -2.531 1.491s-1.647-.729-2.8-1.1-1.923 2.054-.712 2.822c-1.536 0-1.767 2.473-1.164 3.068s-1.754 2.014.425 4.177 6.4 6.071 13.875 1.532c6.537-3.972-1.952-12.568-1.952-12.568l-4.469-4.723z"/></clipPath><clipPath id="R"><path d="m829.444 293.042s-.441 16.49-7.936 25.132 16.49 7.143 18.518-2.734 3.557-7.672 3.175-11.463c-.505-5.005-3-8.2-2.91-15.432.038-3.161-1.717 3.626-4.057 4.5-3.013 1.119-6.746-4.589-6.79-.003z"/></clipPath><clipPath id="S"><path d="m811.276 292.337s1.255 16.449-5.314 25.815 15.071 5.734 16.075-4.3 5-9.083 4.233-12.816c-1.016-4.926-3.307-7.069-4.667-14.287-.585-3.106-1.335 3.784-3.573 4.89-2.882 1.427-7.181-3.867-6.754.698z"/></clipPath><clipPath id="T"><path d="m825.891 299.5c.14.485.267.993.379 1.534.769 3.733-3.23 2.784-4.233 12.816s-22.643 13.665-16.075 4.3a21.629 21.629 0 0 0 1.8-3.115s7.733-1.564 11.644.73c0 0 .769-8.14 4.3-12.285a28.809 28.809 0 0 0 2.185-3.98z"/></clipPath><clipPath id="U"><path d="m843.259 303.482c.661 5.52-1.245 2.279-3.233 11.958-2.028 9.877-26.014 11.376-18.518 2.734a22.613 22.613 0 0 0 2.68-3.894s7.872-3.07 11.75 2.279z"/></clipPath><clipPath id="V"><path d="m829.719 299.847s2.749-1.049 6.612 1.135l-.416 1.78s-3.752-1.9-6.539-1.134zm-.478 2.482s2.748-1.049 6.612 1.135l-.416 1.78s-3.753-1.9-6.539-1.134zm-.479 2.481s2.749-1.048 6.612 1.136l-.415 1.78s-3.753-1.9-6.54-1.134zm-.455 2.363s2.749-1.049 6.612 1.135l-.416 1.78s-3.752-1.9-6.539-1.134z"/></clipPath><g transform="translate(-713.742 -29.468)"><path d="m773.684 101.145s17.482 33.135 19.911 32.9c1.328-2.253 15.739-14.808 18.658-23.556 1.8-5.4-.725-8.966-2.093-10.942s-2.625-4.006-1.5-5.069c1.366-1.288 1.444-3.747 2.186-3.747s1.448.93 1.541 2.569 7.836-1.424 7.836-1.424 5.064 4.007 6 4.71 1.346.79 1.085 2.337c-1.225 7.254-5.289 7.213-6.883 11.827-10.594 30.674-25.873 38.776-29.36 39.625-1.678.409-23.639-23.591-24.569-28.909-1.001-5.736 7.188-20.321 7.188-20.321z" fill="#5f3919"/><g clip-path="url(#a)"><path d="m772.707 115.976c0 .187 11.875 25.375 18.812 28.625s24.313-18.313 24.313-18.313-12.875 30.25-23.25 26.125-22.982-14.341-22.982-14.341z" fill="#3c2314"/></g><path d="m824.453 101.263c1.145.664 2.39-.657 3.029-2.775.589-1.953.207-2.579-.415-2.834s-1.661-.137-2.522 2.187-.818 3.001-.092 3.422z" fill="#5f3919"/><path d="m824.821 85.812c.683.683-.532 2.992-2.1 4.091s-2.311-1.242-1.2-2.686c1.001-1.305 2.441-2.264 3.3-1.405z" fill="#5f3919"/><rect height="22.742" rx="1.679" transform="matrix(-1 0 0 -1 822.725 105.821)" width="11.253"/><path d="m0 0h10.304v17.787h-10.304z" fill="#ffc30f" transform="matrix(-1 0 0 -1 822.245 103.271)"/><ellipse cx="817.441" cy="94.336" fill="#fff" rx="2.216" ry="4.543"/><path d="m821.658 101.8c-.75-.225-.681-1.255-.287-2.3a23.692 23.692 0 0 0 1.18-3.08c.111-.721.254-1.772 1.043-1.987s2.08.19 1.9 1.445a18.485 18.485 0 0 1 -1.542 3.909c-.465 1.113-1.218 2.337-2.294 2.013z" fill="#5f3919"/><path d="m821.586 97.143c-.75-.356-.513-1.426.067-2.453s1.3-3.117 2.9-2.465c1.246.508.424 2.088-.243 3.179s-1.647 2.25-2.724 1.739z" fill="#5f3919"/><path d="m766.3 131.093c-4.735-10.683 1.153-37.99 5.093-35.871s17.739 29.6 19.481 32.147c1.526 2.231-17.36 19.997-24.574 3.724z" fill="#faeb19"/><g clip-path="url(#b)"><path d="m772.707 115.976c0 .187 11.875 25.375 18.812 28.625s24.313-18.313 24.313-18.313-12.875 30.25-23.25 26.125-22.982-14.341-22.982-14.341z" fill="#ffc30f"/></g><path d="m724.3 296.013-.157 8.4 7.852.3.429-8.557z" fill="#fff78f"/><g clip-path="url(#c)"><path d="m728.68 295.583-.4 11.508-7.15.775 2.013-14.584z" fill="#ffc30f"/></g><path d="m766.1 295.94 1.15 12.807s-12.472.828-11.374-3.251c1-3.728 2.063-13.96 2.063-13.96z" fill="#fff78f"/><g clip-path="url(#d)"><path d="m760.384 295.709c.143 5.592 1.215 14.338 1.215 14.338l-9.522-.264-.529-14.945z" fill="#ffc30f"/></g><path d="m753.839 211.483c5.565.448.878 85.714.878 85.714 4.979 3.169 9.169 3.1 12.543-.324 2.342-30.868 12.815-108.929 9.291-122.6 0 0-7.835-18.512-22.4-18.6-14.658-.087-24.279 16.142-24.279 16.142-8.729 34.858-8.434 124.088-8.434 124.088 5.427 2.038 9.723 2.529 12.146.46.004.002 14.69-85.329 20.255-84.88z" fill="#3c2314"/><g clip-path="url(#e)" fill="#24150c"><path d="m743.872 193.172c-.049 9.5-.6 22.309-15.96 134.386l-18.248-2.393 13.49-152.005s20.803 3.233 20.718 20.012z"/><path d="m750.551 217.511c2.382-7.074 9.025-16.541 11.766-.656 2.813 16.295-2 85.325-2.353 86.608-.949 3.48-5.386 17.61-15.062-7.061-8.344-21.274 2.454-69.402 5.649-78.891z"/></g><path d="m732.655 303.179a4.253 4.253 0 0 0 -4.206-3.906 4.416 4.416 0 0 0 -4.586 3.591s-2.716 12.989-3.877 14.448-.389 7.5-.389 7.5 8.08 4.182 15.934-1.187c0 0 .239-5.369-1.145-7.169s-1.039-6.28-1.039-6.28z" fill="#282828"/><g clip-path="url(#f)"><path d="m728.449 299.273s-2.106 24.487 3.587 26.156v2.037l-15.655-1.427 1.656-23.187s5.228-7.159 10.412-3.579z"/></g><path d="m719.354 321.507c.042 1.732.243 3.3.243 3.3s8.08 4.182 15.934-1.187a28 28 0 0 0 -.046-2.8s-9.285 4.426-16.131.687z" fill="#c8c8c8"/><g clip-path="url(#g)"><path d="m728.449 299.273s-2.106 24.487 3.587 26.156v2.037l-15.655-1.427 1.656-23.187s5.228-7.159 10.412-3.579z" fill="#646464"/></g><path d="m790.069 318.362s1.224-3.563-.8-4.517-18.67-8.663-22.655-13c0 0-6.2 1.741-2.827 5.085 0 0-5.891 4.679-7.087-4.319 0 0-3.579 1.531-3.514 13.776-.003 0 29.432 5.849 36.883 2.975z" fill="#282828"/><g clip-path="url(#h)"><path d="m760.806 304.1 1.719 16-14.812-3.835 5.158-23.276z"/></g><path d="m753.234 312.815c-.061.977-.226 2.165-.22 3.32 0 0 29.65 4.722 36.889 2.954a14.4 14.4 0 0 0 .53-2.744 124 124 0 0 1 -37.199-3.53z" fill="#c8c8c8"/><g clip-path="url(#i)"><path d="m761.731 312.3c.265 2.512.4 6.877 1.058 8.067s-14.283-5.819-14.283-5.819l5.423-6.084z" fill="#646464"/></g><path d="m726.266 180.041c2.756-3.938 4.839-.673 10.084 7.3 6.562 9.974 24.77 7.94 24.77 7.94s2.228-16.927 4.59-17.19 3.438 13.728 4.488 16.09c6.03-2.411 10.348-12.058 7.774-21.013-3.589-12.484-49.89-4.331-49.89-4.331z" fill="#ffc30f"/><g clip-path="url(#j)"><path d="m744.021 175.953-.189 21.835 63.112.576-15.354-36.023z" fill="#faeb19"/></g><path d="m726.921 170.017c4.226-27.887-10.55-54.789-2.9-68.81s39.83-10.197 46.879-6.307c7.669 4.233 4.312 53.068 7.068 78.265.432 3.876-52.359 5.514-51.047-3.148z" fill="#282828"/><g clip-path="url(#k)"><path d="m730.1 105.789c-3.187 6.373 14.118 32.384 13.731 76.5-.2 23.127-55.585-14.041-55.585-14.041s15.7-84.223 56.551-85.962c16.754-.713 18.861 15.5 14.413 23.946-6.713-5.121-11.325-1.549-16.5-3.317s-10.092-2.16-12.61 2.874z"/></g><path d="m757.9 99.287c-2.828 2.475-10.608 2.652-12.553-.53s1.592-8.133 5.481-7.78 7.072 8.31 7.072 8.31z" fill="#ffc30f"/><path d="m740.7 91.8c6.277-7.3 18.07-5.774 21.785 1.05a11.018 11.018 0 0 1 -3.275 13.38c-1.982-2.421-3.455-8.227-5.9-10.565-2.669 1.978-3.507 10.174-4.915 12.531-10.561-8.845-8.586-15.358-7.695-16.396z" fill="#ffc30f"/><g clip-path="url(#l)"><path d="m751.106 94.69c-1.047 7.787-5.575 8.744-9.558 7.851-3.964-.889 6.2 25.35 35.338 7.633 1.6-.972-2.631-16.634-8.465-20.079-9.061-5.351-16.268-3.195-17.315 4.595z" fill="#faeb19"/></g><path d="m768.719 53.6c1.34 12.485-5.084 23.412-14.349 24.406s-17.861-8.321-19.2-20.806 9.216-3.368 14.009-17.953c5.363-16.324 18.201 1.867 19.54 14.353z" fill="#3c2314"/><g clip-path="url(#m)"><path d="m753.44 32.731c-3.993 6.46 12.1 9.431 6.975 21.557s-17.766 48.153-24.062 32.529-13.059-37.077-3.731-50.6 20.818-3.486 20.818-3.486z"/></g><path d="m751.189 52.772s3.149.567 4.053 2.534l-1 .808s-.036-1.262-3.053-3.342z" fill="#3c2314"/><path d="m768.616 62.86a21.643 21.643 0 0 0 -.022-9.508c-.506-1.973-9.555-8.523-14.2 2.236s-5.975 13.194-10.239 19.192c3.035 4.686.715 11.576-.372 15.954-1.366 5.5 18.051 4.911 16.432.57a8.853 8.853 0 0 1 .209-7.357s3.668 1.084 5.077.572 1.109-4.76 2.443-5.907a31.119 31.119 0 0 1 -2.944-3.128c.1-.188 4.393-1.339 4.326-1.416-1.88-2.155 3.055-.729 2.978-3.294-.032-1.089-4.509-3.407-3.688-7.914z" fill="#3c2314"/><g clip-path="url(#n)"><path d="m760.961 45.456c4.335 22.124-21.285 30.8.573 38.935 11.923 4.438-9.559-6.313-11.1 14.51-.417 5.65 21.171 5.083 25.646-1.983s10.834-22.257 5.064-34.622-21.049-21.26-20.183-16.84z" fill="#5f3919"/><ellipse cx="4.03" cy="2.696" fill="#5f3919" rx="4.03" ry="2.696" transform="translate(761.134 60.356)"/><path d="m762.216 61.262c1.385-.489 3.607-3.86 9.349-.646" fill="none" stroke="#000" stroke-linecap="round" stroke-linejoin="round" stroke-width="1.969"/></g><path d="m765.3 75.314c1.276.4 3.261 1.134 3.266.944l.268-1.868z" fill="#fff"/><path d="m764.658 75.122c.652.352 4.618-1.111 4.669-1.054.46.511.244 1.251.012 1.314a17.589 17.589 0 0 1 -4.154.117c.754.722 2.026 1.567 2.63 2.23.783.858-.22 1.209-.22 1.209a6.783 6.783 0 0 1 -2.937-3.816z" fill="#5f3919"/><ellipse cx="1.361" cy=".685" rx="1.361" ry=".685" transform="matrix(.016 -1 1 .016 764.769 66.599)"/><ellipse cx="3.263" cy="5.587" fill="#3c2314" rx="3.263" ry="5.587" transform="matrix(.874 -.486 .486 .874 741.627 64.284)"/><path d="m713.747 139.3c.159 1.647 4.234 2.6 9.1 2.131s8.108-1.931 7.949-3.578-3.658-2.857-8.525-2.387-8.683 2.189-8.524 3.834z" fill="#ffc30f"/><path d="m728.707 134.746c-.461-10.789-5.644-16.178-11.226-.375-2.312 14.452.962 34.244 5.584 51.98 1.57 6.024-3.868 8.131-1.56 16.191.6 2.1 2.178 2.623 2.7 1.984.346 1.064 2.092 1.728 2.58 1.05a2.718 2.718 0 0 0 2.6 1.907c.133 1.506 3 2.419 3.424.694l1.287-8.44c.047 3.5 1.22 5.786 2.779 6.581 1.623.827 2.31.09 1.126-1.58s-1.066-4.469-1.563-8.228c-.522-3.944-4.425-7.407-5-9.308-3.873-12.854-3.597-25.967-2.731-52.456z" fill="#3c2314"/><g clip-path="url(#o)"><path d="m722.414 127.993c-2.34 35.4 8.139 82.272 11.124 84.436s24.036 7.327 25.6-4.475-13.056-73.83-15.092-77.636-21.632-2.325-21.632-2.325z" fill="#5f3919"/></g><path d="m730.652 138.275c-1.523-1.743-13.606-3.4-16.9 1.027.473-9.961 6.22-38.065 13.16-40.4 12.467-4.192 4.648 32.826 3.74 39.373z" fill="#faeb19"/><g clip-path="url(#p)"><path d="m722.163 138.585c-.817-6.192 3.133-32.494 11.137-36.15 7.614-3.476-11-43.974-28.432 21.673-12.187 45.892 17.295 14.477 17.295 14.477z" fill="#ffc30f"/></g><path d="m853.843 161.728c8.855 31.285-14.911 49.4-11.7 86.091 2.54 29.023-4.325 45.415-3.628 52.241s-6.886 7.553-6.962.068c-.223-21.97-7.521-27.622-5.661-52.706 1.635-22.069-3.1-32.84-3.943-56.65-6.052 16.146-21.855 31.622-13.764 47.952 8.115 16.38 6.606 33.38 15.067 58.564 3.02 8.99-7.808 6.23-10.172-1.793-6.688-22.709-25.96-53.185-27.3-64.39s-.227-35.591 13.666-69.4c9.944-24.219 46.287-28.633 54.397.023z" fill="#3c2314"/><g clip-path="url(#q)"><path d="m804.127 129.16c2.645 2.366 31.717 19.573 31.372 29.132-1.258 34.945 1.39 142.713-1.693 150.524-.227.576-5.136-1.349-6.178-18.148-1.411-22.764-15.973-58.388-6.768-94.346 6.192-24.19-30.6 19.1-23.881 37.92s17.437 48.558 19.387 58.258c5.225 25.976-45.4 26.692-50.783-40.087s2.242-155.713 38.544-123.253z" fill="#24150c"/></g><path d="m837.066 79.628a126.315 126.315 0 0 1 -23.952-.456c-9.244-1.075.682 39.468-13.661 77.17-13.8 36.271 66.383 17.955 52.534-1.786-23.377-33.325 16.88-77.828-14.921-74.928z" fill="#fff"/><g clip-path="url(#r)"><path d="m834.417 81.75c28.576.608 27.121 74.893 14.8 62.792s-15.86 14.864-13.436 37.427c1.05 9.772-50.138 9.041-49.28-3.943 5.785-87.624 27.7-110.319 38.747-105.642 2.892 1.226 6.89 9.316 9.169 9.366z" fill="#f0f0f0"/></g><path d="m845.417 80.411c6.638-34.786-8.4-42.465-20.294-41.415-6.414.566-15.727 5.589-16.583 22.232-1.581 30.725 8.5 41.53 15.33 40.5 9.461-1.422 17.383-22.859 21.547-21.317z" fill="#ffc30f"/><g clip-path="url(#s)"><path d="m811.475 43.286s15.906-5.163 24.258 15.209c5.749 14.023-9.9 9.661-9.9 9.661s-5.57 15.194 3.493 15.772c6.689.426 8.44-11.983 11.084-11.846 2.141.111-3.138 8.653-.083 10.876s29.615 10.221 29.615 10.221-11.522-60.361-31.596-64.579-26.871 14.686-26.871 14.686z" fill="#faeb19"/></g><path d="m826.269 48.394c-4.471 2.235-13.1 5.274-13.1 15.449-.006 8.872 8.013 17.136 11.874 17.648s11.875-7.9 11.875-17.648c-.004-7.325-6.936-13.71-10.649-15.449z" fill="#c39b6e"/><g clip-path="url(#t)"><path d="m826.121 81.978c-4.436-1.865 2.927-7.646 1.091-10.359-1.485-2.195.288-1.5.039-2.33s-2.885-1.045-2.212-2.793c.931-2.42 1.8-3.9.084-9.491-1.619-5.26 5.1-8.611 10.837 1.49-.054-12.458-10.405-28.914-20.636-17.274s-9.514 43.943 10.797 40.757z" fill="#91693c"/><ellipse cx="2.657" cy="4.755" fill="#91693c" rx="2.657" ry="4.755" transform="matrix(.1310626 -.99137409 .99137409 .1310626 826.212 62.069)"/><path d="m836 59.952c-1.054-2.459-6.675-2.538-9.159-1.345" fill="none" stroke="#000" stroke-linecap="round" stroke-miterlimit="10" stroke-width="2.503"/></g><path d="m815.054 59.352c1.72-2.344 6.625-1.909 8.693-.905" fill="none" stroke="#000" stroke-linecap="round" stroke-miterlimit="10" stroke-width="2.503"/><ellipse cx="820.042" cy="62.6" rx=".686" ry="1.372"/><ellipse cx="830.911" cy="62.6" rx=".686" ry="1.372"/><path d="m830.3 72.423.022-.008c-1.5-.648-2.928-1.006-3.4-.7a1.131 1.131 0 0 1 -1.9 0c-.47-.3-1.689.2-3.4.7l.022.008-.046-.008s1.413 3.813 4.357 3.813 4.388-3.813 4.388-3.813z" fill="#5f3919"/><g clip-path="url(#u)"><path d="m826.109 76.616a2.467 2.467 0 0 1 -.124-3.147c.614-.3 3.022-.355 4.925-1.11-.685-4.357-7.723-1.914-7.723-1.914l-2.9 1.892 1.728 4.567z" fill="#3c2314"/></g><path d="m834.824 105.382h-7.591c-.828 0-1.054.833-.891 1.45l.9 3.5a1.129 1.129 0 0 0 1.063.9l7.922 1.838a.739.739 0 0 0 .745-.9l-1.023-5.768a1.142 1.142 0 0 0 -1.125-1.02z" fill="#ffc30f"/><g clip-path="url(#v)"><path d="m832.963 105.289c2.138-.064 2.45.822.086.8-2.333-.022-5.331-.018-6.118-.018a.573.573 0 0 0 -.589.761l-1.04-2.622a61.177 61.177 0 0 0 7.661 1.079z" fill="#fff78f"/></g><path d="m836.089 111.615c-.776.037-8.694-1.8-10.18-1.781-.872.013-.9 1.442.185 1.588-.613.331-.185 1.072.369 1.367a28.1 28.1 0 0 0 10.387 5.611c11.022 2.85 13.208 7.775 18.353 10.276 6.854 3.332 11.577 2.317 12.978.2s-6.6-35.461-21.2-47.532c-1.246-1.03-5.408 11.645-3.84 18.886 2.238 10.337 10.752 16.539 9.694 16.253-9.588-2.584-11.018-9.948-13.417-9.845a28.138 28.138 0 0 0 -3.335.535l.28 1.583s-4.505-.346-5.541-.534c-1.454-.265-1.922.8-.69 1.318 1.202.516 5.957 2.075 5.957 2.075z" fill="#c39b6e"/><g clip-path="url(#w)"><path d="m845.084 110.395s-2.091 13.446-1.793 14.939 33.763 31.971 35.556 21.812-4.482-70.514-16.433-70.514-22.409.9-24.8 4.482 7.47 29.281 7.47 29.281z" fill="#fff"/><path d="m843.588 84.939c10.843 10.235 13.79 29.235 14.512 32.41.36 1.584-.646.6-5.7-1.04-5.752-1.871-11.852-10.749-12.384-9.482-.488 1.164.7 2.452-.449 3.065s.981 2.289-.327 3.27 1.349 1.675.245 3.065c-1.251 1.575 4.456-.229 8.956 3.407 7.282 5.884 15.042 11.233 19.046 9.248 3.334-1.653-4.216-20.107.042-14.505s11.016 27.988 11.016 27.988l-67.357-25.786 1.684-18.106s25.069-18.864 30.716-13.534z" fill="#91693c"/><g clip-path="url(#x)"><path d="m845.084 110.395s-2.091 13.446-1.793 14.939 33.763 31.971 35.556 21.812-4.482-70.514-16.433-70.514-22.409.9-24.8 4.482 7.47 29.281 7.47 29.281z" fill="#f0f0f0"/></g></g><ellipse cx="7.81" cy="3.43" rx="7.81" ry="3.43" transform="matrix(.92870604 -.3708168 .3708168 .92870604 859.136 104.465)"/><ellipse cx="6.88" cy="2.492" fill="#c8c8c8" rx="6.88" ry="2.492" transform="matrix(.94321106 -.33219406 .33219406 .94321106 859.406 102.112)"/><path d="m873.266 99.823c-.467 3.969-11.442 6.909-13.018 4.411a33.424 33.424 0 0 0 1.752 4.715c6.756 2.714 11.638 2.091 12.724-5.293z" fill="#fff"/><g clip-path="url(#y)"><path d="m858.242 103.755 3.15 6.489 8.826-2.106-3.594-8.318z" fill="#c8c8c8"/></g><path d="m874.944 102.013c-1.259 5.9-12.269 8.554-14.463 5.845 6.47 17.016 25.326 43.019 29.051 43.072 3.024.044 9.429-4.8 16.7-19.482 5.215-10.534 1.32-41.723-2.874-40.092s-11.478 37.077-14.2 36.9-14.214-26.243-14.214-26.243z" fill="#3c2314"/><g clip-path="url(#z)"><path d="m853.31 107.131s25.357 61.761 27.912 63.555 33.38-41.315 36.94-49.2-18.529-50.339-21.962-49.466c-1.765.448.764 52.344-8.239 57.424-7.149 4.033-18.908-23.965-20.953-30.573s-13.698 8.26-13.698 8.26z" fill="#24150c"/></g><path d="m964.824 177.15a55.49 55.49 0 0 0 1.221 7.777c1.24 4.8-.794 6.136-2.038 5.946-1.573-.241-2.026.808-1.562.979a8.368 8.368 0 0 0 2.5.508c.643-.032 2.258-1.547 2.684-1.466s-.326 2.2-2.293 2.633c-1.1.245-2.175-.026-2.328.9-.071.429 1.8.666 3.265.553.649-.05 2.483-1.78 2.914-1.492s-2.114 2.781-3.111 3.628-1.2 2.606-.384 2.6 5.631-5.387 5.655-4.792c.046 1.11-1.04 3.694-1.247 4.8-.181.959.888 1.254 1.122.859 2.71-4.571 5.174-12.076 5.088-13.663s-4.719-10.147-5.415-11.775c0 0-.523-2.051-3.529-1.383a2.99 2.99 0 0 0 -2.542 3.388z" fill="#91693c"/><g clip-path="url(#A)"><path d="m969.426 202.909s4.587-10.193 4.195-13.337-2.578-8.343-2.8-4.1c-.367 6.978-2.336 6.384-2.335 4.479 0-4.743-3.084-21.109-3.084-21.109l-11.154 5.128-6.753 22.474z" fill="#5f3919"/></g><path d="m972.455 176.146c-.41-2.123-2.562-8.717-2.562-8.717l-9.422 2.294 1.188 8.2s11.205.346 10.796-1.777z" fill="#fff"/><path d="m956.794 89.809c6.473 4.117 17.393 77.365 17.6 80.886s-14.05 2.44-14.05 2.44-5.641-45.345-7.712-60.435c-2.607-19.008.668-25.114 4.162-22.891z" fill="#3c2314"/><path d="m925.056 297.775s1.514-.212 1.958.3c.855.988-.759 3.638-1.444 2.7a5.685 5.685 0 0 1 -.514-3z" fill="#ffc30f"/><path d="m915.694 291.631a50.821 50.821 0 0 1 -1.237 13.78s15.776-.829 12.226-4.469c-3.424-3.509-2.208-14.049-2.208-14.049s-9.241-2.262-8.781 4.738z" fill="#91693c"/><g clip-path="url(#B)"><path d="m919.916 282.239c.3 6.177 1.973 20.843-2.135 22.983s-25.272-10.364-25.272-10.364l3.779-16.834z" fill="#5f3919"/></g><path d="m889.909 315.756c-.3-2.126-1.318-3.834.863-4.86s20.089-9.321 24.376-13.987c0 0 6.672 1.872 3.042 5.471 0 0 10.512-.77 8.749-4.348 1.083.612 3.262 11.83 2.658 14.523-.285 1.267-8.617 1.43-18.242 3.273s-21.284 1.052-21.446-.072z" fill="#faeb19"/><g clip-path="url(#C)"><path d="m920.777 301.37c0 7.019-21.612 6.242-18.742 15.672s-27.878 15.442-28.424-3.28 56.322-25.308 56.322-25.308-9.156 5.897-9.156 12.916z" fill="#ffc30f"/><path d="m930.62 309.587c.065 1.052 1.89 3.38 1.883 4.622 0 0-36.12 4.9-43.91 3a36.791 36.791 0 0 0 .514-4.365c.208 1.066 12.411 3.762 41.513-3.257z" fill="#646464"/><g clip-path="url(#D)"><path d="m902.855 312.532c-2.4 4.194.575 8.558-.137 9.839s-20.5-1.23-20.5-1.23l12.839-22.895s10.194 10.092 7.798 14.286z" fill="#282828"/></g></g><path d="m959.449 291.536-.1 9.207-7.839.321-.462-9.207z" fill="#91693c"/><g clip-path="url(#E)"><path d="m955.076 291.247.428 12.383-13.286-6.367 1.031-11.681z" fill="#5f3919"/></g><path d="m928.006 200.759c-5.987.483-.48 92.45-.428 95.366s-12.994 2.263-13.5-.349-13.288-111.467-9.693-125.848 38.758-27.5 47.635-3.053 10.989 126.28 10.905 129.491-12.4 3.856-13.068.495-15.863-96.584-21.851-96.102z" fill="#3c2314"/><g clip-path="url(#F)"><path d="m932.787 172.452c.213-24.087-41.556-21.113-44.506-4.022-3.026 17.533 5.121 126.079 5.5 127.458.46 1.687 13.319 6.736 27.226 9.55 1.469.3-5.765-61.2 3.854-98.65s6.327 100.278 9.094 100.459c12.249.8 22.438-1.693 22.009-11.7-3.095-72.147-23.385-99.61-23.177-123.095z" fill="#24150c"/></g><path d="m950.965 301.976c-.062-3.428 9.025-3.571 9.3-.423s-.282 5.72 3.14 11.368c1.834 3.027 1.584 6.4 1.439 8.584s-16.973 2.193-16.973.062a15.039 15.039 0 0 1 1.538-8.312c1.603-2.955 1.618-7.855 1.556-11.279z" fill="#faeb19"/><g clip-path="url(#G)"><path d="m955.324 295.217s2.267 26.347-3.858 28.142v2.192l-18.179-10.424 9.963-24.048s17.65.287 12.074 4.138z" fill="#ffc30f"/><path d="m967.37 318.069a14.942 14.942 0 0 1 -1.188 4.455s-10.495 6.831-19.8-.495a10.576 10.576 0 0 1 .2-4.257c-.102 2.839 16.727 4.297 20.788.297z" fill="#646464"/><g clip-path="url(#H)"><path d="m955.324 295.217s2.442 27.109-4.686 29.188l5.742 4.455-19.658-11.328 5.5-21.644s18.678-4.522 13.102-.671z" fill="#282828"/></g></g><path d="m922.076 82.633c-1.372.337-5.256 4.872-2.342 32.863s-2.157 55.394-2.157 55.394 25.611 8.311 32.256-3.032c0 0-7.353-40.683-7.048-52.161s-2.455-32.936-4.843-33.106-14.493-.291-15.866.042z" fill="#fff"/><g clip-path="url(#I)"><path d="m931.572 88.534s-2.946-9.375-1.907-1.522a76.656 76.656 0 0 1 .11 9.779c-1.137 19.011 2.271 73.127 3.595 80.963 1.573 9.308-11.528 13.456-20.69 14.665s3.927 122.432-29.9 136.125l-22.154-42.164v-220.237l59.958 7.662z" fill="#c8c8c8"/><g clip-path="url(#J)"><path d="m929.775 96.754s-5.64-1.675-6.794-1.749-5.592 3.4-5.592 3.4-.593-7.094.391-10.75 2.984-4.625 2.984-4.625l2.081-1s6.878 13.703 6.93 14.724z" fill="#fff"/></g><path d="m922.076 82.633c-1.372.337-5.256 4.872-2.342 32.863s-2.157 55.394-2.157 55.394 25.611 8.311 32.256-3.032c0 0-7.353-40.683-7.048-52.161s-2.455-32.936-4.843-33.106-14.493-.291-15.866.042z" fill="#fff"/><path d="m939.81 129.415c-3.131 2.765-9.771.361-14.832-5.37s-6.624-12.617-3.493-15.382 9.772-.361 14.832 5.37 6.624 12.617 3.493 15.382zm22.379-5.07c5.789-4.993 8.271-11.605 5.543-14.768s-9.633-1.681-15.422 3.312-8.272 11.6-5.544 14.768 9.634 1.68 15.423-3.312zm-2.644 10.67c-6.2-4.465-13.213-5.337-15.653-1.946s.612 9.759 6.818 14.224 15.041-7.812 8.835-12.278zm11.9 3.949c6.6-3.857 10.242-9.908 8.134-13.515s-9.167-3.4-15.768.456 1.036 16.917 7.636 13.059zm-13.145 26.054c6.6-3.858 10.242-9.909 8.134-13.515s-9.167-3.4-15.767.455 1.033 16.918 7.633 13.06zm-6.885-61.494c-5.2-5.606-11.9-7.848-14.958-5.008s-1.332 9.688 3.866 15.293 16.292-4.679 11.094-10.285zm-44.245 45.633c-3.131 2.765-9.772.361-14.832-5.369s-6.624-12.618-3.493-15.383 9.771-.36 14.832 5.37 6.623 12.618 3.493 15.382zm19.726-1.282c7.509-1.437 12.96-5.927 12.175-10.03s-7.508-6.264-15.017-4.828-12.96 5.926-12.175 10.029 7.508 6.265 15.021 4.829zm-3.016 7.514c-6.205-4.465-13.213-5.337-15.653-1.946s.612 9.759 6.818 14.224 15.041-7.812 8.835-12.278zm17.032 7.306c4.578-6.123 5.577-13.114 2.231-15.615s-9.768.434-14.346 6.557 7.537 15.181 12.115 9.063zm-12.4 21.218c5.85-4.922 8.411-11.5 5.722-14.7s-9.612-1.8-15.461 3.126 3.885 16.497 9.734 11.574zm-9.5-62.52c-5.2-5.606-11.9-7.848-14.958-5.008s-1.332 9.687 3.866 15.293 16.28-4.678 11.08-10.285zm11.535-30.058c-5.2-5.6-11.9-7.847-14.958-5.007s-1.332 9.687 3.866 15.293 16.282-4.68 11.084-10.286z" fill="#faeb19"/><g clip-path="url(#K)"><path d="m929.775 96.791a38.288 38.288 0 0 1 5.833-1.2c1.344.032 2.656-1.187 6.313 3.188s.656-14.938-3.313-16.688-6.687 2.909-6.687 2.909z" fill="#f0f0f0"/><path d="m931.572 88.534s-2.946-9.375-1.907-1.522a76.656 76.656 0 0 1 .11 9.779c-1.137 19.011 2.271 73.127 3.595 80.963 1.573 9.308-11.528 13.456-20.69 14.665s3.927 122.432-29.9 136.125l-22.154-42.164v-220.237l59.958 7.662z" fill="#c8c8c8"/><g clip-path="url(#J)"><path d="m939.81 129.415c-3.131 2.765-9.771.361-14.832-5.37s-6.624-12.617-3.493-15.382 9.772-.361 14.832 5.37 6.624 12.617 3.493 15.382zm22.379-5.07c5.789-4.993 8.271-11.605 5.543-14.768s-9.633-1.681-15.422 3.312-8.272 11.6-5.544 14.768 9.634 1.68 15.423-3.312zm-2.644 10.67c-6.2-4.465-13.213-5.337-15.653-1.946s.612 9.759 6.818 14.224 15.041-7.812 8.835-12.278zm11.9 3.949c6.6-3.857 10.242-9.908 8.134-13.515s-9.167-3.4-15.768.456 1.036 16.917 7.636 13.059zm-13.145 26.054c6.6-3.858 10.242-9.909 8.134-13.515s-9.167-3.4-15.767.455 1.033 16.918 7.633 13.06zm-6.885-61.494c-5.2-5.606-11.9-7.848-14.958-5.008s-1.332 9.688 3.866 15.293 16.292-4.679 11.094-10.285zm-44.245 45.633c-3.131 2.765-9.772.361-14.832-5.369s-6.624-12.618-3.493-15.383 9.771-.36 14.832 5.37 6.623 12.618 3.493 15.382zm19.726-1.282c7.509-1.437 12.96-5.927 12.175-10.03s-7.508-6.264-15.017-4.828-12.96 5.926-12.175 10.029 7.508 6.265 15.021 4.829zm-3.016 7.514c-6.205-4.465-13.213-5.337-15.653-1.946s.612 9.759 6.818 14.224 15.041-7.812 8.835-12.278zm17.032 7.306c4.578-6.123 5.577-13.114 2.231-15.615s-9.768.434-14.346 6.557 7.537 15.181 12.115 9.063zm-12.4 21.218c5.85-4.922 8.411-11.5 5.722-14.7s-9.612-1.8-15.461 3.126 3.885 16.497 9.734 11.574zm-9.5-62.52c-5.2-5.606-11.9-7.848-14.958-5.008s-1.332 9.687 3.866 15.293 16.28-4.678 11.08-10.285zm11.535-30.058c-5.2-5.6-11.9-7.847-14.958-5.007s-1.332 9.687 3.866 15.293 16.282-4.68 11.084-10.286z" fill="#ffc30f"/></g></g></g><path d="m939.943 85.716s14.675 2.839 16.651 3.985c2.382 1.381 1.177 42.8 11.882 94.8.29 1.407-17.184 5.666-18.066 2.215s-10.195-61.283-8.615-75.513c2.145-19.313-1.852-25.487-1.852-25.487z" fill="#3c2314"/><path d="m919.219 86.953s-13.957 2.515-16.4 4.777 3 39.011-6.371 94.25c-.511 3.01 21.146 4.927 21.739 1s7.85-55.508 2.989-74.429c-4.834-18.826-1.957-25.598-1.957-25.598z" fill="#24150c"/><path d="m939.264 84.735c1.94-.19 7.817 8.884 8.622 22.711l-4.752 6.981 6.229 10.215-2.969 35.182s-5.422-33.113-5.354-47.478-.534-24.71-1.776-27.611z"/><path d="m921.285 159.428-7.4-39.061 3.689-6.544-5-6.242c.806-13.828 6.156-23.683 7.877-22.931-.772 1.727-2.9 8.7.722 24.642 3.998 17.574.112 50.136.112 50.136z" fill="#3c2314"/><path d="m931.705 40.327a7.335 7.335 0 0 1 -6.541-1.89c-3.764-3.66-10.413-7.689-10.362 9.61.013 4.328.566 17.837.566 17.837l23.459.528s1.132-12.351 1.843-17.369c.871-6.143 2.841-11.048-8.965-8.716z"/><g clip-path="url(#L)"><path d="m924.687 50.468s.585-17.056-15.183-17.937c-20.527-1.147 25.472-24.389 36.396-18.575s10.3 36.889-1.411 65.4-19.349 1.728-19.349 1.728z" fill="#3f2414"/><path d="m936.139 55.3s3.157-1.569 4.813-.6 2.341 8.281.4 9.312-6.811 4.419-7.03 2.256 1.817-10.968 1.817-10.968z" fill="#5f3919"/></g><path d="m929.775 96.791a38.288 38.288 0 0 1 5.833-1.2c1.344.032 2.656-1.187 6.313 3.188s.656-14.938-3.313-16.688-6.687 2.909-6.687 2.909z" fill="#fff"/><path d="m929.744 96.916a38.315 38.315 0 0 0 -5.833-1.2c-1.344.032-2.657-1.187-6.313 3.188s-.656-14.938 3.313-16.688 6.687 2.907 6.687 2.907z" fill="#f0f0f0"/><path d="m921.437 73.6s.046 6.308-.309 12.957c-.168 3.14 2.188 5.75 8.647 10.375 5.375-3.792 9.073-9.544 8.583-13.6-.556-4.61-1.119-12.069.454-13.848-.399-3.297-10.686 4.731-17.375 4.116z" fill="#5f3919"/><g clip-path="url(#M)"><path d="m917.424 73.678c3.783 1.432 3.62 4.42 7.705 5.8 2.666.9 5.915 7.037 4.646 17.453-1.215 9.967-10.044 5.786-11.3 4.06-3.105-4.291-1.051-27.313-1.051-27.313z" fill="#3c2314"/></g><path d="m915.457 49.5c-2.311 13.994.993 29.688 8.466 29.7 4.987.01 13.8-2.466 13.8-15.083-1.169-23.429-5.569-15-13.036-13.655-4.019.732-8.835-2.405-9.23-.962z" fill="#5f3919"/><g clip-path="url(#N)"><path d="m921.749 63.55c-1.233 1.57-1.938 2.279-1 3.678.758 1.132 2.279-.865 2.347 1.31a10.366 10.366 0 0 0 0 1.737c.361 1.56 1.369 3.225.528 5.111-1.238 2.776-.042 3.437.79 3.813 3.375 1.526-15.749 3.723-17.061-1.707s-11.02-29.4 0-32.977 14.4-1.179 16.342 1.676.879 13.763-1.946 17.359z" fill="#3c2314"/></g><ellipse cx="919.58" cy="59.584" rx=".692" ry="1.397"/><path d="m928.766 54.972h-.013c-.1-.015-.194-.028-.292-.039-3.71-.039-3.775-4.463-3.775-4.463l-2.263 4.424 1.522 3.432c.466 1.148 3.115 2.224 4.962 2.224 2.216 0 4.581-1.182 4.716-2.673.336-3.693-3.102-2.615-4.857-2.905z" fill="#3c2314"/><ellipse cx="929.602" cy="59.612" rx=".692" ry="1.397"/><ellipse cx="5.218" cy="2.59" fill="#5f3919" rx="5.218" ry="2.59" transform="matrix(.33614204 -.9418113 .9418113 .33614204 935.366 70.314)"/><path d="m923.858 69.5c-.788.168-1.774.682-2.492.171-.645-.46-.95 1.578-.95 1.578s.271 3.47 2.874 3.256 4.392-3.8 4.392-3.8c-.758.283-2.908-1.399-3.824-1.205z" fill="#5f3919"/><g clip-path="url(#O)"><path d="m922.609 68.011a10.089 10.089 0 0 1 .505 2.99l.255 2.425a3.214 3.214 0 0 1 -.254 3.241l5.956-1.45.972-6.481z" fill="#91693c"/></g><path d="m924.8 70.705c-.954.008-1.49.536-2.36.32-.665-.164-1.653-.17-1.693.344s.563 1.84 2.581 1.675 4.168-2.216 4.168-2.216-1.789-.128-2.696-.123z"/><g clip-path="url(#P)"><path d="m925.974 70.177a12.572 12.572 0 0 1 -2.871.113c-.562-.14-1.687-.233-1.706-.007a7.142 7.142 0 0 0 .187 1.09c1.431 1 4.825-.1 5.423-.763-.315-.002-.598-.437-1.033-.433z" fill="#fff"/></g><path d="m917.941 69.087c-2.959 3.063-3.287.382-3.287.382s-1.188 2.083 2.323 2.112 5.165-2.331 7.258-1.844c0 0-.985-3.2-3.533-2.527a6.343 6.343 0 0 0 -2.761 1.877z"/><path d="m923.108 67.764s3.292-2.75 5.625.813 3.646.892 3.646.892 1.188 2.083-2.323 2.112-4.95-2.332-7.043-1.845a1.533 1.533 0 0 1 .095-1.972z" fill="#3f2414"/><path d="m854.258 64.963a.83.83 0 0 1 .894.413l6.3 11.466-2.221.547-5.541-11.262a.818.818 0 0 1 .568-1.164z" fill="#faeb19"/><path d="m863.788 90.47a1.862 1.862 0 0 1 -2.531 1.491s-1.647-.729-2.8-1.1-1.923 2.054-.712 2.822c-1.536 0-1.767 2.473-1.164 3.068s-1.754 2.014.425 4.177 6.4 6.071 13.875 1.532c6.537-3.972-1.952-12.568-1.952-12.568l-4.469-4.723z" fill="#5f3919"/><g clip-path="url(#Q)"><path d="m872.828 99.355c-.408 2.854-2.691-.734-3.588-2.528s-5.119-10.089-5.911-11.574 7.227-1.386 9.108 2.673.798 8.574.391 11.429z" fill="#91693c"/></g><path d="m859.228 77.389 12.456 34a.975.975 0 0 0 1.17.605.962.962 0 0 0 .657-1.252l-12.062-33.9z" fill="#faeb19"/><path d="m853.618 65.948 15.054 40.228 3 5.223-12.441-34.01z" fill="#ffc30f"/><path d="m861.523 86.736 1.9 3.74s.742.992.108 1.743c-.855 1.012-1.8.64-2.671-.4s-2.383-3.619-1.877-4.5a1.672 1.672 0 0 1 2.54-.583z" fill="#5f3919"/><path d="m933.48 56.226c-1.654-1.209-4.1-1.75-7.253-.373" fill="none" stroke="#000" stroke-linecap="round" stroke-miterlimit="10" stroke-width="2.363"/><path d="m922.327 56.1c-1.654-1.209-4.1-1.75-7.254-.373" fill="none" stroke="#000" stroke-linecap="round" stroke-miterlimit="10" stroke-width="2.363"/><path d="m829.444 293.042s-.441 16.49-7.936 25.132 16.49 7.143 18.518-2.734 3.557-7.672 3.175-11.463c-.505-5.005-3-8.2-2.91-15.432.038-3.161-1.717 3.626-4.057 4.5-3.013 1.119-6.746-4.589-6.79-.003z"/><g clip-path="url(#R)"><path d="m822.3 191.1s2.3 26.71 4.909 59.611c2.163 27.279 16.4 49.03-8.877 78.659l-.176-111.992z"/></g><path d="m811.276 292.337s1.255 16.449-5.314 25.815 15.071 5.734 16.075-4.3 5-9.083 4.233-12.816c-1.016-4.926-3.307-7.069-4.667-14.287-.585-3.106-1.335 3.784-3.573 4.89-2.882 1.427-7.181-3.867-6.754.698z"/><g clip-path="url(#S)"><path d="m823.213 9.094s-36.8 42.68-.118 75.484-39.466 76.751-18.3 152.937 27.505 100.523 27.505 100.523h-80.944v-331.197z"/></g><path d="m825.891 299.5c.14.485.267.993.379 1.534.769 3.733-3.23 2.784-4.233 12.816s-22.643 13.665-16.075 4.3a21.629 21.629 0 0 0 1.8-3.115s7.733-1.564 11.644.73c0 0 .769-8.14 4.3-12.285a28.809 28.809 0 0 0 2.185-3.98z" fill="#b2b2b2"/><g clip-path="url(#T)"><path d="m823.213 9.094s-36.8 42.68-.118 75.484-39.466 76.751-18.3 152.937 27.505 100.523 27.505 100.523h-80.944v-331.197z" fill="#b2b2b2"/></g><path d="m843.259 303.482c.661 5.52-1.245 2.279-3.233 11.958-2.028 9.877-26.014 11.376-18.518 2.734a22.613 22.613 0 0 0 2.68-3.894s7.872-3.07 11.75 2.279z" fill="#b2b2b2"/><g clip-path="url(#U)"><path d="m822.3 191.1s2.3 26.71 4.909 59.611c2.163 27.279 16.4 49.03-8.877 78.659l-.176-111.992z" fill="#808080"/></g><path d="m820.9 318.955s10.456 4.887 15.042-2.848" fill="none" stroke="#053241" stroke-miterlimit="10" stroke-width=".205"/><path d="m819.238 315.229s-1.981 7.75-14.077 4.276" fill="none" stroke="#000" stroke-miterlimit="10" stroke-width=".205"/><path d="m829.719 299.847s2.749-1.049 6.612 1.135l-.416 1.78s-3.752-1.9-6.539-1.134zm-.478 2.482s2.748-1.049 6.612 1.135l-.416 1.78s-3.753-1.9-6.539-1.134zm-.479 2.481s2.749-1.048 6.612 1.136l-.415 1.78s-3.753-1.9-6.54-1.134zm-.455 2.363s2.749-1.049 6.612 1.135l-.416 1.78s-3.752-1.9-6.539-1.134z" fill="#b2b2b2"/><g clip-path="url(#V)"><path d="m822.3 191.1s2.3 26.71 4.909 59.611c2.163 27.279 16.4 49.03-8.877 78.659l-.176-111.992z" fill="#b2b2b2"/></g><path d="m811.3 301.144s2.748-1.064 6.611 1.153l-.411 1.803s-3.753-1.926-6.54-1.15zm-.479 2.519s2.749-1.064 6.612 1.153l-.416 1.806s-3.752-1.926-6.539-1.151zm-.478 2.519s2.748-1.064 6.612 1.153l-.416 1.806s-3.753-1.926-6.539-1.151zm-.455 2.4s2.748-1.064 6.612 1.152l-.416 1.806s-3.753-1.926-6.54-1.15z" fill="#b2b2b2"/></g></svg>