<svg xmlns="http://www.w3.org/2000/svg" width="88.7" height="40.663" viewBox="0 0 88.7 40.663"><defs><style>.a{fill:#777;fill-rule:evenodd;}</style></defs><g transform="translate(0 0)"><path class="a" d="M63.256,32.506a2.63,2.63,0,0,0,2-1.1V30a3.363,3.363,0,0,0-1.553-.352c-1.064,0-1.8.549-1.8,1.451a1.327,1.327,0,0,0,1.353,1.406m.266-4.219a6.433,6.433,0,0,1,1.752.264c.022-1.384-.244-1.934-1.375-1.934a9.527,9.527,0,0,0-2.484.4c-.266.066-.421-.11-.488-.351l-.178-.813a.4.4,0,0,1,.288-.505,9.23,9.23,0,0,1,3.061-.505c2.839,0,3.1,1.714,3.1,3.912v4.681a.434.434,0,0,1-.421.418h-.621c-.2,0-.288-.088-.377-.308l-.222-.593a3.84,3.84,0,0,1-2.728,1.121,2.741,2.741,0,0,1-2.861-2.944c0-1.6,1.287-2.835,3.549-2.835" transform="translate(-15.891 -6.98)"/><path class="a" d="M77.311,24.836a3.945,3.945,0,0,1,3.216,1.56.428.428,0,0,1-.089.616l-.732.659c-.266.242-.421.066-.6-.088a2.473,2.473,0,0,0-1.774-.835,2.715,2.715,0,1,0,2.04,4.417.408.408,0,0,1,.6-.044l.6.483c.222.176.311.4.156.615a3.942,3.942,0,0,1-3.438,1.846,4.6,4.6,0,0,1-4.635-4.593,4.7,4.7,0,0,1,4.657-4.637" transform="translate(-19.213 -6.981)"/><path class="a" d="M86.6,25.474a.434.434,0,0,1,.421-.418h.621a.386.386,0,0,1,.377.263l.244.748a4.133,4.133,0,0,1,2.927-1.231,3.3,3.3,0,0,1,2.861,1.406,4.957,4.957,0,0,1,3.215-1.406c2.706,0,3.659,1.89,3.659,4.175v4.417a.419.419,0,0,1-.421.418H99.26a.419.419,0,0,1-.421-.418v-4.5c0-1.385-.643-2.176-1.841-2.176a3.206,3.206,0,0,0-2.284,1.077,6.092,6.092,0,0,1,.067,1.055v4.548a.434.434,0,0,1-.421.418H93.183a.419.419,0,0,1-.421-.418v-4.5c0-1.407-.643-2.176-1.885-2.176a2.517,2.517,0,0,0-2.2,1.319v5.361a.434.434,0,0,1-.421.418H87.018a.434.434,0,0,1-.421-.418Z" transform="translate(-22.867 -6.981)"/><path class="a" d="M115.347,28.484a2.089,2.089,0,0,0-2.04-1.956,2.237,2.237,0,0,0-2.262,1.956Zm-2.018-3.648a3.975,3.975,0,0,1,4.08,4.065,5.276,5.276,0,0,1-.044.593.406.406,0,0,1-.4.374h-6.032a2.557,2.557,0,0,0,2.55,2.351,3.81,3.81,0,0,0,1.974-.637c.266-.154.421-.242.6-.022l.621.835a.34.34,0,0,1-.044.572,5.126,5.126,0,0,1-3.283,1.1,4.413,4.413,0,0,1-4.457-4.614,4.435,4.435,0,0,1,4.435-4.615Z" transform="translate(-28.709 -6.98)"/><path class="a" d="M30.372,29.687a5.184,5.184,0,0,1-5.193,5.146H8.55a5.184,5.184,0,0,1-5.193-5.146V15.5a2.351,2.351,0,0,1,2.355-2.334h22.3A2.351,2.351,0,0,1,30.372,15.5Zm.07-19.839H19.784l5.439-7.3A1.189,1.189,0,0,0,24.968.875a1.214,1.214,0,0,0-1.688.252l-6.5,8.722h-.359L12.193,5.655a1.214,1.214,0,0,0-1.707,0,1.188,1.188,0,0,0,0,1.691l2.526,2.5H3.287A3.043,3.043,0,0,0,.239,12.869V30.387a7.819,7.819,0,0,0,7.832,7.76h4.27l-1.435.935a1.189,1.189,0,0,0-.346,1.656,1.214,1.214,0,0,0,1.671.343l4.505-2.934h.256l4.533,2.959a1.214,1.214,0,0,0,1.671-.341,1.189,1.189,0,0,0-.344-1.656l-1.473-.962h4.28a7.819,7.819,0,0,0,7.832-7.76V12.869a3.043,3.043,0,0,0-3.048-3.021Z" transform="translate(-0.239 -0.641)"/></g></svg>