<svg xmlns="http://www.w3.org/2000/svg" width="113.834" height="31.64" viewBox="0 0 113.834 31.64"><defs><style>.a{fill:#777;fill-rule:evenodd;}</style></defs><g transform="translate(0 0)"><path class="a" d="M3.581,27.2H2.252A1.988,1.988,0,0,1,.258,25.218v-13.9A1.988,1.988,0,0,1,2.252,9.333h1.11a1.988,1.988,0,0,1,1.994,1.981V25.435A1.77,1.77,0,0,1,3.581,27.2" transform="translate(-0.258 -2.446)"/><path class="a" d="M41.532,31.64H40.2a1.988,1.988,0,0,1-1.994-1.981V1.981A1.988,1.988,0,0,1,40.2,0h1.11a1.988,1.988,0,0,1,1.994,1.981v27.9a1.77,1.77,0,0,1-1.776,1.764" transform="translate(-10.202 0)"/><path class="a" d="M16.231,31.64H14.9a1.988,1.988,0,0,1-1.994-1.981V1.981A1.988,1.988,0,0,1,14.9,0h1.11a1.988,1.988,0,0,1,1.994,1.981v27.9a1.77,1.77,0,0,1-1.776,1.764" transform="translate(-3.573 0)"/><path class="a" d="M54.182,27.2H52.853a1.988,1.988,0,0,1-1.994-1.981v-13.9a1.988,1.988,0,0,1,1.994-1.981h1.11a1.988,1.988,0,0,1,1.994,1.981V25.435A1.77,1.77,0,0,1,54.182,27.2" transform="translate(-13.517 -2.446)"/><path class="a" d="M28.881,28.1H27.552a1.988,1.988,0,0,1-1.994-1.981V12.607a1.987,1.987,0,0,1,1.994-1.981h1.11a1.987,1.987,0,0,1,1.994,1.981V26.334A1.77,1.77,0,0,1,28.881,28.1" transform="translate(-6.887 -2.785)"/><path class="a" d="M86.19,21.192l-1.051-2.266h-.014l-1.037,2.266Zm-5.683,2.939,4.328-9.244a.282.282,0,0,1,.235-.151h.139a.281.281,0,0,1,.235.151l4.328,9.244a.243.243,0,0,1-.235.357H88c-.249,0-.36-.082-.484-.343l-.5-1.085H83.259l-.5,1.1a.515.515,0,0,1-.5.33H80.742a.243.243,0,0,1-.235-.357Z" transform="translate(-21.278 -3.862)"/><path class="a" d="M106.025,14.737a4.662,4.662,0,0,1,3.347,1.278.254.254,0,0,1,.013.384l-1.078,1.113a.243.243,0,0,1-.346,0,2.835,2.835,0,0,0-1.867-.7,2.81,2.81,0,0,0,.014,5.618,2.936,2.936,0,0,0,1.853-.659.275.275,0,0,1,.36.014l1.078,1.14a.274.274,0,0,1-.014.371,4.763,4.763,0,0,1-3.36,1.332,4.945,4.945,0,1,1,0-9.889" transform="translate(-26.663 -3.862)"/><path class="a" d="M122.831,14.957a.263.263,0,0,1,.249-.22h.221a.306.306,0,0,1,.235.137l3.208,5.934h.028l3.208-5.934a.3.3,0,0,1,.235-.137h.221a.263.263,0,0,1,.249.22l1.563,9.23a.252.252,0,0,1-.263.3h-1.632a.28.28,0,0,1-.263-.22l-.622-4.244h-.027l-2.323,4.45a.323.323,0,0,1-.235.151h-.249a.3.3,0,0,1-.235-.151l-2.337-4.45h-.028l-.609,4.244a.268.268,0,0,1-.263.22h-1.632a.252.252,0,0,1-.262-.3Z" transform="translate(-31.964 -3.862)"/><path class="a" d="M146.04,15.184a.262.262,0,0,1,.263-.261h5.725a.262.262,0,0,1,.263.261v1.5a.262.262,0,0,1-.263.261H148.2v1.7h3.153a.271.271,0,0,1,.263.261v1.5a.262.262,0,0,1-.263.261H148.2v1.854h3.83a.262.262,0,0,1,.263.261v1.5a.262.262,0,0,1-.263.261H146.3a.262.262,0,0,1-.263-.261Z" transform="translate(-38.456 -3.91)"/></g></svg>