<svg xmlns="http://www.w3.org/2000/svg" width="99.062" height="21.37" viewBox="0 0 99.062 21.37"><defs><style>.a{fill:#777;fill-rule:evenodd;}</style></defs><g transform="translate(0 0)"><path class="a" d="M126.722,27.22a.573.573,0,0,0-.786.211.789.789,0,0,1-1.475-.4v-1.24a.789.789,0,0,1,1.446-.445.572.572,0,0,0,.8.156.583.583,0,0,0,.154-.8,1.936,1.936,0,0,0-3.539.906.577.577,0,0,0-.009.1v1.506a.58.58,0,0,0,.036.194,1.935,1.935,0,0,0,3.584.609.581.581,0,0,0-.21-.791" transform="translate(-32.476 -7.618)"/><path class="a" d="M131.141,27.826l-.027,0a.793.793,0,0,1-.763-.794v-1.24a.79.79,0,1,1,1.581,0V27.03a.794.794,0,0,1-.79.8m1.935-2.176a.059.059,0,0,0,0-.009c0-.019,0-.039-.006-.058a1.938,1.938,0,0,0-3.858.027.545.545,0,0,0-.009.093v1.506a.583.583,0,0,0,.036.195,1.946,1.946,0,0,0,1.9,1.585.531.531,0,0,0,.058-.006,1.94,1.94,0,0,0,1.844-1.573.581.581,0,0,0,.038-.2V25.7c0-.018,0-.035-.005-.053" transform="translate(-34.019 -7.618)"/><path class="a" d="M61.706,26.113l-.008-.007c-.025.031-.049.062-.075.092Z" transform="translate(-16.312 -8.212)"/><path class="a" d="M87.543,21.332a2.464,2.464,0,0,1-2.455-2.472V7.841a3.369,3.369,0,0,0-6.608-.956,3.348,3.348,0,0,1,.949-.139,3.389,3.389,0,0,1,3.373,3.4V21.162a2.464,2.464,0,0,0,2.455,2.472,2.435,2.435,0,0,0,1.646-.642l.022.021,2.55-2.577-.034-.028a2.433,2.433,0,0,1-1.9.923" transform="translate(-20.729 -2.536)"/><path class="a" d="M69.3,13.915V7.841a3.369,3.369,0,0,0-6.608-.956,3.348,3.348,0,0,1,.949-.139,3.389,3.389,0,0,1,3.373,3.4v6.074a2.463,2.463,0,0,0,2.455,2.472,2.432,2.432,0,0,0,1.375-.424l.017.016.111-.112a2.452,2.452,0,0,0,.439-.444l1.863-1.883a2.418,2.418,0,0,1-1.519.544A2.463,2.463,0,0,1,69.3,13.915" transform="translate(-16.591 -2.536)"/><path class="a" d="M55.036,18.422V7.049a2.477,2.477,0,0,1,.036-.358A8.331,8.331,0,0,1,56.449,2.77a8.356,8.356,0,0,0-3.662,6.224,2.484,2.484,0,0,0-.036.358V20.724A2.463,2.463,0,0,0,55.205,23.2a2.432,2.432,0,0,0,1.624-.622l0,0,.029-.03q.083-.076.159-.16l2.124-2.147a2.428,2.428,0,0,1-1.652.655,2.464,2.464,0,0,1-2.455-2.472" transform="translate(-13.987 -2.097)"/><path class="a" d="M49.934,23.222l.01-.014c-.017.022-.036.042-.053.063l.042-.05" transform="translate(-13.238 -7.453)"/><path class="a" d="M37.35,20.848a8.308,8.308,0,0,1-8.13-6.77,2.462,2.462,0,0,1-.152-.831V6.82a2.511,2.511,0,0,1,.04-.406A8.334,8.334,0,0,1,30.985,1.9L29.778,3.1a8.365,8.365,0,0,0-1.013,1.01l0,0h0a8.344,8.344,0,0,0-1.938,4.6,2.511,2.511,0,0,0-.041.406V15.55a2.463,2.463,0,0,0,.153.831,8.246,8.246,0,0,0,12.948,5.2l0,0,.045-.037a8.3,8.3,0,0,0,1.137-1,32.3,32.3,0,0,0,2.379-2.4,8.284,8.284,0,0,1-6.1,2.7" transform="translate(-7.183 -1.868)"/><path class="a" d="M50.1,23.011l-.025.035c.008-.011.018-.024.025-.035" transform="translate(-13.286 -7.401)"/><path class="a" d="M50.55,6.277l-.009,0-.014.029Z" transform="translate(-13.405 -3.015)"/><path class="a" d="M42.753,6a3.362,3.362,0,0,0-6.033.942A3.351,3.351,0,0,1,40.467,8.3a2.446,2.446,0,0,0,4.1-.047l1.478-1.523A2.428,2.428,0,0,1,42.753,6" transform="translate(-9.787 -2.549)"/><path class="a" d="M13.4,4.443a3.381,3.381,0,0,0-3.235,2.442,3.331,3.331,0,0,1,.949-.139,3.389,3.389,0,0,1,3.373,3.4V11.9h2.286V7.841a3.389,3.389,0,0,0-3.373-3.4" transform="translate(-2.828 -2.536)"/><path class="a" d="M24.973,26.113l-.008-.007c-.025.031-.049.062-.075.092Z" transform="translate(-6.687 -8.212)"/><path class="a" d="M2.51,18.2V6.824a2.477,2.477,0,0,1,.036-.358A8.338,8.338,0,0,1,4.39,1.91L3.359,2.954A8.4,8.4,0,0,0,2.01,4.319l0,0h0A8.343,8.343,0,0,0,.26,8.768a2.484,2.484,0,0,0-.036.358V20.5a2.463,2.463,0,0,0,2.455,2.472A2.432,2.432,0,0,0,4.3,22.348l0,0,.029-.029q.083-.077.159-.161l2.125-2.147a2.43,2.43,0,0,1-1.653.655A2.464,2.464,0,0,1,2.51,18.2" transform="translate(-0.224 -1.872)"/><path class="a" d="M16.71,23.263V21.247H9.964v2.016a2.494,2.494,0,0,1-.028.286h4.489v2.016a2.464,2.464,0,0,0,2.455,2.472,2.432,2.432,0,0,0,1.624-.622l0,0,.029-.03q.083-.076.159-.16l2.124-2.147a2.428,2.428,0,0,1-1.652.655,2.464,2.464,0,0,1-2.455-2.472" transform="translate(-2.769 -6.938)"/><path class="a" d="M9.179,26.113l-.009-.007c-.025.031-.049.062-.075.092Z" transform="translate(-2.549 -8.212)"/><path class="a" d="M114.793,14.617h-9.2v.875a3.394,3.394,0,0,0,.316,1.427h6.173a2.431,2.431,0,0,1,2.512-.883l2.086-2.312-.006-.01a2.431,2.431,0,0,1-1.882.9" transform="translate(-27.833 -4.965)"/><path class="a" d="M111.817,5.845a3.352,3.352,0,0,0-6.022.95,3.314,3.314,0,0,1,.938-.148,3.348,3.348,0,0,1,1.862.569h3.755a3.373,3.373,0,0,0-.533-1.372" transform="translate(-27.886 -2.51)"/><path class="a" d="M106.411,20.728a8.3,8.3,0,0,1-8.069-6.49,2.474,2.474,0,0,1-.213-1V6.81a2.575,2.575,0,0,1,.028-.284,8.339,8.339,0,0,1,1.827-4.668l-1.05,1.047a8.363,8.363,0,0,0-3.062,5.923,2.588,2.588,0,0,0-.028.284v6.428a2.474,2.474,0,0,0,.213,1,8.3,8.3,0,0,0,8.069,6.49h.01a8.246,8.246,0,0,0,4.674-1.47l.007.02.193-.163a8.321,8.321,0,0,0,1.168-1.041c.6-.554,1.314-1.252,1.981-1.989a8.279,8.279,0,0,1-5.736,2.342h-.011" transform="translate(-25.278 -1.858)"/><path class="a" d="M24.835,26.23l-.154.156c.054-.05.1-.1.154-.156" transform="translate(-6.632 -8.244)"/><path class="a" d="M9.041,26.23l-.154.155c.054-.049.1-.1.154-.155" transform="translate(-2.494 -8.244)"/><path class="a" d="M61.567,26.23l-.154.156c.054-.05.1-.1.154-.156" transform="translate(-16.257 -8.244)"/><path class="a" d="M50.045,23.059c-.025.035-.051.072-.082.11.028-.036.054-.073.082-.11" transform="translate(-13.257 -7.413)"/><path class="a" d="M49.753,23.295c-.126.153-.258.306-.391.459q.2-.221.391-.459" transform="translate(-13.099 -7.475)"/></g></svg>