<svg xmlns="http://www.w3.org/2000/svg" width="51.12" height="64.83" viewBox="0 0 51.12 64.83"><defs><style>.a{fill:#777;fill-rule:evenodd;}</style></defs><g transform="translate(0 0)"><path class="a" d="M43.306,36.9a17.434,17.434,0,0,0-1.628-11.4,17.433,17.433,0,0,0,1.628-11.4,14.568,14.568,0,0,1,0,22.8ZM26.116,48.139a14.636,14.636,0,0,1-11.427-5.487,17.546,17.546,0,0,0,11.427-1.625,17.546,17.546,0,0,0,11.427,1.625,14.636,14.636,0,0,1-11.427,5.487ZM3.428,25.5a14.578,14.578,0,0,1,5.5-11.4,17.433,17.433,0,0,0,1.628,11.4A17.434,17.434,0,0,0,8.927,36.9a14.579,14.579,0,0,1-5.5-11.4ZM35.264,28.88a17.484,17.484,0,0,0,0-6.755A14.76,14.76,0,0,1,38.349,25.5a14.729,14.729,0,0,1-3.086,3.378ZM22.731,34.63a17.589,17.589,0,0,0,6.77,0,14.736,14.736,0,0,1-3.385,3.078,14.736,14.736,0,0,1-3.385-3.078Zm-5.763-12.5a17.471,17.471,0,0,0,0,6.755A14.729,14.729,0,0,1,13.883,25.5a14.75,14.75,0,0,1,3.086-3.378ZM32.722,25.5a14.5,14.5,0,0,1-1.084,5.509,14.636,14.636,0,0,1-11.043,0,14.537,14.537,0,0,1,0-11.018,14.636,14.636,0,0,1,11.043,0A14.5,14.5,0,0,1,32.722,25.5ZM29.5,16.375a17.589,17.589,0,0,0-6.77,0A14.738,14.738,0,0,1,26.116,13.3,14.738,14.738,0,0,1,29.5,16.375Zm-18.032,1.1a14.5,14.5,0,0,1,1.084-5.509,14.638,14.638,0,0,1,10.7-.136,17.6,17.6,0,0,0-4.83,5.991,17.625,17.625,0,0,0-6,4.818,14.5,14.5,0,0,1-.947-5.164Zm0,16.046a14.5,14.5,0,0,1,.947-5.164,17.625,17.625,0,0,0,6,4.818,17.6,17.6,0,0,0,4.83,5.991,14.635,14.635,0,0,1-10.7-.136,14.5,14.5,0,0,1-1.084-5.509Zm29.293,0a14.5,14.5,0,0,1-1.084,5.509,14.635,14.635,0,0,1-10.7.136,17.6,17.6,0,0,0,4.83-5.991,17.625,17.625,0,0,0,6-4.818,14.5,14.5,0,0,1,.947,5.164Zm0-16.046a14.5,14.5,0,0,1-.947,5.164,17.625,17.625,0,0,0-6-4.818,17.6,17.6,0,0,0-4.83-5.991,14.638,14.638,0,0,1,10.7.136,14.5,14.5,0,0,1,1.084,5.509ZM26.116,2.866A14.636,14.636,0,0,1,37.543,8.352,17.554,17.554,0,0,0,26.116,9.977,17.554,17.554,0,0,0,14.689,8.352,14.636,14.636,0,0,1,26.116,2.866ZM51.676,25.5A17.5,17.5,0,0,0,41.852,9.8a17.532,17.532,0,0,0-31.471,0,17.457,17.457,0,0,0,0,31.4,17.532,17.532,0,0,0,31.471,0,17.5,17.5,0,0,0,9.824-15.7Z" transform="translate(-0.556 0)"/><path class="a" d="M4.914,84.484a1.814,1.814,0,0,0,1.379-.764v-.978A2.308,2.308,0,0,0,5.221,82.5c-.735,0-1.241.382-1.241,1.009a.92.92,0,0,0,.935.978M5.1,81.55a4.414,4.414,0,0,1,1.21.183c.015-.963-.168-1.345-.949-1.345a6.52,6.52,0,0,0-1.716.275c-.184.046-.291-.076-.337-.244l-.123-.566a.274.274,0,0,1,.2-.351A6.327,6.327,0,0,1,5.5,79.15c1.96,0,2.144,1.192,2.144,2.72v3.255a.3.3,0,0,1-.291.291H6.921c-.138,0-.2-.061-.26-.214l-.153-.412a2.647,2.647,0,0,1-1.885.779,1.9,1.9,0,0,1-1.976-2.048c0-1.116.889-1.971,2.451-1.971" transform="translate(-1.104 -20.739)"/><path class="a" d="M14.623,79.15a2.718,2.718,0,0,1,2.221,1.085.3.3,0,0,1-.061.428l-.506.459c-.184.168-.291.046-.413-.061a1.7,1.7,0,0,0-1.225-.58,1.888,1.888,0,1,0,1.409,3.072.28.28,0,0,1,.413-.031l.414.337c.153.122.214.275.107.428a2.719,2.719,0,0,1-2.374,1.283,3.186,3.186,0,0,1-3.2-3.194,3.256,3.256,0,0,1,3.217-3.225" transform="translate(-3.399 -20.739)"/><path class="a" d="M21.036,79.593a.3.3,0,0,1,.291-.291h.429a.268.268,0,0,1,.261.183l.168.52a2.848,2.848,0,0,1,2.022-.856,2.275,2.275,0,0,1,1.976.978A3.415,3.415,0,0,1,28.4,79.15c1.869,0,2.527,1.314,2.527,2.9v3.072a.29.29,0,0,1-.291.29h-.858a.291.291,0,0,1-.291-.29V81.993c0-.963-.444-1.513-1.271-1.513a2.21,2.21,0,0,0-1.578.748,4.238,4.238,0,0,1,.046.734v3.164a.3.3,0,0,1-.291.29h-.812a.29.29,0,0,1-.291-.29V81.993c0-.978-.444-1.513-1.3-1.513a1.738,1.738,0,0,0-1.517.917v3.729a.3.3,0,0,1-.291.29h-.858a.3.3,0,0,1-.291-.29Z" transform="translate(-5.922 -20.739)"/><path class="a" d="M40.894,81.687a1.448,1.448,0,0,0-1.409-1.36,1.548,1.548,0,0,0-1.562,1.36ZM39.5,79.15a2.756,2.756,0,0,1,2.818,2.828,3.7,3.7,0,0,1-.031.412.281.281,0,0,1-.275.26H37.846a1.772,1.772,0,0,0,1.761,1.635,2.617,2.617,0,0,0,1.363-.443c.184-.107.291-.168.414-.015l.429.581a.237.237,0,0,1-.03.4,3.526,3.526,0,0,1-2.267.764A3.212,3.212,0,0,1,39.5,79.15Z" transform="translate(-9.958 -20.739)"/><path class="a" d="M53.559,79.15a2.718,2.718,0,0,1,2.221,1.085.3.3,0,0,1-.061.428l-.506.459c-.184.168-.291.046-.413-.061a1.7,1.7,0,0,0-1.225-.58,1.888,1.888,0,1,0,1.409,3.072.28.28,0,0,1,.413-.031l.414.337c.153.122.214.275.107.428a2.719,2.719,0,0,1-2.374,1.283,3.186,3.186,0,0,1-3.2-3.194,3.256,3.256,0,0,1,3.217-3.225" transform="translate(-13.601 -20.739)"/><path class="a" d="M62.444,84.255a1.822,1.822,0,0,0,1.731-1.91,1.736,1.736,0,1,0-3.462,0,1.822,1.822,0,0,0,1.731,1.91m0-5.1a3.212,3.212,0,1,1-3.094,3.195,3.165,3.165,0,0,1,3.094-3.195" transform="translate(-15.961 -20.739)"/></g></svg>