<svg xmlns="http://www.w3.org/2000/svg" width="76.474" height="41.14" viewBox="0 0 76.474 41.14"><defs><style>.a{fill:#777;fill-rule:evenodd;}</style></defs><g transform="translate(0 0)"><g transform="translate(0 0)"><path class="a" d="M27.767,21.045l.939,6.6H26.828ZM26.435,30.1h2.647l.593,3.847H32.34L29.524,17.211H26.037L23.18,33.948h2.639Z" transform="translate(-6.074 -5.023)"/><g transform="translate(0 0)"><path class="a" d="M41.979,33.958a3.89,3.89,0,0,0,2.83-1.162,3.826,3.826,0,0,0,1.181-2.832V27.626H43.36v2.31a1.378,1.378,0,0,1-.429,1.022,1.423,1.423,0,0,1-1.033.421,1.44,1.44,0,0,1-1.448-1.443V20.774a1.411,1.411,0,0,1,.422-1.029,1.39,1.39,0,0,1,1.026-.427,1.462,1.462,0,0,1,1.462,1.456v1.964h2.629v-1.91a4.017,4.017,0,0,0-8.034,0v9.136a3.841,3.841,0,0,0,1.173,2.826,3.888,3.888,0,0,0,2.85,1.169Z" transform="translate(-9.945 -4.819)"/><path class="a" d="M54.193,23.307l2.454,10.5h2.039l2.2-10.525V33.805h2.535V17.055H59.926L57.658,29.088,55.3,17.055H51.658v16.75h2.535Z" transform="translate(-13.536 -4.88)"/><path class="a" d="M77.884,31.268H73.2V26.7h3.42V24.161H73.2V19.593h4.681V17.055H70.668v16.75h7.216Z" transform="translate(-18.517 -4.88)"/><path class="a" d="M2.6,39.112h71.28V3.143H2.6ZM0,41.7H76.474V.557H0Z" transform="translate(0 -0.557)"/></g></g></g></svg>