<svg xmlns="http://www.w3.org/2000/svg" width="112.025" height="29.838" viewBox="0 0 112.025 29.838"><defs><style>.a{fill:#777;fill-rule:evenodd;}</style></defs><g transform="translate(0 0)"><g transform="translate(0)"><path class="a" d="M16.917,19.4V17.332a1.724,1.724,0,1,1,3.448,0V19.4Zm1.724-6.315a4.243,4.243,0,0,0-4.215,3.886,1.3,1.3,0,0,0-.018.182v5.792a1.255,1.255,0,1,0,2.509,0V21.916h3.448v1.027a1.255,1.255,0,1,0,2.509,0V17.152a1.235,1.235,0,0,0-.019-.182,4.243,4.243,0,0,0-4.215-3.886Z" transform="translate(-3.775 -3.724)"/><path class="a" d="M14.866,27.721a12.4,12.4,0,1,1,12.357-12.4,12.393,12.393,0,0,1-12.357,12.4m0-27.32A14.919,14.919,0,1,0,29.732,15.32,14.909,14.909,0,0,0,14.866.4" transform="translate(0 -0.401)"/><path class="a" d="M58.622,19.4V17.332a1.724,1.724,0,1,1,3.448,0V19.4Zm1.724-6.315a4.243,4.243,0,0,0-4.215,3.886,1.3,1.3,0,0,0-.018.182v5.792a1.255,1.255,0,1,0,2.509,0V21.916H62.07v1.027a1.255,1.255,0,1,0,2.509,0V17.152a1.234,1.234,0,0,0-.019-.182,4.243,4.243,0,0,0-4.215-3.886Z" transform="translate(-14.703 -3.724)"/><path class="a" d="M93.148,13.084a4.211,4.211,0,0,0-2.979,1.233,4.224,4.224,0,0,0-7.193,2.653,1.291,1.291,0,0,0-.018.182v5.791a1.255,1.255,0,1,0,2.509,0V17.332a1.724,1.724,0,1,1,3.448,0v3.093a1.255,1.255,0,1,0,2.509,0V17.332a1.724,1.724,0,1,1,3.448,0v5.611a1.255,1.255,0,1,0,2.509,0V17.152a1.229,1.229,0,0,0-.018-.182,4.242,4.242,0,0,0-4.215-3.886" transform="translate(-21.737 -3.724)"/><path class="a" d="M77.127,20.46a1.252,1.252,0,0,0-1.714.459,1.723,1.723,0,0,1-3.218-.865v-2.7a1.723,1.723,0,0,1,3.154-.966,1.256,1.256,0,1,0,2.079-1.41,4.229,4.229,0,0,0-7.722,1.97,1.267,1.267,0,0,0-.021.206v3.274a1.252,1.252,0,0,0,.078.423,4.227,4.227,0,0,0,7.821,1.325,1.261,1.261,0,0,0-.458-1.72" transform="translate(-18.259 -3.731)"/><path class="a" d="M134.918,20.383a1.252,1.252,0,0,0-1.714.459,1.723,1.723,0,0,1-3.218-.865v-2.7a1.723,1.723,0,0,1,3.154-.966,1.256,1.256,0,1,0,2.079-1.41,4.228,4.228,0,0,0-7.722,1.97,1.268,1.268,0,0,0-.021.207v3.273a1.252,1.252,0,0,0,.078.423,4.227,4.227,0,0,0,7.821,1.325,1.261,1.261,0,0,0-.458-1.72" transform="translate(-33.402 -3.711)"/><path class="a" d="M144.561,21.7c-.02,0-.039,0-.058.006a1.728,1.728,0,0,1-1.666-1.727v-2.7a1.724,1.724,0,1,1,3.448,0v2.687a1.727,1.727,0,0,1-1.724,1.73m4.221-4.732c0-.007,0-.013,0-.02,0-.041-.006-.085-.014-.125a4.229,4.229,0,0,0-8.418.058,1.216,1.216,0,0,0-.02.2v3.273a1.24,1.24,0,0,0,.078.423,4.242,4.242,0,0,0,4.155,3.448,1.179,1.179,0,0,0,.126-.013,4.228,4.228,0,0,0,4.024-3.42,1.251,1.251,0,0,0,.082-.438V17.082c0-.04-.008-.077-.012-.115" transform="translate(-36.769 -3.711)"/><path class="a" d="M110.918,17.014h-3.4a1.722,1.722,0,0,1,3.4,0m1.806-2.109A4.226,4.226,0,0,0,105,16.994a1.3,1.3,0,0,0-.015.145v3.274a1.25,1.25,0,0,0,.109.509,4.241,4.241,0,0,0,4.124,3.305h.005a4.246,4.246,0,0,0,3.66-2.122,1.256,1.256,0,1,0-2.172-1.261,1.731,1.731,0,0,1-1.494.866h0a1.729,1.729,0,0,1-1.722-1.73v-.446h4.7a1.257,1.257,0,0,0,1.255-1.259V16.825a1.254,1.254,0,0,0-.113-.516,4.234,4.234,0,0,0-.611-1.4" transform="translate(-27.508 -3.711)"/></g></g></svg>