<svg xmlns="http://www.w3.org/2000/svg" width="110.29" height="20.764" viewBox="0 0 110.29 20.764"><defs><style>.a{fill:#777;fill-rule:evenodd;}</style></defs><g transform="translate(0 0)"><path class="a" d="M75.538,18.06V4.866l13.051,8.365a1.6,1.6,0,0,0,1.725,0l13.051-8.365V18.06ZM99.617,3.552,89.451,10.068,79.286,3.552ZM103.364.437H72.376V21.175h34.15V.437h-3.162Z" transform="translate(-19.131 -0.411)"/><path class="a" d="M7.6,13.68l3.158-8.585,3.158,8.585ZM8.06.847.226,20.8H5.145l1.275-3.38H15.1L16.35,20.8h4.919L13.465.847Z" transform="translate(-0.226 -0.518)"/><path class="a" d="M48.063,4.17a5.5,5.5,0,0,1,4.767,2.9l3.7-1.795A9.29,9.29,0,0,0,48.063.4c-6.073,0-10.78,4.188-10.78,10.32s4.707,10.32,10.78,10.32a9.346,9.346,0,0,0,8.472-4.906l-3.7-1.765a5.439,5.439,0,0,1-4.767,2.9,6.257,6.257,0,0,1-6.346-6.551A6.256,6.256,0,0,1,48.063,4.17" transform="translate(-9.936 -0.402)"/><path class="a" d="M144.585,4.586V.847H130.253V20.8h14.333V17.06H134.565V12.543h9.808V8.8h-9.808V4.586Z" transform="translate(-34.296 -0.518)"/></g></svg>