<svg height="546.777" width="667.405" xmlns="http://www.w3.org/2000/svg"><g transform="translate(-6193.806 -1992)"><path d="M6502.593 2391.16a119.711 119.711 0 0 0 85.135-35.459 119.709 119.709 0 0 0 35.459-85.135 119.711 119.711 0 0 0-35.459-85.135 119.711 119.711 0 0 0-85.135-35.459 21.245 21.245 0 0 0-21.245 21.245 21.244 21.244 0 0 0 21.245 21.245 77.5 77.5 0 0 1 55.091 23.014 77.5 77.5 0 0 1 23.014 55.091 77.5 77.5 0 0 1-23.014 55.086 77.5 77.5 0 0 1-55.091 23.014 77.5 77.5 0 0 1-55.09-23.014 77.5 77.5 0 0 1-23.014-55.091 21.245 21.245 0 0 0-21.245-21.245 21.245 21.245 0 0 0-21.245 21.245 119.71 119.71 0 0 0 35.459 85.135 119.711 119.711 0 0 0 85.135 35.463z" fill="#1d1d1d"/><path d="M6215.978 2385.568a22.173 22.173 0 0 1-22.172-22.173 22.172 22.172 0 0 1 22.172-22.172 82.083 82.083 0 0 0 57.641-23.875 82.085 82.085 0 0 0 23.872-57.641 22.173 22.173 0 0 1 22.172-22.173 22.172 22.172 0 0 1 22.172 22.173 125.238 125.238 0 0 1-9.583 48.164 125.239 125.239 0 0 1-27.281 40.833 125.229 125.229 0 0 1-40.833 27.28 125.228 125.228 0 0 1-48.16 9.584z" fill="#4a4a4a"/><path d="M6705.842 2527.006a64.234 64.234 0 0 0 45.682-19.027 64.234 64.234 0 0 0 19.026-45.682 11.4 11.4 0 0 0-11.4-11.4 11.4 11.4 0 0 0-11.4 11.4 41.585 41.585 0 0 1-12.349 29.561 41.585 41.585 0 0 1-29.561 12.349 41.585 41.585 0 0 1-29.56-12.349 41.585 41.585 0 0 1-12.349-29.561 11.4 11.4 0 0 0-11.4-11.4 11.4 11.4 0 0 0-11.4 11.4 64.234 64.234 0 0 0 19.026 45.682 64.234 64.234 0 0 0 45.685 19.027z" fill="#4a4a4a"/><path d="M6497.875 2060.565a29.407 29.407 0 0 0-29.292 29.292 5.16 5.16 0 1 0 10.32 0 18.924 18.924 0 0 1 32.354-13.381 18.825 18.825 0 0 1 5.59 13.382 5.16 5.16 0 0 0 10.321 0 29.407 29.407 0 0 0-29.293-29.293z" fill="#4a4a4a"/><path d="M6300.194 2457.34a81.285 81.285 0 0 0 138.913 57.477 80.831 80.831 0 0 0 23.96-57.477 4.133 4.133 0 0 0-8.265 0 73.02 73.02 0 0 1-124.808 51.637 73.172 73.172 0 0 1 51.632-124.8 4.133 4.133 0 0 0 0-8.265 81.805 81.805 0 0 0-81.432 81.428z" fill="#1d1d1d"/><path d="M6591.336 2073.436a81.285 81.285 0 0 0 138.913 57.477 80.831 80.831 0 0 0 23.96-57.477 4.133 4.133 0 0 0-8.265 0 73.02 73.02 0 0 1-124.808 51.637 73.172 73.172 0 0 1 51.632-124.8 4.133 4.133 0 0 0 0-8.265 81.805 81.805 0 0 0-81.432 81.428z" fill="#4a4a4a"/><path d="M6744.014 2217.511a4.441 4.441 0 0 0 3.158-1.315 4.439 4.439 0 0 0 1.315-3.158.787.787 0 0 0-.788-.788.788.788 0 0 0-.788.788 2.873 2.873 0 0 1-.854 2.043 2.875 2.875 0 0 1-2.043.854 2.874 2.874 0 0 1-2.043-.854 2.875 2.875 0 0 1-.854-2.043 4.44 4.44 0 0 0-1.315-3.157 4.44 4.44 0 0 0-3.157-1.315 4.442 4.442 0 0 0-3.158 1.315 4.441 4.441 0 0 0-1.315 3.157.788.788 0 0 0 .788.788.787.787 0 0 0 .787-.788 2.875 2.875 0 0 1 .854-2.043 2.874 2.874 0 0 1 2.043-.853 2.874 2.874 0 0 1 2.043.853 2.875 2.875 0 0 1 .854 2.043 4.439 4.439 0 0 0 1.315 3.158 4.439 4.439 0 0 0 3.158 1.315z" fill="#09445f"/><path d="M6729.319 2217.511a4.441 4.441 0 0 0 3.158-1.315 4.439 4.439 0 0 0 1.315-3.158.787.787 0 0 0-.788-.788.788.788 0 0 0-.788.788 2.873 2.873 0 0 1-.854 2.043 2.875 2.875 0 0 1-2.043.854 2.874 2.874 0 0 1-2.043-.854 2.875 2.875 0 0 1-.854-2.043 4.44 4.44 0 0 0-1.315-3.157 4.44 4.44 0 0 0-3.157-1.315 4.442 4.442 0 0 0-3.158 1.315 4.441 4.441 0 0 0-1.315 3.157.788.788 0 0 0 .788.788.787.787 0 0 0 .787-.788 2.875 2.875 0 0 1 .854-2.043 2.874 2.874 0 0 1 2.043-.853 2.874 2.874 0 0 1 2.043.853 2.875 2.875 0 0 1 .854 2.043 4.439 4.439 0 0 0 1.315 3.158 4.439 4.439 0 0 0 3.158 1.315z" fill="#09445f"/><path d="M6714.624 2217.511a4.441 4.441 0 0 0 3.158-1.315 4.439 4.439 0 0 0 1.315-3.158.787.787 0 0 0-.788-.788.788.788 0 0 0-.788.788 2.873 2.873 0 0 1-.854 2.043 2.875 2.875 0 0 1-2.043.854 2.874 2.874 0 0 1-2.043-.854 2.875 2.875 0 0 1-.854-2.043 4.44 4.44 0 0 0-1.315-3.157 4.44 4.44 0 0 0-3.157-1.315 4.442 4.442 0 0 0-3.158 1.315 4.441 4.441 0 0 0-1.315 3.157.788.788 0 0 0 .788.788.787.787 0 0 0 .787-.788 2.875 2.875 0 0 1 .854-2.043 2.874 2.874 0 0 1 2.043-.853 2.874 2.874 0 0 1 2.043.853 2.875 2.875 0 0 1 .854 2.043 4.439 4.439 0 0 0 1.315 3.158 4.439 4.439 0 0 0 3.158 1.315z" fill="#09445f"/><path d="M6699.93 2217.511a4.441 4.441 0 0 0 3.158-1.315 4.439 4.439 0 0 0 1.315-3.158.787.787 0 0 0-.788-.788.788.788 0 0 0-.788.788 2.873 2.873 0 0 1-.854 2.043 2.875 2.875 0 0 1-2.043.854 2.874 2.874 0 0 1-2.043-.854 2.875 2.875 0 0 1-.854-2.043 4.44 4.44 0 0 0-1.315-3.157 4.44 4.44 0 0 0-3.157-1.315 4.442 4.442 0 0 0-3.158 1.315 4.441 4.441 0 0 0-1.315 3.157.788.788 0 0 0 .788.788.787.787 0 0 0 .787-.788 2.875 2.875 0 0 1 .854-2.043 2.874 2.874 0 0 1 2.043-.853 2.874 2.874 0 0 1 2.043.853 2.875 2.875 0 0 1 .854 2.043 4.439 4.439 0 0 0 1.315 3.158 4.439 4.439 0 0 0 3.158 1.315z" fill="#09445f"/><path d="M6685.235 2217.511a4.441 4.441 0 0 0 3.158-1.315 4.439 4.439 0 0 0 1.315-3.158.787.787 0 0 0-.788-.788.788.788 0 0 0-.788.788 2.873 2.873 0 0 1-.854 2.043 2.875 2.875 0 0 1-2.043.854 2.874 2.874 0 0 1-2.043-.854 2.875 2.875 0 0 1-.854-2.043 4.44 4.44 0 0 0-1.315-3.157 4.44 4.44 0 0 0-3.157-1.315 4.442 4.442 0 0 0-3.158 1.315 4.441 4.441 0 0 0-1.315 3.157.788.788 0 0 0 .788.788.787.787 0 0 0 .787-.788 2.875 2.875 0 0 1 .854-2.043 2.874 2.874 0 0 1 2.043-.853 2.874 2.874 0 0 1 2.043.853 2.875 2.875 0 0 1 .854 2.043 4.439 4.439 0 0 0 1.315 3.158 4.439 4.439 0 0 0 3.158 1.315z" fill="#09445f"/><g fill="#4a4a4a"><path d="M6325.211 2082.502a4.441 4.441 0 0 0 3.158-1.315 4.439 4.439 0 0 0 1.315-3.158.787.787 0 0 0-.788-.788.788.788 0 0 0-.788.788 2.873 2.873 0 0 1-.854 2.043 2.875 2.875 0 0 1-2.043.854 2.874 2.874 0 0 1-2.043-.854 2.875 2.875 0 0 1-.854-2.043 4.44 4.44 0 0 0-1.315-3.157 4.44 4.44 0 0 0-3.157-1.315 4.442 4.442 0 0 0-3.158 1.315 4.441 4.441 0 0 0-1.315 3.157.788.788 0 0 0 .788.788.787.787 0 0 0 .787-.788 2.875 2.875 0 0 1 .854-2.043 2.874 2.874 0 0 1 2.043-.853 2.874 2.874 0 0 1 2.043.853 2.875 2.875 0 0 1 .854 2.043 4.439 4.439 0 0 0 1.315 3.158 4.439 4.439 0 0 0 3.158 1.315z"/><path d="M6310.516 2082.502a4.441 4.441 0 0 0 3.158-1.315 4.439 4.439 0 0 0 1.315-3.158.787.787 0 0 0-.788-.788.788.788 0 0 0-.788.788 2.873 2.873 0 0 1-.854 2.043 2.875 2.875 0 0 1-2.043.854 2.874 2.874 0 0 1-2.043-.854 2.875 2.875 0 0 1-.854-2.043 4.44 4.44 0 0 0-1.315-3.157 4.44 4.44 0 0 0-3.157-1.315 4.442 4.442 0 0 0-3.158 1.315 4.441 4.441 0 0 0-1.315 3.157.788.788 0 0 0 .788.788.787.787 0 0 0 .787-.788 2.875 2.875 0 0 1 .854-2.043 2.874 2.874 0 0 1 2.043-.853 2.874 2.874 0 0 1 2.043.853 2.875 2.875 0 0 1 .854 2.043 4.439 4.439 0 0 0 1.315 3.158 4.439 4.439 0 0 0 3.158 1.315z"/><path d="M6295.821 2082.502a4.441 4.441 0 0 0 3.158-1.315 4.439 4.439 0 0 0 1.315-3.158.787.787 0 0 0-.788-.788.788.788 0 0 0-.788.788 2.873 2.873 0 0 1-.854 2.043 2.875 2.875 0 0 1-2.043.854 2.874 2.874 0 0 1-2.043-.854 2.875 2.875 0 0 1-.854-2.043 4.44 4.44 0 0 0-1.315-3.157 4.44 4.44 0 0 0-3.157-1.315 4.442 4.442 0 0 0-3.158 1.315 4.441 4.441 0 0 0-1.315 3.157.788.788 0 0 0 .788.788.787.787 0 0 0 .787-.788 2.875 2.875 0 0 1 .854-2.043 2.874 2.874 0 0 1 2.043-.853 2.874 2.874 0 0 1 2.043.853 2.875 2.875 0 0 1 .854 2.043 4.439 4.439 0 0 0 1.315 3.158 4.439 4.439 0 0 0 3.158 1.315z"/><path d="M6281.127 2082.502a4.441 4.441 0 0 0 3.158-1.315 4.439 4.439 0 0 0 1.315-3.158.787.787 0 0 0-.788-.788.788.788 0 0 0-.788.788 2.873 2.873 0 0 1-.854 2.043 2.875 2.875 0 0 1-2.043.854 2.874 2.874 0 0 1-2.043-.854 2.875 2.875 0 0 1-.854-2.043 4.44 4.44 0 0 0-1.315-3.157 4.44 4.44 0 0 0-3.157-1.315 4.442 4.442 0 0 0-3.158 1.315 4.441 4.441 0 0 0-1.315 3.157.788.788 0 0 0 .788.788.787.787 0 0 0 .787-.788 2.875 2.875 0 0 1 .854-2.043 2.874 2.874 0 0 1 2.043-.853 2.874 2.874 0 0 1 2.043.853 2.875 2.875 0 0 1 .854 2.043 4.439 4.439 0 0 0 1.315 3.158 4.439 4.439 0 0 0 3.158 1.315z"/><path d="M6266.432 2082.502a4.441 4.441 0 0 0 3.158-1.315 4.439 4.439 0 0 0 1.315-3.158.787.787 0 0 0-.788-.788.788.788 0 0 0-.788.788 2.873 2.873 0 0 1-.854 2.043 2.875 2.875 0 0 1-2.043.854 2.874 2.874 0 0 1-2.043-.854 2.875 2.875 0 0 1-.854-2.043 4.44 4.44 0 0 0-1.315-3.157 4.44 4.44 0 0 0-3.157-1.315 4.442 4.442 0 0 0-3.158 1.315 4.441 4.441 0 0 0-1.315 3.157.788.788 0 0 0 .788.788.787.787 0 0 0 .787-.788 2.875 2.875 0 0 1 .854-2.043 2.874 2.874 0 0 1 2.043-.853 2.874 2.874 0 0 1 2.043.853 2.875 2.875 0 0 1 .854 2.043 4.439 4.439 0 0 0 1.315 3.158 4.439 4.439 0 0 0 3.158 1.315z"/><rect height="21.124" rx="10.562" width="101.946" x="6598.081" y="2390.241"/><rect height="43.166" rx="21.583" transform="rotate(90 2421.697 4439.515)" width="112.048"><animate attributeName="x" from="0" to="32" dur="5s" repeatCount="indefinite" values="0;32;0" keyTimes="0;0.5;1"/></rect></g><rect fill="#1d1d1d" height="24.798" rx="12.399" width="188.278" x="6216.015" y="2125.734"/><g fill="none" stroke="#1d1d1d" stroke-width="2"><ellipse cx="6713.803" cy="2311.256" rx="24.798" ry="24.798" stroke="none"/><ellipse cx="6713.803" cy="2311.256" rx="23.798" ry="23.798"/></g><g fill="none" stroke="#1d1d1d" stroke-width="8"><ellipse cx="6839.168" cy="2435.703" rx="21.583" ry="21.583" stroke="none"/><ellipse cx="6839.168" cy="2435.703" rx="17.583" ry="17.583"/></g><g fill="none" stroke="#1d1d1d" stroke-width="8"><ellipse cx="6255.048" cy="2203.341" rx="21.583" ry="21.583" stroke="none"/><ellipse cx="6255.048" cy="2203.341" rx="17.583" ry="17.583"/></g><g fill="none" stroke="#1d1d1d" stroke-width="2"><ellipse cx="6800.136" cy="2352.586" rx="5.511" ry="5.511" stroke="none"/><ellipse cx="6800.136" cy="2352.586" rx="4.511" ry="4.511"/></g><g fill="none" stroke="#1d1d1d" stroke-width="2"><ellipse cx="6537.465" cy="2459.124" rx="5.511" ry="5.511" stroke="none"/><ellipse cx="6537.465" cy="2459.124" rx="4.511" ry="4.511"/></g></g></svg>