<svg height="546.777" viewBox="0 0 667.405 546.777" width="667.405" xmlns="http://www.w3.org/2000/svg"><g transform="translate(-6193.806 -1992)"><path d="m-402.23 483.907a119.711 119.711 0 0 0 85.135-35.459 119.709 119.709 0 0 0 35.459-85.135 119.711 119.711 0 0 0 -35.459-85.135 119.711 119.711 0 0 0 -85.135-35.459 21.245 21.245 0 0 0 -21.245 21.245 21.244 21.244 0 0 0 21.245 21.245 77.5 77.5 0 0 1 55.091 23.014 77.5 77.5 0 0 1 23.014 55.091 77.5 77.5 0 0 1 -23.014 55.086 77.5 77.5 0 0 1 -55.091 23.014 77.5 77.5 0 0 1 -55.09-23.014 77.5 77.5 0 0 1 -23.014-55.091 21.245 21.245 0 0 0 -21.245-21.245 21.245 21.245 0 0 0 -21.245 21.245 119.71 119.71 0 0 0 35.459 85.135 119.711 119.711 0 0 0 85.135 35.463z" fill="#1d1d1d" transform="translate(6904.823 1907.253)"/><path d="m-1402.213 577.811a22.173 22.173 0 0 1 -22.172-22.173 22.172 22.172 0 0 1 22.172-22.172 82.083 82.083 0 0 0 57.641-23.875 82.085 82.085 0 0 0 23.872-57.641 22.173 22.173 0 0 1 22.172-22.173 22.172 22.172 0 0 1 22.172 22.173 125.238 125.238 0 0 1 -9.583 48.164 125.239 125.239 0 0 1 -27.281 40.833 125.229 125.229 0 0 1 -40.833 27.28 125.228 125.228 0 0 1 -48.16 9.584z" fill="#4a4a4a" transform="translate(7618.191 1807.757)"/><path d="m-959.375 505.885a64.234 64.234 0 0 0 45.682-19.027 64.234 64.234 0 0 0 19.026-45.682 11.4 11.4 0 0 0 -11.4-11.4 11.4 11.4 0 0 0 -11.4 11.4 41.585 41.585 0 0 1 -12.349 29.561 41.585 41.585 0 0 1 -29.561 12.349 41.585 41.585 0 0 1 -29.56-12.349 41.585 41.585 0 0 1 -12.349-29.561 11.4 11.4 0 0 0 -11.4-11.4 11.4 11.4 0 0 0 -11.4 11.4 64.234 64.234 0 0 0 19.026 45.682 64.234 64.234 0 0 0 45.685 19.027z" fill="#4a4a4a" transform="translate(7665.217 2021.121)"/><path d="m29.292 0a29.407 29.407 0 0 0 -29.292 29.292 5.16 5.16 0 1 0 10.32 0 18.924 18.924 0 0 1 32.354-13.381 18.825 18.825 0 0 1 5.59 13.382 5.16 5.16 0 0 0 10.321 0 29.407 29.407 0 0 0 -29.293-29.293z" fill="#4a4a4a" transform="translate(6468.583 2060.565)"/><path d="m81.437 0a81.285 81.285 0 0 0 -57.477 138.913 80.831 80.831 0 0 0 57.477 23.96 4.133 4.133 0 0 0 0-8.265 73.02 73.02 0 0 1 -51.637-124.808 73.172 73.172 0 0 1 124.8 51.632 4.133 4.133 0 0 0 8.265 0 81.805 81.805 0 0 0 -81.428-81.432z" fill="#1d1d1d" transform="matrix(0 -1 1 0 6300.194 2538.777)"/><path d="m81.437 0a81.285 81.285 0 0 0 -57.477 138.913 80.831 80.831 0 0 0 57.477 23.96 4.133 4.133 0 0 0 0-8.265 73.02 73.02 0 0 1 -51.637-124.808 73.172 73.172 0 0 1 124.8 51.632 4.133 4.133 0 0 0 8.265 0 81.805 81.805 0 0 0 -81.428-81.432z" fill="#4a4a4a" transform="matrix(0 -1 1 0 6591.336 2154.873)"/><path d="m-3592.3 729.637a4.441 4.441 0 0 0 3.158-1.315 4.439 4.439 0 0 0 1.315-3.158.787.787 0 0 0 -.788-.788.788.788 0 0 0 -.788.788 2.873 2.873 0 0 1 -.854 2.043 2.875 2.875 0 0 1 -2.043.854 2.874 2.874 0 0 1 -2.043-.854 2.875 2.875 0 0 1 -.854-2.043 4.44 4.44 0 0 0 -1.315-3.157 4.44 4.44 0 0 0 -3.157-1.315 4.442 4.442 0 0 0 -3.158 1.315 4.441 4.441 0 0 0 -1.315 3.157.788.788 0 0 0 .788.788.787.787 0 0 0 .787-.788 2.875 2.875 0 0 1 .854-2.043 2.874 2.874 0 0 1 2.043-.853 2.874 2.874 0 0 1 2.043.853 2.875 2.875 0 0 1 .854 2.043 4.439 4.439 0 0 0 1.315 3.158 4.439 4.439 0 0 0 3.158 1.315z" fill="#09445f" transform="translate(10336.314 1487.874)"/><path d="m-3592.3 729.637a4.441 4.441 0 0 0 3.158-1.315 4.439 4.439 0 0 0 1.315-3.158.787.787 0 0 0 -.788-.788.788.788 0 0 0 -.788.788 2.873 2.873 0 0 1 -.854 2.043 2.875 2.875 0 0 1 -2.043.854 2.874 2.874 0 0 1 -2.043-.854 2.875 2.875 0 0 1 -.854-2.043 4.44 4.44 0 0 0 -1.315-3.157 4.44 4.44 0 0 0 -3.157-1.315 4.442 4.442 0 0 0 -3.158 1.315 4.441 4.441 0 0 0 -1.315 3.157.788.788 0 0 0 .788.788.787.787 0 0 0 .787-.788 2.875 2.875 0 0 1 .854-2.043 2.874 2.874 0 0 1 2.043-.853 2.874 2.874 0 0 1 2.043.853 2.875 2.875 0 0 1 .854 2.043 4.439 4.439 0 0 0 1.315 3.158 4.439 4.439 0 0 0 3.158 1.315z" fill="#09445f" transform="translate(10321.619 1487.874)"/><path d="m-3592.3 729.637a4.441 4.441 0 0 0 3.158-1.315 4.439 4.439 0 0 0 1.315-3.158.787.787 0 0 0 -.788-.788.788.788 0 0 0 -.788.788 2.873 2.873 0 0 1 -.854 2.043 2.875 2.875 0 0 1 -2.043.854 2.874 2.874 0 0 1 -2.043-.854 2.875 2.875 0 0 1 -.854-2.043 4.44 4.44 0 0 0 -1.315-3.157 4.44 4.44 0 0 0 -3.157-1.315 4.442 4.442 0 0 0 -3.158 1.315 4.441 4.441 0 0 0 -1.315 3.157.788.788 0 0 0 .788.788.787.787 0 0 0 .787-.788 2.875 2.875 0 0 1 .854-2.043 2.874 2.874 0 0 1 2.043-.853 2.874 2.874 0 0 1 2.043.853 2.875 2.875 0 0 1 .854 2.043 4.439 4.439 0 0 0 1.315 3.158 4.439 4.439 0 0 0 3.158 1.315z" fill="#09445f" transform="translate(10306.924 1487.874)"/><path d="m-3592.3 729.637a4.441 4.441 0 0 0 3.158-1.315 4.439 4.439 0 0 0 1.315-3.158.787.787 0 0 0 -.788-.788.788.788 0 0 0 -.788.788 2.873 2.873 0 0 1 -.854 2.043 2.875 2.875 0 0 1 -2.043.854 2.874 2.874 0 0 1 -2.043-.854 2.875 2.875 0 0 1 -.854-2.043 4.44 4.44 0 0 0 -1.315-3.157 4.44 4.44 0 0 0 -3.157-1.315 4.442 4.442 0 0 0 -3.158 1.315 4.441 4.441 0 0 0 -1.315 3.157.788.788 0 0 0 .788.788.787.787 0 0 0 .787-.788 2.875 2.875 0 0 1 .854-2.043 2.874 2.874 0 0 1 2.043-.853 2.874 2.874 0 0 1 2.043.853 2.875 2.875 0 0 1 .854 2.043 4.439 4.439 0 0 0 1.315 3.158 4.439 4.439 0 0 0 3.158 1.315z" fill="#09445f" transform="translate(10292.23 1487.874)"/><path d="m-3592.3 729.637a4.441 4.441 0 0 0 3.158-1.315 4.439 4.439 0 0 0 1.315-3.158.787.787 0 0 0 -.788-.788.788.788 0 0 0 -.788.788 2.873 2.873 0 0 1 -.854 2.043 2.875 2.875 0 0 1 -2.043.854 2.874 2.874 0 0 1 -2.043-.854 2.875 2.875 0 0 1 -.854-2.043 4.44 4.44 0 0 0 -1.315-3.157 4.44 4.44 0 0 0 -3.157-1.315 4.442 4.442 0 0 0 -3.158 1.315 4.441 4.441 0 0 0 -1.315 3.157.788.788 0 0 0 .788.788.787.787 0 0 0 .787-.788 2.875 2.875 0 0 1 .854-2.043 2.874 2.874 0 0 1 2.043-.853 2.874 2.874 0 0 1 2.043.853 2.875 2.875 0 0 1 .854 2.043 4.439 4.439 0 0 0 1.315 3.158 4.439 4.439 0 0 0 3.158 1.315z" fill="#09445f" transform="translate(10277.535 1487.874)"/><g fill="#4a4a4a"><path d="m-3592.3 729.637a4.441 4.441 0 0 0 3.158-1.315 4.439 4.439 0 0 0 1.315-3.158.787.787 0 0 0 -.788-.788.788.788 0 0 0 -.788.788 2.873 2.873 0 0 1 -.854 2.043 2.875 2.875 0 0 1 -2.043.854 2.874 2.874 0 0 1 -2.043-.854 2.875 2.875 0 0 1 -.854-2.043 4.44 4.44 0 0 0 -1.315-3.157 4.44 4.44 0 0 0 -3.157-1.315 4.442 4.442 0 0 0 -3.158 1.315 4.441 4.441 0 0 0 -1.315 3.157.788.788 0 0 0 .788.788.787.787 0 0 0 .787-.788 2.875 2.875 0 0 1 .854-2.043 2.874 2.874 0 0 1 2.043-.853 2.874 2.874 0 0 1 2.043.853 2.875 2.875 0 0 1 .854 2.043 4.439 4.439 0 0 0 1.315 3.158 4.439 4.439 0 0 0 3.158 1.315z" transform="translate(9917.511 1352.865)"/><path d="m-3592.3 729.637a4.441 4.441 0 0 0 3.158-1.315 4.439 4.439 0 0 0 1.315-3.158.787.787 0 0 0 -.788-.788.788.788 0 0 0 -.788.788 2.873 2.873 0 0 1 -.854 2.043 2.875 2.875 0 0 1 -2.043.854 2.874 2.874 0 0 1 -2.043-.854 2.875 2.875 0 0 1 -.854-2.043 4.44 4.44 0 0 0 -1.315-3.157 4.44 4.44 0 0 0 -3.157-1.315 4.442 4.442 0 0 0 -3.158 1.315 4.441 4.441 0 0 0 -1.315 3.157.788.788 0 0 0 .788.788.787.787 0 0 0 .787-.788 2.875 2.875 0 0 1 .854-2.043 2.874 2.874 0 0 1 2.043-.853 2.874 2.874 0 0 1 2.043.853 2.875 2.875 0 0 1 .854 2.043 4.439 4.439 0 0 0 1.315 3.158 4.439 4.439 0 0 0 3.158 1.315z" transform="translate(9902.816 1352.865)"/><path d="m-3592.3 729.637a4.441 4.441 0 0 0 3.158-1.315 4.439 4.439 0 0 0 1.315-3.158.787.787 0 0 0 -.788-.788.788.788 0 0 0 -.788.788 2.873 2.873 0 0 1 -.854 2.043 2.875 2.875 0 0 1 -2.043.854 2.874 2.874 0 0 1 -2.043-.854 2.875 2.875 0 0 1 -.854-2.043 4.44 4.44 0 0 0 -1.315-3.157 4.44 4.44 0 0 0 -3.157-1.315 4.442 4.442 0 0 0 -3.158 1.315 4.441 4.441 0 0 0 -1.315 3.157.788.788 0 0 0 .788.788.787.787 0 0 0 .787-.788 2.875 2.875 0 0 1 .854-2.043 2.874 2.874 0 0 1 2.043-.853 2.874 2.874 0 0 1 2.043.853 2.875 2.875 0 0 1 .854 2.043 4.439 4.439 0 0 0 1.315 3.158 4.439 4.439 0 0 0 3.158 1.315z" transform="translate(9888.121 1352.865)"/><path d="m-3592.3 729.637a4.441 4.441 0 0 0 3.158-1.315 4.439 4.439 0 0 0 1.315-3.158.787.787 0 0 0 -.788-.788.788.788 0 0 0 -.788.788 2.873 2.873 0 0 1 -.854 2.043 2.875 2.875 0 0 1 -2.043.854 2.874 2.874 0 0 1 -2.043-.854 2.875 2.875 0 0 1 -.854-2.043 4.44 4.44 0 0 0 -1.315-3.157 4.44 4.44 0 0 0 -3.157-1.315 4.442 4.442 0 0 0 -3.158 1.315 4.441 4.441 0 0 0 -1.315 3.157.788.788 0 0 0 .788.788.787.787 0 0 0 .787-.788 2.875 2.875 0 0 1 .854-2.043 2.874 2.874 0 0 1 2.043-.853 2.874 2.874 0 0 1 2.043.853 2.875 2.875 0 0 1 .854 2.043 4.439 4.439 0 0 0 1.315 3.158 4.439 4.439 0 0 0 3.158 1.315z" transform="translate(9873.427 1352.865)"/><path d="m-3592.3 729.637a4.441 4.441 0 0 0 3.158-1.315 4.439 4.439 0 0 0 1.315-3.158.787.787 0 0 0 -.788-.788.788.788 0 0 0 -.788.788 2.873 2.873 0 0 1 -.854 2.043 2.875 2.875 0 0 1 -2.043.854 2.874 2.874 0 0 1 -2.043-.854 2.875 2.875 0 0 1 -.854-2.043 4.44 4.44 0 0 0 -1.315-3.157 4.44 4.44 0 0 0 -3.157-1.315 4.442 4.442 0 0 0 -3.158 1.315 4.441 4.441 0 0 0 -1.315 3.157.788.788 0 0 0 .788.788.787.787 0 0 0 .787-.788 2.875 2.875 0 0 1 .854-2.043 2.874 2.874 0 0 1 2.043-.853 2.874 2.874 0 0 1 2.043.853 2.875 2.875 0 0 1 .854 2.043 4.439 4.439 0 0 0 1.315 3.158 4.439 4.439 0 0 0 3.158 1.315z" transform="translate(9858.732 1352.865)"/><rect height="21.124" rx="10.562" width="101.946" x="6598.081" y="2390.241"/><rect height="43.166" rx="21.583" transform="matrix(0 1 -1 0 6861.211 2017.818)" width="112.048"/></g><rect fill="#1d1d1d" height="24.798" rx="12.399" width="188.278" x="6216.015" y="2125.734"/><g fill="none" stroke="#1d1d1d" stroke-width="2"><ellipse cx="6713.803" cy="2311.256" rx="24.798" ry="24.798" stroke="none"/><ellipse cx="6713.803" cy="2311.256" fill="none" rx="23.798" ry="23.798"/></g><g fill="none" stroke="#1d1d1d" stroke-width="8"><ellipse cx="6839.168" cy="2435.703" rx="21.583" ry="21.583" stroke="none"/><ellipse cx="6839.168" cy="2435.703" fill="none" rx="17.583" ry="17.583"/></g><g fill="none" stroke="#1d1d1d" stroke-width="8"><ellipse cx="6255.048" cy="2203.341" rx="21.583" ry="21.583" stroke="none"/><ellipse cx="6255.048" cy="2203.341" fill="none" rx="17.583" ry="17.583"/></g><g fill="none" stroke="#1d1d1d" stroke-width="2"><ellipse cx="6800.136" cy="2352.586" rx="5.511" ry="5.511" stroke="none"/><ellipse cx="6800.136" cy="2352.586" fill="none" rx="4.511" ry="4.511"/></g><g fill="none" stroke="#1d1d1d" stroke-width="2"><ellipse cx="6537.465" cy="2459.124" rx="5.511" ry="5.511" stroke="none"/><ellipse cx="6537.465" cy="2459.124" fill="none" rx="4.511" ry="4.511"/></g></g></svg>