<svg height="394.218" viewBox="0 0 475.913 394.218" width="475.913" xmlns="http://www.w3.org/2000/svg"><g transform="translate(-9129.377 -1936.293)"><g fill="none" stroke="#1ba6f0" stroke-width="2" transform="matrix(0 -1 1 0 9187.066 2330.511)"><rect height="16.352" rx="8.176" stroke="none" width="82.469"/><rect fill="none" height="14.352" rx="7.176" width="80.469" x="1" y="1"/></g><g fill="none" stroke="#1ba6f0" stroke-width="2"><rect height="35" rx="17.5" stroke="none" width="131" x="9266.459" y="2267"/><rect fill="none" height="33" rx="16.5" width="129" x="9267.459" y="2268"/></g><g fill="#0c678f"><path d="m38.5 59.516a3.677 3.677 0 0 0 3.215-1.856l23.645-40.952a3.713 3.713 0 0 0 -3.215-5.569h-47.288a3.713 3.713 0 0 0 -3.215 5.569l23.643 40.951a3.678 3.678 0 0 0 3.215 1.857m0 11.139a14.816 14.816 0 0 1 -12.862-7.426l-23.638-40.952a14.844 14.844 0 0 1 12.857-22.277h47.288a14.844 14.844 0 0 1 12.861 22.277l-23.644 40.952a14.816 14.816 0 0 1 -12.862 7.425z" transform="translate(9378.037 2163.524)"/><path d="m-3594.977 720.692a3.439 3.439 0 0 1 2.445 1.018 3.437 3.437 0 0 1 1.018 2.444.61.61 0 0 1 -.61.61.61.61 0 0 1 -.61-.61 2.227 2.227 0 0 0 -.661-1.582 2.225 2.225 0 0 0 -1.582-.661 2.226 2.226 0 0 0 -1.582.661 2.229 2.229 0 0 0 -.661 1.582 3.438 3.438 0 0 1 -1.018 2.444 3.437 3.437 0 0 1 -2.444 1.018 3.434 3.434 0 0 1 -2.444-1.018 3.434 3.434 0 0 1 -1.019-2.444.61.61 0 0 1 .61-.61.61.61 0 0 1 .61.61 2.227 2.227 0 0 0 .66 1.582 2.227 2.227 0 0 0 1.582.661 2.224 2.224 0 0 0 1.582-.661 2.224 2.224 0 0 0 .661-1.582 3.439 3.439 0 0 1 1.018-2.444 3.437 3.437 0 0 1 2.445-1.018z" transform="translate(13196.804 1237.69)"/><path d="m-3594.977 720.692a3.439 3.439 0 0 1 2.445 1.018 3.437 3.437 0 0 1 1.018 2.444.61.61 0 0 1 -.61.61.61.61 0 0 1 -.61-.61 2.227 2.227 0 0 0 -.661-1.582 2.225 2.225 0 0 0 -1.582-.661 2.226 2.226 0 0 0 -1.582.661 2.229 2.229 0 0 0 -.661 1.582 3.438 3.438 0 0 1 -1.018 2.444 3.437 3.437 0 0 1 -2.444 1.018 3.434 3.434 0 0 1 -2.444-1.018 3.434 3.434 0 0 1 -1.019-2.444.61.61 0 0 1 .61-.61.61.61 0 0 1 .61.61 2.227 2.227 0 0 0 .66 1.582 2.227 2.227 0 0 0 1.582.661 2.224 2.224 0 0 0 1.582-.661 2.224 2.224 0 0 0 .661-1.582 3.439 3.439 0 0 1 1.018-2.444 3.437 3.437 0 0 1 2.445-1.018z" transform="translate(13185.429 1237.69)"/><path d="m-3594.977 720.692a3.439 3.439 0 0 1 2.445 1.018 3.437 3.437 0 0 1 1.018 2.444.61.61 0 0 1 -.61.61.61.61 0 0 1 -.61-.61 2.227 2.227 0 0 0 -.661-1.582 2.225 2.225 0 0 0 -1.582-.661 2.226 2.226 0 0 0 -1.582.661 2.229 2.229 0 0 0 -.661 1.582 3.438 3.438 0 0 1 -1.018 2.444 3.437 3.437 0 0 1 -2.444 1.018 3.434 3.434 0 0 1 -2.444-1.018 3.434 3.434 0 0 1 -1.019-2.444.61.61 0 0 1 .61-.61.61.61 0 0 1 .61.61 2.227 2.227 0 0 0 .66 1.582 2.227 2.227 0 0 0 1.582.661 2.224 2.224 0 0 0 1.582-.661 2.224 2.224 0 0 0 .661-1.582 3.439 3.439 0 0 1 1.018-2.444 3.437 3.437 0 0 1 2.445-1.018z" transform="translate(13174.054 1237.69)"/><path d="m-3594.977 720.692a3.439 3.439 0 0 1 2.445 1.018 3.437 3.437 0 0 1 1.018 2.444.61.61 0 0 1 -.61.61.61.61 0 0 1 -.61-.61 2.227 2.227 0 0 0 -.661-1.582 2.225 2.225 0 0 0 -1.582-.661 2.226 2.226 0 0 0 -1.582.661 2.229 2.229 0 0 0 -.661 1.582 3.438 3.438 0 0 1 -1.018 2.444 3.437 3.437 0 0 1 -2.444 1.018 3.434 3.434 0 0 1 -2.444-1.018 3.434 3.434 0 0 1 -1.019-2.444.61.61 0 0 1 .61-.61.61.61 0 0 1 .61.61 2.227 2.227 0 0 0 .66 1.582 2.227 2.227 0 0 0 1.582.661 2.224 2.224 0 0 0 1.582-.661 2.224 2.224 0 0 0 .661-1.582 3.439 3.439 0 0 1 1.018-2.444 3.437 3.437 0 0 1 2.445-1.018z" transform="translate(13162.679 1237.69)"/><path d="m-3594.977 720.692a3.439 3.439 0 0 1 2.445 1.018 3.437 3.437 0 0 1 1.018 2.444.61.61 0 0 1 -.61.61.61.61 0 0 1 -.61-.61 2.227 2.227 0 0 0 -.661-1.582 2.225 2.225 0 0 0 -1.582-.661 2.226 2.226 0 0 0 -1.582.661 2.229 2.229 0 0 0 -.661 1.582 3.438 3.438 0 0 1 -1.018 2.444 3.437 3.437 0 0 1 -2.444 1.018 3.434 3.434 0 0 1 -2.444-1.018 3.434 3.434 0 0 1 -1.019-2.444.61.61 0 0 1 .61-.61.61.61 0 0 1 .61.61 2.227 2.227 0 0 0 .66 1.582 2.227 2.227 0 0 0 1.582.661 2.224 2.224 0 0 0 1.582-.661 2.224 2.224 0 0 0 .661-1.582 3.439 3.439 0 0 1 1.018-2.444 3.437 3.437 0 0 1 2.445-1.018z" transform="translate(13151.304 1237.69)"/><path d="m-3594.977 720.692a3.439 3.439 0 0 1 2.445 1.018 3.437 3.437 0 0 1 1.018 2.444.61.61 0 0 1 -.61.61.61.61 0 0 1 -.61-.61 2.227 2.227 0 0 0 -.661-1.582 2.225 2.225 0 0 0 -1.582-.661 2.226 2.226 0 0 0 -1.582.661 2.229 2.229 0 0 0 -.661 1.582 3.438 3.438 0 0 1 -1.018 2.444 3.437 3.437 0 0 1 -2.444 1.018 3.434 3.434 0 0 1 -2.444-1.018 3.434 3.434 0 0 1 -1.019-2.444.61.61 0 0 1 .61-.61.61.61 0 0 1 .61.61 2.227 2.227 0 0 0 .66 1.582 2.227 2.227 0 0 0 1.582.661 2.224 2.224 0 0 0 1.582-.661 2.224 2.224 0 0 0 .661-1.582 3.439 3.439 0 0 1 1.018-2.444 3.437 3.437 0 0 1 2.445-1.018z" transform="translate(13139.929 1237.69)"/><path d="m-3594.977 720.692a3.439 3.439 0 0 1 2.445 1.018 3.437 3.437 0 0 1 1.018 2.444.61.61 0 0 1 -.61.61.61.61 0 0 1 -.61-.61 2.227 2.227 0 0 0 -.661-1.582 2.225 2.225 0 0 0 -1.582-.661 2.226 2.226 0 0 0 -1.582.661 2.229 2.229 0 0 0 -.661 1.582 3.438 3.438 0 0 1 -1.018 2.444 3.437 3.437 0 0 1 -2.444 1.018 3.434 3.434 0 0 1 -2.444-1.018 3.434 3.434 0 0 1 -1.019-2.444.61.61 0 0 1 .61-.61.61.61 0 0 1 .61.61 2.227 2.227 0 0 0 .66 1.582 2.227 2.227 0 0 0 1.582.661 2.224 2.224 0 0 0 1.582-.661 2.224 2.224 0 0 0 .661-1.582 3.439 3.439 0 0 1 1.018-2.444 3.437 3.437 0 0 1 2.445-1.018z" transform="translate(13128.553 1237.69)"/><path d="m-3594.977 720.692a3.439 3.439 0 0 1 2.445 1.018 3.437 3.437 0 0 1 1.018 2.444.61.61 0 0 1 -.61.61.61.61 0 0 1 -.61-.61 2.227 2.227 0 0 0 -.661-1.582 2.225 2.225 0 0 0 -1.582-.661 2.226 2.226 0 0 0 -1.582.661 2.229 2.229 0 0 0 -.661 1.582 3.438 3.438 0 0 1 -1.018 2.444 3.437 3.437 0 0 1 -2.444 1.018 3.434 3.434 0 0 1 -2.444-1.018 3.434 3.434 0 0 1 -1.019-2.444.61.61 0 0 1 .61-.61.61.61 0 0 1 .61.61 2.227 2.227 0 0 0 .66 1.582 2.227 2.227 0 0 0 1.582.661 2.224 2.224 0 0 0 1.582-.661 2.224 2.224 0 0 0 .661-1.582 3.439 3.439 0 0 1 1.018-2.444 3.437 3.437 0 0 1 2.445-1.018z" transform="translate(13117.178 1237.69)"/><path d="m-3594.977 720.692a3.439 3.439 0 0 1 2.445 1.018 3.437 3.437 0 0 1 1.018 2.444.61.61 0 0 1 -.61.61.61.61 0 0 1 -.61-.61 2.227 2.227 0 0 0 -.661-1.582 2.225 2.225 0 0 0 -1.582-.661 2.226 2.226 0 0 0 -1.582.661 2.229 2.229 0 0 0 -.661 1.582 3.438 3.438 0 0 1 -1.018 2.444 3.437 3.437 0 0 1 -2.444 1.018 3.434 3.434 0 0 1 -2.444-1.018 3.434 3.434 0 0 1 -1.019-2.444.61.61 0 0 1 .61-.61.61.61 0 0 1 .61.61 2.227 2.227 0 0 0 .66 1.582 2.227 2.227 0 0 0 1.582.661 2.224 2.224 0 0 0 1.582-.661 2.224 2.224 0 0 0 .661-1.582 3.439 3.439 0 0 1 1.018-2.444 3.437 3.437 0 0 1 2.445-1.018z" transform="translate(13105.803 1237.69)"/><path d="m-3594.977 720.692a3.439 3.439 0 0 1 2.445 1.018 3.437 3.437 0 0 1 1.018 2.444.61.61 0 0 1 -.61.61.61.61 0 0 1 -.61-.61 2.227 2.227 0 0 0 -.661-1.582 2.225 2.225 0 0 0 -1.582-.661 2.226 2.226 0 0 0 -1.582.661 2.229 2.229 0 0 0 -.661 1.582 3.438 3.438 0 0 1 -1.018 2.444 3.437 3.437 0 0 1 -2.444 1.018 3.434 3.434 0 0 1 -2.444-1.018 3.434 3.434 0 0 1 -1.019-2.444.61.61 0 0 1 .61-.61.61.61 0 0 1 .61.61 2.227 2.227 0 0 0 .66 1.582 2.227 2.227 0 0 0 1.582.661 2.224 2.224 0 0 0 1.582-.661 2.224 2.224 0 0 0 .661-1.582 3.439 3.439 0 0 1 1.018-2.444 3.437 3.437 0 0 1 2.445-1.018z" transform="translate(13094.428 1237.69)"/><path d="m-3594.977 720.692a3.439 3.439 0 0 1 2.445 1.018 3.437 3.437 0 0 1 1.018 2.444.61.61 0 0 1 -.61.61.61.61 0 0 1 -.61-.61 2.227 2.227 0 0 0 -.661-1.582 2.225 2.225 0 0 0 -1.582-.661 2.226 2.226 0 0 0 -1.582.661 2.229 2.229 0 0 0 -.661 1.582 3.438 3.438 0 0 1 -1.018 2.444 3.437 3.437 0 0 1 -2.444 1.018 3.434 3.434 0 0 1 -2.444-1.018 3.434 3.434 0 0 1 -1.019-2.444.61.61 0 0 1 .61-.61.61.61 0 0 1 .61.61 2.227 2.227 0 0 0 .66 1.582 2.227 2.227 0 0 0 1.582.661 2.224 2.224 0 0 0 1.582-.661 2.224 2.224 0 0 0 .661-1.582 3.439 3.439 0 0 1 1.018-2.444 3.437 3.437 0 0 1 2.445-1.018z" transform="translate(13083.053 1237.69)"/><path d="m-3594.977 720.692a3.439 3.439 0 0 1 2.445 1.018 3.437 3.437 0 0 1 1.018 2.444.61.61 0 0 1 -.61.61.61.61 0 0 1 -.61-.61 2.227 2.227 0 0 0 -.661-1.582 2.225 2.225 0 0 0 -1.582-.661 2.226 2.226 0 0 0 -1.582.661 2.229 2.229 0 0 0 -.661 1.582 3.438 3.438 0 0 1 -1.018 2.444 3.437 3.437 0 0 1 -2.444 1.018 3.434 3.434 0 0 1 -2.444-1.018 3.434 3.434 0 0 1 -1.019-2.444.61.61 0 0 1 .61-.61.61.61 0 0 1 .61.61 2.227 2.227 0 0 0 .66 1.582 2.227 2.227 0 0 0 1.582.661 2.224 2.224 0 0 0 1.582-.661 2.224 2.224 0 0 0 .661-1.582 3.439 3.439 0 0 1 1.018-2.444 3.437 3.437 0 0 1 2.445-1.018z" transform="translate(12838.488 1229.87)"/><path d="m-3594.977 720.692a3.439 3.439 0 0 1 2.445 1.018 3.437 3.437 0 0 1 1.018 2.444.61.61 0 0 1 -.61.61.61.61 0 0 1 -.61-.61 2.227 2.227 0 0 0 -.661-1.582 2.225 2.225 0 0 0 -1.582-.661 2.226 2.226 0 0 0 -1.582.661 2.229 2.229 0 0 0 -.661 1.582 3.438 3.438 0 0 1 -1.018 2.444 3.437 3.437 0 0 1 -2.444 1.018 3.434 3.434 0 0 1 -2.444-1.018 3.434 3.434 0 0 1 -1.019-2.444.61.61 0 0 1 .61-.61.61.61 0 0 1 .61.61 2.227 2.227 0 0 0 .66 1.582 2.227 2.227 0 0 0 1.582.661 2.224 2.224 0 0 0 1.582-.661 2.224 2.224 0 0 0 .661-1.582 3.439 3.439 0 0 1 1.018-2.444 3.437 3.437 0 0 1 2.445-1.018z" transform="translate(12827.113 1229.87)"/><path d="m-3594.977 720.692a3.439 3.439 0 0 1 2.445 1.018 3.437 3.437 0 0 1 1.018 2.444.61.61 0 0 1 -.61.61.61.61 0 0 1 -.61-.61 2.227 2.227 0 0 0 -.661-1.582 2.225 2.225 0 0 0 -1.582-.661 2.226 2.226 0 0 0 -1.582.661 2.229 2.229 0 0 0 -.661 1.582 3.438 3.438 0 0 1 -1.018 2.444 3.437 3.437 0 0 1 -2.444 1.018 3.434 3.434 0 0 1 -2.444-1.018 3.434 3.434 0 0 1 -1.019-2.444.61.61 0 0 1 .61-.61.61.61 0 0 1 .61.61 2.227 2.227 0 0 0 .66 1.582 2.227 2.227 0 0 0 1.582.661 2.224 2.224 0 0 0 1.582-.661 2.224 2.224 0 0 0 .661-1.582 3.439 3.439 0 0 1 1.018-2.444 3.437 3.437 0 0 1 2.445-1.018z" transform="translate(12815.738 1229.87)"/><path d="m-3594.977 720.692a3.439 3.439 0 0 1 2.445 1.018 3.437 3.437 0 0 1 1.018 2.444.61.61 0 0 1 -.61.61.61.61 0 0 1 -.61-.61 2.227 2.227 0 0 0 -.661-1.582 2.225 2.225 0 0 0 -1.582-.661 2.226 2.226 0 0 0 -1.582.661 2.229 2.229 0 0 0 -.661 1.582 3.438 3.438 0 0 1 -1.018 2.444 3.437 3.437 0 0 1 -2.444 1.018 3.434 3.434 0 0 1 -2.444-1.018 3.434 3.434 0 0 1 -1.019-2.444.61.61 0 0 1 .61-.61.61.61 0 0 1 .61.61 2.227 2.227 0 0 0 .66 1.582 2.227 2.227 0 0 0 1.582.661 2.224 2.224 0 0 0 1.582-.661 2.224 2.224 0 0 0 .661-1.582 3.439 3.439 0 0 1 1.018-2.444 3.437 3.437 0 0 1 2.445-1.018z" transform="translate(12804.363 1229.87)"/><path d="m-3594.977 720.692a3.439 3.439 0 0 1 2.445 1.018 3.437 3.437 0 0 1 1.018 2.444.61.61 0 0 1 -.61.61.61.61 0 0 1 -.61-.61 2.227 2.227 0 0 0 -.661-1.582 2.225 2.225 0 0 0 -1.582-.661 2.226 2.226 0 0 0 -1.582.661 2.229 2.229 0 0 0 -.661 1.582 3.438 3.438 0 0 1 -1.018 2.444 3.437 3.437 0 0 1 -2.444 1.018 3.434 3.434 0 0 1 -2.444-1.018 3.434 3.434 0 0 1 -1.019-2.444.61.61 0 0 1 .61-.61.61.61 0 0 1 .61.61 2.227 2.227 0 0 0 .66 1.582 2.227 2.227 0 0 0 1.582.661 2.224 2.224 0 0 0 1.582-.661 2.224 2.224 0 0 0 .661-1.582 3.439 3.439 0 0 1 1.018-2.444 3.437 3.437 0 0 1 2.445-1.018z" transform="translate(12792.987 1229.87)"/></g><path d="m-3353.4 300.018a.519.519 0 0 1 -.519-.519v-4.3a.519.519 0 0 1 .519-.519h4.3a.519.519 0 0 1 .519.519v4.3a.519.519 0 0 1 -.519.519zm0 1.6h4.3a2.12 2.12 0 0 0 2.117-2.117v-4.3a2.12 2.12 0 0 0 -2.117-2.117h-4.3a2.12 2.12 0 0 0 -2.118 2.117v4.3a2.12 2.12 0 0 0 2.118 2.117z" fill="#6da4bc" transform="translate(12573.504 1931.851)"/><path d="m-4627.212 521.077a4.168 4.168 0 0 1 -4.168-4.168v-34.484a4.168 4.168 0 0 1 4.168-4.168h34.483a4.169 4.169 0 0 1 4.169 4.168v34.484a4.169 4.169 0 0 1 -4.169 4.168zm0 1.6h34.483a5.777 5.777 0 0 0 5.772-5.771v-34.481a5.777 5.777 0 0 0 -5.772-5.771h-34.483a5.778 5.778 0 0 0 -5.771 5.771v34.484a5.778 5.778 0 0 0 5.771 5.771z" fill="#6da4bc" transform="translate(13898.586 1714.134)"/><rect fill="#6da4bc" height="15" rx="2" width="15" x="9416.46" y="1992"/><path d="m-4624.544 541.618a6.1 6.1 0 0 1 -6.095-6.1v-50.424a6.1 6.1 0 0 1 6.095-6.1h50.429a6.1 6.1 0 0 1 6.1 6.1v50.429a6.1 6.1 0 0 1 -6.1 6.1h-50.429m0 2.344h50.429a8.449 8.449 0 0 0 8.44-8.44v-50.433a8.449 8.449 0 0 0 -8.44-8.44h-50.429a8.449 8.449 0 0 0 -8.439 8.44v50.429a8.45 8.45 0 0 0 8.439 8.44z" fill="#0c678f" transform="translate(14091.986 1768.189)"/><path d="m-995.491 429.777a28.382 28.382 0 0 1 20.185 8.407 28.382 28.382 0 0 1 8.407 20.185 5.037 5.037 0 0 1 -5.037 5.037 5.037 5.037 0 0 1 -5.037-5.037 18.374 18.374 0 0 0 -5.456-13.061 18.374 18.374 0 0 0 -13.061-5.456 18.375 18.375 0 0 0 -13.062 5.456 18.375 18.375 0 0 0 -5.456 13.061 5.037 5.037 0 0 1 -5.037 5.037 5.037 5.037 0 0 1 -5.037-5.037 28.381 28.381 0 0 1 8.407-20.185 28.382 28.382 0 0 1 20.184-8.407z" fill="#0c678f" transform="translate(10153.46 1568.123)"/><path d="m13.146 7.713a5 5 0 0 1 8.708 0l8.936 15.829a5 5 0 0 1 -4.354 7.458h-17.872a5 5 0 0 1 -4.354-7.458z" fill="#0c678f" transform="translate(9480.46 2128)"/><path d="m-3312.74 433.144a10.491 10.491 0 0 1 -10.491-10.491v-86.8a10.491 10.491 0 0 1 10.491-10.491h86.8a10.492 10.492 0 0 1 10.491 10.491v86.8a10.492 10.492 0 0 1 -10.491 10.491zm0 32.28h86.8a42.821 42.821 0 0 0 42.772-42.772v-86.8a42.821 42.821 0 0 0 -42.772-42.772h-86.8a42.821 42.821 0 0 0 -42.772 42.772v86.8a42.821 42.821 0 0 0 42.772 42.772z" fill="#0c678f" transform="translate(12562.789 1690.08)"/><path d="m-3353.4 300.018a.519.519 0 0 1 -.519-.519v-4.3a.519.519 0 0 1 .519-.519h4.3a.519.519 0 0 1 .519.519v4.3a.519.519 0 0 1 -.519.519zm0 1.6h4.3a2.12 2.12 0 0 0 2.117-2.117v-4.3a2.12 2.12 0 0 0 -2.117-2.117h-4.3a2.12 2.12 0 0 0 -2.118 2.117v4.3a2.12 2.12 0 0 0 2.118 2.117z" fill="#0c678f" transform="translate(12761.906 1829.476)"/><path d="m-4003.107 480.653a4.3 4.3 0 0 1 -4.295-4.295v-35.531a4.3 4.3 0 0 1 4.295-4.295h35.531a4.3 4.3 0 0 1 4.295 4.295v35.531a4.3 4.3 0 0 1 -4.295 4.295zm0 6.607h35.531a10.914 10.914 0 0 0 10.9-10.9v-35.533a10.914 10.914 0 0 0 -10.9-10.9h-35.531a10.914 10.914 0 0 0 -10.9 10.9v35.531a10.914 10.914 0 0 0 10.9 10.9z" fill="#6da4bc" transform="translate(13143.387 1676.535)"/><path d="m-3594.977 720.692a3.439 3.439 0 0 1 2.445 1.018 3.437 3.437 0 0 1 1.018 2.444.61.61 0 0 1 -.61.61.61.61 0 0 1 -.61-.61 2.227 2.227 0 0 0 -.661-1.582 2.225 2.225 0 0 0 -1.582-.661 2.226 2.226 0 0 0 -1.582.661 2.229 2.229 0 0 0 -.661 1.582 3.438 3.438 0 0 1 -1.018 2.444 3.437 3.437 0 0 1 -2.444 1.018 3.434 3.434 0 0 1 -2.444-1.018 3.434 3.434 0 0 1 -1.019-2.444.61.61 0 0 1 .61-.61.61.61 0 0 1 .61.61 2.227 2.227 0 0 0 .66 1.582 2.227 2.227 0 0 0 1.582.661 2.224 2.224 0 0 0 1.582-.661 2.224 2.224 0 0 0 .661-1.582 3.439 3.439 0 0 1 1.018-2.444 3.437 3.437 0 0 1 2.445-1.018z" fill="#0c678f" transform="translate(13070.966 1355.707)"/><path d="m-3594.977 720.692a3.439 3.439 0 0 1 2.445 1.018 3.437 3.437 0 0 1 1.018 2.444.61.61 0 0 1 -.61.61.61.61 0 0 1 -.61-.61 2.227 2.227 0 0 0 -.661-1.582 2.225 2.225 0 0 0 -1.582-.661 2.226 2.226 0 0 0 -1.582.661 2.229 2.229 0 0 0 -.661 1.582 3.438 3.438 0 0 1 -1.018 2.444 3.437 3.437 0 0 1 -2.444 1.018 3.434 3.434 0 0 1 -2.444-1.018 3.434 3.434 0 0 1 -1.019-2.444.61.61 0 0 1 .61-.61.61.61 0 0 1 .61.61 2.227 2.227 0 0 0 .66 1.582 2.227 2.227 0 0 0 1.582.661 2.224 2.224 0 0 0 1.582-.661 2.224 2.224 0 0 0 .661-1.582 3.439 3.439 0 0 1 1.018-2.444 3.437 3.437 0 0 1 2.445-1.018z" fill="#0c678f" transform="translate(13059.591 1355.707)"/><path d="m-3594.977 720.692a3.439 3.439 0 0 1 2.445 1.018 3.437 3.437 0 0 1 1.018 2.444.61.61 0 0 1 -.61.61.61.61 0 0 1 -.61-.61 2.227 2.227 0 0 0 -.661-1.582 2.225 2.225 0 0 0 -1.582-.661 2.226 2.226 0 0 0 -1.582.661 2.229 2.229 0 0 0 -.661 1.582 3.438 3.438 0 0 1 -1.018 2.444 3.437 3.437 0 0 1 -2.444 1.018 3.434 3.434 0 0 1 -2.444-1.018 3.434 3.434 0 0 1 -1.019-2.444.61.61 0 0 1 .61-.61.61.61 0 0 1 .61.61 2.227 2.227 0 0 0 .66 1.582 2.227 2.227 0 0 0 1.582.661 2.224 2.224 0 0 0 1.582-.661 2.224 2.224 0 0 0 .661-1.582 3.439 3.439 0 0 1 1.018-2.444 3.437 3.437 0 0 1 2.445-1.018z" fill="#0c678f" transform="translate(13048.216 1355.707)"/><path d="m-3594.977 720.692a3.439 3.439 0 0 1 2.445 1.018 3.437 3.437 0 0 1 1.018 2.444.61.61 0 0 1 -.61.61.61.61 0 0 1 -.61-.61 2.227 2.227 0 0 0 -.661-1.582 2.225 2.225 0 0 0 -1.582-.661 2.226 2.226 0 0 0 -1.582.661 2.229 2.229 0 0 0 -.661 1.582 3.438 3.438 0 0 1 -1.018 2.444 3.437 3.437 0 0 1 -2.444 1.018 3.434 3.434 0 0 1 -2.444-1.018 3.434 3.434 0 0 1 -1.019-2.444.61.61 0 0 1 .61-.61.61.61 0 0 1 .61.61 2.227 2.227 0 0 0 .66 1.582 2.227 2.227 0 0 0 1.582.661 2.224 2.224 0 0 0 1.582-.661 2.224 2.224 0 0 0 .661-1.582 3.439 3.439 0 0 1 1.018-2.444 3.437 3.437 0 0 1 2.445-1.018z" fill="#0c678f" transform="translate(13036.841 1355.707)"/><path d="m-3594.977 720.692a3.439 3.439 0 0 1 2.445 1.018 3.437 3.437 0 0 1 1.018 2.444.61.61 0 0 1 -.61.61.61.61 0 0 1 -.61-.61 2.227 2.227 0 0 0 -.661-1.582 2.225 2.225 0 0 0 -1.582-.661 2.226 2.226 0 0 0 -1.582.661 2.229 2.229 0 0 0 -.661 1.582 3.438 3.438 0 0 1 -1.018 2.444 3.437 3.437 0 0 1 -2.444 1.018 3.434 3.434 0 0 1 -2.444-1.018 3.434 3.434 0 0 1 -1.019-2.444.61.61 0 0 1 .61-.61.61.61 0 0 1 .61.61 2.227 2.227 0 0 0 .66 1.582 2.227 2.227 0 0 0 1.582.661 2.224 2.224 0 0 0 1.582-.661 2.224 2.224 0 0 0 .661-1.582 3.439 3.439 0 0 1 1.018-2.444 3.437 3.437 0 0 1 2.445-1.018z" fill="#0c678f" transform="translate(13025.465 1355.707)"/><path d="m-3350.219 310.418a1.3 1.3 0 0 1 -1.3-1.3v-10.741a1.3 1.3 0 0 1 1.3-1.3h10.742a1.3 1.3 0 0 1 1.3 1.3v10.742a1.3 1.3 0 0 1 -1.3 1.3h-10.742m0 4h10.742a5.3 5.3 0 0 0 5.293-5.293v-10.749a5.3 5.3 0 0 0 -5.293-5.293h-10.742a5.3 5.3 0 0 0 -5.293 5.293v10.742a5.3 5.3 0 0 0 5.293 5.293z" fill="#0c678f" transform="translate(12714.982 1643.209)"/><rect fill="#6da4bc" height="49" rx="10" width="47" x="9497.46" y="2016"/></g></svg>