<svg height="546.777" viewBox="0 0 667.405 546.777" width="667.405" xmlns="http://www.w3.org/2000/svg"><path d="m-402.23 483.907a119.711 119.711 0 0 0 85.135-35.459 119.709 119.709 0 0 0 35.459-85.135 119.711 119.711 0 0 0 -35.459-85.135 119.711 119.711 0 0 0 -85.135-35.459 21.245 21.245 0 0 0 -21.245 21.245 21.244 21.244 0 0 0 21.245 21.245 77.5 77.5 0 0 1 55.091 23.014 77.5 77.5 0 0 1 23.014 55.091 77.5 77.5 0 0 1 -23.014 55.086 77.5 77.5 0 0 1 -55.091 23.014 77.5 77.5 0 0 1 -55.09-23.014 77.5 77.5 0 0 1 -23.014-55.091 21.245 21.245 0 0 0 -21.245-21.245 21.245 21.245 0 0 0 -21.245 21.245 119.71 119.71 0 0 0 35.459 85.135 119.711 119.711 0 0 0 85.135 35.463z" fill="#09445f" transform="translate(711.017 -84.747)"/><path d="m-1402.213 577.811a22.173 22.173 0 0 1 -22.172-22.173 22.172 22.172 0 0 1 22.172-22.172 82.083 82.083 0 0 0 57.641-23.875 82.085 82.085 0 0 0 23.872-57.641 22.173 22.173 0 0 1 22.172-22.173 22.172 22.172 0 0 1 22.172 22.173 125.238 125.238 0 0 1 -9.583 48.164 125.239 125.239 0 0 1 -27.281 40.833 125.229 125.229 0 0 1 -40.833 27.28 125.228 125.228 0 0 1 -48.16 9.584z" fill="#00a6f0" transform="translate(1424.385 -184.243)"/><path d="m-959.375 505.885a64.234 64.234 0 0 0 45.682-19.027 64.234 64.234 0 0 0 19.026-45.682 11.4 11.4 0 0 0 -11.4-11.4 11.4 11.4 0 0 0 -11.4 11.4 41.585 41.585 0 0 1 -12.349 29.561 41.585 41.585 0 0 1 -29.561 12.349 41.585 41.585 0 0 1 -29.56-12.349 41.585 41.585 0 0 1 -12.349-29.561 11.4 11.4 0 0 0 -11.4-11.4 11.4 11.4 0 0 0 -11.4 11.4 64.234 64.234 0 0 0 19.026 45.682 64.234 64.234 0 0 0 45.685 19.027z" fill="#09445f" transform="translate(1471.411 29.121)"/><path d="m29.292 0a29.407 29.407 0 0 0 -29.292 29.292 5.16 5.16 0 1 0 10.32 0 18.924 18.924 0 0 1 32.354-13.381 18.825 18.825 0 0 1 5.59 13.382 5.16 5.16 0 0 0 10.321 0 29.407 29.407 0 0 0 -29.293-29.293z" fill="#1ba6f0" transform="translate(274.777 68.565)"/><path d="m81.437 0a81.285 81.285 0 0 0 -57.477 138.913 80.831 80.831 0 0 0 57.477 23.96 4.133 4.133 0 0 0 0-8.265 73.02 73.02 0 0 1 -51.637-124.808 73.172 73.172 0 0 1 124.8 51.632 4.133 4.133 0 0 0 8.265 0 81.805 81.805 0 0 0 -81.428-81.432z" fill="#00a6f0" transform="matrix(0 -1 1 0 106.388 546.777)"/><path d="m81.437 0a81.285 81.285 0 0 0 -57.477 138.913 80.831 80.831 0 0 0 57.477 23.96 4.133 4.133 0 0 0 0-8.265 73.02 73.02 0 0 1 -51.637-124.808 73.172 73.172 0 0 1 124.8 51.632 4.133 4.133 0 0 0 8.265 0 81.805 81.805 0 0 0 -81.428-81.432z" fill="#1ba6f0" transform="matrix(0 -1 1 0 397.53 162.873)"/><path d="m-3592.3 729.637a4.441 4.441 0 0 0 3.158-1.315 4.439 4.439 0 0 0 1.315-3.158.787.787 0 0 0 -.788-.788.788.788 0 0 0 -.788.788 2.873 2.873 0 0 1 -.854 2.043 2.875 2.875 0 0 1 -2.043.854 2.874 2.874 0 0 1 -2.043-.854 2.875 2.875 0 0 1 -.854-2.043 4.44 4.44 0 0 0 -1.315-3.157 4.44 4.44 0 0 0 -3.157-1.315 4.442 4.442 0 0 0 -3.158 1.315 4.441 4.441 0 0 0 -1.315 3.157.788.788 0 0 0 .788.788.787.787 0 0 0 .787-.788 2.875 2.875 0 0 1 .854-2.043 2.874 2.874 0 0 1 2.043-.853 2.874 2.874 0 0 1 2.043.853 2.875 2.875 0 0 1 .854 2.043 4.439 4.439 0 0 0 1.315 3.158 4.439 4.439 0 0 0 3.158 1.315z" fill="#09445f" transform="translate(4142.508 -504.126)"/><path d="m-3592.3 729.637a4.441 4.441 0 0 0 3.158-1.315 4.439 4.439 0 0 0 1.315-3.158.787.787 0 0 0 -.788-.788.788.788 0 0 0 -.788.788 2.873 2.873 0 0 1 -.854 2.043 2.875 2.875 0 0 1 -2.043.854 2.874 2.874 0 0 1 -2.043-.854 2.875 2.875 0 0 1 -.854-2.043 4.44 4.44 0 0 0 -1.315-3.157 4.44 4.44 0 0 0 -3.157-1.315 4.442 4.442 0 0 0 -3.158 1.315 4.441 4.441 0 0 0 -1.315 3.157.788.788 0 0 0 .788.788.787.787 0 0 0 .787-.788 2.875 2.875 0 0 1 .854-2.043 2.874 2.874 0 0 1 2.043-.853 2.874 2.874 0 0 1 2.043.853 2.875 2.875 0 0 1 .854 2.043 4.439 4.439 0 0 0 1.315 3.158 4.439 4.439 0 0 0 3.158 1.315z" fill="#09445f" transform="translate(4127.813 -504.126)"/><path d="m-3592.3 729.637a4.441 4.441 0 0 0 3.158-1.315 4.439 4.439 0 0 0 1.315-3.158.787.787 0 0 0 -.788-.788.788.788 0 0 0 -.788.788 2.873 2.873 0 0 1 -.854 2.043 2.875 2.875 0 0 1 -2.043.854 2.874 2.874 0 0 1 -2.043-.854 2.875 2.875 0 0 1 -.854-2.043 4.44 4.44 0 0 0 -1.315-3.157 4.44 4.44 0 0 0 -3.157-1.315 4.442 4.442 0 0 0 -3.158 1.315 4.441 4.441 0 0 0 -1.315 3.157.788.788 0 0 0 .788.788.787.787 0 0 0 .787-.788 2.875 2.875 0 0 1 .854-2.043 2.874 2.874 0 0 1 2.043-.853 2.874 2.874 0 0 1 2.043.853 2.875 2.875 0 0 1 .854 2.043 4.439 4.439 0 0 0 1.315 3.158 4.439 4.439 0 0 0 3.158 1.315z" fill="#09445f" transform="translate(4113.118 -504.126)"/><path d="m-3592.3 729.637a4.441 4.441 0 0 0 3.158-1.315 4.439 4.439 0 0 0 1.315-3.158.787.787 0 0 0 -.788-.788.788.788 0 0 0 -.788.788 2.873 2.873 0 0 1 -.854 2.043 2.875 2.875 0 0 1 -2.043.854 2.874 2.874 0 0 1 -2.043-.854 2.875 2.875 0 0 1 -.854-2.043 4.44 4.44 0 0 0 -1.315-3.157 4.44 4.44 0 0 0 -3.157-1.315 4.442 4.442 0 0 0 -3.158 1.315 4.441 4.441 0 0 0 -1.315 3.157.788.788 0 0 0 .788.788.787.787 0 0 0 .787-.788 2.875 2.875 0 0 1 .854-2.043 2.874 2.874 0 0 1 2.043-.853 2.874 2.874 0 0 1 2.043.853 2.875 2.875 0 0 1 .854 2.043 4.439 4.439 0 0 0 1.315 3.158 4.439 4.439 0 0 0 3.158 1.315z" fill="#09445f" transform="translate(4098.424 -504.126)"/><path d="m-3592.3 729.637a4.441 4.441 0 0 0 3.158-1.315 4.439 4.439 0 0 0 1.315-3.158.787.787 0 0 0 -.788-.788.788.788 0 0 0 -.788.788 2.873 2.873 0 0 1 -.854 2.043 2.875 2.875 0 0 1 -2.043.854 2.874 2.874 0 0 1 -2.043-.854 2.875 2.875 0 0 1 -.854-2.043 4.44 4.44 0 0 0 -1.315-3.157 4.44 4.44 0 0 0 -3.157-1.315 4.442 4.442 0 0 0 -3.158 1.315 4.441 4.441 0 0 0 -1.315 3.157.788.788 0 0 0 .788.788.787.787 0 0 0 .787-.788 2.875 2.875 0 0 1 .854-2.043 2.874 2.874 0 0 1 2.043-.853 2.874 2.874 0 0 1 2.043.853 2.875 2.875 0 0 1 .854 2.043 4.439 4.439 0 0 0 1.315 3.158 4.439 4.439 0 0 0 3.158 1.315z" fill="#09445f" transform="translate(4083.729 -504.126)"/><g fill="#00a6f0"><path d="m-3592.3 729.637a4.441 4.441 0 0 0 3.158-1.315 4.439 4.439 0 0 0 1.315-3.158.787.787 0 0 0 -.788-.788.788.788 0 0 0 -.788.788 2.873 2.873 0 0 1 -.854 2.043 2.875 2.875 0 0 1 -2.043.854 2.874 2.874 0 0 1 -2.043-.854 2.875 2.875 0 0 1 -.854-2.043 4.44 4.44 0 0 0 -1.315-3.157 4.44 4.44 0 0 0 -3.157-1.315 4.442 4.442 0 0 0 -3.158 1.315 4.441 4.441 0 0 0 -1.315 3.157.788.788 0 0 0 .788.788.787.787 0 0 0 .787-.788 2.875 2.875 0 0 1 .854-2.043 2.874 2.874 0 0 1 2.043-.853 2.874 2.874 0 0 1 2.043.853 2.875 2.875 0 0 1 .854 2.043 4.439 4.439 0 0 0 1.315 3.158 4.439 4.439 0 0 0 3.158 1.315z" transform="translate(3723.705 -639.135)"/><path d="m-3592.3 729.637a4.441 4.441 0 0 0 3.158-1.315 4.439 4.439 0 0 0 1.315-3.158.787.787 0 0 0 -.788-.788.788.788 0 0 0 -.788.788 2.873 2.873 0 0 1 -.854 2.043 2.875 2.875 0 0 1 -2.043.854 2.874 2.874 0 0 1 -2.043-.854 2.875 2.875 0 0 1 -.854-2.043 4.44 4.44 0 0 0 -1.315-3.157 4.44 4.44 0 0 0 -3.157-1.315 4.442 4.442 0 0 0 -3.158 1.315 4.441 4.441 0 0 0 -1.315 3.157.788.788 0 0 0 .788.788.787.787 0 0 0 .787-.788 2.875 2.875 0 0 1 .854-2.043 2.874 2.874 0 0 1 2.043-.853 2.874 2.874 0 0 1 2.043.853 2.875 2.875 0 0 1 .854 2.043 4.439 4.439 0 0 0 1.315 3.158 4.439 4.439 0 0 0 3.158 1.315z" transform="translate(3709.01 -639.135)"/><path d="m-3592.3 729.637a4.441 4.441 0 0 0 3.158-1.315 4.439 4.439 0 0 0 1.315-3.158.787.787 0 0 0 -.788-.788.788.788 0 0 0 -.788.788 2.873 2.873 0 0 1 -.854 2.043 2.875 2.875 0 0 1 -2.043.854 2.874 2.874 0 0 1 -2.043-.854 2.875 2.875 0 0 1 -.854-2.043 4.44 4.44 0 0 0 -1.315-3.157 4.44 4.44 0 0 0 -3.157-1.315 4.442 4.442 0 0 0 -3.158 1.315 4.441 4.441 0 0 0 -1.315 3.157.788.788 0 0 0 .788.788.787.787 0 0 0 .787-.788 2.875 2.875 0 0 1 .854-2.043 2.874 2.874 0 0 1 2.043-.853 2.874 2.874 0 0 1 2.043.853 2.875 2.875 0 0 1 .854 2.043 4.439 4.439 0 0 0 1.315 3.158 4.439 4.439 0 0 0 3.158 1.315z" transform="translate(3694.315 -639.135)"/><path d="m-3592.3 729.637a4.441 4.441 0 0 0 3.158-1.315 4.439 4.439 0 0 0 1.315-3.158.787.787 0 0 0 -.788-.788.788.788 0 0 0 -.788.788 2.873 2.873 0 0 1 -.854 2.043 2.875 2.875 0 0 1 -2.043.854 2.874 2.874 0 0 1 -2.043-.854 2.875 2.875 0 0 1 -.854-2.043 4.44 4.44 0 0 0 -1.315-3.157 4.44 4.44 0 0 0 -3.157-1.315 4.442 4.442 0 0 0 -3.158 1.315 4.441 4.441 0 0 0 -1.315 3.157.788.788 0 0 0 .788.788.787.787 0 0 0 .787-.788 2.875 2.875 0 0 1 .854-2.043 2.874 2.874 0 0 1 2.043-.853 2.874 2.874 0 0 1 2.043.853 2.875 2.875 0 0 1 .854 2.043 4.439 4.439 0 0 0 1.315 3.158 4.439 4.439 0 0 0 3.158 1.315z" transform="translate(3679.621 -639.135)"/><path d="m-3592.3 729.637a4.441 4.441 0 0 0 3.158-1.315 4.439 4.439 0 0 0 1.315-3.158.787.787 0 0 0 -.788-.788.788.788 0 0 0 -.788.788 2.873 2.873 0 0 1 -.854 2.043 2.875 2.875 0 0 1 -2.043.854 2.874 2.874 0 0 1 -2.043-.854 2.875 2.875 0 0 1 -.854-2.043 4.44 4.44 0 0 0 -1.315-3.157 4.44 4.44 0 0 0 -3.157-1.315 4.442 4.442 0 0 0 -3.158 1.315 4.441 4.441 0 0 0 -1.315 3.157.788.788 0 0 0 .788.788.787.787 0 0 0 .787-.788 2.875 2.875 0 0 1 .854-2.043 2.874 2.874 0 0 1 2.043-.853 2.874 2.874 0 0 1 2.043.853 2.875 2.875 0 0 1 .854 2.043 4.439 4.439 0 0 0 1.315 3.158 4.439 4.439 0 0 0 3.158 1.315z" transform="translate(3664.926 -639.135)"/><rect height="21.124" rx="10.562" width="101.946" x="404.275" y="398.241"/></g><rect fill="#1ba6f0" height="43.166" rx="21.583" transform="matrix(0 1 -1 0 667.405 25.818)" width="112.048"/><rect fill="#09445f" height="24.798" rx="12.399" width="188.278" x="22.209" y="133.734"/><g fill="none" stroke="#1ba6f0" stroke-width="2"><ellipse cx="519.998" cy="319.256" rx="24.798" ry="24.798" stroke="none"/><ellipse cx="519.998" cy="319.256" fill="none" rx="23.798" ry="23.798"/></g><g fill="none" stroke="#1ba6f0" stroke-width="8"><ellipse cx="645.362" cy="443.703" rx="21.583" ry="21.583" stroke="none"/><ellipse cx="645.362" cy="443.703" fill="none" rx="17.583" ry="17.583"/></g><g fill="none" stroke="#1ba6f0" stroke-width="8"><ellipse cx="61.242" cy="211.341" rx="21.583" ry="21.583" stroke="none"/><ellipse cx="61.242" cy="211.341" fill="none" rx="17.583" ry="17.583"/></g><g fill="none" stroke="#09445f" stroke-width="2"><ellipse cx="606.33" cy="360.586" rx="5.511" ry="5.511" stroke="none"/><ellipse cx="606.33" cy="360.586" fill="none" rx="4.511" ry="4.511"/></g><g fill="none" stroke="#1ba6f0" stroke-width="2"><ellipse cx="343.659" cy="467.124" rx="5.511" ry="5.511" stroke="none"/><ellipse cx="343.659" cy="467.124" fill="none" rx="4.511" ry="4.511"/></g></svg>